<svg width="75" height="75" viewBox="0 0 75 75" fill="none" xmlns="http://www.w3.org/2000/svg">
<path d="M47.7273 27.5898C47.4206 27.5883 47.1108 27.6018 46.7973 27.6296C43.3151 27.6123 40.1021 29.4086 37.9473 32.0621H49.6916C49.6474 30.6197 49.5468 29.1796 49.3901 27.7451C48.8413 27.6458 48.285 27.5939 47.7273 27.5898ZM52.8963 29.0973C52.9713 30.0738 53.0291 31.0608 53.0561 32.0621H56.1078C55.2183 30.8801 54.1353 29.8623 52.8963 29.0973ZM35.9838 35.4371C35.7435 36.0727 35.5605 36.7286 35.437 37.3968V42.0093C35.716 43.5296 36.3438 44.8968 37.2145 46.0848C40.9886 46.3008 44.5796 46.8648 47.8886 47.7288C48.9183 44.0193 49.5603 39.8538 49.6916 35.4371H35.9838ZM35.437 42.0093C35.4093 41.8563 35.3935 41.6996 35.3725 41.5443C35.3935 41.6996 35.4093 41.8571 35.437 42.0093ZM53.0576 35.4371C52.9271 40.1771 52.2536 44.6621 51.1271 48.7001C51.865 48.954 52.5958 49.2284 53.3186 49.5228C54.1101 49.0328 54.8283 48.4331 55.4516 47.7416C59.0411 44.5361 59.5211 39.6146 57.9543 35.4371H53.0576ZM35.2585 38.8398C35.251 38.9748 35.2495 39.1098 35.248 39.2456C35.2503 39.1106 35.2503 38.9741 35.2585 38.8398ZM42.2591 50.0178C43.6976 50.6364 45.2332 50.9989 46.7966 51.0888C46.8138 51.0438 46.8318 51.0018 46.8483 50.9568C45.334 50.5714 43.8031 50.258 42.2591 50.0178Z" fill="white"/>
<path d="M49.5963 20.6213C44.7798 19.9688 39.7151 21.1478 35.5563 24.3151C27.2388 30.6481 25.621 42.5896 31.9548 50.9071C37.8836 58.6921 48.7098 60.5694 56.8923 55.5849L58.4546 57.6369C58.3025 57.9906 58.2309 58.3411 58.2446 58.6641C58.2584 58.987 58.3571 59.2748 58.5341 59.5074L69.8741 74.3986C70.1983 74.8242 70.7638 75.0384 71.4462 74.9943C72.1286 74.9501 72.8721 74.6512 73.5131 74.1631C73.8306 73.9214 74.1134 73.6405 74.3454 73.3365C74.5773 73.0325 74.7538 72.7113 74.8648 72.3913C74.9759 72.0712 75.0192 71.7587 74.9924 71.4714C74.9656 71.1841 74.8692 70.9277 74.7086 70.7169L63.3686 55.8256C63.1914 55.5932 62.9403 55.4216 62.6326 55.3225C62.3249 55.2235 61.968 55.1994 61.5866 55.2519L60.0236 53.1991C67.0061 46.6366 68.0764 35.7016 62.1483 27.9166C58.9811 23.7571 54.4128 21.2738 49.5963 20.6213ZM49.0338 24.7741C50.9558 25.0336 52.8075 25.6705 54.4825 26.6482C56.1575 27.6259 57.6226 28.9251 58.7936 30.4711C59.9718 32.0115 60.8342 33.7694 61.3312 35.6439C61.8282 37.5184 61.9501 39.4727 61.6898 41.3944C61.4295 43.3162 60.7922 45.1676 59.8145 46.8424C58.8367 48.5172 57.5378 49.9824 55.9923 51.1539C54.452 52.332 52.6941 53.1942 50.8197 53.6912C48.9452 54.1881 46.9911 54.3099 45.0694 54.0497C43.1477 53.7894 41.2964 53.1521 39.6216 52.1745C37.9469 51.1968 36.4818 49.898 35.3103 48.3526C34.1322 46.8123 33.2698 45.0545 32.7728 43.1801C32.2758 41.3056 32.1539 39.3515 32.4141 37.4298C32.6744 35.5082 33.3115 33.6568 34.2891 31.9821C35.2667 30.3073 36.5655 28.8421 38.1108 27.6706C39.6507 26.4916 41.4085 25.6287 43.2831 25.1316C45.1577 24.6345 47.1121 24.513 49.0338 24.7741Z" fill="white"/>
<path d="M33.7501 0C15.1305 0 0 15.1305 0 33.75C0 52.3695 15.1305 67.5 33.7501 67.5C41.8666 67.5 49.3178 64.6245 55.1423 59.8388C52.3583 61.0268 49.3748 61.5015 46.4063 61.3635C45.6691 61.7018 44.9213 62.022 44.1533 62.301C44.4548 61.9688 44.7481 61.6185 45.0368 61.26C43.7435 61.1166 42.4648 60.8626 41.2148 60.501C39.4148 62.3468 37.4543 63.522 35.4376 63.9435V57.9623C34.2382 57.2312 33.1085 56.3917 32.0625 55.4543V63.9435C28.62 63.2235 25.3425 60.3248 22.7445 55.6073C21.9705 54.2003 21.2693 52.6403 20.652 50.9573C22.9185 50.3806 25.2223 49.9621 27.5468 49.7048C27.1507 48.9604 26.8042 48.1907 26.5095 47.4008C26.3768 47.0933 26.2613 46.7828 26.1458 46.4723C23.9433 46.7534 21.7607 47.1732 19.611 47.7293C18.5813 44.0198 17.9393 39.8543 17.808 35.4375H25.4235C25.6651 34.2887 25.9953 33.1603 26.4113 32.0625H17.8088C17.9393 27.6435 18.5813 23.4773 19.6125 19.7663C23.4368 20.7623 27.6375 21.36 32.0625 21.4823V23.4435C35.6716 19.9283 40.3906 17.6108 45.6076 17.4608C48.0121 17.37 50.4308 17.5785 52.7566 18.2078C54.2944 17.6182 55.7907 16.9259 57.2356 16.1355C57.5401 15.9675 57.8341 15.7905 58.1281 15.615C59.9409 18.0519 61.377 20.7475 62.3881 23.6115C64.5743 25.8413 66.2791 28.5623 67.4108 31.5075C66.2521 13.9328 51.6143 0 33.7501 0ZM32.0625 3.5565V18.114C27.99 17.994 24.135 17.436 20.6513 16.5428C21.2693 14.8598 21.9705 13.2998 22.7445 11.8928C25.3425 7.17525 28.6208 4.2765 32.0625 3.5565ZM35.4376 3.5565C38.8801 4.2765 42.1576 7.17525 44.7556 11.8928C45.5296 13.2998 46.2308 14.8598 46.8481 16.5428C43.3643 17.436 39.5101 17.9933 35.4376 18.114V3.5565ZM23.3468 5.199C22.0275 6.654 20.8343 8.36325 19.7873 10.2645C18.8918 11.8905 18.0968 13.6725 17.4053 15.5775C15.39 14.889 13.5368 14.0828 11.8928 13.1775C11.7803 13.116 11.6753 13.053 11.565 12.99C14.8251 9.50276 18.8616 6.83352 23.3468 5.199ZM44.1533 5.199C48.6388 6.83341 52.6756 9.50267 55.9358 12.99C55.8248 13.053 55.7198 13.116 55.6073 13.1775C53.9626 14.0835 52.1093 14.8905 50.0933 15.5783C49.4033 13.6733 48.6083 11.8905 47.7128 10.2645C46.6658 8.36325 45.4726 6.654 44.1533 5.199ZM9.37201 15.615C9.66601 15.7905 9.96001 15.9675 10.2645 16.1355C12.114 17.154 14.1623 18.0458 16.368 18.7973C15.2385 22.8353 14.5605 27.3203 14.43 32.0625H3.42301C3.74239 26.1137 5.812 20.3917 9.37201 15.615ZM3.42301 35.4375H14.43C14.5605 40.179 15.2385 44.664 16.368 48.702C14.163 49.4543 12.114 50.346 10.2645 51.3645C9.96408 51.5324 9.66654 51.7054 9.37201 51.8835C5.81199 47.1074 3.74237 41.3859 3.42301 35.4375ZM17.4053 51.9225C18.0968 53.8275 18.8918 55.6095 19.7873 57.2355C20.8343 59.1368 22.0275 60.846 23.3468 62.301C18.8613 60.6666 14.8245 57.9974 11.5643 54.51C11.6753 54.447 11.7803 54.384 11.8928 54.3225C13.5368 53.4173 15.39 52.611 17.4053 51.9225Z" fill="white"/>
</svg>
