<svg width="277" height="56" viewBox="0 0 277 56" fill="none" xmlns="http://www.w3.org/2000/svg">
<path fill-rule="evenodd" clip-rule="evenodd" d="M60.1856 48.4842C62.6487 47.5518 64.9354 46.1936 67.0132 44.3851C69.0994 42.5923 70.7767 40.3815 72.0599 37.7768C73.3279 35.1804 73.9778 32.198 73.9778 28.8377C73.9778 24.9228 73.0071 21.3533 71.0975 18.1621C69.1796 14.9704 66.6284 12.4466 63.4351 10.5572C60.234 8.66783 56.6553 7.71924 52.7085 7.71924C49.8277 7.71924 47.1322 8.28223 44.5967 9.39153C42.0694 10.5248 39.8229 12.0526 37.8893 13.9738C35.9396 15.9195 34.407 18.1621 33.2921 20.7183C32.1605 23.275 31.6152 26.0003 31.6152 28.9264C31.6152 32.1098 32.2245 35.0036 33.4926 37.5759C34.744 40.1645 36.4208 42.3753 38.5231 44.2004C40.6171 46.0251 42.936 47.4396 45.4309 48.4206C47.9342 49.3854 50.413 49.8836 52.8767 49.8836C55.2759 49.8836 57.7067 49.4172 60.1856 48.4842ZM41.8929 28.2747C41.8929 22.2857 46.7708 17.4301 52.7882 17.4301C58.8056 17.4301 63.6835 22.2857 63.6835 28.2747C63.6835 34.2637 58.8056 39.1188 52.7882 39.1188C46.7708 39.1188 41.8929 34.2637 41.8929 28.2747Z" fill="#00D6E4"/>
<path fill-rule="evenodd" clip-rule="evenodd" d="M46.1294 28.2744C46.1294 24.6167 49.1139 21.6504 52.7883 21.6504C56.4628 21.6504 59.4478 24.6167 59.4478 28.2744C59.4478 31.932 56.4628 34.8983 52.7883 34.8983C49.1144 34.8983 46.1294 31.932 46.1294 28.2744Z" fill="#087DEA"/>
<path d="M76.5368 37.5269L72.5572 35.5254C70.4148 39.9146 67.1496 43.6605 63.1299 46.4661L75.5015 56C81.1663 50.6946 81.6319 42.4311 76.5368 37.5269Z" fill="#087DEA"/>
<path d="M4.96803 0C6.39855 0 7.50881 0.357939 8.29932 1.07486C9.08931 1.79127 9.48456 2.79099 9.48456 4.073C9.48456 4.26137 9.42831 8.82433 9.31531 17.7619C9.87981 16.819 10.7734 16.0744 11.9967 15.5276C13.2199 14.9808 14.4526 14.7074 15.6946 14.7074C19.1571 14.7074 21.7729 15.7817 23.5419 17.9314C25.3109 20.0812 26.1951 22.928 26.1951 26.473C26.1951 32.3555 26.1764 36.1081 26.1389 37.7298C26.1009 38.9367 25.6213 39.8602 24.699 40.502C23.7767 41.1428 22.5821 41.4631 21.1146 41.4631C19.8346 41.4631 18.7525 41.1334 17.8682 40.4733C16.984 39.8133 16.5606 38.861 16.5981 37.6166C16.5981 37.2399 16.645 35.5331 16.7392 32.4974C16.8335 29.4617 16.8804 27.6798 16.8804 27.1518C16.8804 25.7566 16.57 24.6817 15.9492 23.9277C15.328 23.1732 14.4531 22.796 13.3241 22.796C12.2706 22.796 11.3384 23.2108 10.5292 24.041C9.71993 24.8701 9.31531 26.0206 9.31531 27.491C9.31531 28.7354 9.32469 30.4891 9.34291 32.7515C9.36218 35.0145 9.37155 36.7489 9.37155 37.9558C9.37155 39.1626 8.91954 40.0773 8.01655 40.6993C7.11303 41.3217 5.94653 41.6333 4.51601 41.6333C3.23651 41.6333 2.16323 41.3035 1.29825 40.6434C0.432235 39.9834 0 39.0124 0 37.7303C0 37.2023 0.0275972 36.0147 0.0848805 34.1666C0.141122 32.319 0.169761 31.0933 0.169761 30.4901V4.52539C0.169761 1.50899 1.76902 0 4.96803 0Z" fill="#087DEA"/>
<path d="M80.6387 19.0631C80.6387 17.9694 80.9683 17.0641 81.6266 16.3477C82.2853 15.6313 83.1227 15.2729 84.1387 15.2729H85.8884L86.0014 12.2742C86.1144 9.03135 87.7897 7.40967 91.0262 7.40967C92.1927 7.40967 93.1056 7.72117 93.7644 8.34313C94.4231 8.96509 94.7522 9.82341 94.7522 10.9171C94.7522 11.2186 94.7153 12.6515 94.6392 15.216H97.8575C99.024 15.179 99.9275 15.4894 100.567 16.15C101.207 16.81 101.527 17.7805 101.527 19.0631C101.527 20.1567 101.264 21.0808 100.737 21.8348C100.21 22.5893 99.4573 22.9665 98.4783 22.9665H94.583V30.3199C94.583 32.3559 95.2037 33.3744 96.4463 33.3744C96.8598 33.3744 97.2644 33.3275 97.6602 33.2325C98.0549 33.1386 98.3845 33.0911 98.648 33.0911C99.626 33.0911 100.407 33.4495 100.991 34.166C101.574 34.8829 101.866 35.7313 101.866 36.7112C101.866 38.5588 101.359 39.8226 100.342 40.5014C99.2511 41.2554 97.4445 41.6326 94.9225 41.6326C92.175 41.6326 89.9639 40.7649 88.2891 39.0305C86.6144 37.2956 85.777 34.6559 85.777 31.1115C85.777 30.5083 85.7957 29.2638 85.8332 27.3781C85.8707 25.4924 85.8707 24.0408 85.8332 23.0223H83.9132C81.7302 23.0228 80.6387 21.7027 80.6387 19.0631Z" fill="#087DEA"/>
<path d="M107.117 15.9801C107.908 15.2825 109.018 14.934 110.448 14.934C112.255 14.934 113.384 15.726 113.835 17.3096L114.231 18.7236C114.72 17.5924 115.576 16.6402 116.8 15.8674C118.023 15.0942 119.255 14.7075 120.497 14.7075C123.094 14.7075 124.392 16.1215 124.392 18.9496C124.392 20.1565 124.082 21.2031 123.461 22.0897C122.84 22.9756 121.964 23.4186 120.835 23.4186H120.102C116.639 23.4186 114.908 25.813 114.908 30.6025C114.908 31.0173 114.936 32.1297 114.993 33.9403C115.049 35.7503 115.058 37.0704 115.021 37.8995C114.983 39.144 114.532 40.0681 113.666 40.6712C112.8 41.2749 111.69 41.5765 110.335 41.5765C107.324 41.5765 105.818 40.1625 105.818 37.3339C105.818 35.826 105.837 33.563 105.875 30.5461C105.913 27.5297 105.931 25.3982 105.931 24.1543V19.0633C105.931 17.7057 106.326 16.6778 107.117 15.9801Z" fill="#087DEA"/>
<path d="M153.75 31.9035C153.75 33.8273 153.806 35.7506 153.919 37.6739C153.919 40.2384 152.339 41.5204 149.177 41.5204C147.22 41.5204 145.903 40.3704 145.225 38.0699C143.758 40.4837 141.5 41.69 138.451 41.69C134.611 41.69 131.535 40.4831 129.22 38.0699C126.905 35.6567 125.748 32.5834 125.748 28.8496C125.748 24.6263 127.009 21.2415 129.531 18.6963C132.052 16.151 135.251 14.8784 139.128 14.8784C141.951 14.8784 144.059 15.8781 145.451 17.876C145.602 17.3104 145.828 16.8205 146.129 16.4057C146.807 15.4628 147.936 14.9916 149.516 14.9916C152.377 14.9916 153.807 16.3305 153.807 19.0078L153.75 23.3631V31.9035H153.75ZM136.418 32.4128C137.284 33.4308 138.376 33.94 139.692 33.94C141.123 33.94 142.336 33.4214 143.334 32.3846C144.331 31.3473 144.83 29.9615 144.83 28.2271C144.83 26.5297 144.359 25.1914 143.419 24.2109C142.478 23.2305 141.329 22.7401 139.975 22.7401C138.507 22.7401 137.331 23.2587 136.446 24.2955C135.562 25.3323 135.12 26.775 135.12 28.6226C135.12 30.1311 135.553 31.3943 136.418 32.4128Z" fill="#087DEA"/>
<path d="M160.074 19.6282C159.997 16.4605 161.542 14.8769 164.703 14.8769C167.112 14.8769 168.486 15.8385 168.824 17.7613L168.994 18.7798C169.483 17.6105 170.424 16.6489 171.817 15.8944C173.209 15.1404 174.639 14.7637 176.107 14.7637C179.344 14.7637 181.846 15.7441 183.615 17.7049C185.384 19.6658 186.269 22.4943 186.269 26.1896C186.269 27.0573 186.259 28.1791 186.241 29.5556C186.222 30.932 186.212 32.1102 186.212 33.0911V37.5597C186.212 40.1618 184.556 41.4626 181.244 41.4626C179.964 41.4626 178.911 41.1422 178.083 40.5014C177.255 39.8602 176.841 38.8985 176.841 37.616C176.841 36.824 176.859 35.3818 176.897 33.2889C176.935 31.1966 176.953 29.6594 176.953 28.6795C176.953 26.7557 176.737 25.2665 176.304 24.2105C175.871 23.1549 174.996 22.6081 173.679 22.5695C171.872 22.5324 170.668 23.098 170.066 24.2668C169.464 25.4361 169.163 27.3777 169.163 30.093L169.219 37.843C169.219 39.125 168.776 40.059 167.893 40.6434C167.008 41.2278 165.963 41.52 164.759 41.52C163.216 41.52 162.031 41.2471 161.202 40.6997C160.374 40.1534 159.959 39.1443 159.959 37.6739C159.959 36.4671 159.997 34.1477 160.073 30.716C160.149 27.2848 160.167 24.607 160.129 22.6837L160.074 19.6282Z" fill="#087DEA"/>
<path d="M215.741 34.8452C216.418 35.6748 216.757 36.5049 216.757 37.334C216.757 38.3525 216.258 39.3236 215.26 40.2471C214.264 41.1712 213.182 41.6335 212.015 41.6335C210.849 41.6335 209.719 40.9359 208.627 39.5406L202.699 31.7907L201.288 33.092L201.232 37.7306C201.156 40.2946 199.669 41.5771 196.772 41.5771C195.379 41.5771 194.259 41.2098 193.413 40.4741C192.566 39.7389 192.162 38.7115 192.199 37.3909L192.312 31.9608C192.312 29.9618 192.293 26.1528 192.256 20.5343C192.218 14.9153 192.218 10.4463 192.256 7.12827C192.256 6.82617 192.246 6.27987 192.228 5.48729C192.209 4.69523 192.199 4.14892 192.199 3.84733C192.199 2.67803 192.679 1.75447 193.639 1.07511C194.599 0.396279 195.681 0.0571289 196.884 0.0571289C198.277 0.0571289 199.407 0.358709 200.272 0.962407C201.138 1.56558 201.571 2.47087 201.571 3.67722C201.571 5.18569 201.476 11.8232 201.289 23.5888L208.176 16.5177C209.342 15.3489 210.51 14.7645 211.677 14.7645C212.693 14.7645 213.681 15.2451 214.641 16.2067C215.6 17.1683 216.08 18.1394 216.08 19.1198C216.08 20.1002 215.704 20.9679 214.951 21.7219C214.801 21.8727 212.843 23.6827 209.08 27.1526L215.741 34.8452Z" fill="#087DEA"/>
<path d="M230.448 33.0063C231.37 33.5912 232.339 33.8834 233.355 33.8834C234.861 33.8834 236.216 33.5442 237.42 32.8654C238.4 32.3374 239.359 32.0733 240.3 32.0733C241.315 32.0733 242.181 32.5075 242.896 33.3747C243.611 34.2419 243.969 35.2599 243.969 36.4292C243.969 37.8625 243.273 38.9937 241.88 39.8233C239.697 41.1429 236.667 41.8024 232.791 41.8024C229.065 41.8024 225.903 40.5491 223.306 38.0409C220.709 35.5333 219.411 32.4882 219.411 28.9056C219.411 24.7951 220.719 21.4009 223.335 18.7236C225.95 16.0464 229.178 14.7075 233.017 14.7075C236.518 14.7075 239.406 15.7918 241.683 17.9598C243.96 20.1283 245.099 22.6265 245.099 25.4546C245.099 27.2652 244.788 28.5378 244.167 29.2724C243.547 30.0082 242.333 30.3948 240.526 30.4324C240.262 30.4324 239.642 30.4418 238.663 30.4605C237.685 30.4793 236.301 30.5075 234.514 30.5456C232.725 30.5837 230.815 30.6019 228.783 30.6019C228.971 31.621 229.526 32.4219 230.448 33.0063ZM230.052 22.9099C229.244 23.5887 228.801 24.362 228.726 25.2287C228.876 25.2287 231.21 25.1728 235.726 25.0596C236.177 25.0596 236.404 24.9652 236.404 24.7768C236.404 23.9472 236.065 23.259 235.387 22.7121C234.71 22.1653 233.882 21.8919 232.903 21.8919C231.812 21.8914 230.862 22.231 230.052 22.9099Z" fill="#087DEA"/>
<path d="M276.828 15.8952C276.828 17.2905 276.818 19.3651 276.799 22.118C276.781 24.8709 276.77 27.0206 276.77 28.5661C276.77 28.9058 276.808 31.9796 276.883 37.7865C276.883 39.0309 276.489 39.9644 275.699 40.5863C274.908 41.2088 273.835 41.5198 272.48 41.5198C270.41 41.5198 269.13 40.7465 268.641 39.201L268.246 37.8997C266.59 40.4267 264.238 41.6899 261.189 41.6899C257.199 41.6899 254.085 40.4548 251.846 37.9853C249.606 35.5152 248.487 32.5076 248.487 28.9627C248.487 24.9653 249.767 21.6087 252.326 18.8939C254.885 16.1786 258.14 14.8209 262.093 14.8209C264.464 14.8209 266.289 15.5749 267.569 17.0833V4.69526C267.569 3.1868 267.973 2.0368 268.783 1.24473C269.592 0.452675 270.693 0.0566406 272.086 0.0566406C273.667 0.0566406 274.89 0.386928 275.756 1.04646C276.621 1.70651 277.035 2.80955 276.998 4.35558L276.828 15.8952ZM259.213 32.3563C260.154 33.3748 261.302 33.8836 262.657 33.8836C264.2 33.8836 265.461 33.3837 266.44 32.385C267.418 31.3858 267.907 30.0563 267.907 28.3971C267.907 26.587 267.436 25.1918 266.496 24.2113C265.554 23.2309 264.369 22.7404 262.939 22.7404C261.396 22.7404 260.154 23.2591 259.213 24.2959C258.272 25.3327 257.802 26.7941 257.802 28.6799C257.802 30.1132 258.273 31.3388 259.213 32.3563Z" fill="#087DEA"/>
</svg>
