<svg width="56" height="57" viewBox="0 0 56 57" fill="none" xmlns="http://www.w3.org/2000/svg">
<path d="M38.4903 1H17.5903C16.0548 1 14.5822 1.60996 13.4965 2.6957C12.4107 3.78143 11.8008 5.25401 11.8008 6.78947V25.2772C11.8008 26.8126 12.4107 28.2852 13.4965 29.371C14.5822 30.4567 16.0548 31.0667 17.5903 31.0667H19.742L27.3069 39.9728C27.4344 40.1218 27.6043 40.2283 27.794 40.2783C27.9836 40.3283 28.1839 40.3194 28.3683 40.2526C28.5554 40.1862 28.7173 40.0632 28.8314 39.9006C28.9455 39.7381 29.0062 39.5442 29.0052 39.3456V31.0667H38.4903C40.0257 31.0667 41.4983 30.4567 42.584 29.371C43.6698 28.2852 44.2797 26.8126 44.2797 25.2772V6.78947C44.2797 5.25401 43.6698 3.78143 42.584 2.6957C41.4983 1.60996 40.0257 1 38.4903 1ZM42.3499 25.2772C42.3499 26.3008 41.9433 27.2825 41.2194 28.0064C40.4956 28.7302 39.5139 29.1368 38.4903 29.1368H28.0403C27.7843 29.1368 27.5389 29.2385 27.358 29.4194C27.177 29.6004 27.0753 29.8458 27.0753 30.1017V36.721L20.9192 29.4745C20.8282 29.3692 20.7156 29.2845 20.5891 29.2263C20.4626 29.168 20.3251 29.1375 20.1859 29.1368H17.5903C16.5666 29.1368 15.5849 28.7302 14.8611 28.0064C14.1372 27.2825 13.7306 26.3008 13.7306 25.2772V6.78947C13.7306 5.76583 14.1372 4.78411 14.8611 4.06029C15.5849 3.33646 16.5666 2.92982 17.5903 2.92982H38.4903C39.5139 2.92982 40.4956 3.33646 41.2194 4.06029C41.9433 4.78411 42.3499 5.76583 42.3499 6.78947V25.2772Z" fill="#1EE1E6" stroke="#1EE1E6"/>
<path d="M40.256 7.99519C40.256 8.2511 40.1544 8.49652 39.9734 8.67748C39.7925 8.85844 39.547 8.9601 39.2911 8.9601H16.7894C16.5335 8.9601 16.288 8.85844 16.1071 8.67748C15.9261 8.49652 15.8245 8.2511 15.8245 7.99519C15.8245 7.73927 15.9261 7.49385 16.1071 7.31289C16.288 7.13193 16.5335 7.03027 16.7894 7.03027H39.2911C39.547 7.03027 39.7925 7.13193 39.9734 7.31289C40.1544 7.49385 40.256 7.73927 40.256 7.99519Z" fill="#1EE1E6" stroke="#1EE1E6"/>
<path d="M40.256 12.0196C40.256 12.2756 40.1544 12.521 39.9734 12.7019C39.7925 12.8829 39.547 12.9846 39.2911 12.9846H16.7894C16.5335 12.9846 16.288 12.8829 16.1071 12.7019C15.9261 12.521 15.8245 12.2756 15.8245 12.0196C15.8245 11.7637 15.9261 11.5183 16.1071 11.3374C16.288 11.1564 16.5335 11.0547 16.7894 11.0547H39.2911C39.4182 11.0534 39.5442 11.0775 39.6619 11.1256C39.7796 11.1736 39.8864 11.2446 39.9763 11.3345C40.0662 11.4243 40.1372 11.5312 40.1852 11.6489C40.2333 11.7665 40.2573 11.8926 40.256 12.0196Z" fill="#1EE1E6" stroke="#1EE1E6"/>
<path d="M40.256 16.0333C40.256 16.2892 40.1544 16.5346 39.9734 16.7156C39.7925 16.8965 39.547 16.9982 39.2911 16.9982H16.7894C16.5335 16.9982 16.288 16.8965 16.1071 16.7156C15.9261 16.5346 15.8245 16.2892 15.8245 16.0333C15.8245 15.7774 15.9261 15.5319 16.1071 15.351C16.288 15.17 16.5335 15.0684 16.7894 15.0684H39.2911C39.547 15.0684 39.7925 15.17 39.9734 15.351C40.1544 15.5319 40.256 15.7774 40.256 16.0333Z" fill="#1EE1E6" stroke="#1EE1E6"/>
<path d="M40.2562 20.0568C40.2562 20.3127 40.1545 20.5581 39.9735 20.7391C39.7926 20.92 39.5472 21.0217 39.2912 21.0217H24.8272C24.5713 21.0217 24.3259 20.92 24.1449 20.7391C23.964 20.5581 23.8623 20.3127 23.8623 20.0568C23.8623 19.8008 23.964 19.5554 24.1449 19.3745C24.3259 19.1935 24.5713 19.0918 24.8272 19.0918H39.2912C39.4183 19.0906 39.5444 19.1146 39.662 19.1627C39.7797 19.2107 39.8866 19.2817 39.9764 19.3716C40.0663 19.4614 40.1373 19.5683 40.1853 19.686C40.2334 19.8036 40.2575 19.9297 40.2562 20.0568Z" fill="#1EE1E6" stroke="#1EE1E6"/>
<path d="M40.2562 24.0714C40.2562 24.3273 40.1545 24.5727 39.9735 24.7537C39.7926 24.9346 39.5472 25.0363 39.2912 25.0363H24.8272C24.5713 25.0363 24.3259 24.9346 24.1449 24.7537C23.964 24.5727 23.8623 24.3273 23.8623 24.0714C23.8623 23.8154 23.964 23.57 24.1449 23.3891C24.3259 23.2081 24.5713 23.1064 24.8272 23.1064H39.2912C39.5472 23.1064 39.7926 23.2081 39.9735 23.3891C40.1545 23.57 40.2562 23.8154 40.2562 24.0714Z" fill="#1EE1E6" stroke="#1EE1E6"/>
<path d="M15.1587 42.5395C15.0945 42.3467 14.9716 42.1789 14.8072 42.0595C14.6428 41.9401 14.4452 41.8752 14.242 41.8737H10.257L9.02187 38.0816C8.95842 37.8885 8.83564 37.7205 8.67104 37.6013C8.50644 37.4821 8.30841 37.418 8.10521 37.418C7.902 37.418 7.70398 37.4821 7.53937 37.6013C7.37477 37.7205 7.25199 37.8885 7.18854 38.0816L5.95345 41.8737H1.96837C1.76416 41.873 1.56499 41.937 1.39952 42.0567C1.23404 42.1763 1.1108 42.3454 1.04751 42.5396C0.984223 42.7337 0.984162 42.9429 1.04734 43.1371C1.11051 43.3313 1.23366 43.5004 1.39907 43.6202L4.62187 45.9649L3.39644 49.7474C3.34922 49.8922 3.33696 50.0461 3.36064 50.1965C3.38432 50.347 3.44327 50.4897 3.53268 50.613C3.62209 50.7363 3.73941 50.8366 3.87505 50.9059C4.0107 50.9751 4.1608 51.0113 4.3131 51.0114C4.51739 51.0115 4.71654 50.9473 4.8824 50.8281L8.10521 48.4833L11.328 50.8281C11.4923 50.9469 11.6899 51.0109 11.8927 51.0111C12.0954 51.0112 12.2931 50.9475 12.4576 50.8289C12.6221 50.7104 12.7451 50.543 12.809 50.3506C12.873 50.1582 12.8747 49.9505 12.814 49.757L11.5789 45.9649L14.8113 43.6202C14.9746 43.4987 15.0959 43.3293 15.1582 43.1355C15.2205 42.9417 15.2207 42.7333 15.1587 42.5395ZM9.53328 45.8877L10.064 47.5281L8.6745 46.5149C8.50985 46.3927 8.31025 46.3267 8.10521 46.3267C7.90016 46.3267 7.70056 46.3927 7.53591 46.5149L6.14644 47.5281L6.67714 45.8877C6.73984 45.6954 6.74 45.4881 6.67759 45.2957C6.61519 45.1033 6.49342 44.9356 6.32977 44.8167L4.94029 43.8035H6.65784C6.861 43.8021 7.05861 43.7371 7.22299 43.6177C7.38737 43.4983 7.51028 43.3305 7.5745 43.1377L8.10521 41.4974L8.63591 43.1377C8.69899 43.3312 8.82161 43.4997 8.98624 43.6193C9.15088 43.7389 9.3491 43.8034 9.55257 43.8035H11.2701L9.88064 44.8167C9.71522 44.9341 9.59207 45.1017 9.52949 45.2946C9.46691 45.4876 9.46824 45.6956 9.53328 45.8877Z" fill="#1EE1E6" stroke="#1EE1E6"/>
<path d="M35.0938 47.518C35.0307 47.3245 34.9081 47.156 34.7434 47.0364C34.5788 46.9168 34.3806 46.8524 34.1771 46.8522H30.192L28.9569 43.0601C28.8935 42.8671 28.7707 42.699 28.6061 42.5798C28.4415 42.4606 28.2435 42.3965 28.0403 42.3965C27.8371 42.3965 27.639 42.4606 27.4744 42.5798C27.3098 42.699 27.1871 42.8671 27.1236 43.0601L25.8885 46.8522H21.9034C21.6992 46.8515 21.5001 46.9155 21.3346 47.0352C21.1691 47.1549 21.0459 47.3239 20.9826 47.5181C20.9193 47.7122 20.9192 47.9214 20.9824 48.1156C21.0456 48.3098 21.1687 48.479 21.3341 48.5987L24.5666 50.9434L23.3315 54.7355C23.2696 54.9294 23.2697 55.1378 23.332 55.3315C23.3943 55.5253 23.5156 55.6948 23.6789 55.8162C23.8454 55.934 24.0443 55.9972 24.2482 55.9972C24.4521 55.9972 24.651 55.934 24.8175 55.8162L28.0403 53.4715L31.2631 55.8162C31.429 55.9355 31.6281 55.9996 31.8324 55.9996C32.0367 55.9996 32.2358 55.9355 32.4017 55.8162C32.565 55.6948 32.6862 55.5253 32.7485 55.3315C32.8108 55.1378 32.811 54.9294 32.749 54.7355L31.5139 50.9434L34.7464 48.5987C34.9111 48.4784 35.0334 48.309 35.0958 48.1148C35.1582 47.9207 35.1575 47.7117 35.0938 47.518ZM29.4683 50.8759L29.999 52.5066L28.6096 51.4934C28.4437 51.3742 28.2445 51.3101 28.0403 51.3101C27.836 51.3101 27.6369 51.3742 27.471 51.4934L26.0815 52.5066L26.6122 50.8759C26.6772 50.6823 26.6785 50.4729 26.616 50.2785C26.5535 50.0841 26.4304 49.9147 26.2648 49.7952L24.8754 48.782H26.5929C26.7964 48.7819 26.9946 48.7174 27.1592 48.5978C27.3239 48.4783 27.4465 48.3097 27.5096 48.1162L28.0403 46.4855L28.571 48.1162C28.634 48.3097 28.7567 48.4783 28.9213 48.5978C29.0859 48.7174 29.2842 48.7819 29.4876 48.782H31.2052L29.8157 49.7952C29.6501 49.9147 29.527 50.0841 29.4645 50.2785C29.402 50.4729 29.4034 50.6823 29.4683 50.8759Z" fill="#1EE1E6" stroke="#1EE1E6"/>
<path d="M55.0288 42.5395C54.9669 42.3453 54.8446 42.176 54.6797 42.0562C54.5148 41.9364 54.316 41.8725 54.1122 41.8737H50.1271L48.892 38.0816C48.8285 37.8885 48.7058 37.7205 48.5412 37.6013C48.3766 37.4821 48.1785 37.418 47.9753 37.418C47.7721 37.418 47.5741 37.4821 47.4095 37.6013C47.2449 37.7205 47.1221 37.8885 47.0587 38.0816L45.8236 41.8737H41.8385C41.6343 41.873 41.4351 41.937 41.2696 42.0567C41.1042 42.1763 40.9809 42.3454 40.9176 42.5396C40.8543 42.7337 40.8543 42.9429 40.9175 43.1371C40.9806 43.3313 41.1038 43.5004 41.2692 43.6202L44.5016 45.9649L43.2666 49.757C43.2058 49.9505 43.2075 50.1582 43.2715 50.3506C43.3355 50.543 43.4584 50.7104 43.6229 50.8289C43.7874 50.9475 43.9851 51.0112 44.1879 51.0111C44.3906 51.0109 44.5882 50.9469 44.7525 50.8281L47.9753 48.4833L51.1981 50.8281C51.364 50.9473 51.5631 51.0115 51.7674 51.0114C51.9722 51.0144 52.1722 50.95 52.3367 50.8281C52.5029 50.7091 52.6265 50.5397 52.689 50.3451C52.7516 50.1505 52.7498 49.9409 52.6841 49.7474L51.4587 45.9649L54.6815 43.6202C54.8461 43.4999 54.9685 43.3305 55.0309 43.1363C55.0933 42.9422 55.0926 42.7332 55.0288 42.5395ZM49.4034 45.8877L49.9341 47.5281L48.5446 46.5149C48.3794 46.3943 48.1798 46.33 47.9753 46.3316C47.771 46.3315 47.5719 46.3956 47.406 46.5149L46.0166 47.5281L46.5473 45.8877C46.6123 45.6956 46.6136 45.4876 46.551 45.2946C46.4885 45.1017 46.3653 44.9341 46.1999 44.8167L44.8104 43.8035H46.528C46.7314 43.8034 46.9297 43.7389 47.0943 43.6193C47.2589 43.4997 47.3815 43.3312 47.4446 43.1377L47.9753 41.4974L48.506 43.1377C48.5703 43.3305 48.6932 43.4983 48.8575 43.6177C49.0219 43.7371 49.2195 43.8021 49.4227 43.8035H51.1402L49.7508 44.8167C49.5871 44.9356 49.4653 45.1033 49.4029 45.2957C49.3405 45.4881 49.3407 45.6954 49.4034 45.8877Z" fill="#1EE1E6" stroke="#1EE1E6"/>
</svg>
