<svg width="44" height="57" viewBox="0 0 44 57" fill="none" xmlns="http://www.w3.org/2000/svg">
<path d="M22.0638 8.02148C16.5792 8.02148 12.1169 12.4836 12.1169 17.9683C12.1169 23.4531 16.579 27.9152 22.0638 27.9152C27.5486 27.9152 32.0107 23.4531 32.0107 17.9683C32.0107 12.4836 27.5485 8.02148 22.0638 8.02148ZM22.0638 26.1598C17.547 26.1598 13.8723 22.4851 13.8723 17.9683C13.8723 13.4516 17.547 9.77676 22.0638 9.77676C26.5806 9.77676 30.2553 13.4515 30.2553 17.9682C30.2553 22.485 26.5806 26.1598 22.0638 26.1598Z" fill="#1EE1E6" stroke="#1EE1E6"/>
<path d="M24.1285 18.5925C23.6754 18.422 23.1686 18.6511 22.9979 19.1047C22.8625 19.4647 22.4871 19.7066 22.064 19.7066C21.6409 19.7066 21.2656 19.4648 21.1302 19.1048C20.9595 18.6512 20.4535 18.4222 19.9997 18.5925C19.5461 18.7632 19.3166 19.2694 19.4874 19.723C19.8786 20.763 20.9141 21.4618 22.064 21.4618C23.2138 21.4618 24.2493 20.763 24.6409 19.7231C24.8114 19.2695 24.582 18.7634 24.1285 18.5925Z" fill="#1EE1E6" stroke="#1EE1E6"/>
<path d="M38.3263 42.6402C37.5032 39.0134 35.4481 35.7212 32.5396 33.3702C29.5874 30.9841 25.8672 29.6699 22.0639 29.6699C18.2606 29.6699 14.5405 30.9841 11.5882 33.3704C8.67964 35.7214 6.62454 39.0137 5.80148 42.6405C5.69427 43.1133 5.99043 43.5834 6.4632 43.6907C6.52862 43.7054 6.59393 43.7127 6.65827 43.7127C7.05907 43.7127 7.42097 43.4364 7.51346 43.0291C9.06367 36.1969 15.0471 31.4253 22.0638 31.4253C29.0804 31.4253 35.0638 36.1968 36.6142 43.0288C36.7216 43.5015 37.1917 43.7968 37.6645 43.6905C38.1373 43.5831 38.4334 43.1129 38.3263 42.6402Z" fill="#1EE1E6" stroke="#1EE1E6"/>
<path d="M42.2501 1H1.87764C1.39284 1 1 1.39284 1 1.87764V46.3458C1 46.8306 1.39284 47.2234 1.87764 47.2234H42.2501C42.7349 47.2234 43.1278 46.8306 43.1278 46.3458V1.87764C43.1278 1.39284 42.7349 1 42.2501 1ZM41.3725 45.4682H2.75528V2.75528H41.3724V45.4682H41.3725Z" fill="#1EE1E6" stroke="#1EE1E6"/>
<path d="M42.25 49.8564H35.2287C34.7439 49.8564 34.3511 50.2493 34.3511 50.7341C34.3511 51.2189 34.7439 51.6117 35.2287 51.6117H42.25C42.7348 51.6117 43.1277 51.2189 43.1277 50.7341C43.1277 50.2493 42.7348 49.8564 42.25 49.8564Z" fill="#1EE1E6" stroke="#1EE1E6"/>
<path d="M31.7181 49.8564H1.87764C1.39284 49.8564 1 50.2493 1 50.7341C1 51.2189 1.39284 51.6117 1.87764 51.6117H31.7181C32.2029 51.6117 32.5958 51.2189 32.5958 50.7341C32.5959 50.2493 32.203 49.8564 31.7181 49.8564Z" fill="#1EE1E6" stroke="#1EE1E6"/>
<path d="M22.0639 54.2441H1.87764C1.39284 54.2441 1 54.637 1 55.1218C1 55.6066 1.39284 55.9994 1.87764 55.9994H22.0639C22.5487 55.9994 22.9415 55.6066 22.9415 55.1218C22.9415 54.637 22.5487 54.2441 22.0639 54.2441Z" fill="#1EE1E6" stroke="#1EE1E6"/>
</svg>
