<svg width="56" height="57" viewBox="0 0 56 57" fill="none" xmlns="http://www.w3.org/2000/svg">
<path d="M22.7377 33.8697C25.2863 36.1163 27.3659 37.682 30.8635 37.682H42.5964C44.1818 37.682 45.4639 36.9608 46.2073 35.6513C46.9029 34.4255 46.9895 32.8102 46.4316 31.7446C46.8223 31.5665 47.1758 31.2872 47.4773 30.9124C48.5611 29.564 48.7421 27.2491 48.231 25.9327C48.1322 25.6785 48.0152 25.4723 47.8888 25.3042C48.0967 25.1335 48.3029 24.9013 48.4927 24.5873C49.4638 22.9846 49.5332 20.0009 48.6348 18.448C48.4961 18.208 48.3359 18.0005 48.1583 17.8273C48.6729 17.2386 48.9865 16.3203 48.9865 15.2322C48.9874 13.2249 47.8127 11.0638 45.231 11.0611L35.6422 11.0512C37.6106 8.17975 37.4685 4.15174 36.2582 2.20289C35.5322 1.03463 34.5688 0.853569 33.8195 1.09052C32.9722 1.11128 32.2124 2.02139 31.0463 3.42012C30.6235 3.9265 30.1713 4.46969 29.7061 4.96737C25.6846 9.27181 24.3704 10.6861 23.9172 11.1941L22.6976 11.712C22.2205 10.5797 21.0998 9.78244 19.7961 9.78244H12.4574C10.7238 9.78244 9.31348 11.1946 9.31348 12.9299V32.7807C9.31348 34.5161 10.7238 35.9277 12.4574 35.9277H19.7962C21.1471 35.9277 22.2924 35.0676 22.7377 33.8697ZM22.9435 13.535L24.7854 12.7527C24.9223 12.6947 25.041 12.6041 25.1319 12.4898C25.3546 12.2364 27.7508 9.65904 31.0022 6.17847C31.496 5.6509 31.9595 5.09422 32.4083 4.55627C32.9298 3.93164 33.6316 3.09002 33.9555 2.87818C34.0837 2.87729 34.2111 2.84828 34.3289 2.79239C34.4719 2.72958 34.6529 2.98082 34.7509 3.1389C35.7194 4.69919 35.8199 9.06812 33.0702 11.24C32.7739 11.4739 32.6587 11.8699 32.7826 12.2267C32.9056 12.5836 33.2418 12.8228 33.6195 12.8233L45.2293 12.8354C47.1179 12.8372 47.2132 14.8314 47.2124 15.2313C47.2124 16.2132 46.8243 16.753 46.6614 16.7539L46.5054 16.7599C45.815 16.7794 45.3047 17.2649 45.3185 17.89C45.3307 18.4384 45.8028 19.0058 46.618 18.9716C46.7012 18.9737 46.8857 18.9672 47.0988 19.3363C47.681 20.343 47.6169 22.6097 46.9758 23.668C46.8493 23.8772 46.7237 23.985 46.6631 23.985C46.6631 23.985 46.6622 23.985 46.6613 23.985C46.592 23.9833 46.5218 23.9872 46.4525 24.0006C45.8157 24.1258 45.3817 24.6205 45.3955 25.2039C45.4094 25.7879 45.8616 26.2604 46.4377 26.3341C46.7037 26.5351 46.9497 27.9845 46.4195 29.2389C45.9665 30.3066 45.386 30.2178 45.198 30.1862C45.1529 30.1793 45.107 30.1759 45.062 30.1759L44.7163 30.1772C44.2667 30.153 43.8543 30.3535 43.6291 30.7135C43.422 31.0461 43.4099 31.4646 43.5987 31.8055C43.8032 32.1746 44.2034 32.3951 44.6886 32.3951C44.6955 32.3873 44.7562 32.3908 44.8385 32.5302C45.1097 32.9842 45.1201 33.9718 44.6644 34.7754C44.2373 35.5269 43.5416 35.9077 42.5964 35.9077H30.8635C27.6815 35.9077 25.9636 34.3752 23.1177 31.8363L22.9435 31.6808V13.535ZM21.1693 12.9481V32.0786V32.7807C21.1693 33.5375 20.5533 34.1535 19.7961 34.1535H12.4574C11.7019 34.1535 11.0877 33.5376 11.0877 32.7807V12.9299C11.0877 12.1727 11.702 11.5567 12.4574 11.5567H19.7962C20.5533 11.5567 21.1693 12.1726 21.1693 12.9299L21.1693 12.9481Z" fill="#1EE1E6" stroke="#1EE1E6"/>
<path d="M15.2115 46.5098L11.2125 45.7361L9.24067 42.1707C9.08472 41.8883 8.78762 41.7129 8.46444 41.7129C8.14214 41.7129 7.84415 41.8884 7.6882 42.1703L5.71558 45.7361L1.71826 46.5098C1.40208 46.5713 1.14304 46.8 1.04342 47.1067C0.943794 47.4139 1.01831 47.7509 1.23921 47.9865L4.01929 50.9619L3.51851 55.003C3.47868 55.3235 3.61645 55.6402 3.87718 55.8299C4.03136 55.942 4.2142 55.9992 4.39872 55.9992C4.52611 55.9992 4.65519 55.9715 4.77469 55.9157L8.46444 54.1904L12.1524 55.9157C12.4444 56.0521 12.7883 56.021 13.0499 55.8299C13.3106 55.6401 13.4484 55.3235 13.4086 55.003L12.9078 50.9619L15.6905 47.9869C15.9105 47.7513 15.9859 47.4143 15.8863 47.1072C15.7866 46.8 15.5277 46.5713 15.2115 46.5098ZM11.3285 50.0532C11.1492 50.2455 11.0635 50.5071 11.0964 50.7684L11.4507 53.6285L8.8404 52.4074C8.60132 52.2956 8.32755 52.2956 8.08838 52.4074L5.47641 53.629L5.83073 50.7684C5.86364 50.5076 5.77785 50.2455 5.59856 50.0536L3.6302 47.9471L6.4597 47.3996C6.71697 47.3494 6.93964 47.1877 7.06703 46.9581L8.46444 44.4327L9.86007 46.9577C9.98746 47.1877 10.21 47.3493 10.4674 47.3995L13.2986 47.947L11.3285 50.0532Z" fill="#1EE1E6" stroke="#1EE1E6"/>
<path d="M34.8773 46.5097L30.8783 45.7361L28.9073 42.1707C28.5954 41.6059 27.6668 41.6059 27.3549 42.1707L25.3839 45.7361L21.3849 46.5097C21.0679 46.5712 20.8088 46.7999 20.7092 47.1067C20.6096 47.4138 20.6841 47.7508 20.905 47.9864L23.6851 50.9619L23.1843 55.0029C23.1444 55.3235 23.2822 55.6402 23.5429 55.8298C23.8037 56.02 24.1485 56.0534 24.4405 55.9156L28.1311 54.1903L31.8183 55.9156C31.9379 55.9715 32.066 55.9992 32.1942 55.9992C32.3779 55.9992 32.5616 55.942 32.7158 55.8298C32.9765 55.6405 33.1143 55.3239 33.0744 55.0034L32.5763 50.9619L35.3573 47.9869C35.5782 47.7508 35.6527 47.4138 35.5531 47.1067C35.4535 46.8 35.1944 46.5713 34.8773 46.5097ZM30.997 50.0536C30.8177 50.2454 30.7327 50.5071 30.7648 50.7679L31.1174 53.6289L28.5071 52.4074C28.2681 52.2956 27.9943 52.2956 27.7551 52.4074L25.1423 53.6289L25.4966 50.7683C25.5295 50.5076 25.4437 50.2454 25.2644 50.0536L23.2961 47.9471L26.1282 47.3995C26.3864 47.3493 26.609 47.1877 26.7363 46.9577L28.1312 44.4341L29.526 46.9577C29.6534 47.1878 29.876 47.3493 30.1341 47.3995L32.9653 47.9471L30.997 50.0536Z" fill="#1EE1E6" stroke="#1EE1E6"/>
<path d="M54.6975 47.1067C54.5978 46.8 54.3388 46.5713 54.0226 46.5098L50.0236 45.7361L48.0527 42.1707C47.8967 41.8883 47.5996 41.7129 47.2764 41.7129C46.9533 41.7129 46.6562 41.8884 46.5002 42.1707L44.5284 45.7361L40.5294 46.5098C40.2132 46.5713 39.9542 46.8 39.8545 47.1071C39.7549 47.4142 39.8303 47.7512 40.0503 47.9868L42.833 50.9618L42.3322 55.0029C42.2924 55.3234 42.4301 55.6401 42.6909 55.8298C42.9516 56.02 43.2964 56.0516 43.5884 55.9156L47.2764 54.1903L50.9661 55.9156C51.0857 55.9715 51.214 55.9992 51.3422 55.9992C51.5267 55.9992 51.7095 55.942 51.8637 55.8299C52.1244 55.6401 52.2622 55.3235 52.2224 55.003L51.7216 50.9619L54.5017 47.9865C54.7227 47.7508 54.7971 47.4139 54.6975 47.1067ZM50.1423 50.0536C49.963 50.2455 49.8772 50.5075 49.9102 50.7684L50.2645 53.629L47.6525 52.4074C47.5329 52.3515 47.4047 52.3238 47.2765 52.3238C47.1483 52.3238 47.0201 52.3516 46.9006 52.4074L44.2903 53.6285L44.6446 50.7684C44.6775 50.5072 44.5917 50.2455 44.4124 50.0532L42.4424 47.9471L45.2736 47.3996C45.5308 47.3494 45.7535 47.1877 45.8809 46.9578L47.2765 44.4337L48.6714 46.9578C48.7988 47.1878 49.0213 47.3494 49.2787 47.3996L52.1108 47.9471L50.1423 50.0536Z" fill="#1EE1E6" stroke="#1EE1E6"/>
</svg>
