<svg width="59" height="59" viewBox="0 0 59 59" fill="none" xmlns="http://www.w3.org/2000/svg">
<path d="M47.9374 13.5785V13.4573L47.8992 13.3423C47.7629 12.9314 47.5009 12.6262 47.2474 12.398C47.0073 12.1817 46.7294 11.9961 46.5035 11.8451C46.4956 11.8398 46.4878 11.8345 46.48 11.8293L46.2907 11.7028H46.1071C46.1061 11.7025 46.105 11.7022 46.1038 11.7019C46.0756 11.6946 46.0512 11.6874 46.0168 11.6773C45.9932 11.6704 45.9649 11.662 45.9275 11.6513C45.78 11.6091 45.5329 11.542 45.2597 11.542L45.2593 11.542C44.5615 11.5424 43.8765 11.7403 43.3465 12.1304C42.8061 12.5281 42.4177 13.1399 42.4177 13.8994C42.4177 15.2033 43.6495 16.2576 45.0975 16.2576C45.9774 16.2576 46.7183 16.0856 47.2392 15.6297C47.7845 15.1524 47.9374 14.5009 47.9374 13.8994V13.8985V13.8975V13.8966V13.8957V13.8948V13.8938V13.8929V13.892V13.8911V13.8902V13.8893V13.8884V13.8875V13.8866V13.8857V13.8848V13.8839V13.883V13.8822V13.8813V13.8804V13.8796V13.8787V13.8778V13.877V13.8761V13.8753V13.8744V13.8736V13.8727V13.8719V13.8711V13.8702V13.8694V13.8686V13.8678V13.867V13.8661V13.8653V13.8645V13.8637V13.8629V13.8621V13.8613V13.8605V13.8597V13.859V13.8582V13.8574V13.8566V13.8558V13.8551V13.8543V13.8535V13.8528V13.852V13.8512V13.8505V13.8497V13.849V13.8482V13.8475V13.8468V13.846V13.8453V13.8446V13.8438V13.8431V13.8424V13.8417V13.8409V13.8402V13.8395V13.8388V13.8381V13.8374V13.8367V13.836V13.8353V13.8346V13.8339V13.8332V13.8325V13.8318V13.8312V13.8305V13.8298V13.8291V13.8285V13.8278V13.8271V13.8264V13.8258V13.8251V13.8245V13.8238V13.8232V13.8225V13.8219V13.8212V13.8206V13.8199V13.8193V13.8186V13.818V13.8174V13.8167V13.8161V13.8155V13.8149V13.8142V13.8136V13.813V13.8124V13.8118V13.8111V13.8105V13.8099V13.8093V13.8087V13.8081V13.8075V13.8069V13.8063V13.8057V13.8051V13.8045V13.8039V13.8034V13.8028V13.8022V13.8016V13.801V13.8004V13.7999V13.7993V13.7987V13.7982V13.7976V13.797V13.7964V13.7959V13.7953V13.7948V13.7942V13.7936V13.7931V13.7925V13.792V13.7914V13.7909V13.7903V13.7898V13.7892V13.7887V13.7881V13.7876V13.7871V13.7865V13.786V13.7854V13.7849V13.7844V13.7838V13.7833V13.7828V13.7823V13.7817V13.7812V13.7807V13.7802V13.7796V13.7791V13.7786V13.7781V13.7776V13.777V13.7765V13.776V13.7755V13.775V13.7745V13.774V13.7735V13.7729V13.7724V13.7719V13.7714V13.7709V13.7704V13.7699V13.7694V13.7689V13.7684V13.7679V13.7674V13.7669V13.7664V13.7659V13.7655V13.765V13.7645V13.764V13.7635V13.763V13.7625V13.762V13.7615V13.761V13.7606V13.7601V13.7596V13.7591V13.7586V13.7581V13.7577V13.7572V13.7567V13.7562V13.7557V13.7553V13.7548V13.7543V13.7538V13.7533V13.7529V13.7524V13.7519V13.7514V13.751V13.7505V13.75V13.7495V13.7491V13.7486V13.7481V13.7476V13.7472V13.7467V13.7462V13.7458V13.7453V13.7448V13.7443V13.7439V13.7434V13.7429V13.7425V13.742V13.7415V13.741V13.7406V13.7401V13.7396V13.7392V13.7387V13.7382V13.7378V13.7373V13.7368V13.7363V13.7359V13.7354V13.7349V13.7345V13.734V13.7335V13.7331V13.7326V13.7321V13.7316V13.7312V13.7307V13.7302V13.7297V13.7293V13.7288V13.7283V13.7279V13.7274V13.7269V13.7264V13.726V13.7255V13.725V13.7245V13.7241V13.7236V13.7231V13.7226V13.7221V13.7217V13.7212V13.7207V13.7202V13.7197V13.7193V13.7188V13.7183V13.7178V13.7173V13.7168V13.7164V13.7159V13.7154V13.7149V13.7144V13.7139V13.7134V13.7129V13.7125V13.712V13.7115V13.711V13.7105V13.71V13.7095V13.709V13.7085V13.708V13.7075V13.707V13.7065V13.706V13.7055V13.705V13.7045V13.704V13.7035V13.703V13.7025V13.7019V13.7014V13.7009V13.7004V13.6999V13.6994V13.6989V13.6983V13.6978V13.6973V13.6968V13.6963V13.6957V13.6952V13.6947V13.6941V13.6936V13.6931V13.6926V13.692V13.6915V13.691V13.6904V13.6899V13.6893V13.6888V13.6883V13.6877V13.6872V13.6866V13.6861V13.6855V13.685V13.6844V13.6839V13.6833V13.6827V13.6822V13.6816V13.6811V13.6805V13.6799V13.6794V13.6788V13.6782V13.6776V13.6771V13.6765V13.6759V13.6753V13.6747V13.6742V13.6736V13.673V13.6724V13.6718V13.6712V13.6706V13.67V13.6694V13.6688V13.6682V13.6676V13.667V13.6664V13.6658V13.6652V13.6646V13.6639V13.6633V13.6627V13.6621V13.6615V13.6608V13.6602V13.6596V13.6589V13.6583V13.6577V13.657V13.6564V13.6557V13.6551V13.6544V13.6538V13.6531V13.6525V13.6518V13.6512V13.6505V13.6498V13.6492V13.6485V13.6478V13.6472V13.6465V13.6458V13.6451V13.6444V13.6437V13.6431V13.6424V13.6417V13.641V13.6403V13.6396V13.6389V13.6382V13.6374V13.6367V13.636V13.6353V13.6346V13.6339V13.6331V13.6324V13.6317V13.6309V13.6302V13.6295V13.6287V13.628V13.6272V13.6265V13.6257V13.625V13.6242V13.6234V13.6227V13.6219V13.6211V13.6204V13.6196V13.6188V13.618V13.6172V13.6164V13.6156V13.6149V13.6141V13.6133V13.6124V13.6116V13.6108V13.61V13.6092V13.6084V13.6076V13.6067V13.6059V13.6051V13.6042V13.6034V13.6025V13.6017V13.6009V13.6V13.5991V13.5983V13.5974V13.5966V13.5957V13.5948V13.5939V13.5931V13.5922V13.5913V13.5904V13.5895V13.5886V13.5877V13.5868V13.5859V13.585V13.5841V13.5832V13.5822V13.5813V13.5804V13.5794V13.5785ZM46.1299 11.7081C46.1299 11.7081 46.1289 11.7079 46.1268 11.7075C46.1288 11.7078 46.1298 11.7081 46.1299 11.7081Z" stroke="#1EE1E6" stroke-width="1.5"/>
<path d="M47.2856 8.46944L47.2853 8.46783C47.1842 7.8667 46.9308 7.29141 46.5465 6.8521C46.1603 6.41059 45.6067 6.07324 44.9375 6.07324C44.2544 6.07324 43.7022 6.42692 43.3763 6.94852C43.0611 7.45306 42.9673 8.08815 43.0729 8.71657C43.174 9.31732 43.4268 9.89259 43.8108 10.332C44.1969 10.7738 44.7505 11.1112 45.42 11.1112C46.0562 11.1112 46.5845 10.7257 46.9022 10.2633C47.2308 9.78513 47.398 9.14726 47.2856 8.46944Z" stroke="#1EE1E6" stroke-width="1.5"/>
<path d="M38.7804 21.1859L39.3107 21.7127L39.8393 21.1841L42.1123 18.9111C43.7205 20.0501 45.6173 20.7605 47.672 20.7605C53.0708 20.7605 57.4277 16.4036 57.4277 11.0049V11.0047C57.4261 5.60543 53.0708 1.25 47.6713 1.25C42.2734 1.25 37.9157 5.60607 37.9157 11.0056C37.9157 13.1717 38.6046 15.0757 39.7457 16.584L37.4914 18.8384L36.9607 19.3691L37.4918 19.8994C37.6488 20.0562 37.8061 20.2134 37.9581 20.3653C38.2718 20.6789 38.5627 20.9696 38.7804 21.1859ZM45.2605 7.25209H46.4198L46.363 7.71195C46.4074 7.72311 46.5008 7.76838 46.5985 7.96374C46.6966 8.1601 46.7605 8.44208 46.7605 8.75349C46.7605 9.08796 46.6169 9.37871 46.2253 9.78084C46.1532 9.82958 46.0805 9.88017 46.0095 9.93327H45.2605H45.2596H45.2586H45.2577H45.2568H45.2558H45.2549H45.254H45.253H45.2521H45.2512H45.2503H45.2494H45.2485H45.2476H45.2467H45.2458H45.2449H45.244H45.2431H45.2422H45.2414H45.2405H45.2396H45.2388H45.2379H45.237H45.2362H45.2353H45.2345H45.2336H45.2328H45.2319H45.2311H45.2303H45.2294H45.2286H45.2278H45.227H45.2261H45.2253H45.2245H45.2237H45.2229H45.2221H45.2213H45.2205H45.2197H45.2189H45.2181H45.2173H45.2166H45.2158H45.215H45.2142H45.2135H45.2127H45.2119H45.2112H45.2104H45.2097H45.2089H45.2082H45.2074H45.2067H45.2059H45.2052H45.2045H45.2037H45.203H45.2023H45.2015H45.2008H45.2001H45.1994H45.1987H45.198H45.1973H45.1965H45.1958H45.1951H45.1944H45.1937H45.1931H45.1924H45.1917H45.191H45.1903H45.1896H45.1889H45.1883H45.1876H45.1869H45.1863H45.1856H45.1849H45.1843H45.1836H45.183H45.1823H45.1816H45.181H45.1803H45.1797H45.1791H45.1784H45.1778H45.1771H45.1765H45.1759H45.1752H45.1746H45.174H45.1734H45.1727H45.1721H45.1715H45.1709H45.1703H45.1697H45.1691H45.1685H45.1678H45.1672H45.1666H45.166H45.1654H45.1648H45.1643H45.1637H45.1631H45.1625H45.1619H45.1613H45.1607H45.1602H45.1596H45.159H45.1584H45.1578H45.1573H45.1567H45.1561H45.1556H45.155H45.1544H45.1539H45.1533H45.1528H45.1522H45.1516H45.1511H45.1505H45.15H45.1494H45.1489H45.1483H45.1478H45.1473H45.1467H45.1462H45.1456H45.1451H45.1446H45.144H45.1435H45.143H45.1424H45.1419H45.1414H45.1408H45.1403H45.1398H45.1393H45.1387H45.1382H45.1377H45.1372H45.1367H45.1361H45.1356H45.1351H45.1346H45.1341H45.1336H45.1331H45.1326H45.1321H45.1315H45.131H45.1305H45.13H45.1295H45.129H45.1285H45.128H45.1275H45.127H45.1265H45.126H45.1255H45.125H45.1246H45.1241H45.1236H45.1231H45.1226H45.1221H45.1216H45.1211H45.1206H45.1201H45.1197H45.1192H45.1187H45.1182H45.1177H45.1172H45.1168H45.1163H45.1158H45.1153H45.1148H45.1144H45.1139H45.1134H45.1129H45.1124H45.112H45.1115H45.111H45.1105H45.1101H45.1096H45.1091H45.1086H45.1082H45.1077H45.1072H45.1067H45.1063H45.1058H45.1053H45.1049H45.1044H45.1039H45.1034H45.103H45.1025H45.102H45.1016H45.1011H45.1006H45.1001H45.0997H45.0992H45.0987H45.0983H45.0978H45.0973H45.0969H45.0964H45.0959H45.0954H45.095H45.0945H45.094H45.0936H45.0931H45.0926H45.0922H45.0917H45.0912H45.0907H45.0903H45.0898H45.0893H45.0889H45.0884H45.0879H45.0874H45.087H45.0865H45.086H45.0855H45.0851H45.0846H45.0841H45.0836H45.0832H45.0827H45.0822H45.0817H45.0812H45.0808H45.0803H45.0798H45.0793H45.0789H45.0784H45.0779H45.0774H45.0769H45.0764H45.076H45.0755H45.075H45.0745H45.074H45.0735H45.073H45.0725H45.0721H45.0716H45.0711H45.0706H45.0701H45.0696H45.0691H45.0686H45.0681H45.0676H45.0671H45.0666H45.0661H45.0656H45.0651H45.0646H45.0641H45.0636H45.0631H45.0626H45.0621H45.0616H45.0611H45.0605H45.06H45.0595H45.059H45.0585H45.058H45.0575H45.0569H45.0564H45.0559H45.0554H45.0549H45.0543H45.0538H45.0533H45.0527H45.0522H45.0517H45.0511H45.0506H45.0501H45.0495H45.049H45.0485H45.0479H45.0474H45.0468H45.0463H45.0457H45.0452H45.0446H45.0441H45.0435H45.043H45.0424H45.0419H45.0413H45.0407H45.0402H45.0396H45.0391H45.0385H45.0379H45.0373H45.0368H45.0362H45.0356H45.035H45.0345H45.0339H45.0333H45.0327H45.0321H45.0315H45.031H45.0304H45.0298H45.0292H45.0286H45.028H45.0274H45.0268H45.0262H45.0256H45.0249H45.0243H45.0237H45.0231H45.0225H45.0219H45.0212H45.0206H45.02H45.0194H45.0187H45.0181H45.0175H45.0168H45.0162H45.0155H45.0149H45.0143H45.0136H45.013H45.0123H45.0116H45.011H45.0103H45.0097H45.009H45.0083H45.0077H45.007H45.0063H45.0056H45.005H45.0043H45.0036H45.0029H45.0022H45.0015H45.0008H45.0001H44.9994H44.9987H44.998H44.9973H44.9966H44.9959H44.9952H44.9945H44.9938H44.993H44.9923H44.9916H44.9909H44.9901H44.9894H44.9886H44.9879H44.9872H44.9864H44.9857H44.9849H44.9842H44.9834H44.9826H44.9819H44.9811H44.9803H44.9796H44.9788H44.978H44.9772H44.9764H44.9756H44.9749H44.9741H44.9733H44.9725H44.9717H44.9709H44.97H44.9692H44.9684H44.9676H44.9668H44.9659H44.9651H44.9643H44.9634H44.9626H44.9618H44.9609H44.9601H44.9592H44.9584H44.9575H44.9567H44.9558H44.9549H44.954H44.9532H44.9523H44.9514H44.9505H44.9496H44.9487H44.9478H44.9469H44.946H44.9451H44.9442H44.9433H44.9424H44.9415H44.9406H44.9396C44.0297 9.93327 43.4375 9.26823 43.4375 8.59268C43.4375 8.32541 43.5947 8 43.9569 7.71324C44.3145 7.43011 44.7955 7.25209 45.2605 7.25209ZM46.0084 13.0414V12.4331C46.1615 12.5716 46.3314 12.6965 46.4994 12.7851C46.7704 12.9519 46.8934 13.1164 46.9632 13.2757C47.0431 13.4582 47.0814 13.6991 47.0814 14.0604C47.0814 14.3926 46.9458 14.6991 46.6422 14.9396C46.3269 15.1893 45.7831 15.401 44.9375 15.401C44.2201 15.401 43.5864 15.2553 43.1611 15.0275C42.7368 14.8002 42.632 14.5667 42.632 14.382C42.632 14.1217 42.7818 13.8028 43.1685 13.52C43.5513 13.2402 44.1165 13.0414 44.7759 13.0414H44.7769H44.7778H44.7788H44.7797H44.7807H44.7816H44.7826H44.7835H44.7845H44.7854H44.7863H44.7873H44.7882H44.7892H44.7901H44.7911H44.792H44.793H44.7939H44.7949H44.7958H44.7968H44.7977H44.7986H44.7996H44.8005H44.8015H44.8024H44.8034H44.8043H44.8053H44.8062H44.8071H44.8081H44.809H44.81H44.8109H44.8119H44.8128H44.8138H44.8147H44.8156H44.8166H44.8175H44.8185H44.8194H44.8204H44.8213H44.8223H44.8232H44.8241H44.8251H44.826H44.827H44.8279H44.8289H44.8298H44.8308H44.8317H44.8326H44.8336H44.8345H44.8355H44.8364H44.8374H44.8383H44.8393H44.8402H44.8411H44.8421H44.843H44.844H44.8449H44.8459H44.8468H44.8477H44.8487H44.8496H44.8506H44.8515H44.8525H44.8534H44.8543H44.8553H44.8562H44.8572H44.8581H44.8591H44.86H44.8609H44.8619H44.8628H44.8638H44.8647H44.8657H44.8666H44.8675H44.8685H44.8694H44.8704H44.8713H44.8723H44.8732H44.8741H44.8751H44.876H44.877H44.8779H44.8789H44.8798H44.8807H44.8817H44.8826H44.8836H44.8845H44.8854H44.8864H44.8873H44.8883H44.8892H44.8902H44.8911H44.892H44.893H44.8939H44.8949H44.8958H44.8968H44.8977H44.8986H44.8996H44.9005H44.9015H44.9024H44.9033H44.9043H44.9052H44.9062H44.9071H44.9081H44.909H44.9099H44.9109H44.9118H44.9128H44.9137H44.9146H44.9156H44.9165H44.9175H44.9184H44.9193H44.9203H44.9212H44.9222H44.9231H44.9241H44.925H44.9259H44.9269H44.9278H44.9288H44.9297H44.9306H44.9316H44.9325H44.9335H44.9344H44.9353H44.9363H44.9372H44.9382H44.9391H44.94H44.941H44.9419H44.9429H44.9438H44.9448H44.9457H44.9466H44.9476H44.9485H44.9495H44.9504H44.9513H44.9523H44.9532H44.9542H44.9551H44.956H44.957H44.9579H44.9589H44.9598H44.9607H44.9617H44.9626H44.9636H44.9645H44.9654H44.9664H44.9673H44.9683H44.9692H44.9701H44.9711H44.972H44.973H44.9739H44.9749H44.9758H44.9767H44.9777H44.9786H44.9796H44.9805H44.9814H44.9824H44.9833H44.9843H44.9852H44.9861H44.9871H44.988H44.989H44.9899H44.9908H44.9918H44.9927H44.9937H44.9946H44.9955H44.9965H44.9974H44.9984H44.9993H45.0002H45.0012H45.0021H45.0031H45.004H45.0049H45.0059H45.0068H45.0078H45.0087H45.0096H45.0106H45.0115H45.0125H45.0134H45.0143H45.0153H45.0162H45.0172H45.0181H45.019H45.02H45.0209H45.0219H45.0228H45.0237H45.0247H45.0256H45.0266H45.0275H45.0284H45.0294H45.0303H45.0313H45.0322H45.0331H45.0341H45.035H45.036H45.0369H45.0378H45.0388H45.0397H45.0407H45.0416H45.0425H45.0435H45.0444H45.0454H45.0463H45.0472H45.0482H45.0491H45.0501H45.051H45.0519H45.0529H45.0538H45.0548H45.0557H45.0567H45.0576H45.0585H45.0595H45.0604H45.0614H45.0623H45.0632H45.0642H45.0651H45.0661H45.067H45.0679H45.0689H45.0698H45.0708H45.0717H45.0726H45.0736H45.0745H45.0755H45.0764H45.0773H45.0783H45.0792H45.0802H45.0811H45.082H45.083H45.0839H45.0849H45.0858H45.0867H45.0877H45.0886H45.0896H45.0905H45.0915H45.0924H45.0933H45.0943H45.0952H45.0962H45.0971H45.098H45.099H45.0999H45.1009H45.1018H45.1027H45.1037H45.1046H45.1056H45.1065H45.1074H45.1084H45.1093H45.1103H45.1112H45.1122H45.1131H45.114H45.115H45.1159H45.1169H45.1178H45.1187H45.1197H45.1206H45.1216H45.1225H45.1234H45.1244H45.1253H45.1263H45.1272H45.1282H45.1291H45.13H45.131H45.1319H45.1329H45.1338H45.1347H45.1357H45.1366H45.1376H45.1385H45.1395H45.1404H45.1413H45.1423H45.1432H45.1442H45.1451H45.146H45.147H45.1479H45.1489H45.1498H45.1508H45.1517H45.1526H45.1536H45.1545H45.1555H45.1564H45.1574H45.1583H45.1592H45.1602H45.1611H45.1621H45.163H45.1639H45.1649H45.1658H45.1668H45.1677H45.1687H45.1696H45.1705H45.1715H45.1724H45.1734H45.1743H45.1753H45.1762H45.1771H45.1781H45.179H45.18H45.1809H45.1819H45.1828H45.1837H45.1847H45.1856H45.1866H45.1875H45.1885H45.1894H45.1904H45.1913H45.1922H45.1932H45.1941H45.1951H45.196H45.197H45.1979H45.1988H45.1998H45.2007H45.2017H45.2026H45.2036H45.2045H45.2055H45.2064H45.2073H45.2083H45.2092H45.2102H45.2111H45.2121H45.213H45.2139H45.2149H45.2158H45.2168H45.2177H45.2187H45.2196H45.2206H45.2215H45.2225H45.2234H45.2243H45.2253H45.2262H45.2272H45.2281H45.2291H45.23H45.231H45.2319H45.2328H45.2338H45.2347H45.2357H45.2366H45.2376H45.2385H45.2395H45.2404H45.2414H45.2423H45.2432H45.2442H45.2451H45.2461H45.247H45.248H45.2489H45.2499H45.2508H45.2518H45.2527H45.2537H45.2546H45.2555H45.2565H45.2574H45.2584H46.0084Z" stroke="#1EE1E6" stroke-width="1.5"/>
<path d="M37.653 39.9983L39.9267 42.272C38.7876 43.8797 38.0773 45.7765 38.0773 47.8318C38.0773 53.2306 42.435 57.5874 47.8337 57.5874C53.2316 57.5874 57.59 53.2307 57.59 47.8318V47.8195L57.5896 47.8072C57.4125 42.4143 53.058 38.2377 47.6714 38.2377C45.6534 38.2377 43.635 38.9242 42.0948 40.07L39.8395 37.8136L39.1933 37.167L38.6854 37.9271C38.5757 38.0913 38.4284 38.243 38.2445 38.4082C38.1969 38.451 38.1381 38.5018 38.0744 38.5569C37.9354 38.677 37.7731 38.8174 37.6524 38.9383L37.1233 39.4686L37.653 39.9983ZM47.5639 48.9597V51.2659H47.1342V51.2609V51.2497V51.2384V51.2271V51.2157V51.2042V51.1927V51.1811V51.1695V51.1578V51.1461V51.1342V51.1224V51.1104V51.0984V51.0864V51.0743V51.0621V51.0499V51.0376V51.0253V51.0129V51.0005V50.988V50.9754V50.9628V50.9502V50.9374V50.9247V50.9119V50.899V50.8861V50.8731V50.8601V50.8471V50.8339V50.8208V50.8076V50.7943V50.781V50.7677V50.7543V50.7408V50.7273V50.7138V50.7002V50.6866V50.6729V50.6592V50.6455V50.6317V50.6178V50.604V50.59V50.5761V50.5621V50.5481V50.534V50.5199V50.5057V50.4915V50.4773V50.463V50.4487V50.4344V50.42V50.4056V50.3911V50.3766V50.3621V50.3476V50.333V50.3184V50.3037V50.2891V50.2744V50.2596V50.2448V50.23V50.2152V50.2003V50.1855V50.1705V50.1556V50.1406V50.1256V50.1106V50.0955V50.0805V50.0654V50.0502V50.0351V50.0199V50.0047V49.9895V49.9742V49.959V49.9437V49.9284V49.913V49.8977V49.8823V49.8669V49.8515V49.8361V49.8206V49.8051V49.7897V49.7742V49.7586V49.7431V49.7276V49.712V49.6964V49.6808V49.6652V49.6496V49.634V49.6183V49.6027V49.587V49.5713V49.5556V49.5399V49.5242V49.5085V49.4928V49.477V49.4613V49.4455V49.4298V49.414V49.3982V49.3824V49.3666V49.3509V49.3351V49.3193V49.3035V49.2876V49.2718V49.256V49.2402V49.2244V49.2086V49.1927V49.1769V49.1611V49.1453V49.1295V49.1137V49.0978V49.082V49.0662V49.0504V49.0346V49.0188V49.003V48.9872V48.9715V48.9557V48.9399V48.9241V48.9084V48.8926V48.8769V48.8612V48.8454V48.8297V48.814V48.7983V48.7827V48.767V48.7513V48.7357V48.72V48.7044V48.6888V48.6732V48.6576V48.6421V48.6265V48.611V48.5954V48.5799V48.5645V48.549V48.5335V48.5181V48.5027V48.4873V48.4719V48.4566V48.4412V48.4259V48.4106V48.3953V48.3801V48.3649V48.3496V48.3345V48.3193V48.3042V48.2891V48.274V48.2589V48.2439V48.2289V48.2139V48.199V48.184V48.1691V48.1543V48.1394V48.1246V48.1098V48.0951V48.0804V48.0657V48.051V48.0364V48.0218V48.0073V47.9927V47.9783V47.9638V47.9494V47.935V47.9206V47.9063V47.8921V47.8778V47.8636V47.8495V47.8353V47.8212V47.8072V47.7932V47.7792V47.7653V47.7514V47.7376V47.7238V47.71V47.6963V47.6826V47.669V47.6554V47.6418V47.6283V47.6149V47.6015V47.5881V47.5748V47.5615V47.5483V47.5352V47.522V47.509V47.4959V47.483V47.47V47.4572V47.4443V47.4316V47.4188V47.4062V47.3936V47.381V47.3685V47.356V47.3436V47.3313V47.319V47.3068V47.2946V47.2825V47.2704V47.2584V47.2465V47.2346V47.2227V47.211V47.1993V47.1876V47.176V47.1645V47.153V47.1416V47.1366H47.5639V47.1907L48.3172 47.3696C47.9977 47.5816 47.7753 47.8779 47.6437 48.1399L47.5639 48.2987V48.4765V48.4775V48.4784V48.4794V48.4803V48.4813V48.4822V48.4832V48.4841V48.4851V48.486V48.487V48.488V48.4889V48.4899V48.4908V48.4918V48.4927V48.4937V48.4946V48.4956V48.4965V48.4975V48.4984V48.4994V48.5004V48.5013V48.5023V48.5032V48.5042V48.5051V48.5061V48.507V48.508V48.5089V48.5099V48.5108V48.5118V48.5127V48.5137V48.5146V48.5156V48.5165V48.5175V48.5184V48.5194V48.5203V48.5213V48.5222V48.5232V48.5241V48.5251V48.5261V48.527V48.528V48.5289V48.5299V48.5308V48.5318V48.5327V48.5337V48.5346V48.5356V48.5365V48.5375V48.5384V48.5394V48.5403V48.5413V48.5422V48.5432V48.5441V48.5451V48.546V48.547V48.5479V48.5489V48.5498V48.5508V48.5517V48.5527V48.5536V48.5545V48.5555V48.5564V48.5574V48.5583V48.5593V48.5602V48.5612V48.5621V48.5631V48.564V48.565V48.5659V48.5669V48.5678V48.5688V48.5697V48.5707V48.5716V48.5726V48.5735V48.5745V48.5754V48.5764V48.5773V48.5783V48.5792V48.5801V48.5811V48.582V48.583V48.5839V48.5849V48.5858V48.5868V48.5877V48.5887V48.5896V48.5906V48.5915V48.5925V48.5934V48.5943V48.5953V48.5962V48.5972V48.5981V48.5991V48.6V48.601V48.6019V48.6029V48.6038V48.6048V48.6057V48.6066V48.6076V48.6085V48.6095V48.6104V48.6114V48.6123V48.6133V48.6142V48.6152V48.6161V48.617V48.618V48.6189V48.6199V48.6208V48.6218V48.6227V48.6237V48.6246V48.6256V48.6265V48.6274V48.6284V48.6293V48.6303V48.6312V48.6322V48.6331V48.6341V48.635V48.6359V48.6369V48.6378V48.6388V48.6397V48.6407V48.6416V48.6426V48.6435V48.6444V48.6454V48.6463V48.6473V48.6482V48.6492V48.6501V48.651V48.652V48.6529V48.6539V48.6548V48.6558V48.6567V48.6577V48.6586V48.6595V48.6605V48.6614V48.6624V48.6633V48.6643V48.6652V48.6661V48.6671V48.668V48.669V48.6699V48.6709V48.6718V48.6727V48.6737V48.6746V48.6756V48.6765V48.6775V48.6784V48.6793V48.6803V48.6812V48.6822V48.6831V48.684V48.685V48.6859V48.6869V48.6878V48.6888V48.6897V48.6906V48.6916V48.6925V48.6935V48.6944V48.6954V48.6963V48.6972V48.6982V48.6991V48.7001V48.701V48.7019V48.7029V48.7038V48.7048V48.7057V48.7067V48.7076V48.7085V48.7095V48.7104V48.7114V48.7123V48.7132V48.7142V48.7151V48.7161V48.717V48.718V48.7189V48.7198V48.7208V48.7217V48.7227V48.7236V48.7245V48.7255V48.7264V48.7274V48.7283V48.7292V48.7302V48.7311V48.7321V48.733V48.7339V48.7349V48.7358V48.7368V48.7377V48.7387V48.7396V48.7405V48.7415V48.7424V48.7434V48.7443V48.7452V48.7462V48.7471V48.7481V48.749V48.7499V48.7509V48.7518V48.7528V48.7537V48.7546V48.7556V48.7565V48.7575V48.7584V48.7593V48.7603V48.7612V48.7622V48.7631V48.764V48.765V48.7659V48.7669V48.7678V48.7687V48.7697V48.7706V48.7716V48.7725V48.7734V48.7744V48.7753V48.7763V48.7772V48.7782V48.7791V48.78V48.781V48.7819V48.7829V48.7838V48.7847V48.7857V48.7866V48.7876V48.7885V48.7894V48.7904V48.7913V48.7923V48.7932V48.7941V48.7951V48.796V48.797V48.7979V48.7988V48.7998V48.8007V48.8017V48.8026V48.8035V48.8045V48.8054V48.8064V48.8073V48.8082V48.8092V48.8101V48.8111V48.812V48.8129V48.8139V48.8148V48.8157V48.8167V48.8176V48.8186V48.8195V48.8204V48.8214V48.8223V48.8233V48.8242V48.8251V48.8261V48.827V48.828V48.8289V48.8298V48.8308V48.8317V48.8327V48.8336V48.8345V48.8355V48.8364V48.8374V48.8383V48.8392V48.8402V48.8411V48.8421V48.843V48.8439V48.8449V48.8458V48.8468V48.8477V48.8486V48.8496V48.8505V48.8515V48.8524V48.8533V48.8543V48.8552V48.8562V48.8571V48.858V48.859V48.8599V48.8609V48.8618V48.8627V48.8637V48.8646V48.8656V48.8665V48.8674V48.8684V48.8693V48.8703V48.8712V48.8721V48.8731V48.874V48.875V48.8759V48.8768V48.8778V48.8787V48.8797V48.8806V48.8815V48.8825V48.8834V48.8844V48.8853V48.8863V48.8872V48.8881V48.8891V48.89V48.891V48.8919V48.8928V48.8938V48.8947V48.8957V48.8966V48.8975V48.8985V48.8994V48.9004V48.9013V48.9022V48.9032V48.9041V48.9051V48.906V48.9069V48.9079V48.9088V48.9098V48.9107V48.9116V48.9126V48.9135V48.9145V48.9154V48.9164V48.9173V48.9182V48.9192V48.9201V48.9211V48.922V48.9229V48.9239V48.9248V48.9258V48.9267V48.9276V48.9286V48.9295V48.9305V48.9314V48.9324V48.9333V48.9342V48.9352V48.9361V48.9371V48.938V48.9389V48.9399V48.9408V48.9418V48.9427V48.9437V48.9446V48.9455V48.9465V48.9474V48.9484V48.9493V48.9502V48.9512V48.9521V48.9531V48.954V48.955V48.9559V48.9568V48.9578V48.9587V48.9597ZM50.61 47.7342C50.3407 47.3637 49.9551 47.1535 49.5182 47.0981C49.6809 47.0244 49.8703 46.9758 50.0836 46.9758C50.5694 46.9758 50.918 47.1241 51.1485 47.3661C51.3818 47.6109 51.585 48.0473 51.585 48.7988V51.2637H50.9944V49.1198C50.9944 48.6358 50.9006 48.1339 50.61 47.7342ZM44.3484 51.2637H44.0794V47.1345H44.3484V51.2637ZM44.2943 44.8318C44.1631 44.8318 44.0597 44.7832 43.993 44.723C43.9308 44.6669 43.9211 44.6227 43.9196 44.6157C43.9196 44.6157 43.9196 44.6156 43.9196 44.6156C43.9211 44.6087 43.9309 44.5652 43.9927 44.5095C44.0596 44.4493 44.1633 44.4006 44.2943 44.4006C44.4253 44.4006 44.529 44.4493 44.5959 44.5095C44.6228 44.5338 44.6399 44.5557 44.6507 44.5733C44.6021 44.7133 44.5568 44.7642 44.5387 44.7803C44.5385 44.7804 44.5383 44.7806 44.5381 44.7808C44.5289 44.7892 44.4816 44.8318 44.2943 44.8318Z" stroke="#1EE1E6" stroke-width="1.5"/>
<path d="M15.67 44.6129C15.3566 44.7696 14.8905 44.9256 14.4205 45.0829L14.3834 45.0953M15.67 44.6129L10.8448 47.0251V46.5427C10.8448 45.417 11.8104 44.4521 12.9354 44.4521C13.5786 44.4521 14.0611 44.773 14.3834 45.0953M15.67 44.6129C15.6637 44.6316 15.6572 44.65 15.6505 44.6682L15.497 44.7442L15.5603 44.8719C15.3802 45.2175 15.095 45.4773 14.7043 45.7372M15.67 44.6129L14.8659 46.5456M14.3834 45.0953L14.3198 45.159L14.289 45.1127L12.2227 46.4872H14.1186L14.1332 46.5456M14.3834 45.0953L14.4909 45.4163L14.7043 45.7372M14.8652 46.3811C14.8659 46.384 14.8659 46.384 14.8659 46.5456M14.8652 46.3811C15.1868 46.2196 15.5084 45.8987 15.83 45.4163L15.8215 45.4205C15.5027 45.5785 15.1825 45.7372 14.7043 45.7372M14.8652 46.3811L14.7043 46.061M14.8652 46.3811L14.7043 46.4214V46.4872H14.4412L14.2078 46.5456H14.8659M14.8659 46.5456L14.7043 46.061M14.7043 45.7372V46.061M14.7043 46.061L14.1332 46.5456M14.1332 46.5456H14.1159C14.1159 48.9489 12.2821 51.5842 9.07656 51.5842C8.97804 51.5842 8.88002 51.5814 8.78273 51.5758C9.01525 51.4646 9.24104 51.3404 9.46243 51.2076L11.7843 49.8145H9.07656C8.72803 49.8145 8.28952 49.5597 8.01054 49.1511L8.07513 48.3768C7.94441 48.3548 7.82323 48.3142 7.71381 48.2576H9.78929L8.03158 47.0884C8.85568 47.5286 9.80314 47.7751 10.8448 47.7751H11.5948V47.0251V47.0242V47.0232V47.0223V47.0213V47.0204V47.0194V47.0185V47.0175V47.0166V47.0156V47.0147V47.0137V47.0128V47.0118V47.0109V47.0099V47.009V47.008V47.0071V47.0061V47.0052V47.0042V47.0033V47.0023V47.0014V47.0004V46.9995V46.9985V46.9976V46.9966V46.9957V46.9947V46.9938V46.9928V46.9919V46.9909V46.99V46.9891V46.9881V46.9872V46.9862V46.9853V46.9843V46.9834V46.9824V46.9815V46.9805V46.9796V46.9786V46.9777V46.9767V46.9758V46.9748V46.9739V46.973V46.972V46.9711V46.9701V46.9692V46.9682V46.9673V46.9663V46.9654V46.9644V46.9635V46.9625V46.9616V46.9607V46.9597V46.9588V46.9578V46.9569V46.9559V46.955V46.954V46.9531V46.9521V46.9512V46.9503V46.9493V46.9484V46.9474V46.9465V46.9455V46.9446V46.9436V46.9427V46.9417V46.9408V46.9399V46.9389V46.938V46.937V46.9361V46.9351V46.9342V46.9332V46.9323V46.9314V46.9304V46.9295V46.9285V46.9276V46.9266V46.9257V46.9248V46.9238V46.9229V46.9219V46.921V46.92V46.9191V46.9182V46.9172V46.9163V46.9153V46.9144V46.9134V46.9125V46.9115V46.9106V46.9097V46.9087V46.9078V46.9068V46.9059V46.905V46.904V46.9031V46.9021V46.9012V46.9002V46.8993V46.8984V46.8974V46.8965V46.8955V46.8946V46.8936V46.8927V46.8918V46.8908V46.8899V46.8889V46.888V46.887V46.8861V46.8852V46.8842V46.8833V46.8823V46.8814V46.8805V46.8795V46.8786V46.8776V46.8767V46.8758V46.8748V46.8739V46.8729V46.872V46.871V46.8701V46.8692V46.8682V46.8673V46.8663V46.8654V46.8645V46.8635V46.8626V46.8616V46.8607V46.8598V46.8588V46.8579V46.8569V46.856V46.8551V46.8541V46.8532V46.8522V46.8513V46.8503V46.8494V46.8485V46.8475V46.8466V46.8456V46.8447V46.8438V46.8428V46.8419V46.8409V46.84V46.8391V46.8381V46.8372V46.8362V46.8353V46.8344V46.8334V46.8325V46.8315V46.8306V46.8297V46.8287V46.8278V46.8268V46.8259V46.825V46.824V46.8231V46.8221V46.8212V46.8203V46.8193V46.8184V46.8174V46.8165V46.8156V46.8146V46.8137V46.8128V46.8118V46.8109V46.8099V46.809V46.8081V46.8071V46.8062V46.8052V46.8043V46.8034V46.8024V46.8015V46.8005V46.7996V46.7987V46.7977V46.7968V46.7958V46.7949V46.794V46.793V46.7921V46.7911V46.7902V46.7893V46.7883V46.7874V46.7864V46.7855V46.7846V46.7836V46.7827V46.7818V46.7808V46.7799V46.7789V46.778V46.7771V46.7761V46.7752V46.7742V46.7733V46.7724V46.7714V46.7705V46.7695V46.7686V46.7677V46.7667V46.7658V46.7649V46.7639V46.763V46.762V46.7611V46.7602V46.7592V46.7583V46.7573V46.7564V46.7555V46.7545V46.7536V46.7526V46.7517V46.7508V46.7498V46.7489V46.7479V46.747V46.7461V46.7451V46.7442V46.7433V46.7423V46.7414V46.7404V46.7395V46.7386V46.7376V46.7367V46.7357V46.7348V46.7339V46.7329V46.732V46.731V46.7301V46.7292V46.7282V46.7273V46.7264V46.7254V46.7245V46.7235V46.7226V46.7217V46.7207V46.7198V46.7188V46.7179V46.717V46.716V46.7151V46.7141V46.7132V46.7123V46.7113V46.7104V46.7094V46.7085V46.7076V46.7066V46.7057V46.7047V46.7038V46.7029V46.7019V46.701V46.7V46.6991V46.6982V46.6972V46.6963V46.6954V46.6944V46.6935V46.6925V46.6916V46.6907V46.6897V46.6888V46.6878V46.6869V46.686V46.685V46.6841V46.6831V46.6822V46.6813V46.6803V46.6794V46.6784V46.6775V46.6766V46.6756V46.6747V46.6737V46.6728V46.6719V46.6709V46.67V46.669V46.6681V46.6672V46.6662V46.6653V46.6643V46.6634V46.6625V46.6615V46.6606V46.6596V46.6587V46.6577V46.6568V46.6559V46.6549V46.654V46.653V46.6521V46.6512V46.6502V46.6493V46.6483V46.6474V46.6465V46.6455V46.6446V46.6436V46.6427V46.6418V46.6408V46.6399V46.6389V46.638V46.637V46.6361V46.6352V46.6342V46.6333V46.6323V46.6314V46.6305V46.6295V46.6286V46.6276V46.6267V46.6257V46.6248V46.6239V46.6229V46.622V46.621V46.6201V46.6192V46.6182V46.6173V46.6163V46.6154V46.6144V46.6135V46.6126V46.6116V46.6107V46.6097V46.6088V46.6078V46.6069V46.606V46.605V46.6041V46.6031V46.6022V46.6012V46.6003V46.5994V46.5984V46.5975V46.5965V46.5956V46.5946V46.5937V46.5928V46.5918V46.5909V46.5899V46.589V46.588V46.5871V46.5862V46.5852V46.5843V46.5833V46.5824V46.5814V46.5805V46.5795V46.5786V46.5777V46.5767V46.5758V46.5748V46.5739V46.5729V46.572V46.571V46.5701V46.5692V46.5682V46.5673V46.5663V46.5654V46.5644V46.5635V46.5625V46.5616V46.5607V46.5597V46.5588V46.5578V46.5569V46.5559V46.555V46.554V46.5531V46.5521V46.5512V46.5502V46.5493V46.5484V46.5474V46.5465V46.5455V46.5446V46.5436V46.5427L14.1332 46.5456ZM19.8965 37.8126L19.3661 37.2858L18.8376 37.8145L16.5646 40.0881C14.9562 38.9485 13.0611 38.2387 11.0056 38.2387C5.60611 38.2387 1.25 42.5963 1.25 47.9936C1.25 53.393 5.60607 57.7499 11.0056 57.7499C16.4044 57.7499 20.7612 53.393 20.7612 47.9936C20.7612 45.9748 20.0741 43.9569 18.9288 42.4175L21.1849 40.1608L21.7147 39.6309L21.1852 39.1006L21.1844 39.0998C20.7027 38.6174 20.2193 38.1333 19.8965 37.8126Z" stroke="#1EE1E6" stroke-width="1.5"/>
<path d="M18.8376 21.1844L19.4845 21.8313L19.992 21.0701C20.1014 20.906 20.2485 20.7543 20.4323 20.589C20.4802 20.5459 20.5398 20.4944 20.6044 20.4385C20.7428 20.3188 20.9044 20.1791 21.024 20.0594L21.5544 19.529L21.0239 18.9987L18.7502 16.7256C19.8892 15.1174 20.5997 13.2223 20.5997 11.1667C20.5997 5.76728 16.2435 1.41113 10.8441 1.41113C5.42773 1.41113 1.25 5.78511 1.25 11.1667C1.25 16.4127 5.61496 20.7608 11.0056 20.7608C13.0244 20.7608 15.0422 20.0738 16.5817 18.9285L18.8376 21.1844ZM9.87991 10.3072H10.6299V9.55717V8.59228C10.6299 8.01799 10.7423 7.72075 10.8827 7.56281C11.0068 7.42324 11.2804 7.25169 11.9705 7.25169H12.507V7.35984H12.4529C12.2723 7.35984 12.0791 7.3699 11.8992 7.41489C11.7072 7.46288 11.4791 7.56369 11.3044 7.78203C11.1386 7.98934 11.0926 8.21521 11.0752 8.35881C11.0595 8.48814 11.0596 8.62975 11.0597 8.73332C11.0597 8.74008 11.0597 8.74667 11.0597 8.75309V9.55717V10.3072H11.8097H12.4283L12.4175 10.4153H11.6474H10.8974V11.1653V14.9181H10.4677V11.1653V10.4153H9.71766H9.50349V10.3072H9.87991Z" stroke="#1EE1E6" stroke-width="1.5"/>
<path d="M38.2333 33.713L38.2225 33.6869L38.2097 33.6617C38.0622 33.3706 37.8468 33.1574 37.6358 33.016C37.4819 32.9129 37.278 32.8135 37.0554 32.7797C36.3505 32.5466 35.6838 32.3507 35.0302 32.1587L35.0186 32.1553C34.3576 31.9611 33.7098 31.7706 33.028 31.5448C33.0077 31.4926 32.9845 31.4027 32.9845 31.2668L32.9845 31.2543C32.9846 31.1839 32.9846 31.0856 32.9769 30.9933C32.969 30.898 32.9486 30.7362 32.8657 30.5698C32.77 30.3779 32.6137 30.2234 32.4095 30.131C32.3715 29.9383 32.3546 29.7962 32.3472 29.692C32.355 29.6801 32.3628 29.6678 32.3704 29.6551C32.3999 29.6058 32.427 29.55 32.4488 29.4878C32.7099 29.0962 32.8749 28.6583 32.9769 28.2909C33.0393 28.0661 33.0838 27.8466 33.1112 27.6536C33.1263 27.6347 33.1409 27.6147 33.155 27.5936C33.2128 27.5068 33.2525 27.4143 33.2767 27.3202C33.335 27.2016 33.3986 27.0582 33.4323 26.8893C33.4613 26.7446 33.4663 26.5878 33.467 26.4312C33.553 26.1952 33.5952 25.9241 33.5628 25.6649C33.5417 25.4969 33.4807 25.2691 33.3107 25.0701C33.2606 25.0114 33.2049 24.9598 33.1446 24.9157V23.2254C33.1446 22.7107 32.951 22.2784 32.7194 21.9602C32.5059 21.6669 32.235 21.435 31.9752 21.2941C31.8818 21.2314 31.8014 21.1752 31.7293 21.1243C31.8187 20.9749 31.8574 20.8115 31.8574 20.6523H31.1074C31.1074 20.4651 31.1074 20.3417 31.1074 20.3417V19.9023H31.1074H31.1074H31.1074H31.1074H31.1074H31.1073H31.1073H31.1073H31.1073H31.1073H31.1073H31.1073H31.1073H31.1073H31.1073H31.1072H31.1072H31.1072H31.1072H31.1072H31.1072H31.1072H31.1072H31.1072H31.1071H31.1071H31.1071H31.1071H31.1071H31.1071H31.1071H31.107H31.107H31.107H31.107H31.107H31.107H31.1069H31.1069H31.1069H31.1069H31.1069H31.1068H31.1068H31.1068H31.1068H31.1068H31.1067H31.1067H31.1067H31.1067H31.1066H31.1066H31.1066H31.1065H31.1065H31.1065H31.1065H31.1064H31.1064H31.1064H31.1063H31.1063H31.1063H31.1062H31.1062H31.1062H31.1061H31.1061H31.106H31.106H31.106H31.1059H31.1059H31.1058H31.1058H31.1057H31.1057H31.1057H31.1056H31.1056H31.1055H31.1055H31.1054H31.1054H31.1053H31.1053H31.1052H31.1052H31.1051H31.105H31.105H31.1049H31.1049H31.1048H31.1048H31.1047H31.1046H31.1046H31.1045H31.1044H31.1044H31.1043H31.1042H31.1042H31.1041H31.104H31.1039H31.1039H31.1038H31.1037H31.1037H31.1036H31.1035H31.1034H31.1033H31.1033H31.1032H31.1031H31.103H31.1029H31.1028H31.1027H31.1026H31.1026H31.1025H31.1024H31.1023H31.1022H31.1021H31.102H31.1019H31.1018H31.1017H31.1016H31.1015H31.1014H31.1013H31.1012H31.1011H31.1009H31.1008H31.1007H31.1006H31.1005H31.1004H31.1003H31.1001H31.1H31.0999H31.0998H31.0997H31.0995H31.0994H31.0993H31.0991H31.099H31.0989H31.0987H31.0986H31.0985H31.0983H31.0982H31.0981H31.0979H31.0978H31.0976H31.0975H31.0973H31.0972H31.097H31.0969H31.0967H31.0966H31.0964H31.0962H31.0961H31.0959H31.0958H31.0956H31.0954H31.0953H31.0951H31.0949H31.0948H31.0946H31.0944H31.0942H31.094H31.0939H31.0937H31.0935H31.0933H31.0931H31.0929H31.0928H31.0926H31.0924H31.0922H31.092H31.0918H31.0916H31.0914H31.0912H31.091H31.0908H31.0905H31.0903H31.0901H31.0899H31.0897H31.0895H31.0893H31.089H31.0888H31.0886H31.0884H31.0881H31.0879H31.0877H31.0874H31.0872H31.087H31.0867H31.0865H31.0862H31.086H31.0858H31.0855H31.0853H31.085H31.0847H31.0845H31.0842H31.084H31.0837H31.0834H31.0832H31.0829H31.0826H31.0824H31.0821H31.0818H31.0815H31.0813H31.081H31.0807H31.0804H31.0801H31.0798H31.0795H31.0792H31.0789H31.0786H31.0783H31.078H31.0777H31.0774H31.0771H31.0768H31.0765H31.0762H31.0759H31.0755H31.0752H31.0749H31.0746H31.0742H31.0739H31.0736H31.0732H31.0729H31.0726H31.0722H31.0719H31.0715H31.0712H31.0708H31.0705H31.0701H31.0698H31.0694H31.0691H31.0687H31.0683H31.068H31.0676H31.0672H31.0668H31.0665H31.0661H31.0657H31.0653H31.0649H31.0645H31.0641H31.0638H31.0634H31.063H31.0626H31.0621H31.0617H31.0613H31.0609H31.0605H31.0601H31.0597H31.0593H31.0588H31.0584H31.058H31.0575H31.0571H31.0567H31.0562H31.0558H31.0554H31.0549H31.0545H31.054H31.0536H31.0531H31.0526H31.0522H31.0517H31.0512H31.0508H31.0503H31.0498H31.0494H31.0489H31.0484H31.0479H31.0474H31.0469H31.0464H31.0459H31.0454H31.0449H31.0444H31.0439H31.0434H31.0429H31.0424H31.0419H31.0414H31.0408H31.0403H31.0398H31.0392H31.0387H31.0382H31.0376H31.0371H31.0366H31.036H31.0355H31.0349H31.0343H31.0338H31.0332H31.0327H31.0321H31.0315H31.0309H31.0304H31.0298H31.0292H31.0286H31.028H31.0274H31.0269H31.0263H31.0257H31.0251H31.0244H31.0238H31.0232H31.0226H31.022H31.0214H31.0208H31.0201H31.0195H31.0189H31.0182H31.0176H31.017H31.0163H31.0157H31.015H31.0144H31.0137H31.013H31.0124H31.0117H31.011H31.0104H31.0097H31.009H31.0083H31.0076H31.007H31.0063H31.0056H31.0049H31.0042H31.0035H31.0028H31.0021H31.0013H31.0006H30.9999H30.9992H30.9985H30.9977H30.997H30.9963H30.9955H30.9948H30.994H30.9933H30.9925H30.9918H30.991H30.9903H30.9895H30.9887H30.9879H30.9872H30.9864H30.9856H30.9848H30.984H30.9832H30.9824H30.9816H30.9808H30.98H30.9792H30.9784H30.9776H30.9768H30.976H30.9751H30.9743H30.9735H30.9726H30.9718H30.9709H30.9701H30.9692H30.9684H30.9675H30.9667H30.9658H30.9649H30.9641H30.9632H30.9623H30.9614H30.9605H30.9596H30.9588H30.9579H30.957H30.9561H30.9551H30.9542H30.9533H30.9524H30.9515H30.9506H30.9496H30.9487H30.9477H30.9468H30.9459H30.3574V19.9745C30.2829 19.9871 30.2043 20.0012 30.1238 20.0163C29.8123 20.075 29.4343 20.157 29.1481 20.2473C28.2775 20.4271 27.388 20.7803 26.6527 21.3274C26.0057 21.7647 25.5322 22.4611 25.5322 23.3876V23.3895V23.3914V23.3933V23.3952V23.3972V23.3991V23.4011V23.4031V23.4051V23.4071V23.4091V23.4112V23.4132V23.4153V23.4174V23.4195V23.4216V23.4237V23.4259V23.428V23.4302V23.4324V23.4346V23.4368V23.439V23.4413V23.4435V23.4458V23.4481V23.4504V23.4527V23.455V23.4573V23.4597V23.462V23.4644V23.4668V23.4692V23.4716V23.474V23.4765V23.4789V23.4814V23.4839V23.4864V23.4889V23.4914V23.4939V23.4964V23.499V23.5016V23.5041V23.5067V23.5093V23.512V23.5146V23.5172V23.5199V23.5226V23.5252V23.5279V23.5306V23.5333V23.5361V23.5388V23.5416V23.5443V23.5471V23.5499V23.5527V23.5555V23.5583V23.5611V23.564V23.5668V23.5697V23.5726V23.5755V23.5784V23.5813V23.5842V23.5872V23.5901V23.5931V23.596V23.599V23.602V23.605V23.608V23.6111V23.6141V23.6171V23.6202V23.6233V23.6263V23.6294V23.6325V23.6356V23.6388V23.6419V23.645V23.6482V23.6514V23.6545V23.6577V23.6609V23.6641V23.6673V23.6705V23.6738V23.677V23.6803V23.6835V23.6868V23.6901V23.6934V23.6967V23.7V23.7033V23.7067V23.71V23.7134V23.7167V23.7201V23.7235V23.7269V23.7303V23.7337V23.7371V23.7405V23.744V23.7474V23.7509V23.7543V23.7578V23.7613V23.7648V23.7683V23.7718V23.7753V23.7788V23.7823V23.7859V23.7894V23.793V23.7966V23.8001V23.8037V23.8073V23.8109V23.8145V23.8181V23.8218V23.8254V23.829V23.8327V23.8364V23.84V23.8437V23.8474V23.8511V23.8548V23.8585V23.8622V23.8659V23.8696V23.8734V23.8771V23.8809V23.8846V23.8884V23.8922V23.896V23.8997V23.9035V23.9073V23.9111V23.915V23.9188V23.9226V23.9265V23.9303V23.9342V23.938V23.9419V23.9458V23.9496V23.9535V23.9574V23.9613V23.9652V23.9691V23.9731V23.977V23.9809V23.9848V23.9888V23.9927V23.9967V24.0007V24.0046V24.0086V24.0126V24.0166V24.0206V24.0246V24.0286V24.0326V24.0366V24.0406V24.0446V24.0487V24.0527V24.0568V24.0608V24.0649V24.0689V24.073V24.0771V24.0811V24.0852V24.0893V24.0934V24.0975V24.1016V24.1057V24.1098V24.114V24.1181V24.1222V24.1263V24.1305V24.1346V24.1388V24.1429V24.1471V24.1512V24.1554V24.1596V24.1637V24.1679V24.1721V24.1763V24.1805V24.1847V24.1889V24.1931V24.1973V24.2015V24.2057V24.2099V24.2142V24.2184V24.2226V24.2269V24.2311V24.2353V24.2396V24.2438V24.2481V24.2523V24.2566V24.2609V24.2651V24.2694V24.2737V24.278V24.2822V24.2865V24.2908V24.2951V24.2994V24.3037V24.308V24.3123V24.3166V24.3209V24.3252V24.3295V24.3339V24.3382V24.3425V24.3468V24.3511V24.3555V24.3598V24.3641V24.3685V24.3728V24.3772V24.3815V24.3858V24.3902V24.3945V24.3989V24.4033V24.4076V24.412V24.4163V24.4207V24.425V24.4294V24.4338V24.4381V24.4425V24.4469V24.4513V24.4556V24.46V24.4644V24.4688V24.4732V24.4775V24.4819V24.4863V24.4907V24.4951V24.4995V24.5038V24.5082V24.5126V24.517V24.5214V24.5258V24.5302V24.5346V24.539V24.5434V24.5478V24.5522V24.5566V24.561V24.5654V24.5698V24.5742V24.5786V24.583V24.5874V24.5918V24.5962V24.6006V24.605V24.6094V24.6138V24.6182V24.6226V24.627V24.6314V24.6358V24.6402V24.6446V24.649V24.6534V24.6578V24.6621V24.6665V24.6709V24.6753V24.6797V24.6841V24.6885V24.6929V24.6973V24.7017V24.7061V24.7105V24.7149V24.7192V24.7236V24.728V24.7324V24.7368V24.7411V24.7455V24.7499V24.7543V24.7587V24.763V24.7674V24.7718V24.7761V24.7805V24.7849V24.7892V24.7936V24.7979V24.8023V24.8067V24.811V24.8154V24.8197V24.8241V24.8284V24.8327V24.8371V24.8414V24.8458V24.8501V24.8544V24.8587V24.8631V24.8674V24.8717V24.876V24.8803V24.8847V24.889V24.8933V24.8976V24.8987C25.4249 24.9701 25.3273 25.0674 25.2497 25.1967C25.0816 25.4767 25.0997 25.7695 25.1147 25.9041C25.1319 26.0587 25.172 26.2053 25.1937 26.2846L25.1944 26.2874C25.1965 26.2949 25.1984 26.3018 25.2001 26.3081C25.2053 26.327 25.2091 26.3409 25.2121 26.352C25.2234 26.6254 25.3006 26.8403 25.3898 27.0193C25.4283 27.0965 25.4716 27.1717 25.5042 27.2283C25.5074 27.2339 25.5106 27.2394 25.5136 27.2446C25.5316 27.2759 25.5481 27.3048 25.5636 27.3329C25.5879 27.4236 25.6269 27.5127 25.6827 27.5965C25.721 27.6538 25.7632 27.7028 25.8067 27.7445C25.8224 27.8038 25.8384 27.8672 25.8559 27.9357C25.8904 28.072 25.9302 28.2287 25.9817 28.4142C26.0814 28.773 26.2276 29.2423 26.4623 29.5944L26.4973 29.647C26.4962 29.7624 26.4926 29.8768 26.4814 29.9879C26.4763 30.0383 26.4702 30.0821 26.4635 30.1199C26.454 30.1238 26.4445 30.1278 26.435 30.132C26.2285 30.2238 26.0701 30.3789 25.9733 30.5725C25.89 30.739 25.8694 30.9009 25.8615 30.9963C25.8538 31.0887 25.8538 31.187 25.8539 31.2572L25.8539 31.2697C25.8539 31.3086 25.8471 31.3588 25.8305 31.4161C25.8142 31.4727 25.7913 31.5257 25.7677 31.5684C24.9123 31.9001 22.6698 32.6426 21.9541 32.7856L21.9073 32.795L21.862 32.8102C21.5738 32.9071 21.3504 33.0138 21.163 33.1384C20.979 33.2608 20.8545 33.3853 20.7721 33.4677L20.7667 33.4732L20.6617 33.5781L20.6047 33.7151L19.8006 35.6449L19.3679 36.6833H20.4929C21.9338 36.6833 23.0188 37.1088 24.2203 37.6602C24.3616 37.7251 24.505 37.792 24.6509 37.8601C25.7389 38.3676 26.9684 38.9411 28.5541 39.2431L28.6237 39.2564H28.6945H30.3026H30.3559L30.4087 39.2488C32.2091 38.9916 33.7419 38.3077 35.0377 37.7295L35.0504 37.7238C36.4033 37.1202 37.4102 36.6833 38.3433 36.6833H39.4669L39.036 35.6457L38.2333 33.713ZM33.1482 25.3554C33.1481 25.3555 33.1478 25.3531 33.1474 25.3478C33.148 25.3526 33.1482 25.3553 33.1482 25.3554ZM32.1946 29.8741C32.1944 29.8743 32.196 29.8724 32.2 29.8683C32.1968 29.872 32.1948 29.874 32.1946 29.8741ZM32.5825 30.7621C32.5825 30.7615 32.5825 30.7609 32.5825 30.7602C32.5826 30.7662 32.5825 30.7681 32.5825 30.7636L32.5825 30.7621ZM25.2204 26.3861C25.2203 26.386 25.2196 26.383 25.2186 26.3776C25.22 26.3836 25.2205 26.3862 25.2204 26.3861Z" stroke="#1EE1E6" stroke-width="1.5"/>
</svg>
