<svg width="57" height="57" viewBox="0 0 57 57" fill="none" xmlns="http://www.w3.org/2000/svg">
<path d="M31.1672 44.9H25.5303V41.2119C23.3706 41.0202 21.1224 40.4019 19.5971 39.5591L18.9438 39.1979L20.5727 32.8458L21.662 33.4423C22.7164 34.0196 24.8742 34.9884 27.4787 34.9884C28.8251 34.9884 30.1836 34.5615 30.1836 33.6075C30.1836 32.968 29.7726 32.2375 26.7916 31.2302C23.3164 30.061 19.3261 28.1132 19.3261 23.3932C19.3261 19.7198 21.7539 16.8996 25.7195 15.8847V12.1006H31.3564V15.4816C33.7483 15.675 35.3181 16.296 36.3256 16.77L37.0537 17.1127L35.4134 23.2916L34.3262 22.7701C33.3822 22.3169 31.8022 21.5584 29.3323 21.5584C28.4776 21.5584 27.0436 21.7132 27.0436 22.75C27.0436 23.5345 29.1307 24.3963 30.9492 25.0595C35.8185 26.7636 37.901 29.1631 37.901 33.0779C37.901 35.0275 37.217 36.7962 35.9226 38.1929C34.7528 39.4556 33.12 40.3568 31.1672 40.8248V44.9ZM27.4597 42.9706H29.2378V39.2262L30.0386 39.0881C33.6982 38.4572 35.9716 36.1542 35.9716 33.0778C35.9716 30.5471 35.0072 28.5238 30.3 26.8764C27.4573 25.8397 25.1142 24.817 25.1142 22.75C25.1142 21.2412 26.2224 19.629 29.3323 19.629C31.4563 19.629 33.042 20.115 34.1402 20.568L34.7695 18.1981C33.7811 17.8102 32.368 17.4186 30.363 17.3588L29.4271 17.3308V14.03H27.649V17.4603L26.8615 17.6075C23.3512 18.2636 21.2555 20.4265 21.2555 23.3932C21.2555 26.154 23.0955 27.951 27.408 29.4018C29.8523 30.2276 32.113 31.3086 32.113 33.6075C32.113 35.6185 30.294 36.9178 27.4787 36.9178C25.1824 36.9178 23.1958 36.2777 21.8384 35.678L21.1932 38.1942C22.4338 38.7357 24.3577 39.2746 26.5238 39.3392L27.4597 39.3672V42.9706H27.4597Z" fill="#1EE1E6" stroke="#1EE1E6"/>
<path d="M44.0613 51.7416L44.483 50.8652C44.3003 50.996 44.1159 51.125 43.9299 51.2515L44.0613 51.7416Z" stroke="#1EE1E6"/>
<path d="M28.5 54.0706C14.4003 54.0706 2.92939 42.5997 2.92939 28.5001C2.92939 14.4003 14.4003 2.92943 28.5 2.92943C42.5997 2.92943 54.0709 14.4003 54.0709 28.5001C54.0709 32.9941 52.904 37.2201 50.8597 40.8937L52.7767 41.4073C54.8326 37.556 56.0002 33.1621 56.0002 28.5001C56.0002 13.3366 43.6637 1 28.5 1C13.3364 1 1 13.3366 1 28.5001C1 43.6637 13.3364 56 28.5 56C33.3173 56 37.8486 54.7535 41.7903 52.5681L41.2748 50.6444C37.5137 52.8225 33.1499 54.0706 28.5 54.0706Z" fill="#1EE1E6" stroke="#1EE1E6"/>
<path d="M52.3758 55.9999C52.129 55.9999 51.8821 55.9057 51.6937 55.7176L47.015 51.0389L45.5101 54.1663C45.3352 54.53 44.9507 54.7467 44.5508 54.7087C44.1492 54.671 43.8133 54.3874 43.7088 53.9978L40.2486 41.0836C40.1596 40.7507 40.2548 40.3954 40.4984 40.1518C40.7423 39.9079 41.0973 39.8129 41.4302 39.902L54.3442 43.3624C54.7337 43.4669 55.0174 43.8028 55.0551 44.2044C55.0925 44.606 54.8763 44.9888 54.5127 45.1637L51.3852 46.6689L56.0639 51.3473C56.2448 51.5282 56.3463 51.7737 56.3463 52.0294C56.3463 52.2854 56.2448 52.5306 56.0639 52.7118L53.0581 55.7176C52.8697 55.9057 52.6226 55.9999 52.3758 55.9999ZM46.7356 48.4304C46.9892 48.4304 47.2352 48.5305 47.4177 48.713L52.3758 53.6711L54.0175 52.0294L49.0593 47.0716C48.8383 46.8504 48.738 46.5359 48.7904 46.2275C48.8429 45.9193 49.0413 45.6558 49.3231 45.5201L51.3325 44.553L42.5449 42.1983L44.8993 50.9858L45.8661 48.9767C46.0018 48.6949 46.2656 48.4965 46.5738 48.4441C46.6277 48.4349 46.6818 48.4304 46.7356 48.4304Z" fill="#1EE1E6" stroke="#1EE1E6"/>
<path d="M36.1518 9.59446C39.6135 9.59446 46.3517 13.3801 46.3517 20.3195C46.3517 20.8523 46.7834 21.2842 47.3164 21.2842C47.849 21.2842 48.2811 20.8523 48.2811 20.3195C48.2811 16.7074 46.6846 13.3585 43.7859 10.8897C41.4861 8.93081 38.4895 7.66504 36.1517 7.66504C35.619 7.66504 35.187 8.09692 35.187 8.62977C35.187 9.16261 35.6191 9.59446 36.1518 9.59446Z" fill="#1EE1E6" stroke="#1EE1E6"/>
</svg>
