<svg width="57" height="57" viewBox="0 0 57 57" fill="none" xmlns="http://www.w3.org/2000/svg">
<path d="M41.343 1.00005C40.9873 0.996384 40.661 1.19255 40.5033 1.50605L36.4754 9.53604L27.4553 10.8194C26.6981 10.9294 26.3956 11.846 26.9456 12.3704L33.9215 18.6165L32.1744 27.4349C32.046 28.1792 32.8399 28.7457 33.5182 28.3937L41.3338 24.2284L49.1915 28.3955C49.8699 28.7439 50.6582 28.1792 50.5336 27.4385L48.8065 18.6202L55.7183 12.3722C56.2683 11.8479 55.9676 10.9294 55.2086 10.8212L46.1958 9.53788L42.1625 1.50788C42.0085 1.20172 41.6913 1.00372 41.343 1.00005ZM41.3338 3.96088L44.7493 10.7625C44.8832 11.0339 45.1453 11.2209 45.446 11.263L53.0874 12.3539L47.1712 17.6522C46.9512 17.8575 46.854 18.1582 46.9054 18.4515L48.3959 25.9315L41.7665 22.3987C41.497 22.2594 41.1761 22.2594 40.9048 22.3987L34.323 25.9297L35.8319 18.4497C35.8832 18.1564 35.7824 17.8539 35.5661 17.6467L29.5857 12.3484L37.2234 11.2594C37.5259 11.2172 37.7863 11.0302 37.9201 10.7607L41.3338 3.96088ZM31.2503 34C29.7433 34 28.5003 35.243 28.5003 36.75V53.25C28.5003 54.757 29.7433 56 31.2503 56H47.7505C49.2575 56 50.5006 54.757 50.5006 53.25V36.75C50.5006 35.243 49.2575 34 47.7505 34H31.2503ZM31.2503 35.8334H47.7505C48.2749 35.8334 48.6672 36.2257 48.6672 36.75V53.25C48.6672 53.7743 48.2749 54.1667 47.7505 54.1667H31.2503C30.726 54.1667 30.3337 53.7743 30.3337 53.25V36.75C30.3337 36.2257 30.726 35.8334 31.2503 35.8334ZM3.75003 6.50005C2.24301 6.50005 1 7.74304 1 9.25004V25.75C1 27.257 2.24301 28.5 3.75003 28.5H20.2502C21.7572 28.5 23.0003 27.257 23.0003 25.75V9.25004C23.0003 7.74304 21.7572 6.50005 20.2502 6.50005H3.75003ZM3.75003 8.33338H20.2502C20.7746 8.33338 21.1669 8.72571 21.1669 9.25004V25.75C21.1669 26.2744 20.7746 26.6667 20.2502 26.6667H3.75003C3.22569 26.6667 2.83335 26.2744 2.83335 25.75V9.25004C2.83335 8.72571 3.22569 8.33338 3.75003 8.33338ZM3.75003 34C2.24301 34 1 35.243 1 36.75V53.25C1 54.757 2.24301 56 3.75003 56H20.2502C21.7572 56 23.0003 54.757 23.0003 53.25V36.75C23.0003 35.243 21.7572 34 20.2502 34H3.75003ZM3.75003 35.8334H20.2502C20.7746 35.8334 21.1669 36.2257 21.1669 36.75V53.25C21.1669 53.7743 20.7746 54.1667 20.2502 54.1667H3.75003C3.22569 54.1667 2.83335 53.7743 2.83335 53.25V36.75C2.83335 36.2257 3.22569 35.8334 3.75003 35.8334Z" fill="#1EE1E6" stroke="#1EE1E6"/>
</svg>
