<svg width="57" height="57" viewBox="0 0 57 57" fill="none" xmlns="http://www.w3.org/2000/svg">
<path d="M11.6452 4.54785H13.4194C13.9099 4.54785 14.3065 4.94446 14.3065 5.43496C14.3065 5.92546 13.9099 6.32207 13.4194 6.32207H11.6452C11.1547 6.32207 10.7581 5.92546 10.7581 5.43496C10.7581 4.94446 11.1547 4.54785 11.6452 4.54785Z" stroke="#1EE1E6"/>
<path d="M52.4514 12.5323C50.4944 12.5323 48.9029 14.1237 48.9029 16.0807C48.9029 17.0476 49.2941 17.9241 49.923 18.5645L43.4748 27.1622C42.9754 26.8924 42.413 26.7257 41.8062 26.7257C40.5705 26.7257 39.4837 27.3617 38.8477 28.3216L34.7095 26.7302V5.43556C34.7095 2.98976 32.7197 1 30.2739 1H5.43556C2.98976 1 1 2.98976 1 5.43556V51.5644C1 54.0102 2.98976 56 5.43556 56H30.2741C32.7199 56 34.7097 54.0102 34.7097 51.5644V28.6322L38.2846 30.0072C38.2784 30.0968 38.2579 30.1828 38.2579 30.2741C38.2579 32.2311 39.8494 33.8226 41.8064 33.8226C43.7634 33.8226 45.3548 32.2311 45.3548 30.2741C45.3548 29.5707 45.1428 28.9187 44.7889 28.3669L51.4607 19.4712C51.7774 19.5634 52.1056 19.6292 52.4516 19.6292C54.4085 19.6292 56 18.0377 56 16.0807C56 14.1237 54.4083 12.5323 52.4514 12.5323ZM32.9355 51.5643C32.9355 53.0317 31.7413 54.2256 30.2741 54.2256H5.43556C3.96834 54.2256 2.77422 53.0315 2.77422 51.5643V46.2418H32.9355V51.5643ZM32.9355 26.048L28.4735 24.3315C28.4796 24.2419 28.5001 24.1558 28.5001 24.0645C28.5001 22.1076 26.9086 20.5161 24.9516 20.5161C22.9947 20.5161 21.4032 22.1076 21.4032 24.0645C21.4032 24.7512 21.6072 25.3863 21.946 25.93L14.2461 35.17C13.7361 34.8861 13.1567 34.7097 12.5323 34.7097C10.5753 34.7097 8.98382 36.3012 8.98382 38.2581C8.98382 40.2151 10.5753 41.8066 12.5323 41.8066C14.4892 41.8066 16.0805 40.2149 16.0805 38.2579C16.0805 37.5713 15.8765 36.9362 15.5377 36.3924L23.2376 27.1525C23.7477 27.4364 24.327 27.6128 24.9515 27.6128C26.1871 27.6128 27.2739 26.9768 27.9099 26.0168L32.9353 27.9498V44.4675H2.77422V9.87093H32.9355V26.048ZM26.7259 24.0645C26.7259 25.0429 25.9302 25.8388 24.9516 25.8388C23.9731 25.8388 23.1774 25.0429 23.1774 24.0645C23.1774 23.0861 23.9731 22.2903 24.9516 22.2903C25.9302 22.2903 26.7259 23.086 26.7259 24.0645ZM14.3065 38.2579C14.3065 39.2363 13.5108 40.0322 12.5323 40.0322C11.5537 40.0322 10.758 39.2365 10.758 38.2579C10.758 37.2794 11.5537 36.4837 12.5323 36.4837C13.5108 36.4837 14.3065 37.2796 14.3065 38.2579ZM32.9355 8.09689H2.77422V5.43556C2.77422 3.96815 3.96815 2.77422 5.43556 2.77422H30.2741C31.7413 2.77422 32.9355 3.96834 32.9355 5.43556V8.09689ZM41.8064 32.0484C40.828 32.0484 40.0322 31.2527 40.0322 30.2741C40.0322 29.2957 40.8278 28.4999 41.8064 28.4999C42.785 28.4999 43.5806 29.2955 43.5806 30.2741C43.5804 31.2525 42.7848 32.0484 41.8064 32.0484ZM52.4514 17.8547C51.473 17.8547 50.6771 17.0591 50.6771 16.0805C50.6771 15.1021 51.4728 14.3063 52.4514 14.3063C53.4298 14.3063 54.2256 15.1019 54.2256 16.0805C54.2256 17.0591 53.4299 17.8547 52.4514 17.8547Z" fill="#1EE1E6" stroke="#1EE1E6"/>
<path d="M54.2256 23.1777H52.4514V42.6938H54.2256V23.1777Z" fill="#1EE1E6" stroke="#1EE1E6"/>
<path d="M54.2256 44.4678H52.4514V46.242H54.2256V44.4678Z" fill="#1EE1E6" stroke="#1EE1E6"/>
<path d="M50.6773 30.2744H48.9031V48.0163H50.6773V30.2744Z" fill="#1EE1E6" stroke="#1EE1E6"/>
<path d="M50.6773 49.79H48.9031V51.5643H50.6773V49.79Z" fill="#1EE1E6" stroke="#1EE1E6"/>
</svg>
