<svg width="75" height="75" viewBox="0 0 75 75" fill="none" xmlns="http://www.w3.org/2000/svg">
<path fill-rule="evenodd" clip-rule="evenodd" d="M61.19 55.2412C62.76 54.9312 63.7 56.5012 63.7 57.4412C63.7 58.0712 63.08 59.9512 61.82 59.9512H32.95C31.38 59.6312 31.38 58.0712 31.38 57.4412C31.38 56.5012 31.69 54.9312 33.58 55.2412H61.19ZM23.54 57.4412C23.54 59.9512 21.34 61.2012 19.77 61.2012C17.57 61.2012 16.32 59.0112 16.32 57.4412C16.32 55.2412 18.2 53.9912 19.77 53.9912C22.28 53.9912 23.54 55.8712 23.54 57.4412ZM28.56 57.4412C28.56 63.0812 23.85 66.2212 19.77 66.2212C14.12 66.2212 11.3 61.5212 11.3 57.4412C11.3 52.7312 15.06 48.9712 19.77 48.9712C25.42 48.9712 28.56 53.6812 28.56 57.4412ZM64.96 45.2112C70.61 44.5812 69.98 53.9912 69.98 57.4412C69.98 59.6312 71.23 69.9812 65.59 69.9812H9.1C8.16 69.3612 5.02 67.4712 5.02 65.9112V49.2912C5.65 46.7812 7.22 45.2112 9.73 45.2112H64.96ZM66.21 40.1912C69.35 39.8812 75 44.8912 75 48.0312V66.8512C75 69.0412 70.29 75.0012 66.84 75.0012H7.85C5.65 75.0012 0 69.9812 0 67.1612V48.0312C0 44.8912 5.33 39.5612 8.47 40.1912H66.21ZM61.19 15.1012C62.76 14.7912 63.7 16.3612 63.7 17.3012C63.7 17.9312 63.08 19.8112 61.82 19.8112H32.95C31.38 19.4912 31.38 17.9312 31.38 17.3012C31.38 16.3612 31.69 14.7912 33.58 15.1012H61.19ZM26.05 13.5412C26.05 16.0412 19.14 22.3212 18.51 22.9412C18.2 23.2612 17.89 23.5712 16.95 23.5712C15.38 23.5712 11.3 18.2412 11.3 16.9812C11.3 15.4212 12.24 14.4812 13.49 14.4812C15.38 14.4812 15.69 15.7312 17.26 17.3012C18.51 15.7312 21.03 11.3412 23.54 11.3412C25.42 11.3412 26.05 12.9112 26.05 13.5412ZM64.96 5.07122C70.61 4.44122 69.98 13.8512 69.98 17.3012C69.98 19.4912 71.23 29.8412 65.59 29.8412H9.1C8.16 29.2212 5.02 27.3312 5.02 25.7712V9.15122C5.65 6.64122 7.22 5.07122 9.73 5.07122H64.96ZM66.21 0.0512191C69.35 -0.258781 75 4.75122 75 7.89122V26.7112C75 28.9012 70.29 34.8612 66.84 34.8612H7.85C5.65 34.8612 0 29.8412 0 27.0212V7.89122C0 4.75122 5.33 -0.578781 8.47 0.0512191H66.21Z" fill="white"/>
</svg>
