<svg width="49" height="50" viewBox="0 0 49 50" fill="none" xmlns="http://www.w3.org/2000/svg">
<path fill-rule="evenodd" clip-rule="evenodd" d="M36.51 34.3145C37.09 34.1245 38.05 34.9045 38.05 35.8845C38.05 36.4745 37.28 37.6545 36.32 37.6545H22.48C21.14 37.2545 21.14 36.6745 21.14 35.8845C21.14 35.2945 20.95 34.5145 22.29 34.3145H36.51ZM36.51 27.0645C37.09 26.8645 38.05 27.8445 38.05 28.6345C38.05 30.9845 32.47 30.3945 31.71 30.3945C30.36 30.3945 25.36 30.9845 25.36 28.6345C25.36 28.0445 25.56 27.6545 26.13 27.0645H36.51ZM37.85 21.3745C37.85 23.7345 34.2 23.1445 33.44 23.1445C32.09 23.1445 29.02 23.7345 29.02 21.3745C29.02 19.2245 32.09 19.8045 33.24 19.8045C34.78 19.8045 37.85 19.2245 37.85 21.3745ZM36.51 12.5545C37.47 12.7545 38.05 13.5345 38.05 14.1245C38.05 15.8845 35.93 15.8845 34.97 15.8845C33.24 15.8845 32.28 15.6945 32.28 14.1245C32.28 13.5345 32.09 12.7545 33.44 12.5545H36.51ZM22.48 17.0645C22.48 17.8445 21.91 18.8245 20.95 18.8245C20.18 18.8245 19.41 18.0445 18.64 17.2645L18.45 37.0645C18.06 37.8445 17.1 38.8245 16.72 38.8245C16.33 38.8245 15.18 37.8445 15.18 37.2545L14.99 17.2645C13.64 18.4345 13.64 18.8245 12.68 18.8245C11.15 18.8245 11.15 17.8445 11.15 17.0645C11.15 15.4945 14.22 12.7545 15.76 11.5745C15.95 11.1845 16.33 11.3745 16.72 11.3745C18.06 11.3745 22.48 16.2845 22.48 17.0645ZM37.85 3.9245C41.12 3.5345 45.16 7.8445 45.16 10.7945V39.0245C45.16 41.5745 41.31 46.0845 38.24 46.0845H10.57C7.88001 46.0845 3.84 42.1645 3.84 39.2145V10.7945C3.46 7.8445 8.26001 3.3445 10.95 3.9245H37.85ZM38.62 0.00449019C43.43 0.00449019 49 6.08449 49 10.0045V39.8045C48.62 44.7045 42.66 50.0045 39.01 50.0045H9.79999C4.79999 49.6145 0 43.5345 0 40.0045V10.0045C0 5.69449 5.95999 -0.18551 10.18 0.00449019H38.62Z" fill="white"/>
</svg>
