<svg width="75" height="75" viewBox="0 0 75 75" fill="none" xmlns="http://www.w3.org/2000/svg">
<path fill-rule="evenodd" clip-rule="evenodd" d="M9.71 45.29C10.29 45.59 13.82 47.94 13.82 49.41V58.82C8.82 55 4.12 49.71 2.94 45.29H9.71ZM56.47 45.29C56.47 50.29 52.06 53.82 47.94 53.82C42.65 53.82 40 49.41 40 45.29C40 40 43.53 37.35 47.94 37.35C52.94 37.35 56.47 40.88 56.47 45.29ZM60.59 45.29C60.59 52.94 54.41 58.24 47.94 58.24C40 58.24 35.59 51.47 35.59 45.29C35.59 37.94 40.59 32.94 47.94 32.94C55.88 32.94 60.59 38.82 60.59 45.29ZM67.06 45.29C67.06 50.59 62.94 57.35 62.94 57.65C62.94 59.71 75 68.82 75 71.47C75 73.53 72.06 75 71.47 75C69.71 75 58.53 62.35 57.06 62.35C55.59 62.35 52.94 64.41 48.24 64.41C47.35 64.41 45.59 63.82 44.12 63.82C38.82 63.82 29.41 54.71 29.41 49.41V41.47C32.94 29.71 40.29 26.76 47.94 26.76C59.12 26.76 67.06 35.29 67.06 45.29ZM64.12 27.06V27.94C58.24 23.24 53.24 22.06 47.94 22.06C34.41 22.06 24.41 32.94 24.41 45.59C24.41 50.88 27.06 59.71 33.82 64.12C32.94 64.41 32.06 64.41 31.18 64.41C26.76 64.41 23.24 63.53 18.53 61.47V49.12C18.82 47.06 13.82 40.59 10 40.59H1.18C0.59 39.12 0 36.76 0 36.18V34.41H10C15.88 33.53 21.47 26.47 21.18 21.47C20.29 19.71 24.12 13.24 27.94 13.24H36.18C39.41 13.24 46.76 7.94 47.35 3.82C56.47 7.94 62.94 19.12 64.12 27.06ZM42.94 1.76V2.35C42.94 4.41 38.53 8.53 36.18 8.53H28.82C25 8.82 20.29 10.59 17.94 15.59C16.47 17.94 16.76 20.88 16.18 23.53C15.59 26.47 10.88 30 8.53 30H0V28.24C2.65 9.12 18.24 0 32.06 0C35.59 0 38.82 0 42.94 1.76Z" fill="white"/>
</svg>
