<svg width="25" height="30" viewBox="0 0 25 30" fill="none" xmlns="http://www.w3.org/2000/svg">
<path fill-rule="evenodd" clip-rule="evenodd" d="M12.9747 26.6558C12.7612 26.8125 12.5622 26.9547 12.3803 27.0822C12.1863 26.9535 11.9712 26.8055 11.7378 26.6387C10.6377 25.8515 9.21083 24.696 7.80563 23.2548C4.92337 20.2987 2.5 16.5252 2.5 12.5C2.5 6.97715 6.97715 2.5 12.5 2.5C18.0228 2.5 22.5 6.97715 22.5 12.5C22.5 16.482 19.9698 20.2447 16.9822 23.2322C15.5327 24.6818 14.074 25.8498 12.9747 26.6558ZM25 12.5C25 22.5 12.5 30 12.5 30C11.875 30 0 22.5 0 12.5C0 5.59643 5.59643 0 12.5 0C19.4035 0 25 5.59643 25 12.5ZM15 12.5C15 13.8807 13.8807 15 12.5 15C11.1193 15 10 13.8807 10 12.5C10 11.1193 11.1193 10 12.5 10C13.8807 10 15 11.1193 15 12.5ZM17.5 12.5C17.5 15.2615 15.2615 17.5 12.5 17.5C9.7385 17.5 7.5 15.2615 7.5 12.5C7.5 9.73858 9.7385 7.5 12.5 7.5C15.2615 7.5 17.5 9.73858 17.5 12.5Z" fill="#087FED"/>
</svg>
