<svg width="32" height="32" viewBox="0 0 32 32" fill="none" xmlns="http://www.w3.org/2000/svg">
<path d="M17.666 1C17.666 1 21.3327 1.33333 25.9994 6.00001C30.666 10.6667 30.9994 14.3334 30.9994 14.3334" stroke="#087FED" stroke-width="2" stroke-linecap="round"/>
<path d="M18.0117 6.89276C18.0117 6.89276 19.6617 7.36418 22.1366 9.83905C24.6114 12.3139 25.0829 13.9639 25.0829 13.9639" stroke="#087FED" stroke-width="2" stroke-linecap="round"/>
<path d="M11.0627 6.52694L12.1444 8.46516C13.1205 10.2143 12.7287 12.5089 11.1912 14.0463C11.1912 14.0463 9.32649 15.9113 12.7075 19.2925C16.0875 22.6725 17.9537 20.8089 17.9537 20.8089C19.4912 19.2713 21.7857 18.8795 23.5349 19.8557L25.4731 20.9374C28.1144 22.4114 28.4262 26.1154 26.1047 28.437C24.7097 29.832 23.0007 30.9175 21.1116 30.989C17.9314 31.1097 12.5305 30.3049 7.11285 24.8872C1.69522 19.4695 0.890353 14.0687 1.01092 10.8885C1.08254 8.99932 2.16801 7.29037 3.56303 5.89537C5.88462 3.57378 9.58864 3.88571 11.0627 6.52694Z" stroke="#087FED" stroke-width="2" stroke-linecap="round"/>
</svg>
