<svg width="16" height="16" viewBox="0 0 16 16" fill="none" xmlns="http://www.w3.org/2000/svg">
<path fill-rule="evenodd" clip-rule="evenodd" d="M6.87487 0.255066C7.58639 -0.0850219 8.41359 -0.0850219 9.12511 0.255066C9.43423 0.402809 9.71743 0.644409 10.1097 0.978937C10.13 0.996305 10.1507 1.01392 10.1717 1.03178C10.3621 1.1941 10.4221 1.244 10.4828 1.28468C10.6372 1.38815 10.8105 1.45996 10.9929 1.49596C11.0645 1.51011 11.1422 1.51723 11.3917 1.53714C11.4191 1.53934 11.4462 1.54148 11.4729 1.54359C11.9867 1.58437 12.3578 1.61382 12.6809 1.72793C13.4245 1.99058 14.0094 2.57548 14.2721 3.31908C14.3861 3.64213 14.4156 4.01324 14.4564 4.52712C14.4585 4.55379 14.4606 4.58085 14.4629 4.60831C14.4828 4.85775 14.4899 4.93546 14.5041 5.00715C14.54 5.18947 14.6118 5.36283 14.7153 5.51721C14.756 5.57791 14.8059 5.63789 14.9682 5.82835C14.9861 5.84932 15.0037 5.86998 15.021 5.89034C15.3556 6.28252 15.5972 6.56575 15.7449 6.87487C16.085 7.58639 16.085 8.41359 15.7449 9.12511C15.5972 9.43423 15.3556 9.71743 15.021 10.1097C15.0037 10.13 14.9861 10.1506 14.9682 10.1717C14.8059 10.3621 14.756 10.4221 14.7153 10.4828C14.6118 10.6372 14.54 10.8105 14.5041 10.9929C14.4899 11.0645 14.4828 11.1422 14.4629 11.3917C14.4606 11.4191 14.4585 11.4462 14.4564 11.4729C14.4156 11.9867 14.3861 12.3578 14.2721 12.6809C14.0094 13.4245 13.4245 14.0094 12.6809 14.2721C12.3578 14.3861 11.9867 14.4156 11.4729 14.4564C11.4462 14.4585 11.4191 14.4606 11.3917 14.4629C11.1422 14.4828 11.0645 14.4899 10.9929 14.5041C10.8105 14.54 10.6372 14.6118 10.4828 14.7153C10.4221 14.756 10.3621 14.8059 10.1717 14.9682C10.1506 14.9861 10.13 15.0037 10.1097 15.021C9.71743 15.3556 9.43423 15.5972 9.12511 15.7449C8.41359 16.085 7.58639 16.085 6.87487 15.7449C6.56575 15.5972 6.28251 15.3556 5.89031 15.021C5.86996 15.0037 5.84931 14.9861 5.82835 14.9682C5.63788 14.8059 5.57791 14.756 5.51721 14.7153C5.36283 14.6118 5.18947 14.54 5.00715 14.5041C4.93546 14.4899 4.85775 14.4828 4.60831 14.4629C4.58085 14.4606 4.5538 14.4585 4.52712 14.4564C4.01324 14.4156 3.64213 14.3861 3.31908 14.2721C2.57548 14.0094 1.99058 13.4245 1.72793 12.6809C1.61382 12.3578 1.58437 11.9867 1.54359 11.4729C1.54148 11.4462 1.53934 11.4191 1.53714 11.3917C1.51723 11.1422 1.51011 11.0645 1.49596 10.9929C1.45996 10.8105 1.38815 10.6372 1.28468 10.4828C1.244 10.4221 1.1941 10.3621 1.03178 10.1717C1.01392 10.1507 0.996305 10.13 0.978945 10.1097C0.644409 9.71751 0.402809 9.43423 0.255066 9.12511C-0.0850219 8.41359 -0.0850219 7.58639 0.255066 6.87487C0.402809 6.56575 0.644409 6.28251 0.978937 5.89032C0.996297 5.86997 1.01391 5.84931 1.03178 5.82835C1.1941 5.63788 1.244 5.57791 1.28468 5.51721C1.38815 5.36283 1.45996 5.18947 1.49596 5.00715C1.51011 4.93546 1.51723 4.85775 1.53714 4.60831C1.53934 4.58085 1.54148 4.5538 1.54359 4.52712C1.58437 4.01325 1.61382 3.64213 1.72793 3.31908C1.99058 2.57548 2.57548 1.99058 3.31908 1.72793C3.64213 1.61382 4.01325 1.58437 4.52712 1.54359C4.5538 1.54148 4.58085 1.53934 4.60831 1.53714C4.85775 1.51723 4.93546 1.51011 5.00715 1.49596C5.18947 1.45996 5.36283 1.38815 5.51721 1.28468C5.57791 1.244 5.63788 1.1941 5.82835 1.03178C5.84931 1.01391 5.86996 0.996305 5.89032 0.978937C6.28251 0.644409 6.56575 0.402809 6.87487 0.255066ZM8.60583 1.34152C8.22271 1.15839 7.77727 1.15839 7.39415 1.34152C7.24607 1.41231 7.08991 1.53882 6.60943 1.9483C6.60151 1.95502 6.59375 1.96165 6.58607 1.96821C6.42831 2.10264 6.31324 2.20077 6.18764 2.28496C5.90095 2.47711 5.57898 2.61048 5.24038 2.67733C5.09203 2.70661 4.94125 2.71861 4.73469 2.73506C4.72463 2.73586 4.71443 2.73667 4.70409 2.73749C4.07478 2.78772 3.87492 2.80867 3.72012 2.86335C3.31972 3.00477 3.00477 3.31972 2.86335 3.72012C2.80867 3.87492 2.78772 4.07478 2.73749 4.70409C2.73667 4.71443 2.73586 4.72463 2.73506 4.73469C2.71861 4.94125 2.70661 5.09203 2.67733 5.24038C2.61048 5.57898 2.47711 5.90095 2.28496 6.18764C2.20077 6.31324 2.10264 6.42831 1.9682 6.58607C1.96165 6.59375 1.95501 6.60151 1.9483 6.60943C1.53882 7.08991 1.41231 7.24607 1.34152 7.39415C1.15839 7.77727 1.15839 8.22271 1.34152 8.60583C1.41231 8.75391 1.53882 8.91007 1.9483 9.39055C1.95502 9.39847 1.96165 9.40623 1.96821 9.41391C2.10264 9.57167 2.20077 9.68671 2.28496 9.81231C2.47711 10.099 2.61048 10.421 2.67733 10.7596C2.70661 10.9079 2.71861 11.0587 2.73506 11.2653C2.73586 11.2753 2.73667 11.2856 2.73749 11.2959C2.78772 11.9252 2.80867 12.125 2.86335 12.2798C3.00477 12.6802 3.31972 12.9952 3.72012 13.1366C3.87492 13.1913 4.07478 13.2123 4.70409 13.2625L4.73468 13.2649C4.94126 13.2813 5.09204 13.2933 5.24038 13.3226C5.57898 13.3895 5.90095 13.5229 6.18764 13.715C6.31324 13.7992 6.42831 13.8973 6.58607 14.0317L6.60943 14.0517C7.08991 14.4612 7.24607 14.5877 7.39415 14.6585C7.77727 14.8416 8.22271 14.8416 8.60583 14.6585C8.75391 14.5877 8.91007 14.4612 9.39055 14.0517L9.41399 14.0317C9.57167 13.8973 9.68671 13.7992 9.81231 13.715C10.099 13.5229 10.421 13.3895 10.7596 13.3226C10.9079 13.2933 11.0587 13.2813 11.2653 13.2649L11.2959 13.2625C11.9252 13.2123 12.125 13.1913 12.2798 13.1366C12.6802 12.9952 12.9952 12.6802 13.1366 12.2798C13.1913 12.125 13.2123 11.9252 13.2625 11.2959L13.2649 11.2653C13.2813 11.0587 13.2933 10.9079 13.3226 10.7596C13.3895 10.421 13.5229 10.099 13.715 9.81231C13.7992 9.68671 13.8973 9.57167 14.0317 9.41399L14.0517 9.39055C14.4612 8.91007 14.5877 8.75391 14.6585 8.60583C14.8416 8.22271 14.8416 7.77727 14.6585 7.39415C14.5877 7.24607 14.4612 7.08991 14.0517 6.60943L14.0317 6.58599C13.8973 6.42831 13.7992 6.31323 13.715 6.18764C13.5229 5.90095 13.3895 5.57898 13.3226 5.24038C13.2933 5.09203 13.2813 4.94126 13.2649 4.73468L13.2625 4.70409C13.2123 4.07478 13.1913 3.87492 13.1366 3.72012C12.9952 3.31972 12.6802 3.00477 12.2798 2.86335C12.125 2.80867 11.9252 2.78772 11.2959 2.73749C11.2856 2.73667 11.2753 2.73586 11.2653 2.73506C11.0587 2.71861 10.9079 2.70661 10.7596 2.67733C10.421 2.61048 10.099 2.47711 9.81231 2.28496C9.68671 2.20077 9.57167 2.10264 9.41391 1.9682C9.40623 1.96165 9.39847 1.95501 9.39055 1.9483C8.91007 1.53882 8.75391 1.41231 8.60583 1.34152ZM11.2354 5.5673C11.4706 5.80243 11.4706 6.18365 11.2354 6.41879L7.22159 10.4327C6.98639 10.6678 6.60519 10.6678 6.37008 10.4327L4.76451 8.82711C4.52939 8.59199 4.52939 8.21079 4.76451 7.97567C4.99965 7.74055 5.38087 7.74055 5.61599 7.97567L6.79583 9.15543L10.384 5.5673C10.6191 5.33217 11.0003 5.33217 11.2354 5.5673Z" fill="#011E4F"/>
</svg>
