<svg width="16" height="19" viewBox="0 0 16 19" fill="none" xmlns="http://www.w3.org/2000/svg">
<path d="M12.8734 5.37107L13.6072 6.66505C14.1656 7.64955 14.5618 8.58191 14.8331 9.45346C14.7794 8.84538 14.6996 8.18676 14.5889 7.47367L14.5878 7.46664L14.5868 7.4596C14.1768 4.56682 13.1393 3.2306 12.3556 2.60508C11.9527 2.28353 11.5819 2.12115 11.3273 2.03942C11.1995 1.9984 11.101 1.97773 11.0429 1.9678C11.0162 1.96324 10.9983 1.96098 10.9903 1.96007L10.7663 1.94797L10.5569 1.83599L10.5567 1.83591L10.5566 1.83586L10.5563 1.83565L10.5558 1.83539L10.5555 1.83523L10.5509 1.83285L10.5177 1.81591C10.4863 1.80011 10.4371 1.77584 10.3724 1.74551C10.2426 1.68469 10.0527 1.60059 9.82144 1.51217C9.3501 1.33194 8.74813 1.14969 8.1522 1.09052L8.15194 1.0905C7.75271 1.05076 7.29845 1.10891 6.80753 1.20714C6.65004 1.23865 6.51307 1.26889 6.37305 1.2998C6.28586 1.31905 6.19747 1.33856 6.10221 1.3588C5.88781 1.40436 5.62819 1.45595 5.38768 1.47118C5.27385 1.47844 4.98458 1.55579 4.55269 1.80126C4.14473 2.03312 3.68887 2.37004 3.25657 2.7863C2.36833 3.64156 1.71924 4.69197 1.61909 5.68253L12.8734 5.37107ZM12.8734 5.37107L11.8723 6.47136C11.5251 6.85293 11.2703 7.18529 11.067 7.45046C11.0546 7.46669 11.0423 7.48267 11.0303 7.49838C10.8134 7.78096 10.6784 7.94942 10.5256 8.09184C10.2672 8.33262 9.85198 8.59771 8.58477 8.90569L8.58474 8.9057C7.09626 9.26749 5.62766 9.99642 4.50661 10.659C3.40423 11.3105 2.5241 11.9667 2.23439 12.2507L2.23352 12.2516C1.94905 12.5312 1.85731 12.8935 1.82316 13.0369C1.77519 13.2384 1.74832 13.4577 1.7318 13.6621C1.72091 13.7968 1.71348 13.9391 1.70879 14.085M12.8734 5.37107L1.70879 14.085M1.70879 14.085C1.50697 13.2343 1.35101 12.4051 1.22571 11.739C1.21673 11.6912 1.2079 11.6443 1.19923 11.5983L1.70879 14.085ZM1.16474 9.04467C1.05566 9.941 1.03099 10.7047 1.1992 11.5981L1.16474 9.04467ZM1.16474 9.04467C1.20846 8.68544 1.2639 8.31778 1.32582 7.9072M1.16474 9.04467L1.32582 7.9072M1.32582 7.9072C1.34333 7.79106 1.36136 7.67149 1.37979 7.5477M1.32582 7.9072L1.37979 7.5477M1.37979 7.5477C1.46214 6.99465 1.54879 6.38016 1.61906 5.68279L1.37979 7.5477Z" fill="#080341" stroke="#080341" stroke-width="2.15591"/>
</svg>
