<svg width="40" height="40" viewBox="0 0 40 40" fill="none" xmlns="http://www.w3.org/2000/svg">
<path d="M40 20C40 31.0456 31.0456 40 20 40C8.9543 40 0 31.0456 0 20C0 8.9543 8.9543 0 20 0C31.0456 0 40 8.9543 40 20Z" fill="#FF4000" fill-opacity="0.5"/>
<path d="M16.8254 12.9962L17.1532 12.4084C18.4198 10.1361 19.0532 9 20 9C20.9468 9 21.5802 10.1361 22.8468 12.4084L23.1746 12.9963C23.5344 13.6419 23.7144 13.9648 23.995 14.1778C24.2756 14.3908 24.6252 14.4699 25.3242 14.628L25.9604 14.772C28.4202 15.3286 29.65 15.6068 29.9426 16.5478C30.2352 17.4886 29.3968 18.469 27.72 20.43L27.286 20.9372C26.8096 21.4944 26.5714 21.773 26.4642 22.1178C26.357 22.4624 26.393 22.8342 26.465 23.5776L26.5306 24.2544C26.7842 26.8706 26.9108 28.1788 26.1448 28.7602C25.3788 29.3418 24.2274 28.8116 21.9244 27.7512L21.3286 27.4768C20.674 27.1756 20.3468 27.0248 20 27.0248C19.6532 27.0248 19.326 27.1756 18.6714 27.4768L18.0756 27.7512C15.7727 28.8116 14.6212 29.3418 13.8551 28.7602C13.0891 28.1788 13.2159 26.8706 13.4694 24.2544L13.535 23.5776C13.607 22.8342 13.643 22.4624 13.5359 22.1178C13.4287 21.773 13.1904 21.4944 12.7139 20.9372L12.2801 20.43C10.6032 18.469 9.76482 17.4886 10.0574 16.5478C10.35 15.6068 11.5799 15.3285 14.0395 14.772L14.6759 14.628C15.3749 14.4699 15.7243 14.3908 16.005 14.1778C16.2856 13.9648 16.4656 13.6419 16.8254 12.9962Z" fill="white"/>
</svg>
