<svg width="16" height="18" viewBox="0 0 16 18" fill="none" xmlns="http://www.w3.org/2000/svg">
<path d="M5.8797 1.60586C5.95435 1.58388 6.03187 1.57216 6.11226 1.57216C6.2228 1.57216 6.32759 1.59414 6.42521 1.6337C6.5257 1.67473 6.61614 1.7348 6.69222 1.80806C6.7683 1.88278 6.83003 1.9707 6.87166 2.07033C6.91186 2.16557 6.93483 2.27106 6.93483 2.37949V2.75604H8.44071C8.80534 2.21832 9.38673 1.6 9.78582 1.17656C9.91358 1.04029 10.0241 0.923077 10.0988 0.83956V0.838095C10.1002 0.835165 10.1031 0.832234 10.1059 0.830769C10.2552 0.640293 10.416 0.515751 10.5739 0.445421C10.7562 0.36337 10.9371 0.353114 11.095 0.395604C11.1582 0.413187 11.2185 0.438095 11.273 0.471795C11.329 0.505495 11.3807 0.54652 11.4266 0.594872C11.4726 0.641758 11.5128 0.695971 11.5472 0.756044C11.5802 0.814652 11.6075 0.879121 11.6262 0.94652C11.6707 1.10623 11.6736 1.28645 11.6204 1.47399C11.5745 1.6381 11.4855 1.80659 11.3434 1.96777L11.3391 1.97216C11.319 1.9956 11.2816 2.03663 11.2328 2.09524L11.1639 2.17582H11.1941C11.2242 2.17582 11.2544 2.17729 11.2845 2.18022C11.3118 2.18315 11.3405 2.18608 11.3678 2.19048H14.5174C14.6179 2.19048 14.7155 2.21392 14.8045 2.25495C14.8949 2.29744 14.9782 2.36044 15.0456 2.43956C15.1131 2.51722 15.1691 2.60952 15.2064 2.71209C15.2423 2.81026 15.2624 2.91868 15.2624 3.03004C15.2624 3.11355 15.2509 3.1956 15.2294 3.27473C15.2193 3.31282 15.2064 3.34945 15.1921 3.38462H15.2208C15.3227 3.38462 15.4189 3.40806 15.5079 3.44908C15.5983 3.49158 15.6816 3.55604 15.7491 3.6337C15.8165 3.71136 15.8711 3.80366 15.9084 3.90623C15.9443 4.0044 15.9644 4.11282 15.9644 4.22418C15.9644 4.33553 15.9443 4.44396 15.9084 4.54212C15.8711 4.64469 15.8165 4.737 15.7491 4.81465C15.6802 4.89231 15.5983 4.95531 15.5079 4.99927C15.4189 5.04176 15.3227 5.06374 15.2208 5.06374H15.1949C15.2107 5.10037 15.2236 5.13846 15.2351 5.17656C15.2581 5.25714 15.2696 5.34066 15.2696 5.42564V5.42711C15.2696 5.53846 15.2495 5.64689 15.2136 5.74506C15.1763 5.84762 15.1217 5.93993 15.0543 6.01758C14.9853 6.09524 14.9035 6.15971 14.8131 6.2022C14.7241 6.24469 14.6279 6.26667 14.526 6.26667H14.4614C14.4757 6.30037 14.4872 6.337 14.4958 6.37216C14.5159 6.44689 14.526 6.52747 14.526 6.60806V6.61099C14.526 6.72234 14.5059 6.82784 14.47 6.92601C14.4327 7.02857 14.3781 7.12088 14.3106 7.19854C14.2417 7.27619 14.1599 7.33919 14.0695 7.38315C13.9805 7.42564 13.8843 7.44762 13.7824 7.44762H13.6647V9.89597C14.1915 10.2945 14.7973 10.9304 15.2136 11.367C15.3457 11.5062 15.4591 11.6249 15.5438 11.7084L15.5466 11.7099C15.5495 11.7128 15.551 11.7143 15.5538 11.7172C15.739 11.8799 15.8596 12.0542 15.9285 12.2256C16.0075 12.4234 16.0175 12.6183 15.9759 12.7897C15.9586 12.8571 15.9342 12.9231 15.9027 12.9832C15.8696 13.0447 15.8294 13.1004 15.7835 13.1502C15.7361 13.2015 15.683 13.2454 15.6256 13.2806C15.5682 13.3158 15.505 13.3451 15.4375 13.367C15.2811 13.4154 15.1016 13.4183 14.9179 13.3612C14.7557 13.3099 14.5891 13.2117 14.4298 13.0549C14.4068 13.033 14.3638 12.9905 14.3092 12.9377L14.2317 12.863V12.8996C14.2317 12.9319 14.2303 12.9641 14.2274 12.9978C14.2245 13.0271 14.2216 13.0564 14.2173 13.0886V16.4249C14.2173 16.5333 14.1944 16.6388 14.1542 16.7341C14.1125 16.8337 14.0508 16.9216 13.9747 16.9963C13.8986 17.0711 13.8082 17.1311 13.7077 17.1707C13.6101 17.2103 13.5053 17.2322 13.3948 17.2322C13.3115 17.2322 13.2311 17.219 13.155 17.1971C13.1177 17.1853 13.0818 17.1722 13.0474 17.156V17.1927C13.0474 17.3011 13.0244 17.4066 12.9842 17.5018C12.9426 17.6015 12.8808 17.6894 12.8048 17.7641C12.7287 17.8388 12.6382 17.8989 12.5377 17.9385C12.4401 17.978 12.3353 18 12.2248 18C12.1143 18 12.0095 17.978 11.9119 17.9385C11.8114 17.8974 11.7209 17.8374 11.6448 17.7641C11.5688 17.6894 11.507 17.6015 11.4654 17.5018C11.4252 17.4066 11.4022 17.3011 11.4022 17.1927V17.1604C11.3692 17.1766 11.3333 17.1897 11.2989 17.2015L11.2931 17.2044C11.2142 17.2293 11.1309 17.241 11.0477 17.241H11.0462C10.9357 17.241 10.8309 17.219 10.7333 17.1795C10.6328 17.1385 10.5423 17.0784 10.4663 17.0051C10.3902 16.9304 10.3284 16.8425 10.2868 16.7429C10.2466 16.6476 10.2237 16.5421 10.2237 16.4337V16.359C10.1906 16.3736 10.1562 16.3868 10.1203 16.3971C10.0456 16.419 9.96813 16.4308 9.88774 16.4308C9.7772 16.4308 9.67241 16.4088 9.57479 16.3692C9.4743 16.3282 9.38386 16.2681 9.30778 16.1949C9.2317 16.1201 9.16997 16.0322 9.12834 15.9326C9.08814 15.8374 9.06517 15.7319 9.06517 15.6234V15.2469H7.56072C7.1961 15.7846 6.6147 16.4029 6.21562 16.8264C6.08642 16.9626 5.97732 17.0799 5.90267 17.1634L5.89406 17.1736C5.74476 17.3626 5.58542 17.4857 5.42751 17.5575C5.24519 17.6396 5.06432 17.6498 4.90641 17.6073C4.84324 17.5897 4.78295 17.5648 4.7284 17.5311C4.67241 17.4974 4.62073 17.4564 4.5748 17.4081C4.53029 17.3626 4.49153 17.3099 4.45852 17.2513L4.45565 17.2454C4.42263 17.1868 4.39679 17.1223 4.37669 17.0549C4.33219 16.8952 4.32932 16.715 4.38243 16.5275C4.42837 16.3634 4.51737 16.1949 4.65949 16.0337L4.6638 16.0293C4.6839 16.0059 4.72122 15.9648 4.77003 15.9062L4.83894 15.8256H4.80879C4.77864 15.8256 4.7485 15.8242 4.71835 15.8212C4.69107 15.8183 4.66236 15.8154 4.63509 15.811H1.44818C1.3477 15.811 1.25008 15.7875 1.16108 15.7465C1.07064 15.704 0.987375 15.6396 0.919905 15.5619C0.852434 15.4842 0.796448 15.3919 0.76056 15.2894C0.724671 15.1912 0.704574 15.0828 0.704574 14.9714C0.704574 14.8879 0.716058 14.8059 0.737591 14.7267C0.74764 14.6886 0.76056 14.652 0.774915 14.6169H0.746204C0.644281 14.6169 0.548099 14.5934 0.459096 14.5524C0.368657 14.5099 0.285395 14.4454 0.217925 14.3678C0.150454 14.2901 0.0959036 14.1978 0.0585795 14.0952C0.0212554 13.9985 0.00115776 13.8901 0.00115776 13.7788C0.00115776 13.6674 0.0212554 13.559 0.0571439 13.4608C0.094468 13.3582 0.149019 13.2659 0.216489 13.1883C0.285395 13.1106 0.367221 13.0476 0.45766 13.0037C0.546664 12.9612 0.642845 12.9392 0.744769 12.9392H0.770608C0.754818 12.9026 0.741898 12.8645 0.730413 12.8264C0.707445 12.7458 0.69596 12.6623 0.69596 12.5773V12.5758C0.69596 12.4645 0.716058 12.356 0.751946 12.2579C0.789271 12.1553 0.843821 12.063 0.911292 11.9853C0.980198 11.9077 1.06202 11.8432 1.15246 11.8007C1.24147 11.7582 1.33765 11.7363 1.43957 11.7363H1.50417C1.49125 11.7026 1.47977 11.6689 1.46972 11.6337L1.46828 11.6308C1.44818 11.556 1.43814 11.4755 1.43814 11.3949V11.3919C1.43814 11.2806 1.45823 11.1751 1.49412 11.0769C1.53145 10.9744 1.586 10.8821 1.65347 10.8044C1.72237 10.7267 1.8042 10.6623 1.89464 10.6198C1.98364 10.5773 2.07982 10.5553 2.18175 10.5553H2.33535V8.10696C1.80851 7.70843 1.20271 7.07253 0.786399 6.6359C0.652894 6.49524 0.539486 6.37656 0.454789 6.29304L0.447611 6.28571C0.262426 6.12308 0.140405 5.94872 0.0714993 5.77729C-0.0074555 5.57949 -0.0175043 5.38462 0.0241264 5.21319C0.0413529 5.14579 0.0657572 5.07985 0.0973391 5.01978C0.130357 4.95824 0.170552 4.90256 0.216489 4.85275C0.263862 4.80147 0.316977 4.75751 0.374399 4.72234C0.43182 4.68718 0.494984 4.65788 0.562455 4.6359C0.718929 4.58755 0.898372 4.58462 1.08212 4.64176C1.24434 4.69304 1.41086 4.79121 1.57021 4.94799C1.59317 4.96996 1.63624 5.01245 1.69079 5.0652L1.76831 5.13993V5.1033C1.76831 5.07106 1.76975 5.03883 1.77262 5.00513C1.77549 4.97582 1.77836 4.94652 1.78267 4.91429V1.57656C1.78267 1.46813 1.80563 1.36264 1.84583 1.2674C1.88746 1.16777 1.94919 1.07985 2.02527 1.00513C2.10136 0.930403 2.1918 0.87033 2.29228 0.830769C2.3899 0.791209 2.49469 0.769231 2.60523 0.769231C2.68849 0.769231 2.76888 0.782418 2.84497 0.804396C2.88229 0.816117 2.91818 0.829304 2.95263 0.845421V0.807326C2.95263 0.698901 2.9756 0.593407 3.0158 0.498169C3.05743 0.398535 3.11916 0.310623 3.19524 0.235897C3.27132 0.161172 3.36176 0.101099 3.46225 0.0615385C3.55987 0.021978 3.6661 0 3.77663 0C3.88717 0 3.99197 0.021978 4.08958 0.0615385C4.19007 0.102564 4.28051 0.162637 4.35659 0.235897C4.43268 0.310623 4.49441 0.398535 4.53604 0.498169C4.57623 0.593407 4.5992 0.698901 4.5992 0.807326V0.83956C4.63509 0.823443 4.67098 0.808791 4.7083 0.79707C4.78726 0.772161 4.87052 0.758974 4.95378 0.758974H4.95521C5.06575 0.758974 5.17055 0.780952 5.26816 0.820513C5.36865 0.861538 5.45909 0.921612 5.53517 0.994872C5.61126 1.0696 5.67299 1.15751 5.71462 1.25714C5.75481 1.35238 5.77778 1.45788 5.77778 1.5663V1.64103C5.80936 1.6293 5.84382 1.61612 5.8797 1.60586ZM2.89234 8.31648V10.5553H4.63078H4.63222C4.6437 10.5553 4.65519 10.5568 4.66667 10.5582C4.67241 10.5597 4.67815 10.5597 4.68246 10.5612C4.69969 10.5597 4.71835 10.5582 4.73701 10.5568C4.76142 10.5553 4.78582 10.5538 4.80735 10.5538H5.7706V8.13333C5.7706 7.75531 5.78209 7.74799 5.89262 7.67619C5.93856 7.64689 6.01034 7.6 6.12231 7.45055C6.2271 7.31282 6.30893 7.15751 6.36635 6.99048C6.4209 6.8293 6.44961 6.65641 6.44961 6.47766V5.10183C6.44961 5.09011 6.44961 5.07985 6.44818 5.06813V2.38095C6.44818 2.33846 6.43957 2.29744 6.42521 2.26081L6.42377 2.25788C6.40655 2.21832 6.38214 2.18169 6.35056 2.15092C6.32042 2.12161 6.28453 2.0967 6.24433 2.08059L6.24146 2.07912C6.2027 2.063 6.1582 2.05421 6.11226 2.05421C6.06632 2.05421 6.02326 2.063 5.98306 2.07912C5.94143 2.09524 5.90411 2.12015 5.87396 2.15092C5.84238 2.18169 5.81798 2.21685 5.80075 2.25641C5.78496 2.29451 5.77634 2.33553 5.77634 2.37949V3.81538V3.82271C5.77634 3.86374 5.74333 3.89744 5.70313 3.89744H5.36291C5.32271 3.89744 5.2897 3.86374 5.2897 3.82271V1.56923C5.2897 1.52527 5.28108 1.48425 5.26529 1.44615C5.24806 1.40659 5.22366 1.36996 5.19208 1.34066C5.1605 1.30989 5.12461 1.28498 5.08298 1.26886C5.04422 1.25275 4.99972 1.24396 4.95378 1.24396C4.90784 1.24396 4.86478 1.25275 4.82458 1.26886C4.78295 1.28498 4.74563 1.30989 4.71548 1.34066C4.6839 1.37143 4.65949 1.40659 4.64227 1.44615C4.62648 1.48425 4.61786 1.52527 4.61786 1.56923V3.82271C4.61786 3.86374 4.58484 3.89744 4.54465 3.89744H4.18433C4.14413 3.89744 4.11112 3.86374 4.11112 3.82271V0.808791C4.11112 0.7663 4.1025 0.725275 4.08815 0.688645L4.08671 0.685714C4.06948 0.646154 4.04508 0.609524 4.0135 0.58022C3.98192 0.549451 3.94459 0.524542 3.9044 0.508425C3.86564 0.492308 3.82114 0.483516 3.7752 0.483516C3.7307 0.483516 3.68763 0.492308 3.65031 0.50696H3.64744C3.6058 0.523077 3.56848 0.547985 3.53833 0.578755C3.50675 0.609524 3.48235 0.644689 3.46512 0.684249C3.44933 0.722344 3.44072 0.76337 3.44072 0.807326V3.82271C3.44072 3.86374 3.4077 3.89744 3.3675 3.89744H3.0158C2.9756 3.89744 2.94258 3.86374 2.94258 3.82271V1.57656C2.94258 1.5326 2.93397 1.49158 2.91818 1.45348C2.90095 1.41392 2.87511 1.37729 2.84497 1.34799C2.81339 1.31722 2.7775 1.29231 2.73587 1.27619C2.69711 1.26007 2.6526 1.25128 2.60667 1.25128C2.56073 1.25128 2.51766 1.26007 2.47747 1.27619C2.43727 1.29231 2.40138 1.31575 2.37124 1.34506L2.36837 1.34799C2.33679 1.37875 2.31238 1.41392 2.29515 1.45495C2.27936 1.49304 2.27075 1.53407 2.27075 1.57802C2.27075 2.12308 2.26788 2.73407 2.26644 3.34359C2.26357 3.88132 2.26214 4.41758 2.26214 5.1033L2.22194 5.76557C2.22051 5.79194 2.20472 5.81685 2.18031 5.82857L2.05111 5.89011C2.03963 5.89597 2.02814 5.90037 2.01379 5.90037C1.99082 5.90037 1.96785 5.89744 1.94488 5.89011C1.92191 5.88278 1.90038 5.87399 1.88172 5.86081C1.83865 5.8359 1.7841 5.79634 1.72668 5.74945C1.66639 5.69963 1.60466 5.64542 1.54437 5.59121C1.4166 5.47399 1.2831 5.34359 1.23285 5.29377C1.13811 5.20147 1.0448 5.14286 0.958665 5.11062C0.86679 5.07839 0.782093 5.07546 0.711751 5.09744C0.687347 5.10476 0.662943 5.11648 0.639974 5.13114C0.617005 5.14579 0.596908 5.1619 0.578246 5.18242C0.559584 5.20147 0.543793 5.22491 0.530873 5.24835C0.517953 5.27326 0.507904 5.29963 0.500727 5.32747C0.479193 5.41392 0.487807 5.51502 0.536615 5.62344C0.581117 5.72308 0.657201 5.82564 0.77348 5.92821L0.779222 5.9326L0.792142 5.94432L0.800755 5.95311C0.848128 6 0.914163 6.0674 0.997424 6.15238C1.38215 6.54506 2.10279 7.27912 2.65691 7.69231C2.66265 7.6967 2.6684 7.7011 2.67414 7.70696C2.7129 7.75238 2.74591 7.80073 2.77606 7.85202C2.80621 7.9033 2.83061 7.95751 2.85071 8.01319C2.8665 8.06154 2.87942 8.10989 2.8866 8.16117C2.89378 8.20952 2.89665 8.26081 2.89521 8.31502L2.89234 8.31648ZM6.32472 7.95311V10.5729C6.5257 10.6037 6.71662 10.6681 6.8932 10.7619C7.08843 10.8659 7.26644 11.0081 7.42004 11.1766H9.09388C9.12834 10.9773 9.19006 10.7853 9.27763 10.6081C9.37956 10.4 9.5145 10.2125 9.67671 10.0498V7.4315C9.47574 7.40073 9.28481 7.33626 9.10824 7.24249C8.91157 7.13846 8.735 6.99634 8.58139 6.82784H6.90612C6.87166 7.02711 6.80994 7.21905 6.72237 7.39634C6.62188 7.60147 6.4855 7.79048 6.32472 7.95311ZM9.06517 12.9026V11.7436H7.58082C7.23055 11.7436 7.22481 11.7319 7.15734 11.6176C7.13006 11.5707 7.08843 11.4989 6.95205 11.3832C6.82573 11.2762 6.68504 11.1927 6.53288 11.1355C6.38645 11.0799 6.22854 11.0505 6.06632 11.0505H4.80735C4.7973 11.0505 4.78726 11.0505 4.77577 11.052H2.18462C2.14586 11.052 2.10997 11.0608 2.07552 11.0769C2.03963 11.0945 2.00805 11.1194 1.98077 11.1502C1.9535 11.1824 1.93053 11.2205 1.91474 11.2615C1.90038 11.3026 1.89177 11.3465 1.89177 11.3949C1.89177 11.4418 1.90038 11.4872 1.91474 11.5282C1.93053 11.5707 1.9535 11.6088 1.98077 11.641C2.00805 11.6718 2.03963 11.6967 2.07552 11.7143C2.10853 11.7304 2.14586 11.7392 2.18462 11.7392H3.63021H3.63739C3.67758 11.7392 3.7106 11.7729 3.7106 11.8139V12.1612C3.7106 12.2022 3.67758 12.2359 3.63739 12.2359H1.44101C1.40225 12.2359 1.36636 12.2447 1.33191 12.2608C1.29602 12.2784 1.263 12.3033 1.23572 12.3341C1.20845 12.3663 1.18548 12.4044 1.16969 12.4454C1.15533 12.4864 1.14672 12.5304 1.14672 12.5788C1.14672 12.6256 1.15533 12.6711 1.16969 12.7121C1.18548 12.7546 1.20845 12.7927 1.23572 12.8249C1.263 12.8557 1.29458 12.8806 1.33191 12.8982C1.36492 12.9143 1.40225 12.9231 1.44101 12.9231H3.63595C3.67615 12.9231 3.70916 12.9568 3.70916 12.9978V13.3656C3.70916 13.4066 3.67615 13.4403 3.63595 13.4403H0.744769C0.706009 13.4403 0.67012 13.4491 0.635667 13.4652C0.599779 13.4828 0.566761 13.5077 0.540922 13.5385C0.513646 13.5707 0.490678 13.6088 0.474887 13.6513C0.460531 13.6923 0.451918 13.7363 0.451918 13.7846C0.451918 13.833 0.460531 13.8769 0.474887 13.9179C0.489242 13.959 0.510775 13.9956 0.538051 14.0264L0.540922 14.0293C0.568197 14.0601 0.601214 14.085 0.637103 14.1026C0.67012 14.1187 0.707445 14.1275 0.746204 14.1275H3.63739C3.67758 14.1275 3.7106 14.1612 3.7106 14.2022V14.5612C3.7106 14.6022 3.67758 14.6359 3.63739 14.6359H1.44818C1.40942 14.6359 1.37354 14.6447 1.33908 14.6608C1.30463 14.6769 1.27305 14.7004 1.24721 14.7297L1.24434 14.7341C1.21706 14.7663 1.19409 14.8044 1.1783 14.8454C1.16395 14.8864 1.15533 14.9304 1.15533 14.9788C1.15533 15.0256 1.16395 15.0711 1.1783 15.1121C1.19409 15.1546 1.21563 15.1927 1.24434 15.2249C1.27018 15.2557 1.30176 15.2791 1.33621 15.2967L1.33908 15.2982C1.3721 15.3143 1.40942 15.3231 1.44818 15.3231C1.94488 15.3231 2.53776 15.326 3.13064 15.3275C3.65318 15.3304 4.17571 15.3319 4.80735 15.3319L5.41315 15.3729C5.43899 15.3744 5.4634 15.3905 5.47488 15.4169L5.5323 15.5487C5.53804 15.559 5.54092 15.5707 5.54092 15.5839C5.54092 15.6073 5.53804 15.6308 5.5323 15.6527C5.52656 15.6733 5.51795 15.6938 5.50646 15.7143C5.48349 15.7597 5.44617 15.8154 5.4031 15.8755C5.36147 15.9311 5.31123 15.9956 5.25668 16.0615C5.15045 16.1905 5.03704 16.3209 4.98967 16.3751L4.98536 16.381C4.90066 16.4777 4.84611 16.5729 4.81884 16.6608C4.78869 16.756 4.78726 16.8425 4.80735 16.9158C4.81453 16.9421 4.82458 16.967 4.8375 16.989C4.85042 17.0125 4.86621 17.033 4.88487 17.052C4.9021 17.0711 4.9222 17.0857 4.94517 17.0989C4.9667 17.1121 4.9911 17.1223 5.01551 17.1282C5.09159 17.1487 5.18347 17.1399 5.27965 17.093C5.36865 17.0491 5.4634 16.9714 5.55527 16.8542L5.55958 16.8469L5.57106 16.8337L5.58111 16.822C5.62992 16.7678 5.68878 16.7033 5.76055 16.6242C6.11944 16.2315 6.79127 15.496 7.17026 14.9304C7.17456 14.9245 7.17887 14.9187 7.18461 14.9128C7.22624 14.8747 7.27074 14.8381 7.31812 14.8073C7.36549 14.7766 7.4143 14.7502 7.46741 14.7311C7.51192 14.715 7.55642 14.7018 7.60523 14.6945C7.65116 14.6872 7.69854 14.6843 7.74734 14.6857H9.06804V13.1004V13.0989C9.06804 13.0872 9.06948 13.0755 9.07091 13.0637C9.07235 13.0579 9.07379 13.0505 9.07379 13.0447C9.07235 13.0256 9.06948 13.0051 9.06948 12.9832C9.06517 12.9509 9.06517 12.926 9.06517 12.9026ZM6.93626 5.10183V6.26081H8.42061C8.77089 6.26081 8.77663 6.27253 8.8441 6.38681C8.87137 6.4337 8.913 6.50549 9.04938 6.62125C9.17571 6.72821 9.31639 6.81172 9.46856 6.86886C9.61498 6.92454 9.77289 6.95385 9.93511 6.95385H11.1941C11.2041 6.95385 11.2142 6.95385 11.2257 6.95238H13.7809C13.8197 6.95238 13.8556 6.94359 13.89 6.92747C13.9259 6.90989 13.9575 6.88498 13.9862 6.85421C14.0135 6.82198 14.0365 6.78388 14.0522 6.74286C14.0666 6.70183 14.0752 6.65788 14.0752 6.60952C14.0752 6.56264 14.0666 6.51722 14.0522 6.47619C14.0365 6.4337 14.0135 6.3956 13.9862 6.36337C13.9589 6.3326 13.9274 6.30769 13.8915 6.29011C13.8584 6.27399 13.8211 6.2652 13.7824 6.2652H12.3727H12.3655C12.3253 6.2652 12.2923 6.2315 12.2923 6.19048V5.84322C12.2923 5.8022 12.3253 5.7685 12.3655 5.7685H14.526C14.5647 5.7685 14.6006 5.75971 14.6351 5.74359C14.6695 5.72747 14.7011 5.70403 14.727 5.67473L14.7298 5.67033C14.7571 5.6381 14.7801 5.6 14.7959 5.55897C14.8102 5.51795 14.8188 5.47399 14.8188 5.42564C14.8188 5.37875 14.8102 5.33333 14.7959 5.29231C14.7801 5.24982 14.7571 5.21172 14.7298 5.17949C14.7025 5.14872 14.671 5.12381 14.6336 5.10623C14.6006 5.09011 14.5633 5.08132 14.5245 5.08132H12.364C12.3239 5.08132 12.2908 5.04762 12.2908 5.00659V4.63883C12.2908 4.5978 12.3239 4.5641 12.364 4.5641H15.2208C15.2595 4.5641 15.2954 4.55531 15.3299 4.53919C15.3658 4.52161 15.3988 4.4967 15.4261 4.46593C15.4533 4.4337 15.4763 4.3956 15.4921 4.35458C15.5065 4.31355 15.5151 4.2696 15.5151 4.22125C15.5151 4.17436 15.5065 4.12894 15.4921 4.08791C15.4777 4.04689 15.4562 4.01026 15.4289 3.97949L15.4261 3.97656C15.3988 3.94579 15.3658 3.92088 15.3313 3.9033C15.2983 3.88718 15.261 3.87839 15.2222 3.87839H12.3655C12.3253 3.87839 12.2923 3.84469 12.2923 3.80366V3.44469C12.2923 3.40366 12.3253 3.36996 12.3655 3.36996H14.5188C14.5576 3.36996 14.5934 3.36117 14.6279 3.34506C14.6638 3.32747 14.6968 3.30256 14.7241 3.27179C14.7514 3.23956 14.7743 3.20147 14.7901 3.16044C14.8045 3.11941 14.8131 3.07546 14.8131 3.02711C14.8131 2.98022 14.8045 2.9348 14.7901 2.89377C14.7743 2.85128 14.7528 2.81319 14.7241 2.78095C14.6968 2.75018 14.6638 2.72527 14.6279 2.70769C14.5949 2.69158 14.5576 2.68278 14.5188 2.68278C14.0221 2.68278 13.4378 2.67985 12.855 2.67839C12.3411 2.67692 11.8272 2.67399 11.197 2.67399L10.5883 2.63736C10.5624 2.6359 10.538 2.61978 10.5266 2.59341L10.4691 2.46154C10.4634 2.45128 10.4605 2.43956 10.4605 2.42637C10.4605 2.40293 10.4634 2.37949 10.4691 2.35751C10.4749 2.337 10.4835 2.31648 10.495 2.29597C10.5179 2.25055 10.5553 2.19487 10.5983 2.1348C10.64 2.07912 10.6902 2.01465 10.7448 1.94872C10.8496 1.82125 10.963 1.69231 11.0118 1.63663L11.0175 1.6293C11.1022 1.5326 11.1568 1.43736 11.184 1.34945C11.2142 1.25421 11.2156 1.16777 11.1955 1.09451C11.1883 1.06813 11.1783 1.04322 11.1654 1.02125C11.1525 0.997802 11.1367 0.977289 11.118 0.958242C11.1008 0.939194 11.0807 0.924542 11.0577 0.911355C11.0362 0.896703 11.0118 0.886447 10.9874 0.879121C10.9113 0.858608 10.8194 0.867399 10.7232 0.914286C10.6342 0.958242 10.5395 1.0359 10.4476 1.15311L10.4433 1.16044L10.4318 1.17363L10.4189 1.18681C10.3701 1.24103 10.3112 1.30549 10.2394 1.38462C9.88056 1.77729 9.20873 2.51282 8.82974 3.07839C8.82544 3.08425 8.82113 3.09011 8.81539 3.09597C8.77376 3.13407 8.72926 3.16923 8.68188 3.20147C8.63451 3.23223 8.5857 3.25861 8.53259 3.27766C8.48808 3.29377 8.44358 3.30696 8.39477 3.31429C8.34884 3.32161 8.30146 3.32454 8.25266 3.32308H6.93196V4.90843V4.90989C6.93196 4.92161 6.93052 4.93333 6.92909 4.94506C6.92765 4.95092 6.92621 4.95824 6.92621 4.9641C6.92765 4.98315 6.93052 5.00366 6.93052 5.02564C6.93483 5.05348 6.93626 5.07839 6.93626 5.10183ZM11.1926 7.45055H10.2294V9.87253C10.2294 10.2505 10.2179 10.2579 10.1074 10.3297C10.0614 10.359 9.98966 10.4059 9.87769 10.5553C9.7729 10.693 9.69107 10.8484 9.63365 11.0154C9.5791 11.1766 9.55039 11.3495 9.55039 11.5282V12.904C9.55039 12.9158 9.55039 12.926 9.55182 12.9377V15.6249C9.55182 15.6674 9.56043 15.707 9.57479 15.7436L9.57623 15.7465C9.59345 15.7861 9.61786 15.8227 9.64944 15.8535C9.68102 15.8842 9.71834 15.9092 9.75854 15.9253C9.7973 15.9414 9.8418 15.9502 9.88774 15.9502C9.93368 15.9502 9.97674 15.9414 10.0169 15.9253C10.0586 15.9092 10.0959 15.8842 10.126 15.8535C10.1576 15.8227 10.182 15.7875 10.1993 15.748C10.215 15.7099 10.2237 15.6689 10.2237 15.6249V14.189V14.1817C10.2237 14.1407 10.2567 14.107 10.2969 14.107H10.6371C10.6773 14.107 10.7103 14.1407 10.7103 14.1817V16.4352C10.7103 16.4791 10.7189 16.5201 10.7347 16.5582C10.7505 16.5963 10.7749 16.6315 10.8036 16.6608L10.8079 16.6637C10.8381 16.693 10.874 16.7179 10.9142 16.7341L10.917 16.7355C10.9558 16.7516 11.0003 16.7604 11.0462 16.7604C11.0922 16.7604 11.1352 16.7516 11.1754 16.7355C11.217 16.7194 11.2529 16.6945 11.2845 16.6637C11.3161 16.633 11.3405 16.5978 11.3577 16.5582C11.3735 16.5201 11.3821 16.4791 11.3821 16.4352V14.1817C11.3821 14.1407 11.4152 14.107 11.4554 14.107H11.8157C11.8559 14.107 11.8889 14.1407 11.8889 14.1817V17.1971C11.8889 17.241 11.8975 17.2821 11.9133 17.3201C11.9305 17.3597 11.9549 17.3963 11.9865 17.4256C12.0181 17.4564 12.0554 17.4813 12.0956 17.4974C12.1344 17.5136 12.1789 17.5223 12.2248 17.5223C12.2693 17.5223 12.3124 17.5136 12.3497 17.4989L12.3526 17.4974C12.3942 17.4813 12.4315 17.4564 12.4617 17.4256C12.4932 17.3949 12.5177 17.3597 12.5349 17.3201C12.5507 17.2821 12.5593 17.241 12.5593 17.1971V14.1817C12.5593 14.1407 12.5923 14.107 12.6325 14.107H12.9842C13.0244 14.107 13.0574 14.1407 13.0574 14.1817V16.4278C13.0574 16.4718 13.066 16.5128 13.0818 16.5509C13.099 16.5905 13.1235 16.6271 13.155 16.6579C13.1866 16.6886 13.2225 16.7136 13.2641 16.7297C13.3029 16.7458 13.3474 16.7546 13.3933 16.7546C13.4393 16.7546 13.4823 16.7458 13.5225 16.7297C13.5642 16.7136 13.6001 16.6886 13.6316 16.6579C13.6632 16.6271 13.6876 16.5919 13.7048 16.5509C13.7206 16.5128 13.7292 16.4718 13.7292 16.4278C13.7292 15.8828 13.7321 15.2718 13.7336 14.6623C13.7364 14.1245 13.7379 13.5883 13.7379 12.9026L13.7781 12.2403C13.7795 12.2139 13.7953 12.189 13.8197 12.1773L13.9489 12.1158C13.9604 12.1099 13.9719 12.1055 13.9862 12.1055C14.0092 12.1055 14.0321 12.1084 14.0551 12.1158C14.0781 12.1231 14.0996 12.1319 14.1183 12.1451C14.1613 12.17 14.2159 12.2095 14.2733 12.2564C14.3336 12.3062 14.3953 12.3604 14.4556 12.4147C14.5834 12.5319 14.7169 12.6623 14.7671 12.7121C14.8619 12.8044 14.9552 12.863 15.0413 12.8952C15.1332 12.9289 15.2179 12.9304 15.2882 12.9084C15.3127 12.9011 15.3371 12.8894 15.36 12.8747C15.383 12.8601 15.4031 12.8425 15.4218 12.8234C15.4404 12.8044 15.4562 12.781 15.4691 12.7575C15.482 12.7326 15.4921 12.7062 15.4993 12.6784C15.5208 12.5919 15.5122 12.4908 15.4634 12.3824C15.4189 12.2828 15.3428 12.1802 15.2265 12.0777L15.2208 12.0733L15.2079 12.0615L15.1992 12.0527C15.1519 12.0059 15.0858 11.9385 15.004 11.8549C14.6193 11.4623 13.8986 10.7282 13.3445 10.3136C13.3388 10.3092 13.333 10.3048 13.3273 10.2989C13.29 10.2535 13.2555 10.2051 13.2254 10.1538C13.1952 10.1026 13.1708 10.0484 13.1507 9.99267C13.1349 9.94432 13.122 9.89597 13.1148 9.84469C13.1077 9.79634 13.1048 9.74506 13.1062 9.69084V7.44762H11.3678H11.3663C11.3549 7.44762 11.3434 7.44615 11.3319 7.44469C11.3262 7.44322 11.3204 7.44322 11.3161 7.44176C11.2989 7.44322 11.2816 7.44469 11.263 7.44615H11.2616C11.2386 7.44908 11.2156 7.45055 11.1926 7.45055Z" fill="#080341"/>
</svg>
