<svg width="18" height="14" viewBox="0 0 18 14" fill="none" xmlns="http://www.w3.org/2000/svg">
<path d="M1 1C1.93703 2.40108 2.30233 4.10764 2.02095 5.76952L1.72381 7.58286V9.0381C1.7013 9.52986 1.77872 10.0211 1.9514 10.4821C2.12408 10.9431 2.38842 11.3643 2.72847 11.7203C3.06851 12.0762 3.4772 12.3596 3.92982 12.5532C4.38245 12.7467 4.86962 12.8465 5.3619 12.8465C5.85419 12.8465 6.34136 12.7467 6.79399 12.5532C7.24661 12.3596 7.6553 12.0762 7.99534 11.7203C8.33538 11.3643 8.59973 10.9431 8.77241 10.4821C8.94509 10.0211 9.02251 9.52986 9 9.0381" stroke="#080341" stroke-miterlimit="10"/>
<path d="M4.63477 10.4551H6.09" stroke="#080341" stroke-miterlimit="10"/>
<path d="M16.9999 1C16.0629 2.40108 15.6976 4.10764 15.979 5.76952L16.2761 7.58286V9.0381C16.2986 9.52986 16.2212 10.0211 16.0485 10.4821C15.8758 10.9431 15.6115 11.3643 15.2714 11.7203C14.9314 12.0762 14.5227 12.3596 14.0701 12.5532C13.6175 12.7467 13.1303 12.8465 12.638 12.8465C12.1457 12.8465 11.6585 12.7467 11.2059 12.5532C10.7533 12.3596 10.3446 12.0762 10.0046 11.7203C9.66452 11.3643 9.40017 10.9431 9.22749 10.4821C9.05482 10.0211 8.97739 9.52986 8.9999 9.0381" stroke="#080341" stroke-miterlimit="10"/>
<path d="M13.3654 10.4551H11.9102" stroke="#080341" stroke-miterlimit="10"/>
<path d="M6.08984 5.36523C6.76731 5.59168 7.38288 5.97248 7.88798 6.47758C8.39307 6.98267 8.77387 7.59824 9.00032 8.27571" stroke="#080341" stroke-miterlimit="10"/>
<path d="M11.9105 5.36523C11.233 5.59168 10.6174 5.97248 10.1123 6.47758C9.60725 6.98267 9.22645 7.59824 9 8.27571" stroke="#080341" stroke-miterlimit="10"/>
<path d="M9 9.00018V8.27637" stroke="#080341" stroke-miterlimit="10"/>
</svg>
