<svg width="16" height="16" viewBox="0 0 16 16" fill="none" xmlns="http://www.w3.org/2000/svg">
<mask id="path-1-inside-1_482_346" fill="white">
<path d="M15.9968 0.57675C15.9959 0.567649 15.9942 0.558821 15.9929 0.549837C15.9913 0.538157 15.9899 0.526439 15.9876 0.514837C15.9855 0.504369 15.9826 0.494174 15.98 0.483861C15.9775 0.473941 15.9754 0.463978 15.9724 0.454135C15.9693 0.444018 15.9655 0.434252 15.9619 0.42433C15.9584 0.414526 15.9552 0.404644 15.9512 0.394995C15.9474 0.385777 15.9429 0.376948 15.9386 0.367925C15.934 0.358005 15.9296 0.348005 15.9243 0.338277C15.9197 0.329644 15.9145 0.321477 15.9095 0.313078C15.9038 0.303547 15.8984 0.293859 15.8921 0.284563C15.8861 0.2755 15.8793 0.266945 15.8728 0.258235C15.8668 0.250227 15.8612 0.242024 15.8548 0.234211C15.8427 0.219412 15.8297 0.205267 15.8163 0.191595C15.815 0.190228 15.8139 0.188744 15.8125 0.187415C15.811 0.185853 15.8093 0.184603 15.8077 0.183041C15.7942 0.169841 15.7803 0.157104 15.7657 0.145111C15.7582 0.138901 15.7502 0.133511 15.7425 0.127729C15.7335 0.121009 15.7247 0.114057 15.7153 0.107809C15.7063 0.101793 15.697 0.0965587 15.6878 0.0910508C15.6791 0.0858556 15.6705 0.0803869 15.6615 0.0755438C15.6523 0.0706214 15.6429 0.0664807 15.6335 0.062028C15.6239 0.0574969 15.6145 0.0527313 15.6047 0.0486682C15.5958 0.0449962 15.5868 0.0420666 15.5778 0.0388243C15.567 0.0349179 15.5564 0.0308557 15.5454 0.0274966C15.5368 0.0249182 15.5279 0.0230044 15.5192 0.0207764C15.5077 0.017846 15.4964 0.0146438 15.4847 0.012339C15.475 0.0104246 15.4652 0.00937042 15.4555 0.00788564C15.4446 0.00624486 15.4338 0.00425272 15.4227 0.00315914C15.4066 0.00159676 15.3903 0.00108893 15.3741 0.000698538C15.3694 0.000624939 15.3647 0 15.36 0H11.5197C11.35 0 11.1872 0.0674276 11.0672 0.187449C10.9471 0.307471 10.8797 0.470255 10.8797 0.639992C10.8797 0.809728 10.9471 0.972512 11.0672 1.09253C11.1872 1.21256 11.35 1.27998 11.5197 1.27998H13.8148L11.5197 3.57483L10.0522 2.10739C9.93215 1.98737 9.76934 1.91995 9.59959 1.91996C9.42984 1.91997 9.26704 1.9874 9.14701 2.10743C9.02698 2.22746 8.95956 2.39025 8.95956 2.55999C8.95957 2.72973 9.02701 2.89252 9.14705 3.01254L10.6146 4.47994L9.35424 5.74016C8.20394 4.82156 6.74554 4.37825 5.27856 4.50125C3.81159 4.62425 2.44739 5.30424 1.46614 6.40157C0.484891 7.49889 -0.0389302 8.93025 0.00225705 10.4017C0.0434443 11.8731 0.646513 13.273 1.68761 14.3137C2.72871 15.3544 4.12881 15.957 5.60036 15.9978C7.07192 16.0386 8.50324 15.5144 9.60036 14.5329C10.6975 13.5514 11.3771 12.1871 11.4997 10.7202C11.6223 9.25327 11.1785 7.79511 10.2596 6.64515L11.5197 5.38505L12.9873 6.85249C13.1073 6.97251 13.2701 7.03993 13.4399 7.03993C13.6096 7.03992 13.7724 6.97248 13.8925 6.85245C14.0125 6.73242 14.0799 6.56963 14.0799 6.39989C14.0799 6.23015 14.0125 6.06737 13.8924 5.94735L12.4249 4.47994L14.7199 2.18509V4.47994C14.7199 4.64968 14.7874 4.81246 14.9074 4.93248C15.0274 5.05251 15.1902 5.11993 15.36 5.11993C15.5297 5.11993 15.6925 5.05251 15.8125 4.93248C15.9326 4.81246 16 4.64968 16 4.47994V0.640187C16 0.619015 15.9989 0.597843 15.9968 0.57675ZM8.92743 13.4076C8.1945 14.1405 7.2301 14.5966 6.19856 14.6982C5.16703 14.7998 4.13218 14.5406 3.27034 13.9648C2.4085 13.389 1.77299 12.5321 1.4721 11.5403C1.17121 10.5485 1.22356 9.48304 1.62022 8.52548C2.01688 7.56793 2.73331 6.77752 3.64745 6.28894C4.56158 5.80036 5.61686 5.64384 6.63347 5.84604C7.65008 6.04824 8.56512 6.59665 9.22269 7.39784C9.88025 8.19903 10.2397 9.20342 10.2397 10.2399C10.2391 11.4279 9.76715 12.5672 8.92743 13.4076Z"/>
</mask>
<path d="M15.9968 0.57675C15.9959 0.567649 15.9942 0.558821 15.9929 0.549837C15.9913 0.538157 15.9899 0.526439 15.9876 0.514837C15.9855 0.504369 15.9826 0.494174 15.98 0.483861C15.9775 0.473941 15.9754 0.463978 15.9724 0.454135C15.9693 0.444018 15.9655 0.434252 15.9619 0.42433C15.9584 0.414526 15.9552 0.404644 15.9512 0.394995C15.9474 0.385777 15.9429 0.376948 15.9386 0.367925C15.934 0.358005 15.9296 0.348005 15.9243 0.338277C15.9197 0.329644 15.9145 0.321477 15.9095 0.313078C15.9038 0.303547 15.8984 0.293859 15.8921 0.284563C15.8861 0.2755 15.8793 0.266945 15.8728 0.258235C15.8668 0.250227 15.8612 0.242024 15.8548 0.234211C15.8427 0.219412 15.8297 0.205267 15.8163 0.191595C15.815 0.190228 15.8139 0.188744 15.8125 0.187415C15.811 0.185853 15.8093 0.184603 15.8077 0.183041C15.7942 0.169841 15.7803 0.157104 15.7657 0.145111C15.7582 0.138901 15.7502 0.133511 15.7425 0.127729C15.7335 0.121009 15.7247 0.114057 15.7153 0.107809C15.7063 0.101793 15.697 0.0965587 15.6878 0.0910508C15.6791 0.0858556 15.6705 0.0803869 15.6615 0.0755438C15.6523 0.0706214 15.6429 0.0664807 15.6335 0.062028C15.6239 0.0574969 15.6145 0.0527313 15.6047 0.0486682C15.5958 0.0449962 15.5868 0.0420666 15.5778 0.0388243C15.567 0.0349179 15.5564 0.0308557 15.5454 0.0274966C15.5368 0.0249182 15.5279 0.0230044 15.5192 0.0207764C15.5077 0.017846 15.4964 0.0146438 15.4847 0.012339C15.475 0.0104246 15.4652 0.00937042 15.4555 0.00788564C15.4446 0.00624486 15.4338 0.00425272 15.4227 0.00315914C15.4066 0.00159676 15.3903 0.00108893 15.3741 0.000698538C15.3694 0.000624939 15.3647 0 15.36 0H11.5197C11.35 0 11.1872 0.0674276 11.0672 0.187449C10.9471 0.307471 10.8797 0.470255 10.8797 0.639992C10.8797 0.809728 10.9471 0.972512 11.0672 1.09253C11.1872 1.21256 11.35 1.27998 11.5197 1.27998H13.8148L11.5197 3.57483L10.0522 2.10739C9.93215 1.98737 9.76934 1.91995 9.59959 1.91996C9.42984 1.91997 9.26704 1.9874 9.14701 2.10743C9.02698 2.22746 8.95956 2.39025 8.95956 2.55999C8.95957 2.72973 9.02701 2.89252 9.14705 3.01254L10.6146 4.47994L9.35424 5.74016C8.20394 4.82156 6.74554 4.37825 5.27856 4.50125C3.81159 4.62425 2.44739 5.30424 1.46614 6.40157C0.484891 7.49889 -0.0389302 8.93025 0.00225705 10.4017C0.0434443 11.8731 0.646513 13.273 1.68761 14.3137C2.72871 15.3544 4.12881 15.957 5.60036 15.9978C7.07192 16.0386 8.50324 15.5144 9.60036 14.5329C10.6975 13.5514 11.3771 12.1871 11.4997 10.7202C11.6223 9.25327 11.1785 7.79511 10.2596 6.64515L11.5197 5.38505L12.9873 6.85249C13.1073 6.97251 13.2701 7.03993 13.4399 7.03993C13.6096 7.03992 13.7724 6.97248 13.8925 6.85245C14.0125 6.73242 14.0799 6.56963 14.0799 6.39989C14.0799 6.23015 14.0125 6.06737 13.8924 5.94735L12.4249 4.47994L14.7199 2.18509V4.47994C14.7199 4.64968 14.7874 4.81246 14.9074 4.93248C15.0274 5.05251 15.1902 5.11993 15.36 5.11993C15.5297 5.11993 15.6925 5.05251 15.8125 4.93248C15.9326 4.81246 16 4.64968 16 4.47994V0.640187C16 0.619015 15.9989 0.597843 15.9968 0.57675ZM8.92743 13.4076C8.1945 14.1405 7.2301 14.5966 6.19856 14.6982C5.16703 14.7998 4.13218 14.5406 3.27034 13.9648C2.4085 13.389 1.77299 12.5321 1.4721 11.5403C1.17121 10.5485 1.22356 9.48304 1.62022 8.52548C2.01688 7.56793 2.73331 6.77752 3.64745 6.28894C4.56158 5.80036 5.61686 5.64384 6.63347 5.84604C7.65008 6.04824 8.56512 6.59665 9.22269 7.39784C9.88025 8.19903 10.2397 9.20342 10.2397 10.2399C10.2391 11.4279 9.76715 12.5672 8.92743 13.4076Z" fill="#080341"/>
<path d="M15.9968 0.57675L12.8868 0.882118L12.8869 0.883435L15.9968 0.57675ZM15.9929 0.549837L19.0872 0.112532L19.087 0.111336L15.9929 0.549837ZM15.9876 0.514837L19.0531 -0.0920913L19.0527 -0.0941939L15.9876 0.514837ZM15.98 0.483861L12.9487 1.24322L12.9493 1.24587L15.98 0.483861ZM15.9724 0.454135L18.9638 -0.449641L18.9626 -0.453622L15.9724 0.454135ZM15.9619 0.42433L13.0194 1.47648L13.0201 1.47854L15.9619 0.42433ZM15.9512 0.394995L18.8381 -0.801408L18.8378 -0.802251L15.9512 0.394995ZM15.9386 0.367925L18.7669 -0.961176L18.7662 -0.962715L15.9386 0.367925ZM15.9243 0.338277L13.169 1.81268L13.1691 1.81277L15.9243 0.338277ZM15.9095 0.313078L18.5957 -1.2837L18.5928 -1.28861L15.9095 0.313078ZM15.8921 0.284563L18.488 -1.45525L18.4879 -1.45546L15.8921 0.284563ZM15.8728 0.258235L13.3676 2.12635L13.3701 2.12964L15.8728 0.258235ZM15.8548 0.234211L18.2728 -1.74543L18.2687 -1.75049L15.8548 0.234211ZM15.8163 0.191595L13.5708 2.36496L13.579 2.37341L13.5873 2.3818L15.8163 0.191595ZM15.8125 0.187415L13.5927 2.38695L13.6014 2.39575L13.6102 2.40448L15.8125 0.187415ZM15.8077 0.183041L18.0173 -2.02675L18.0057 -2.03841L17.9939 -2.04994L15.8077 0.183041ZM15.7657 0.145111L13.7789 2.55721L13.782 2.5598L15.7657 0.145111ZM15.7425 0.127729L13.8708 2.6302L13.8737 2.63241L15.7425 0.127729ZM15.7153 0.107809L13.9773 2.70489L13.9775 2.70501L15.7153 0.107809ZM15.6878 0.0910508L17.2906 -2.59162L17.2872 -2.59365L15.6878 0.0910508ZM15.6615 0.0755438L17.1437 -2.67565L17.1357 -2.67989L15.6615 0.0755438ZM15.6335 0.062028L16.9731 -2.76129L16.9707 -2.76244L15.6335 0.062028ZM15.6047 0.0486682L14.4085 2.93566L14.4105 2.93648L15.6047 0.0486682ZM15.5778 0.0388243L14.5094 2.97553L14.5171 2.9783L15.5778 0.0388243ZM15.5454 0.0274966L16.4586 -2.96112L16.4475 -2.96448L16.4365 -2.96777L15.5454 0.0274966ZM15.5192 0.0207764L14.7451 3.04838L14.7482 3.04917L15.5192 0.0207764ZM15.4847 0.012339L14.8777 3.07783L14.8809 3.07846L15.4847 0.012339ZM15.4555 0.00788564L15.9268 -3.08138L15.9197 -3.08244L15.4555 0.00788564ZM15.4227 0.00315914L15.7293 -3.10677L15.7236 -3.10732L15.4227 0.00315914ZM15.3741 0.000698538L15.4494 -3.1234L15.4359 -3.12372L15.4224 -3.12393L15.3741 0.000698538ZM13.8148 1.27998L16.0244 3.48977L21.3596 -1.84502L13.8148 -1.84502V1.27998ZM11.5197 3.57483L9.31011 5.78462L11.5197 7.99409L13.7294 5.78462L11.5197 3.57483ZM10.0522 2.10739L12.2618 -0.102397L12.2617 -0.10249L10.0522 2.10739ZM9.14705 3.01254L11.3567 0.802751L11.3566 0.802655L9.14705 3.01254ZM10.6146 4.47994L12.8242 6.68974L15.0341 4.47995L12.8242 2.27015L10.6146 4.47994ZM9.35424 5.74016L7.40421 8.18208L9.58782 9.92584L11.5639 7.94995L9.35424 5.74016ZM5.60036 15.9978L5.68689 12.874L5.60036 15.9978ZM10.2596 6.64515L8.04992 4.43537L6.07304 6.41212L7.81833 8.59605L10.2596 6.64515ZM11.5197 5.38505L13.7294 3.17526L11.5197 0.965782L9.31009 3.17527L11.5197 5.38505ZM12.9873 6.85249L10.7777 9.06228L10.7777 9.06238L12.9873 6.85249ZM13.8924 5.94735L11.6828 8.15713L11.6829 8.15723L13.8924 5.94735ZM12.4249 4.47994L10.2153 2.27015L8.00533 4.47994L10.2153 6.68973L12.4249 4.47994ZM14.7199 2.18509H17.8449V-5.35894L12.5103 -0.0246975L14.7199 2.18509ZM16 0.640187L12.875 0.639478V0.640187H16ZM8.92743 13.4076L11.1371 15.6174L11.1381 15.6164L8.92743 13.4076ZM10.2397 10.2399L13.3647 10.2414L13.3647 10.2399L10.2397 10.2399ZM19.1069 0.271382C19.0974 0.175385 19.0855 0.0998617 19.0822 0.0786239C19.0812 0.0724074 19.0804 0.0672348 19.0802 0.0657663C19.0797 0.0629629 19.0801 0.0652097 19.0804 0.067153C19.0811 0.0715704 19.0839 0.0892342 19.0872 0.112532L12.8987 0.987142C12.9026 1.01493 12.9061 1.03707 12.9075 1.04595C12.9079 1.04842 12.9082 1.05049 12.9084 1.05177C12.9085 1.05243 12.9086 1.053 12.9087 1.05335C12.9088 1.05384 12.9088 1.05385 12.9088 1.05403C12.9089 1.0548 12.9084 1.05186 12.9078 1.04787C12.9066 1.04007 12.9034 1.01964 12.8998 0.992969C12.896 0.965714 12.8912 0.927737 12.8868 0.882118L19.1069 0.271382ZM19.087 0.111336C19.088 0.118392 19.0889 0.124814 19.0881 0.118834C19.0877 0.116209 19.0859 0.10288 19.0836 0.087235C19.0792 0.0562021 19.0693 -0.00998839 19.0531 -0.0920911L12.9221 1.12177C12.9081 1.05126 12.9001 0.996734 12.8973 0.977381C12.8959 0.967575 12.8949 0.960091 12.8954 0.96331C12.8954 0.963609 12.8959 0.96738 12.8964 0.970938C12.897 0.974957 12.8978 0.981064 12.8988 0.988338L19.087 0.111336ZM19.0527 -0.0941939C19.0361 -0.177703 19.0196 -0.243377 19.0127 -0.270511C19.0108 -0.277994 19.0092 -0.284218 19.0082 -0.288191C19.0076 -0.290211 19.0072 -0.291939 19.0069 -0.293083C19.0067 -0.293662 19.0066 -0.294185 19.0065 -0.294544C19.0064 -0.294978 19.0064 -0.295133 19.0063 -0.295348C19.0056 -0.298083 19.0079 -0.289417 19.0107 -0.278152L12.9493 1.24587C12.9535 1.26229 12.9571 1.2761 12.9577 1.27851C12.9593 1.28453 12.9573 1.27709 12.9553 1.26909C12.951 1.25225 12.937 1.19691 12.9225 1.12387L19.0527 -0.0941939ZM19.0114 -0.275495C19.0142 -0.264162 19.0163 -0.255452 19.0157 -0.257811C19.0157 -0.257966 19.0156 -0.258124 19.0155 -0.258493C19.0155 -0.258806 19.0154 -0.259292 19.0152 -0.259819C19.015 -0.260868 19.0146 -0.262497 19.0141 -0.264404C19.0132 -0.268151 19.0118 -0.274115 19.01 -0.281285C19.0036 -0.30724 18.9877 -0.370777 18.9638 -0.44964L12.9809 1.35791C12.9601 1.28889 12.9467 1.23526 12.9428 1.21922C12.9409 1.21171 12.9392 1.20443 12.9407 1.21064C12.9413 1.21325 12.9446 1.22692 12.9487 1.24322L19.0114 -0.275495ZM18.9626 -0.453622C18.939 -0.531378 18.9173 -0.59234 18.9079 -0.618584C18.9033 -0.631463 18.8989 -0.64321 18.8989 -0.643327C18.8977 -0.64664 18.9004 -0.639274 18.9038 -0.629884L13.0201 1.47854C13.0253 1.4929 13.0298 1.5052 13.0304 1.50683C13.0322 1.51165 13.0297 1.50483 13.0268 1.4969C13.0209 1.48055 13.0027 1.42953 12.9821 1.36189L18.9626 -0.453622ZM18.9045 -0.627823C18.9078 -0.618651 18.9103 -0.61136 18.9091 -0.614823C18.909 -0.615106 18.9049 -0.626852 18.9003 -0.639774C18.891 -0.665933 18.8691 -0.726599 18.8381 -0.801408L13.0643 1.5914C13.0373 1.52624 13.019 1.47534 13.0132 1.45898C13.0104 1.45096 13.008 1.44413 13.0096 1.44876C13.0101 1.45021 13.0144 1.46241 13.0194 1.47648L18.9045 -0.627823ZM18.8378 -0.802251C18.8064 -0.877948 18.7786 -0.936806 18.7676 -0.959777C18.7646 -0.966177 18.7621 -0.971463 18.7606 -0.974627C18.7598 -0.976236 18.7591 -0.977615 18.7587 -0.978418C18.7581 -0.979676 18.7583 -0.979338 18.7581 -0.979792C18.7574 -0.981224 18.7615 -0.972603 18.7669 -0.961176L13.1104 1.69703C13.1179 1.71296 13.1242 1.72607 13.1256 1.72912C13.1288 1.73573 13.1255 1.72885 13.1225 1.72255C13.1159 1.70855 13.0922 1.65872 13.0646 1.59224L18.8378 -0.802251ZM18.7662 -0.962715C18.7695 -0.955618 18.7723 -0.949537 18.7702 -0.954145C18.7694 -0.955805 18.7641 -0.967373 18.7578 -0.980722C18.7452 -1.00746 18.7175 -1.06537 18.6796 -1.13622L13.1691 1.81277C13.1364 1.75165 13.1136 1.70361 13.1056 1.68678C13.1017 1.67839 13.0986 1.67179 13.1001 1.6751C13.1003 1.67546 13.1054 1.68651 13.1111 1.69856L18.7662 -0.962715ZM18.6797 -1.13613C18.6395 -1.21121 18.6046 -1.2691 18.5921 -1.28987C18.5867 -1.29889 18.5795 -1.31068 18.582 -1.30652C18.5822 -1.30622 18.5837 -1.30364 18.5859 -1.30005C18.5882 -1.29635 18.5916 -1.2907 18.5957 -1.28369L13.2232 1.90985C13.2335 1.92715 13.242 1.94112 13.2445 1.94521C13.2496 1.95353 13.2449 1.9459 13.242 1.94105C13.2345 1.92862 13.2046 1.87913 13.169 1.81268L18.6797 -1.13613ZM18.5928 -1.28861C18.5982 -1.27949 18.6025 -1.27226 18.6006 -1.27552C18.6005 -1.27565 18.5938 -1.2871 18.5863 -1.29958C18.5712 -1.325 18.536 -1.38376 18.488 -1.45525L13.2962 2.02437C13.2546 1.96218 13.2251 1.91291 13.2157 1.89704C13.2111 1.88934 13.2072 1.88268 13.2099 1.88733C13.2108 1.88887 13.2179 1.90088 13.2261 1.91476L18.5928 -1.28861ZM18.4879 -1.45546C18.4409 -1.52555 18.4008 -1.57947 18.3835 -1.60251C18.375 -1.61394 18.3671 -1.62424 18.3669 -1.62453C18.3646 -1.62761 18.3694 -1.62125 18.3755 -1.61317L13.3701 2.12964C13.3794 2.14207 13.3875 2.15278 13.3885 2.15403C13.3915 2.15807 13.387 2.15211 13.3817 2.14504C13.371 2.13072 13.3373 2.08561 13.2964 2.02459L18.4879 -1.45546ZM18.3779 -1.60988C18.3893 -1.59468 18.3976 -1.5831 18.3986 -1.58177C18.4037 -1.57468 18.3936 -1.58875 18.3885 -1.59575C18.3741 -1.61543 18.3311 -1.67428 18.2728 -1.74543L13.4369 2.21385C13.4098 2.18078 13.3878 2.15245 13.3719 2.13156C13.3563 2.11104 13.3446 2.095 13.3395 2.08805C13.3369 2.08447 13.335 2.08189 13.335 2.08182C13.3334 2.07974 13.3371 2.08473 13.3381 2.08617C13.342 2.09154 13.3533 2.10714 13.3676 2.12635L18.3779 -1.60988ZM18.2687 -1.75049C18.1871 -1.84964 18.1102 -1.93259 18.0453 -1.99861L13.5873 2.3818C13.5492 2.34312 13.4982 2.28847 13.441 2.21892L18.2687 -1.75049ZM18.0618 -1.98177C18.1053 -1.93674 18.1389 -1.89934 18.1578 -1.87784C18.1675 -1.86692 18.175 -1.85823 18.1788 -1.85388C18.1812 -1.85112 18.1856 -1.84596 18.1822 -1.84996C18.1809 -1.85149 18.1752 -1.85804 18.168 -1.86631C18.1605 -1.87489 18.1494 -1.88748 18.1359 -1.90255C18.1091 -1.93232 18.0676 -1.97721 18.0148 -2.02965L13.6102 2.40448C13.5581 2.3527 13.5173 2.3085 13.4911 2.27942C13.4779 2.2647 13.4671 2.25246 13.4599 2.24423C13.453 2.23632 13.4477 2.23012 13.4467 2.22894C13.4465 2.22873 13.4463 2.22856 13.4462 2.22845C13.4462 2.2284 13.4462 2.22835 13.4461 2.22833C13.4461 2.2283 13.4461 2.22828 13.4461 2.22828C13.446 2.2282 13.4463 2.22855 13.4466 2.2289C13.4472 2.22962 13.4489 2.23152 13.451 2.23392C13.455 2.23862 13.4629 2.24767 13.4728 2.25895C13.4924 2.28115 13.5266 2.31925 13.5708 2.36496L18.0618 -1.98177ZM18.0324 -2.01212C18.0041 -2.04068 17.9782 -2.06572 17.9557 -2.08694C17.9332 -2.1081 17.9135 -2.12603 17.8979 -2.14008C17.8824 -2.154 17.8696 -2.16519 17.8615 -2.17222C17.8574 -2.1758 17.854 -2.17872 17.8518 -2.18061C17.8497 -2.18239 17.848 -2.18385 17.8479 -2.18395C17.8473 -2.18449 17.8486 -2.18339 17.8499 -2.18225C17.8514 -2.18092 17.8542 -2.17853 17.8577 -2.17552C17.8645 -2.16962 17.876 -2.15954 17.8903 -2.14682C17.9047 -2.13397 17.9231 -2.11727 17.9443 -2.09742C17.9656 -2.07751 17.9902 -2.05384 18.0173 -2.02675L13.5981 2.39283C13.6256 2.42031 13.6506 2.44436 13.6723 2.46465C13.6939 2.48487 13.7127 2.50194 13.7275 2.51515C13.7422 2.52822 13.7541 2.53866 13.7613 2.54492C13.765 2.54811 13.768 2.55067 13.7697 2.55218C13.7713 2.55349 13.7727 2.55477 13.7723 2.5544C13.7723 2.55439 13.7719 2.55406 13.7714 2.55363C13.7709 2.55318 13.7701 2.55247 13.7691 2.55159C13.7671 2.54988 13.7639 2.54714 13.76 2.54373C13.7523 2.53705 13.7399 2.52622 13.7248 2.51266C13.7095 2.49898 13.6903 2.48141 13.6682 2.46062C13.6461 2.43978 13.6206 2.41512 13.5927 2.38695L18.0324 -2.01212ZM17.9939 -2.04994C17.9309 -2.11163 17.8489 -2.18782 17.7494 -2.26957L13.782 2.5598C13.7117 2.50203 13.6576 2.45131 13.6215 2.41603L17.9939 -2.04994ZM17.7525 -2.26698C17.6784 -2.328 17.6171 -2.37286 17.5966 -2.38785C17.589 -2.39338 17.5749 -2.4036 17.582 -2.39846C17.5833 -2.39748 17.5954 -2.38874 17.6112 -2.37695L13.8737 2.63241C13.8934 2.64709 13.9094 2.65867 13.9146 2.66248C13.9156 2.66317 13.9214 2.6674 13.9187 2.66542C13.9185 2.66525 13.9156 2.6632 13.9117 2.66037C13.899 2.65108 13.8454 2.61201 13.7789 2.55721L17.7525 -2.26698ZM17.6142 -2.37474C17.6216 -2.3692 17.6275 -2.36466 17.624 -2.36736C17.6231 -2.36799 17.6127 -2.3759 17.6009 -2.38474C17.5772 -2.40248 17.5232 -2.44252 17.4532 -2.48939L13.9775 2.70501C13.9168 2.66439 13.8719 2.63094 13.8571 2.61992C13.8498 2.61444 13.8439 2.60992 13.8475 2.61268C13.8484 2.61337 13.8589 2.6213 13.8708 2.6302L17.6142 -2.37474ZM17.4534 -2.48927C17.3842 -2.53554 17.3275 -2.5697 17.3025 -2.58459C17.2902 -2.59191 17.2791 -2.59843 17.2787 -2.59867C17.2753 -2.60066 17.2821 -2.59668 17.2906 -2.59162L14.085 2.77372C14.0981 2.78154 14.1095 2.78824 14.1107 2.78896C14.115 2.79144 14.1085 2.78764 14.1008 2.78307C14.0851 2.77368 14.0374 2.74514 13.9773 2.70489L17.4534 -2.48927ZM17.2872 -2.59365C17.2932 -2.59004 17.2981 -2.58713 17.3011 -2.5853C17.3026 -2.58437 17.3038 -2.58363 17.3046 -2.58315C17.3054 -2.58268 17.3059 -2.58238 17.3059 -2.58237C17.3086 -2.58073 17.2978 -2.5873 17.2885 -2.59294C17.2679 -2.60533 17.2137 -2.63789 17.1437 -2.67564L14.1794 2.82672C14.1184 2.79382 14.0729 2.76641 14.0611 2.75927C14.056 2.75625 14.0496 2.75232 14.0566 2.7566C14.0601 2.75871 14.0728 2.76646 14.0884 2.77575L17.2872 -2.59365ZM17.1357 -2.67989C17.0625 -2.71904 17.0029 -2.74731 16.9785 -2.75881C16.9718 -2.76198 16.9662 -2.76459 16.9626 -2.76623C16.9609 -2.76706 16.9593 -2.76777 16.9583 -2.76823C16.9578 -2.76846 16.9574 -2.76867 16.9571 -2.76881C16.9568 -2.76897 16.9566 -2.76904 16.9565 -2.7691C16.9543 -2.77012 16.9625 -2.76634 16.9731 -2.76129L14.2939 2.88534C14.3092 2.89262 14.3221 2.89859 14.3246 2.89976C14.3305 2.90249 14.3237 2.89933 14.3167 2.89603C14.3016 2.88894 14.2513 2.86521 14.1874 2.83098L17.1357 -2.67989ZM16.9707 -2.76244C16.9789 -2.75853 16.9856 -2.75532 16.9819 -2.7571C16.9811 -2.75745 16.9699 -2.76288 16.9572 -2.76889C16.9316 -2.78102 16.8734 -2.80833 16.7989 -2.83915L14.4105 2.93648C14.3458 2.90973 14.2972 2.88683 14.2812 2.87924C14.2733 2.87549 14.2668 2.87235 14.2708 2.8743C14.2719 2.87482 14.2833 2.88032 14.2963 2.88649L16.9707 -2.76244ZM16.8009 -2.83832C16.7239 -2.87023 16.6616 -2.89252 16.6377 -2.90101C16.6266 -2.90495 16.6145 -2.90918 16.6173 -2.9082C16.6173 -2.90819 16.6174 -2.90814 16.6177 -2.90806C16.6179 -2.90798 16.6183 -2.90786 16.6187 -2.9077C16.6196 -2.90739 16.621 -2.9069 16.6227 -2.90629C16.6261 -2.90508 16.6316 -2.90313 16.6385 -2.90065L14.5171 2.9783C14.5342 2.98449 14.5484 2.98944 14.5518 2.99062C14.5591 2.99318 14.5514 2.99052 14.5449 2.98818C14.53 2.98288 14.4766 2.9639 14.4085 2.93566L16.8009 -2.83832ZM16.6462 -2.89787C16.6489 -2.89686 16.654 -2.89502 16.6463 -2.89782C16.642 -2.89939 16.6299 -2.90384 16.6152 -2.90912C16.586 -2.91955 16.5296 -2.9394 16.4586 -2.96112L14.6323 3.01611C14.5722 2.99775 14.5266 2.98161 14.5082 2.97503C14.4988 2.97168 14.4921 2.96918 14.4932 2.96958C14.4933 2.96963 14.4935 2.9697 14.4943 2.96999C14.4949 2.97022 14.4961 2.97065 14.4974 2.97112C14.4999 2.97206 14.5042 2.97364 14.5094 2.97552L16.6462 -2.89787ZM16.4365 -2.96777C16.3611 -2.99021 16.3004 -3.0052 16.2799 -3.01027C16.2716 -3.01232 16.2583 -3.01553 16.264 -3.01414C16.2646 -3.01399 16.2756 -3.01133 16.2902 -3.00761L14.7482 3.04917C14.7671 3.05399 14.7825 3.05773 14.7875 3.05895C14.7889 3.0593 14.7902 3.0596 14.7908 3.05974C14.7916 3.05993 14.7915 3.05992 14.7914 3.0599C14.7912 3.05984 14.7885 3.0592 14.7848 3.05828C14.7776 3.05651 14.7613 3.05245 14.7402 3.04688C14.7187 3.04121 14.6893 3.03316 14.6543 3.02276L16.4365 -2.96777ZM16.2933 -3.00682C16.3009 -3.00488 16.3076 -3.00311 16.3019 -3.0046C16.2996 -3.00521 16.2863 -3.00871 16.2706 -3.01268C16.2394 -3.02061 16.1727 -3.03718 16.0884 -3.05378L14.8809 3.07846C14.8083 3.06417 14.7532 3.05035 14.7334 3.04532C14.7235 3.04281 14.7159 3.04081 14.7193 3.04169C14.7193 3.0417 14.7317 3.04497 14.7451 3.04838L16.2933 -3.00682ZM16.0916 -3.05315C16.0022 -3.07085 15.9306 -3.08102 15.9079 -3.08423C15.9003 -3.08531 15.8825 -3.08776 15.8919 -3.08646C15.8938 -3.0862 15.908 -3.08424 15.9268 -3.08137L14.9842 3.09714C15.0079 3.10075 15.0269 3.1034 15.0337 3.10434C15.0361 3.10466 15.0413 3.10538 15.0394 3.10512C15.0393 3.10511 15.0386 3.10501 15.0374 3.10485C15.0363 3.10469 15.0345 3.10444 15.0323 3.10413C15.0242 3.10299 15.005 3.10023 14.98 3.09621C14.9547 3.09212 14.9195 3.08611 14.8777 3.07783L16.0916 -3.05315ZM15.9197 -3.08244C15.9326 -3.08051 15.9424 -3.07893 15.9402 -3.07929C15.9361 -3.07993 15.9432 -3.07881 15.9382 -3.0796C15.9371 -3.07978 15.9354 -3.08005 15.9333 -3.08038C15.9293 -3.08101 15.9229 -3.08203 15.9151 -3.08323C15.8868 -3.0876 15.8173 -3.09809 15.7293 -3.10677L15.1161 3.11309C15.0392 3.10551 14.9807 3.09655 14.9633 3.09387C14.9553 3.09264 14.9473 3.09135 14.9545 3.0925C14.9577 3.09301 14.9729 3.09546 14.9913 3.09822L15.9197 -3.08244ZM15.7236 -3.10732C15.5844 -3.12079 15.4687 -3.12293 15.4494 -3.1234L15.2989 3.12479C15.302 3.12487 15.2824 3.12445 15.2553 3.12321C15.2268 3.1219 15.1801 3.11928 15.1218 3.11363L15.7236 -3.10732ZM15.4224 -3.12393C15.4805 -3.12303 15.5268 -3.12065 15.553 -3.11911C15.5664 -3.11833 15.5768 -3.11763 15.582 -3.11728C15.5855 -3.11704 15.5911 -3.11664 15.5864 -3.11697C15.5844 -3.11711 15.5763 -3.11768 15.5661 -3.11834C15.5555 -3.11902 15.54 -3.11997 15.5213 -3.12091C15.4844 -3.12278 15.4283 -3.125 15.36 -3.125V3.125C15.2941 3.125 15.2403 3.12286 15.2057 3.12111C15.1882 3.12023 15.1739 3.11935 15.1645 3.11874C15.1555 3.11816 15.1485 3.11767 15.1477 3.11762C15.1474 3.11759 15.1472 3.11758 15.1474 3.11759C15.1475 3.1176 15.148 3.11764 15.1486 3.11768C15.1498 3.11776 15.1524 3.11794 15.1556 3.11817C15.162 3.1186 15.1736 3.11938 15.1882 3.12023C15.2167 3.1219 15.2655 3.12439 15.3259 3.12533L15.4224 -3.12393ZM15.36 -3.125H11.5197V3.125H15.36V-3.125ZM11.5197 -3.125C10.5213 -3.125 9.56363 -2.72839 8.85753 -2.02234L13.2768 2.39724C12.8107 2.86324 12.1787 3.125 11.5197 3.125V-3.125ZM8.85753 -2.02234C8.15142 -1.31628 7.75469 -0.358614 7.75469 0.639992H14.0047C14.0047 1.29912 13.7428 1.93122 13.2768 2.39724L8.85753 -2.02234ZM7.75469 0.639992C7.75469 1.6386 8.15142 2.59626 8.85753 3.30232L13.2768 -1.11725C13.7428 -0.651239 14.0047 -0.0191413 14.0047 0.639992H7.75469ZM8.85753 3.30232C9.56363 4.00837 10.5213 4.40498 11.5197 4.40498V-1.84502C12.1787 -1.84502 12.8107 -1.58326 13.2768 -1.11725L8.85753 3.30232ZM11.5197 4.40498H13.8148V-1.84502H11.5197V4.40498ZM11.6051 -0.929806L9.3101 1.36504L13.7294 5.78462L16.0244 3.48977L11.6051 -0.929806ZM13.7294 1.36504L12.2618 -0.102397L7.84256 4.31719L9.31011 5.78462L13.7294 1.36504ZM12.2617 -0.10249C11.5556 -0.808513 10.5979 -1.20508 9.59945 -1.20504L9.59972 5.04496C8.94075 5.04499 8.30871 4.78326 7.84265 4.31728L12.2617 -0.10249ZM9.59945 -1.20504C8.60097 -1.205 7.64336 -0.808339 6.93729 -0.10226L11.3567 4.31713C10.8907 4.78315 10.2587 5.04493 9.59972 5.04496L9.59945 -1.20504ZM6.93729 -0.10226C6.23121 0.603827 5.83452 1.56151 5.83456 2.56013L12.0846 2.55986C12.0846 3.219 11.8228 3.8511 11.3567 4.31713L6.93729 -0.10226ZM5.83456 2.56013C5.83461 3.55874 6.23138 4.5164 6.93752 5.22242L11.3566 0.802655C11.8226 1.26864 12.0845 1.90072 12.0846 2.55986L5.83456 2.56013ZM6.93742 5.22233L8.40493 6.68973L12.8242 2.27015L11.3567 0.802751L6.93742 5.22233ZM8.40494 2.27015L7.14462 3.53037L11.5639 7.94995L12.8242 6.68974L8.40494 2.27015ZM11.3043 3.29824C9.52987 1.88126 7.28026 1.19745 5.01745 1.38718L5.53967 7.61532C6.21081 7.55905 6.878 7.76187 7.40421 8.18208L11.3043 3.29824ZM5.01745 1.38718C2.75464 1.57691 0.650317 2.6258 -0.863333 4.3185L3.79562 8.48463C4.24447 7.98269 4.86854 7.6716 5.53967 7.61532L5.01745 1.38718ZM-0.863333 4.3185C-2.37699 6.0112 -3.18506 8.21924 -3.12152 10.4891L3.12603 10.3143C3.1072 9.64127 3.34677 8.98657 3.79562 8.48463L-0.863333 4.3185ZM-3.12152 10.4891C-3.05798 12.759 -2.12767 14.9184 -0.521702 16.5238L3.89692 12.1036C3.42069 11.6275 3.14487 10.9872 3.12603 10.3143L-3.12152 10.4891ZM-0.521702 16.5238C1.08426 18.1292 3.24395 19.0587 5.51383 19.1216L5.68689 12.874C5.01366 12.8553 4.37316 12.5796 3.89692 12.1036L-0.521702 16.5238ZM5.51383 19.1216C7.78371 19.1845 9.99156 18.3759 11.6839 16.8619L7.51679 12.2038C7.01492 12.6528 6.36013 12.8926 5.68689 12.874L5.51383 19.1216ZM11.6839 16.8619C13.3763 15.3479 14.4248 13.2433 14.6139 10.9804L8.38558 10.4599C8.32951 11.1308 8.01866 11.7549 7.51679 12.2038L11.6839 16.8619ZM14.6139 10.9804C14.803 8.71754 14.1184 6.46815 12.7008 4.69424L7.81833 8.59605C8.23869 9.12206 8.44165 9.78901 8.38558 10.4599L14.6139 10.9804ZM12.4692 8.85493L13.7294 7.59483L9.31009 3.17527L8.04992 4.43537L12.4692 8.85493ZM9.3101 7.59484L10.7777 9.06228L15.1969 4.6427L13.7294 3.17526L9.3101 7.59484ZM10.7777 9.06238C11.4839 9.7684 12.4415 10.165 13.44 10.1649L13.4397 3.91493C14.0987 3.9149 14.7308 4.17662 15.1968 4.64261L10.7777 9.06238ZM13.44 10.1649C14.4385 10.1649 15.3961 9.76823 16.1022 9.06215L11.6827 4.64276C12.1487 4.17674 12.7808 3.91495 13.4397 3.91493L13.44 10.1649ZM16.1022 9.06215C16.8083 8.35606 17.2049 7.39838 17.2049 6.39976L10.9549 6.40003C10.9549 5.74089 11.2167 5.10879 11.6827 4.64276L16.1022 9.06215ZM17.2049 6.39976C17.2049 5.40114 16.8081 4.44349 16.1019 3.73746L11.6829 8.15723C11.2168 7.69124 10.9549 7.05916 10.9549 6.40003L17.2049 6.39976ZM16.102 3.73756L14.6345 2.27016L10.2153 6.68973L11.6828 8.15713L16.102 3.73756ZM14.6345 6.68973L16.9296 4.39488L12.5103 -0.0246975L10.2153 2.27015L14.6345 6.68973ZM11.5949 2.18509V4.47994H17.8449V2.18509H11.5949ZM11.5949 4.47994C11.5949 5.47855 11.9916 6.43621 12.6978 7.14227L17.117 2.7227C17.5831 3.18871 17.8449 3.82081 17.8449 4.47994H11.5949ZM12.6978 7.14227C13.4039 7.84832 14.3615 8.24493 15.36 8.24493V1.99493C16.0189 1.99493 16.651 2.25669 17.117 2.7227L12.6978 7.14227ZM15.36 8.24493C16.3584 8.24493 17.3161 7.84832 18.0222 7.14227L13.6029 2.7227C14.0689 2.25669 14.701 1.99493 15.36 1.99493V8.24493ZM18.0222 7.14227C18.7283 6.43621 19.125 5.47855 19.125 4.47994H12.875C12.875 3.82081 13.1369 3.18871 13.6029 2.7227L18.0222 7.14227ZM19.125 4.47994V0.640187H12.875V4.47994H19.125ZM19.125 0.640896C19.125 0.509373 19.1181 0.385351 19.1067 0.270065L12.8869 0.883435C12.8797 0.810336 12.875 0.728658 12.875 0.639478L19.125 0.640896ZM6.7178 11.1979C6.49611 11.4195 6.20437 11.5575 5.89228 11.5883L6.50485 17.8082C8.25583 17.6357 9.89288 16.8615 11.1371 15.6174L6.7178 11.1979ZM5.89228 11.5883C5.58019 11.619 5.26711 11.5406 5.00641 11.3664L1.53427 16.5632C2.99724 17.5406 4.75387 17.9806 6.50485 17.8082L5.89228 11.5883ZM5.00641 11.3664C4.7457 11.1922 4.55351 10.933 4.46252 10.6331L-1.51832 12.4475C-1.00753 14.1312 0.0712935 15.5857 1.53427 16.5632L5.00641 11.3664ZM4.46252 10.6331C4.37153 10.3332 4.38736 10.011 4.50731 9.72144L-1.26687 7.32952C-1.94024 8.95507 -2.02911 10.7638 -1.51832 12.4475L4.46252 10.6331ZM4.50731 9.72144C4.62727 9.43187 4.84395 9.19279 5.12048 9.04499L2.17442 3.53289C0.622683 4.36225 -0.593505 5.70399 -1.26687 7.32952L4.50731 9.72144ZM5.12048 9.04499C5.39702 8.89718 5.71628 8.84982 6.02386 8.911L7.24308 2.78107C5.51743 2.43785 3.72614 2.70354 2.17442 3.53289L5.12048 9.04499ZM6.02386 8.911C6.33142 8.97217 6.60822 9.13809 6.8071 9.38041L11.6383 5.41528C10.522 4.05522 8.96873 3.1243 7.24308 2.78107L6.02386 8.911ZM6.8071 9.38041C7.00598 9.62272 7.11466 9.92646 7.11466 10.2399L13.3647 10.2399C13.3647 8.48037 12.7545 6.77533 11.6383 5.41528L6.8071 9.38041ZM7.11466 10.2384C7.11448 10.5986 6.9714 10.944 6.71674 11.1989L11.1381 15.6164C12.5629 14.1903 13.3637 12.2572 13.3647 10.2414L7.11466 10.2384Z" fill="#080341" mask="url(#path-1-inside-1_482_346)"/>
</svg>
