<svg width="16" height="19" viewBox="0 0 16 19" fill="none" xmlns="http://www.w3.org/2000/svg">
<mask id="path-1-inside-1_483_412" fill="white">
<path d="M5.95713 11.6309C6.11372 11.6309 6.2408 11.5038 6.2408 11.3473V5.95746C6.2408 5.48827 5.85898 5.10645 5.38978 5.10645H0.851018C0.381824 5.10645 0 5.48827 0 5.95746V11.3473C0 11.5038 0.127085 11.6309 0.283673 11.6309C0.44026 11.6309 0.567345 11.5038 0.567345 11.3473V5.95746C0.567345 5.80088 0.694431 5.67379 0.851018 5.67379H5.38978C5.54637 5.67379 5.67345 5.80088 5.67345 5.95746V11.3473C5.67345 11.5038 5.80054 11.6309 5.95713 11.6309Z"/>
</mask>
<path d="M5.95713 11.6309C6.11372 11.6309 6.2408 11.5038 6.2408 11.3473V5.95746C6.2408 5.48827 5.85898 5.10645 5.38978 5.10645H0.851018C0.381824 5.10645 0 5.48827 0 5.95746V11.3473C0 11.5038 0.127085 11.6309 0.283673 11.6309C0.44026 11.6309 0.567345 11.5038 0.567345 11.3473V5.95746C0.567345 5.80088 0.694431 5.67379 0.851018 5.67379H5.38978C5.54637 5.67379 5.67345 5.80088 5.67345 5.95746V11.3473C5.67345 11.5038 5.80054 11.6309 5.95713 11.6309Z" fill="#080341"/>
<path d="M5.95713 12.6309C6.666 12.6309 7.2408 12.0561 7.2408 11.3473H5.2408C5.2408 10.9516 5.56143 10.6309 5.95713 10.6309V12.6309ZM7.2408 11.3473V5.95746H5.2408V11.3473H7.2408ZM7.2408 5.95746C7.2408 4.93599 6.41126 4.10645 5.38978 4.10645V6.10645C5.30669 6.10645 5.2408 6.04055 5.2408 5.95746H7.2408ZM5.38978 4.10645H0.851018V6.10645H5.38978V4.10645ZM0.851018 4.10645C-0.170462 4.10645 -1 4.93599 -1 5.95746H1C1 6.04055 0.934109 6.10645 0.851018 6.10645V4.10645ZM-1 5.95746V11.3473H1V5.95746H-1ZM-1 11.3473C-1 12.0561 -0.4252 12.6309 0.283673 12.6309V10.6309C0.679371 10.6309 1 10.9516 1 11.3473H-1ZM0.283673 12.6309C0.992546 12.6309 1.56735 12.0561 1.56735 11.3473H-0.432655C-0.432655 10.9516 -0.112026 10.6309 0.283673 10.6309V12.6309ZM1.56735 11.3473V5.95746H-0.432655V11.3473H1.56735ZM1.56735 5.95746C1.56735 6.35316 1.24672 6.67379 0.851018 6.67379V4.67379C0.142145 4.67379 -0.432655 5.24859 -0.432655 5.95746H1.56735ZM0.851018 6.67379H5.38978V4.67379H0.851018V6.67379ZM5.38978 6.67379C4.99408 6.67379 4.67345 6.35316 4.67345 5.95746H6.67345C6.67345 5.24859 6.09866 4.67379 5.38978 4.67379V6.67379ZM4.67345 5.95746V11.3473H6.67345V5.95746H4.67345ZM4.67345 11.3473C4.67345 12.0561 5.24825 12.6309 5.95713 12.6309V10.6309C6.35283 10.6309 6.67345 10.9516 6.67345 11.3473H4.67345Z" fill="#080341" mask="url(#path-1-inside-1_483_412)"/>
<path d="M7.56558 11.0022L7.56554 11.0023M7.56558 11.0022L7.56542 11.0027L7.56554 11.0023M7.56558 11.0022C7.56557 11.0022 7.56556 11.0022 7.56554 11.0023M7.56558 11.0022L7.56554 11.0023M14.3573 5.70386L14.2928 5.72403L14.3573 5.70386Z" fill="#080341" stroke="#080341"/>
<mask id="path-4-inside-2_483_412" fill="white">
<path d="M1.41844 10.4961C1.26185 10.4961 1.13477 10.6232 1.13477 10.7798V17.3042C1.13477 17.7734 1.51659 18.1553 1.98578 18.1553H4.25517C4.72436 18.1553 5.10618 17.7734 5.10618 17.3042V10.7798C5.10618 10.6232 4.9791 10.4961 4.82251 10.4961C4.66592 10.4961 4.53884 10.6232 4.53884 10.7798V17.3042C4.53884 17.4608 4.41175 17.5879 4.25517 17.5879H3.40415V11.9145C3.40415 11.7579 3.27706 11.6308 3.12047 11.6308C2.96389 11.6308 2.8368 11.7579 2.8368 11.9145V17.5879H1.98578C1.8292 17.5879 1.70211 17.4608 1.70211 17.3042V10.7798C1.70211 10.6232 1.57503 10.4961 1.41844 10.4961Z"/>
</mask>
<path d="M1.41844 10.4961C1.26185 10.4961 1.13477 10.6232 1.13477 10.7798V17.3042C1.13477 17.7734 1.51659 18.1553 1.98578 18.1553H4.25517C4.72436 18.1553 5.10618 17.7734 5.10618 17.3042V10.7798C5.10618 10.6232 4.9791 10.4961 4.82251 10.4961C4.66592 10.4961 4.53884 10.6232 4.53884 10.7798V17.3042C4.53884 17.4608 4.41175 17.5879 4.25517 17.5879H3.40415V11.9145C3.40415 11.7579 3.27706 11.6308 3.12047 11.6308C2.96389 11.6308 2.8368 11.7579 2.8368 11.9145V17.5879H1.98578C1.8292 17.5879 1.70211 17.4608 1.70211 17.3042V10.7798C1.70211 10.6232 1.57503 10.4961 1.41844 10.4961Z" fill="#080341"/>
<path d="M3.40415 17.5879H2.40415V18.5879H3.40415V17.5879ZM2.8368 17.5879V18.5879H3.8368V17.5879H2.8368ZM1.41844 9.49609C0.709565 9.49609 0.134766 10.0709 0.134766 10.7798H2.13477C2.13477 11.1755 1.81414 11.4961 1.41844 11.4961V9.49609ZM0.134766 10.7798V17.3042H2.13477V10.7798H0.134766ZM0.134766 17.3042C0.134766 18.3257 0.964303 19.1553 1.98578 19.1553V17.1553C2.06887 17.1553 2.13477 17.2212 2.13477 17.3042H0.134766ZM1.98578 19.1553H4.25517V17.1553H1.98578V19.1553ZM4.25517 19.1553C5.27665 19.1553 6.10618 18.3257 6.10618 17.3042H4.10618C4.10618 17.2212 4.17207 17.1553 4.25517 17.1553V19.1553ZM6.10618 17.3042V10.7798H4.10618V17.3042H6.10618ZM6.10618 10.7798C6.10618 10.0709 5.53138 9.49609 4.82251 9.49609V11.4961C4.42681 11.4961 4.10618 11.1755 4.10618 10.7798H6.10618ZM4.82251 9.49609C4.11364 9.49609 3.53884 10.0709 3.53884 10.7798H5.53884C5.53884 11.1755 5.21821 11.4961 4.82251 11.4961V9.49609ZM3.53884 10.7798V17.3042H5.53884V10.7798H3.53884ZM3.53884 17.3042C3.53884 16.9086 3.85947 16.5879 4.25517 16.5879V18.5879C4.96404 18.5879 5.53884 18.0131 5.53884 17.3042H3.53884ZM4.25517 16.5879H3.40415V18.5879H4.25517V16.5879ZM4.40415 17.5879V11.9145H2.40415V17.5879H4.40415ZM4.40415 11.9145C4.40415 11.2056 3.82935 10.6308 3.12047 10.6308V12.6308C2.72478 12.6308 2.40415 12.3102 2.40415 11.9145H4.40415ZM3.12047 10.6308C2.4116 10.6308 1.8368 11.2056 1.8368 11.9145H3.8368C3.8368 12.3102 3.51617 12.6308 3.12047 12.6308V10.6308ZM1.8368 11.9145V17.5879H3.8368V11.9145H1.8368ZM2.8368 16.5879H1.98578V18.5879H2.8368V16.5879ZM1.98578 16.5879C2.38148 16.5879 2.70211 16.9086 2.70211 17.3042H0.702111C0.702111 18.0131 1.27691 18.5879 1.98578 18.5879V16.5879ZM2.70211 17.3042V10.7798H0.702111V17.3042H2.70211ZM2.70211 10.7798C2.70211 10.0709 2.12731 9.49609 1.41844 9.49609V11.4961C1.02274 11.4961 0.702111 11.1755 0.702111 10.7798H2.70211Z" fill="#080341" mask="url(#path-4-inside-2_483_412)"/>
<mask id="path-6-inside-3_483_412" fill="white">
<path d="M13.6162 17.3042V13.0491H14.6471C14.7356 13.0491 14.819 13.0077 14.8723 12.9373C14.9262 12.867 14.9438 12.7757 14.92 12.69L14.3254 10.5239C14.284 10.3724 14.1263 10.2839 13.977 10.3253C13.8261 10.3667 13.7371 10.5227 13.7785 10.6736L14.2755 12.4818H13.3325C13.176 12.4818 13.0489 12.6089 13.0489 12.7654V17.3042C13.0489 17.4608 12.9218 17.5879 12.7652 17.5879H11.9142V12.4818C11.9142 12.3252 11.7871 12.1981 11.6305 12.1981C11.4739 12.1981 11.3468 12.3252 11.3468 12.4818V17.5879H10.4958C10.3392 17.5879 10.2121 17.4608 10.2121 17.3042V12.7654C10.2121 12.6089 10.0851 12.4818 9.92847 12.4818H9.13418L9.63572 10.5619C9.67543 10.4104 9.58466 10.2549 9.43317 10.2158C9.28226 10.1778 9.12624 10.2668 9.08709 10.4183L8.49252 12.6934C8.47039 12.7785 8.48911 12.8693 8.54244 12.9385C8.59577 13.0083 8.67917 13.0491 8.76711 13.0491H9.64479V17.3042C9.64479 17.7734 10.0266 18.1552 10.4958 18.1552H12.7652C13.2344 18.1552 13.6162 17.7734 13.6162 17.3042Z"/>
</mask>
<path d="M13.6162 17.3042V13.0491H14.6471C14.7356 13.0491 14.819 13.0077 14.8723 12.9373C14.9262 12.867 14.9438 12.7757 14.92 12.69L14.3254 10.5239C14.284 10.3724 14.1263 10.2839 13.977 10.3253C13.8261 10.3667 13.7371 10.5227 13.7785 10.6736L14.2755 12.4818H13.3325C13.176 12.4818 13.0489 12.6089 13.0489 12.7654V17.3042C13.0489 17.4608 12.9218 17.5879 12.7652 17.5879H11.9142V12.4818C11.9142 12.3252 11.7871 12.1981 11.6305 12.1981C11.4739 12.1981 11.3468 12.3252 11.3468 12.4818V17.5879H10.4958C10.3392 17.5879 10.2121 17.4608 10.2121 17.3042V12.7654C10.2121 12.6089 10.0851 12.4818 9.92847 12.4818H9.13418L9.63572 10.5619C9.67543 10.4104 9.58466 10.2549 9.43317 10.2158C9.28226 10.1778 9.12624 10.2668 9.08709 10.4183L8.49252 12.6934C8.47039 12.7785 8.48911 12.8693 8.54244 12.9385C8.59577 13.0083 8.67917 13.0491 8.76711 13.0491H9.64479V17.3042C9.64479 17.7734 10.0266 18.1552 10.4958 18.1552H12.7652C13.2344 18.1552 13.6162 17.7734 13.6162 17.3042Z" fill="#080341"/>
<path d="M13.6162 13.0491V12.0491H12.6162V13.0491H13.6162ZM14.8723 12.9373L14.0785 12.3292L14.0754 12.3332L14.8723 12.9373ZM14.92 12.69L13.9556 12.9547L13.9565 12.958L14.92 12.69ZM14.3254 10.5239L13.3608 10.7876L13.3611 10.7886L14.3254 10.5239ZM13.977 10.3253L14.2417 11.2896L14.2445 11.2889L13.977 10.3253ZM13.7785 10.6736L12.8141 10.9383L12.8142 10.9387L13.7785 10.6736ZM14.2755 12.4818V13.4818H15.5874L15.2397 12.2167L14.2755 12.4818ZM11.9142 17.5879H10.9142V18.5879H11.9142V17.5879ZM11.3468 17.5879V18.5879H12.3468V17.5879H11.3468ZM9.13418 12.4818L8.16665 12.229L7.8394 13.4818H9.13418V12.4818ZM9.63572 10.5619L8.66841 10.3083L8.66818 10.3091L9.63572 10.5619ZM9.43317 10.2158L9.68339 9.24758L9.67743 9.24608L9.43317 10.2158ZM9.08709 10.4183L10.0546 10.6712L10.0553 10.6685L9.08709 10.4183ZM8.49252 12.6934L7.52501 12.4405L7.52469 12.4418L8.49252 12.6934ZM8.54244 12.9385L9.33699 12.3313L9.33458 12.3281L8.54244 12.9385ZM9.64479 13.0491H10.6448V12.0491H9.64479V13.0491ZM14.6162 17.3042V13.0491H12.6162V17.3042H14.6162ZM13.6162 14.0491H14.6471V12.0491H13.6162V14.0491ZM14.6471 14.0491C15.048 14.0491 15.4265 13.8616 15.6692 13.5415L14.0754 12.3332C14.2115 12.1538 14.4232 12.0491 14.6471 12.0491V14.0491ZM15.6661 13.5455C15.9118 13.2248 15.991 12.8088 15.8834 12.422L13.9565 12.958C13.8966 12.7425 13.9406 12.5092 14.0785 12.3292L15.6661 13.5455ZM15.8843 12.4253L15.2897 10.2592L13.3611 10.7886L13.9556 12.9547L15.8843 12.4253ZM15.29 10.2601C15.1022 9.57341 14.3914 9.17248 13.7096 9.36172L14.2445 11.2889C13.8611 11.3953 13.4657 11.1713 13.3608 10.7876L15.29 10.2601ZM13.7124 9.36094C13.0302 9.54815 12.6262 10.2534 12.8141 10.9383L14.7428 10.409C14.8479 10.792 14.622 11.1853 14.2417 11.2896L13.7124 9.36094ZM12.8142 10.9387L13.3112 12.7468L15.2397 12.2167L14.7427 10.4086L12.8142 10.9387ZM14.2755 11.4818H13.3325V13.4818H14.2755V11.4818ZM13.3325 11.4818C12.6237 11.4818 12.0489 12.0566 12.0489 12.7654H14.0489C14.0489 13.1611 13.7282 13.4818 13.3325 13.4818V11.4818ZM12.0489 12.7654V17.3042H14.0489V12.7654H12.0489ZM12.0489 17.3042C12.0489 16.9085 12.3695 16.5879 12.7652 16.5879V18.5879C13.4741 18.5879 14.0489 18.0131 14.0489 17.3042H12.0489ZM12.7652 16.5879H11.9142V18.5879H12.7652V16.5879ZM12.9142 17.5879V12.4818H10.9142V17.5879H12.9142ZM12.9142 12.4818C12.9142 11.7729 12.3394 11.1981 11.6305 11.1981V13.1981C11.2348 13.1981 10.9142 12.8775 10.9142 12.4818H12.9142ZM11.6305 11.1981C10.9216 11.1981 10.3468 11.7729 10.3468 12.4818H12.3468C12.3468 12.8775 12.0262 13.1981 11.6305 13.1981V11.1981ZM10.3468 12.4818V17.5879H12.3468V12.4818H10.3468ZM11.3468 16.5879H10.4958V18.5879H11.3468V16.5879ZM10.4958 16.5879C10.8915 16.5879 11.2121 16.9085 11.2121 17.3042H9.21214C9.21214 18.0131 9.78694 18.5879 10.4958 18.5879V16.5879ZM11.2121 17.3042V12.7654H9.21214V17.3042H11.2121ZM11.2121 12.7654C11.2121 12.0566 10.6373 11.4818 9.92847 11.4818V13.4818C9.53277 13.4818 9.21214 13.1611 9.21214 12.7654H11.2121ZM9.92847 11.4818H9.13418V13.4818H9.92847V11.4818ZM10.1017 12.7345L10.6032 10.8146L8.66818 10.3091L8.16665 12.229L10.1017 12.7345ZM10.603 10.8155C10.7824 10.1313 10.3737 9.426 9.68338 9.2476L9.18297 11.184C8.79557 11.0839 8.56846 10.6895 8.66841 10.3083L10.603 10.8155ZM9.67743 9.24608C9.0105 9.07809 8.30003 9.46722 8.1189 10.1681L10.0553 10.6685C9.95245 11.0665 9.55402 11.2775 9.18892 11.1855L9.67743 9.24608ZM8.11959 10.1655L7.52501 12.4405L9.46002 12.9462L10.0546 10.6712L8.11959 10.1655ZM7.52469 12.4418C7.42461 12.8267 7.50889 13.2355 7.7503 13.5488L9.33458 12.3281C9.46933 12.503 9.51617 12.7303 9.46034 12.945L7.52469 12.4418ZM7.7479 13.5457C7.99234 13.8655 8.37077 14.0491 8.76711 14.0491V12.0491C8.98757 12.0491 9.1992 12.151 9.33698 12.3313L7.7479 13.5457ZM8.76711 14.0491H9.64479V12.0491H8.76711V14.0491ZM8.64479 13.0491V17.3042H10.6448V13.0491H8.64479ZM8.64479 17.3042C8.64479 18.3257 9.47433 19.1552 10.4958 19.1552V17.1552C10.5789 17.1552 10.6448 17.2211 10.6448 17.3042H8.64479ZM10.4958 19.1552H12.7652V17.1552H10.4958V19.1552ZM12.7652 19.1552C13.7867 19.1552 14.6162 18.3257 14.6162 17.3042H12.6162C12.6162 17.2211 12.6821 17.1552 12.7652 17.1552V19.1552Z" fill="#080341" mask="url(#path-6-inside-3_483_412)"/>
<mask id="path-8-inside-4_483_412" fill="white">
<path d="M4.9265 1.98571C4.9265 0.890733 4.03576 0 2.94079 0C1.84581 0 0.955078 0.890733 0.955078 1.98571C0.955078 3.08069 1.84581 3.97142 2.94079 3.97142C4.03576 3.97142 4.9265 3.08069 4.9265 1.98571ZM1.52242 1.98571C1.52242 1.20391 2.15898 0.567346 2.94079 0.567346C3.72259 0.567346 4.35915 1.20391 4.35915 1.98571C4.35915 2.76751 3.72259 3.40408 2.94079 3.40408C2.15898 3.40408 1.52242 2.76751 1.52242 1.98571Z"/>
</mask>
<path d="M4.9265 1.98571C4.9265 0.890733 4.03576 0 2.94079 0C1.84581 0 0.955078 0.890733 0.955078 1.98571C0.955078 3.08069 1.84581 3.97142 2.94079 3.97142C4.03576 3.97142 4.9265 3.08069 4.9265 1.98571ZM1.52242 1.98571C1.52242 1.20391 2.15898 0.567346 2.94079 0.567346C3.72259 0.567346 4.35915 1.20391 4.35915 1.98571C4.35915 2.76751 3.72259 3.40408 2.94079 3.40408C2.15898 3.40408 1.52242 2.76751 1.52242 1.98571Z" fill="#080341"/>
<path d="M5.9265 1.98571C5.9265 0.33845 4.58805 -1 2.94079 -1V1C3.48348 1 3.9265 1.44302 3.9265 1.98571H5.9265ZM2.94079 -1C1.29352 -1 -0.0449219 0.33845 -0.0449219 1.98571H1.95508C1.95508 1.44302 2.3981 1 2.94079 1V-1ZM-0.0449219 1.98571C-0.0449219 3.63297 1.29352 4.97142 2.94079 4.97142V2.97142C2.3981 2.97142 1.95508 2.52841 1.95508 1.98571H-0.0449219ZM2.94079 4.97142C4.58805 4.97142 5.9265 3.63297 5.9265 1.98571H3.9265C3.9265 2.52841 3.48348 2.97142 2.94079 2.97142V4.97142ZM2.52242 1.98571C2.52242 1.75619 2.71127 1.56735 2.94079 1.56735V-0.432654C1.6067 -0.432654 0.522424 0.651625 0.522424 1.98571H2.52242ZM2.94079 1.56735C3.1703 1.56735 3.35915 1.75619 3.35915 1.98571H5.35915C5.35915 0.651625 4.27488 -0.432654 2.94079 -0.432654V1.56735ZM3.35915 1.98571C3.35915 2.21523 3.1703 2.40408 2.94079 2.40408V4.40408C4.27488 4.40408 5.35915 3.3198 5.35915 1.98571H3.35915ZM2.94079 2.40408C2.71127 2.40408 2.52242 2.21523 2.52242 1.98571H0.522424C0.522424 3.3198 1.6067 4.40408 2.94079 4.40408V2.40408Z" fill="#080341" mask="url(#path-8-inside-4_483_412)"/>
<mask id="path-10-inside-5_483_412" fill="white">
<path d="M11.7093 3.97142C12.8043 3.97142 13.6951 3.08069 13.6951 1.98571C13.6951 0.890733 12.8043 0 11.7093 0C10.6144 0 9.72363 0.890733 9.72363 1.98571C9.72363 3.08069 10.6144 3.97142 11.7093 3.97142ZM11.7093 0.567346C12.4911 0.567346 13.1277 1.20391 13.1277 1.98571C13.1277 2.76751 12.4917 3.40408 11.7093 3.40408C10.927 3.40408 10.291 2.76751 10.291 1.98571C10.291 1.20391 10.9275 0.567346 11.7093 0.567346Z"/>
</mask>
<path d="M11.7093 3.97142C12.8043 3.97142 13.6951 3.08069 13.6951 1.98571C13.6951 0.890733 12.8043 0 11.7093 0C10.6144 0 9.72363 0.890733 9.72363 1.98571C9.72363 3.08069 10.6144 3.97142 11.7093 3.97142ZM11.7093 0.567346C12.4911 0.567346 13.1277 1.20391 13.1277 1.98571C13.1277 2.76751 12.4917 3.40408 11.7093 3.40408C10.927 3.40408 10.291 2.76751 10.291 1.98571C10.291 1.20391 10.9275 0.567346 11.7093 0.567346Z" fill="#080341"/>
<path d="M11.7093 4.97142C13.3566 4.97142 14.6951 3.63297 14.6951 1.98571H12.6951C12.6951 2.52841 12.252 2.97142 11.7093 2.97142V4.97142ZM14.6951 1.98571C14.6951 0.33845 13.3566 -1 11.7093 -1V1C12.252 1 12.6951 1.44302 12.6951 1.98571H14.6951ZM11.7093 -1C10.0621 -1 8.72363 0.33845 8.72363 1.98571H10.7236C10.7236 1.44302 11.1667 1 11.7093 1V-1ZM8.72363 1.98571C8.72363 3.63297 10.0621 4.97142 11.7093 4.97142V2.97142C11.1667 2.97142 10.7236 2.52841 10.7236 1.98571H8.72363ZM11.7093 1.56735C11.9389 1.56735 12.1277 1.75619 12.1277 1.98571H14.1277C14.1277 0.651625 13.0434 -0.432654 11.7093 -0.432654V1.56735ZM12.1277 1.98571C12.1277 2.21549 11.9392 2.40408 11.7093 2.40408V4.40408C13.0443 4.40408 14.1277 3.31954 14.1277 1.98571H12.1277ZM11.7093 2.40408C11.4795 2.40408 11.291 2.21549 11.291 1.98571H9.29098C9.29098 3.31954 10.3744 4.40408 11.7093 4.40408V2.40408ZM11.291 1.98571C11.291 1.75619 11.4798 1.56735 11.7093 1.56735V-0.432654C10.3753 -0.432654 9.29098 0.651625 9.29098 1.98571H11.291Z" fill="#080341" mask="url(#path-10-inside-5_483_412)"/>
</svg>
