<svg width="16" height="15" viewBox="0 0 16 15" fill="none" xmlns="http://www.w3.org/2000/svg">
<mask id="path-1-inside-1_482_339" fill="white">
<path fill-rule="evenodd" clip-rule="evenodd" d="M3.18803 0L0 3.08521L1.06268 4.11361L2.47422 2.7476V12.2524L1.06268 10.8863L0 11.9148L3.18803 15L6.37603 11.9148L5.31338 10.8863L3.97707 12.1796V2.8204L5.31338 4.11361L6.37603 3.08521L3.18803 0ZM16 1.02842H7.73431V2.4828H16V1.02842ZM16 12.6635H7.73431V14.1179H16V12.6635ZM7.73431 6.84596H16V8.30034H7.73431V6.84596Z"/>
</mask>
<path fill-rule="evenodd" clip-rule="evenodd" d="M3.18803 0L0 3.08521L1.06268 4.11361L2.47422 2.7476V12.2524L1.06268 10.8863L0 11.9148L3.18803 15L6.37603 11.9148L5.31338 10.8863L3.97707 12.1796V2.8204L5.31338 4.11361L6.37603 3.08521L3.18803 0ZM16 1.02842H7.73431V2.4828H16V1.02842ZM16 12.6635H7.73431V14.1179H16V12.6635ZM7.73431 6.84596H16V8.30034H7.73431V6.84596Z" fill="#080341"/>
<path d="M3.18803 0L26.3689 -23.9532L3.18814 -46.3866L-19.9928 -23.9533L3.18803 0ZM0 3.08521L-23.1808 -20.8681L-47.9324 3.0852L-23.1808 27.0385L0 3.08521ZM1.06268 4.11361L-22.1181 28.0669L1.06267 50.5001L24.2435 28.0669L1.06268 4.11361ZM2.47422 2.7476H35.8075V-75.8971L-20.7066 -21.2057L2.47422 2.7476ZM2.47422 12.2524L-20.7069 36.2054L35.8075 90.8986V12.2524H2.47422ZM1.06268 10.8863L24.2438 -13.0667L1.06257 -35.5009L-22.1186 -13.0666L1.06268 10.8863ZM0 11.9148L-23.1812 -12.0381L-47.9319 11.9151L-23.1809 35.868L0 11.9148ZM3.18803 15L-19.9928 38.9533L3.18814 61.3867L26.369 38.9532L3.18803 15ZM6.37603 11.9148L29.557 35.8679L54.3075 11.9154L29.5576 -12.0378L6.37603 11.9148ZM5.31338 10.8863L28.4949 -13.0663L5.31396 -35.501L-17.8676 -13.0668L5.31338 10.8863ZM3.97707 12.1796H-29.3563V90.8251L27.158 36.1327L3.97707 12.1796ZM3.97707 2.8204L27.1579 -21.1329L-29.3563 -75.8244V2.8204H3.97707ZM5.31338 4.11361L-17.8674 28.0669L5.3137 50.5004L28.4945 28.0666L5.31338 4.11361ZM6.37603 3.08521L29.5571 27.0382L54.308 3.08499L29.5569 -20.868L6.37603 3.08521ZM16 1.02842H49.3333V-32.3049H16V1.02842ZM7.73431 1.02842V-32.3049H-25.599V1.02842H7.73431ZM7.73431 2.4828H-25.599V35.8161H7.73431V2.4828ZM16 2.4828V35.8161H49.3333V2.4828H16ZM16 12.6635H49.3333V-20.6698H16V12.6635ZM7.73431 12.6635V-20.6698H-25.599V12.6635H7.73431ZM7.73431 14.1179H-25.599V47.4512H7.73431V14.1179ZM16 14.1179V47.4512H49.3333V14.1179H16ZM7.73431 6.84596V-26.4874H-25.599V6.84596H7.73431ZM16 6.84596H49.3333V-26.4874H16V6.84596ZM16 8.30034V41.6337H49.3333V8.30034H16ZM7.73431 8.30034H-25.599V41.6337H7.73431V8.30034ZM-19.9928 -23.9533L-23.1808 -20.8681L23.1808 27.0385L26.3688 23.9533L-19.9928 -23.9533ZM-23.1808 27.0385L-22.1181 28.0669L24.2435 -19.8397L23.1808 -20.8681L-23.1808 27.0385ZM24.2435 28.0669L25.655 26.7009L-20.7066 -21.2057L-22.1181 -19.8397L24.2435 28.0669ZM-30.8591 2.7476V12.2524H35.8075V2.7476H-30.8591ZM25.6553 -11.7006L24.2438 -13.0667L-22.1184 34.8393L-20.7069 36.2054L25.6553 -11.7006ZM-22.1186 -13.0666L-23.1812 -12.0381L23.1812 35.8677L24.2439 34.8392L-22.1186 -13.0666ZM-23.1809 35.868L-19.9928 38.9533L26.3689 -8.95326L23.1809 -12.0385L-23.1809 35.868ZM26.369 38.9532L29.557 35.8679L-16.8049 -12.0384L-19.9929 -8.95315L26.369 38.9532ZM29.5576 -12.0378L28.4949 -13.0663L-17.8682 34.8389L-16.8055 35.8674L29.5576 -12.0378ZM-17.8676 -13.0668L-19.2039 -11.7736L27.158 36.1327L28.4943 34.8395L-17.8676 -13.0668ZM37.3104 12.1796V2.8204H-29.3563V12.1796H37.3104ZM-19.2037 26.7737L-17.8674 28.0669L28.4942 -19.8397L27.1579 -21.1329L-19.2037 26.7737ZM28.4945 28.0666L29.5571 27.0382L-16.8051 -20.8678L-17.8677 -19.8394L28.4945 28.0666ZM29.5569 -20.868L26.3689 -23.9532L-19.9929 23.9532L-16.8049 27.0384L29.5569 -20.868ZM16 -32.3049H7.73431V34.3618H16V-32.3049ZM-25.599 1.02842V2.4828H41.0676V1.02842H-25.599ZM7.73431 35.8161H16V-30.8505H7.73431V35.8161ZM49.3333 2.4828V1.02842H-17.3333V2.4828H49.3333ZM16 -20.6698H7.73431V45.9968H16V-20.6698ZM-25.599 12.6635V14.1179H41.0676V12.6635H-25.599ZM7.73431 47.4512H16V-19.2155H7.73431V47.4512ZM49.3333 14.1179V12.6635H-17.3333V14.1179H49.3333ZM7.73431 40.1793H16V-26.4874H7.73431V40.1793ZM-17.3333 6.84596V8.30034H49.3333V6.84596H-17.3333ZM16 -25.033H7.73431V41.6337H16V-25.033ZM41.0676 8.30034V6.84596H-25.599V8.30034H41.0676Z" fill="#080341" mask="url(#path-1-inside-1_482_339)"/>
</svg>
