<svg width="18" height="18" viewBox="0 0 18 18" fill="none" xmlns="http://www.w3.org/2000/svg">
<path d="M5.24121 14.0586L7.81934 16.0545C8.152 16.3872 8.90048 16.5535 9.39947 16.5535H12.5597C13.5577 16.5535 14.6389 15.8051 14.8884 14.8071L16.8843 8.73604C17.3001 7.57173 16.5516 6.57373 15.3042 6.57373H11.9776C11.4786 6.57373 11.0628 6.1579 11.1459 5.57575L11.5618 2.91447C11.7281 2.16599 11.2291 1.33434 10.4806 1.08484C9.8153 0.835349 8.98365 1.16801 8.65099 1.667L5.24121 6.74005" stroke="#080341" stroke-miterlimit="10"/>
<path d="M1 14.0584V5.90826C1 4.74395 1.49899 4.32812 2.6633 4.32812H3.49495C4.65925 4.32812 5.15824 4.74395 5.15824 5.90826V14.0584C5.15824 15.2227 4.65925 15.6385 3.49495 15.6385H2.6633C1.49899 15.6385 1 15.2227 1 14.0584Z" stroke="#080341" stroke-linecap="round" stroke-linejoin="round"/>
</svg>
