<svg width="18" height="12" viewBox="0 0 18 12" fill="none" xmlns="http://www.w3.org/2000/svg">
<path d="M8.98755 1C6.2041 1 3.34886 2.611 1.1011 5.83301C1.03694 5.92599 1.00178 6.0359 1.00007 6.14886C0.99835 6.26181 1.03015 6.37274 1.09146 6.46763C2.81853 9.17108 5.63555 11.2853 8.98755 11.2853C12.3031 11.2853 15.178 9.16465 16.9083 6.45513C16.9682 6.3621 17 6.25381 17 6.14318C17 6.03255 16.9682 5.92425 16.9083 5.83122C15.1741 3.15277 12.2781 1 8.98755 1Z" stroke="#080341" stroke-linecap="round" stroke-linejoin="round"/>
<path d="M9.45663 9.00018C11.0345 9.00018 12.3137 7.72104 12.3137 6.14315C12.3137 4.56527 11.0345 3.28613 9.45663 3.28613C7.87874 3.28613 6.59961 4.56527 6.59961 6.14315C6.59961 7.72104 7.87874 9.00018 9.45663 9.00018Z" stroke="#080341" stroke-miterlimit="10"/>
</svg>
