<svg width="16" height="16" viewBox="0 0 16 16" fill="none" xmlns="http://www.w3.org/2000/svg">
<path fill-rule="evenodd" clip-rule="evenodd" d="M1.82751 0.0449036C2.11104 -0.0760478 2.43894 0.0557537 2.55989 0.339278L2.0467 0.558201C2.55989 0.339278 2.55985 0.339174 2.55989 0.339278L2.56042 0.340521L2.56149 0.343029L2.5652 0.351825L2.57872 0.384175C2.59034 0.412178 2.60708 0.452892 2.62819 0.50532C2.67041 0.61016 2.7302 0.761957 2.8017 0.952683C2.94457 1.33384 3.13478 1.87204 3.32505 2.50279C3.68299 3.68933 4.05244 5.23945 4.08991 6.69776H11.9101C11.9475 5.23945 12.317 3.68933 12.675 2.50279C12.8652 1.87204 13.0554 1.33384 13.1983 0.952683C13.2698 0.761957 13.3296 0.61016 13.3718 0.50532C13.3929 0.452892 13.4096 0.412178 13.4213 0.384175L13.4348 0.351825L13.4385 0.343029L13.4396 0.340521L13.4399 0.33974C13.4399 0.339636 13.4401 0.339279 13.9535 0.558276L13.4399 0.33974C13.5609 0.0562076 13.889 -0.0760478 14.1725 0.0449036C14.456 0.16584 14.5878 0.493658 14.4669 0.777168L14.4663 0.778605L14.4636 0.784923L14.4522 0.81216C14.442 0.836673 14.4269 0.873741 14.4073 0.922358C14.3681 1.01961 14.3116 1.16297 14.2436 1.34449C14.1074 1.70782 13.9255 2.22247 13.7436 2.82518C13.377 4.04045 13.0233 5.57354 13.0233 6.93694C13.0233 7.72495 13.2898 8.40104 13.6975 9.13696C13.8378 9.39013 14.0022 9.66071 14.1768 9.94796C14.5593 10.5771 14.9901 11.2858 15.32 12.0646C15.7168 13.0013 16 14.0907 16 15.4419C16 15.7501 15.7501 16 15.4419 16C15.1336 16 14.8837 15.7501 14.8837 15.4419C14.8837 14.3326 14.6679 13.4358 14.3563 12.6558C10.342 12.7651 8.80484 14.7923 8.52949 15.6184C8.45351 15.8463 8.24022 16 8 16C7.75978 16 7.54649 15.8463 7.47051 15.6184C7.19516 14.7923 5.65798 12.7651 1.64369 12.6558C1.33206 13.4358 1.11628 14.3326 1.11628 15.4419C1.11628 15.7501 0.866389 16 0.55814 16C0.24989 16 0 15.7501 0 15.4419C0 14.0907 0.283155 13.0013 0.679948 12.0646C1.00988 11.2858 1.44069 10.5771 1.82315 9.94796C1.99774 9.66071 2.16224 9.39013 2.30247 9.13696C2.71015 8.40104 2.97674 7.72495 2.97674 6.93694C2.97674 5.57354 2.62294 4.04045 2.25634 2.82518C2.07452 2.22247 1.89264 1.70782 1.75644 1.34449C1.68839 1.16297 1.63191 1.01961 1.59274 0.922358C1.57316 0.873741 1.55792 0.836673 1.54774 0.81216L1.53636 0.784923L1.53369 0.778605L1.53315 0.77731C1.41228 0.493807 1.54401 0.16584 1.82751 0.0449036ZM2.16668 11.5629C5.29977 11.7703 7.12953 13.0915 8 14.2791C8.87047 13.0915 10.7002 11.7703 13.8333 11.5629C13.6551 11.2396 13.4682 10.9332 13.2798 10.6243C13.0928 10.3178 12.9043 10.0088 12.721 9.6779C12.6521 9.55355 12.5852 9.42756 12.5211 9.29963C12.5027 9.30142 12.484 9.30239 12.4651 9.30239H3.53488C3.516 9.30239 3.49732 9.30142 3.47892 9.29963C3.41485 9.42756 3.34783 9.55355 3.27894 9.6779C3.09566 10.0088 2.90716 10.3178 2.72024 10.6243C2.5318 10.9332 2.34495 11.2396 2.16668 11.5629ZM3.91938 8.18612H12.0806C12.0467 8.0646 12.017 7.94061 11.9922 7.81403H4.00779C3.98301 7.94061 3.95332 8.0646 3.91938 8.18612Z" fill="#080341"/>
</svg>
