<svg width="16" height="17" viewBox="0 0 16 17" fill="none" xmlns="http://www.w3.org/2000/svg">
<path d="M11.7231 1.60298C12.9423 2.25536 13.977 3.29019 14.5973 4.68596C14.3444 4.21798 14.0419 3.79909 13.6971 3.43022C13.0646 2.75353 12.307 2.26378 11.4899 1.94787L11.7231 1.60298ZM14.5953 7.9801L14.7004 7.96791C14.6736 8.22928 14.635 8.49094 14.5852 8.75123C14.5962 8.59321 14.6018 8.43198 14.6018 8.26751C14.6018 8.17116 14.5996 8.07534 14.5953 7.9801ZM12.8867 12.5694L12.8752 12.559C12.9083 12.5255 12.9411 12.4916 12.9735 12.4574C12.9448 12.4951 12.9159 12.5324 12.8867 12.5694ZM6.51728 1.96697C5.62146 2.29819 4.78105 2.80564 4.06942 3.48097L3.43607 3.09627C2.02876 4.71715 1.47383 6.69027 1.65803 8.45825C1.84153 10.2196 2.77359 11.8346 4.38985 12.5999L4.47599 12.6407L4.56941 12.6596C5.32189 12.8117 5.98892 13.0517 6.28052 13.2201L6.28057 13.2201C6.63261 13.4234 6.78069 13.6834 6.82812 13.9382C6.8795 14.2142 6.82048 14.5392 6.65244 14.8337C6.48441 15.1282 6.23694 15.3406 5.97703 15.4329C5.73803 15.5179 5.43697 15.5217 5.07282 15.3115L5.07271 15.3114C4.86097 15.1892 4.49971 14.9024 4.10467 14.5069L4.08705 14.4884L4.06235 14.4665C2.78848 13.3372 1.88972 12.2675 1.35881 11.1745L1.96074 10.8622C0.933389 8.47403 0.917558 6.44812 1.65318 4.90959C2.24934 3.66274 3.39136 2.62679 5.12588 1.95752L5.36167 2.32303C5.72773 2.17158 6.11619 2.05292 6.51728 1.96697ZM4.10051 14.5027C4.10007 14.5023 4.10033 14.5026 4.10081 14.503L4.10051 14.5027Z" fill="#011E4F" stroke="#39ACE7" stroke-width="1.5625"/>
</svg>
