<svg width="16" height="16" viewBox="0 0 16 16" fill="none" xmlns="http://www.w3.org/2000/svg">
<path d="M11.2838 3.46002C11.38 3.30996 11.3361 3.11033 11.1861 3.01427C10.2355 2.4057 9.1338 2.08398 8.00014 2.08398C4.73802 2.08398 2.08398 4.73796 2.08398 8.00016C2.08398 11.2624 4.73798 13.9163 8.00014 13.9163C11.2623 13.9163 13.9163 11.2624 13.9162 8.00019C13.9162 6.66653 13.4831 5.40753 12.6635 4.35927C12.5538 4.21893 12.351 4.19408 12.2106 4.3038C12.0701 4.41355 12.0453 4.61634 12.1551 4.75677C12.885 5.6904 13.2709 6.81194 13.2709 8.00013C13.2709 10.9064 10.9064 13.2709 8.00011 13.2709C5.0938 13.2709 2.72939 10.9064 2.72939 8.0001C2.72939 5.09377 5.09383 2.72936 8.00014 2.72936C9.01023 2.72936 9.99155 3.01583 10.8381 3.5578C10.988 3.65386 11.1877 3.61011 11.2838 3.46002Z" fill="#011E4F"/>
<path d="M15.6371 8.00003C15.6371 7.62906 15.7269 7.21815 15.8137 6.8208C15.9661 6.12274 16.1237 5.40089 15.8526 4.74708C15.57 4.06545 14.9352 3.66289 14.3213 3.27361C13.9739 3.05326 13.6457 2.8452 13.4002 2.59967C13.1548 2.35417 12.9466 2.02604 12.7264 1.6786C12.3371 1.06476 11.9345 0.429973 11.2529 0.147316C10.5991 -0.123748 9.87728 0.0338466 9.17918 0.186285C8.78184 0.273066 8.37096 0.362785 7.99999 0.362785C7.62903 0.362785 7.21815 0.273066 6.82081 0.186285C6.12278 0.0338466 5.4009 -0.123779 4.74706 0.147316C4.06543 0.429941 3.66293 1.06472 3.27362 1.6786C3.05334 2.02601 2.84521 2.35417 2.59975 2.59967C2.35425 2.84514 2.02606 3.05326 1.67868 3.27354C1.06478 3.66286 0.429996 4.06545 0.147339 4.74708C-0.123754 5.40086 0.0338395 6.12268 0.186277 6.82074C0.273058 7.21809 0.362808 7.62899 0.362808 7.99996C0.362808 8.37093 0.273058 8.78184 0.186277 9.17919C0.0338395 9.87725 -0.123785 10.5991 0.147339 11.2529C0.430027 11.9346 1.06481 12.3371 1.67868 12.7264L1.80278 12.8053C1.95303 12.9011 2.15253 12.8571 2.24837 12.7068C2.34428 12.5566 2.30018 12.3571 2.14993 12.2612L2.02434 12.1814C1.47081 11.8304 0.947996 11.4988 0.743496 11.0057C0.549996 10.539 0.679652 9.94538 0.816871 9.31694C0.910933 8.88612 1.00821 8.44062 1.00821 7.99996C1.00821 7.55934 0.910964 7.11384 0.816871 6.68299C0.679652 6.05455 0.550027 5.46096 0.743496 4.99424C0.947996 4.50111 1.47081 4.16955 2.02431 3.81855C2.38609 3.58917 2.76009 3.35192 3.05609 3.05598C3.35203 2.76004 3.58928 2.38598 3.81868 2.0242C4.16965 1.47069 4.50121 0.947943 4.99431 0.743474C5.46103 0.549911 6.05465 0.679536 6.68315 0.816786C7.11393 0.910849 7.55943 1.00813 8.00003 1.00813C8.44062 1.00813 8.88606 0.91088 9.3169 0.816786C9.9454 0.679536 10.5391 0.549879 11.0057 0.743474C11.4988 0.947943 11.8303 1.47069 12.1814 2.0242C12.4108 2.38598 12.648 2.76004 12.944 3.05598C13.2399 3.35192 13.614 3.58917 13.9757 3.81858C14.5293 4.16958 15.0521 4.50114 15.2566 4.99424C15.4501 5.46099 15.3204 6.05458 15.1832 6.68302C15.0891 7.11384 14.9919 7.55934 14.9919 8C14.9919 8.44065 15.0891 8.88612 15.1832 9.31697C15.3204 9.94541 15.4501 10.539 15.2566 11.0057C15.0521 11.4988 14.5292 11.8304 13.9757 12.1814C13.614 12.4108 13.24 12.648 12.944 12.944C12.648 13.2399 12.4108 13.614 12.1814 13.9758C11.8304 14.5293 11.4988 15.052 11.0057 15.2565C10.539 15.45 9.9454 15.3204 9.3169 15.1832C8.88612 15.0891 8.44062 14.9918 8.00003 14.9918C7.55943 14.9918 7.11399 15.0891 6.68315 15.1832C6.05465 15.3204 5.46112 15.4501 4.99431 15.2565C4.50121 15.0521 4.16971 14.5293 3.81868 13.9758C3.72674 13.8309 3.63168 13.681 3.53356 13.5374C3.43296 13.3902 3.23212 13.3525 3.08506 13.453C2.9379 13.5536 2.90012 13.7544 3.00068 13.9015C3.09262 14.036 3.18059 14.1746 3.27365 14.3215C3.66296 14.9353 4.06549 15.5701 4.74709 15.8527C5.00556 15.9599 5.27449 16 5.54849 16C5.96774 16 6.39868 15.906 6.82084 15.8137C7.21818 15.7269 7.62906 15.6372 8.00003 15.6372C8.37099 15.6372 8.78187 15.7269 9.17921 15.8137C9.87728 15.9661 10.5991 16.1238 11.253 15.8527C11.9346 15.57 12.3371 14.9353 12.7264 14.3214C12.9467 13.974 13.1548 13.6458 13.4003 13.4003C13.6458 13.1549 13.9739 12.9467 14.3213 12.7264C14.9352 12.3371 15.57 11.9345 15.8526 11.2529C16.1237 10.5991 15.9661 9.87731 15.8137 9.17925C15.7269 8.7819 15.6371 8.371 15.6371 8.00003Z" fill="#011E4F"/>
<path d="M5.1902 10.8098C5.25323 10.8728 5.33586 10.9043 5.41842 10.9043C5.50098 10.9043 5.58361 10.8728 5.64658 10.8098L10.8098 5.64657C10.9358 5.5206 10.9358 5.31626 10.8098 5.19023C10.6837 5.0642 10.4795 5.0642 10.3534 5.19023L5.1902 10.3534C5.0642 10.4794 5.0642 10.6837 5.1902 10.8098Z" fill="#011E4F"/>
<path d="M6.27892 7.46215C6.93133 7.46215 7.46214 6.93137 7.46214 6.27893C7.46214 5.62649 6.93133 5.0957 6.27892 5.0957C5.62652 5.0957 5.0957 5.62649 5.0957 6.27893C5.0957 6.93137 5.62652 7.46215 6.27892 7.46215ZM6.27892 5.74108C6.57545 5.74108 6.81677 5.98233 6.81677 6.27893C6.81677 6.57552 6.57552 6.81677 6.27892 6.81677C5.98233 6.81677 5.74108 6.57552 5.74108 6.27893C5.74111 5.98233 5.98236 5.74108 6.27892 5.74108Z" fill="#011E4F"/>
<path d="M9.7213 10.9045C10.3737 10.9045 10.9045 10.3737 10.9045 9.72131C10.9045 9.06884 10.3737 8.53809 9.7213 8.53809C9.0689 8.53809 8.53809 9.06887 8.53809 9.72131C8.53809 10.3737 9.0689 10.9045 9.7213 10.9045ZM9.7213 9.18346C10.0178 9.18346 10.2591 9.42471 10.2591 9.72131C10.2591 10.0179 10.0179 10.2592 9.7213 10.2592C9.42471 10.2592 9.18346 10.0179 9.18346 9.72131C9.18346 9.42471 9.42471 9.18346 9.7213 9.18346Z" fill="#011E4F"/>
</svg>
