<svg width="16" height="16" viewBox="0 0 16 16" fill="none" xmlns="http://www.w3.org/2000/svg">
<path d="M13.7616 1.70654H12.0246V0.44693C12.0246 0.214661 11.8187 -0.00867411 11.5769 0.000259305C11.3352 0.00919272 11.1293 0.196794 11.1293 0.44693V1.70654H4.86178V0.44693C4.86178 0.214661 4.65585 -0.00867411 4.4141 0.000259305C4.17236 0.00919272 3.96642 0.196794 3.96642 0.44693V1.70654H2.23839C1.0028 1.70654 0 2.70708 0 3.93989V13.7666C0 14.9995 1.0028 16 2.23839 16H13.7616C14.9972 16 16 14.9995 16 13.7666V3.93989C16 2.70708 14.9972 1.70654 13.7616 1.70654ZM15.1046 13.7666C15.1046 14.5081 14.5048 15.1067 13.7616 15.1067H2.23839C1.49524 15.1067 0.895355 14.5081 0.895355 13.7666V6.24471H15.1046V13.7666ZM15.1046 5.35137H0.895355V3.93989C0.895355 3.19842 1.49524 2.59988 2.23839 2.59988H3.96642V3.12695C3.96642 3.35922 4.17236 3.58256 4.4141 3.57362C4.65585 3.56469 4.86178 3.37709 4.86178 3.12695V2.59988H11.1293V3.12695C11.1293 3.35922 11.3352 3.58256 11.5769 3.57362C11.8187 3.56469 12.0246 3.37709 12.0246 3.12695V2.59988H13.7616C14.5048 2.59988 15.1046 3.19842 15.1046 3.93989V5.35137Z" fill="#080341"/>
</svg>
