<svg width="18" height="18" viewBox="0 0 18 18" fill="none" xmlns="http://www.w3.org/2000/svg">
<path d="M17 12.5556V16.1111C17 16.602 16.602 17 16.1111 17H1.88889C1.39797 17 1 16.602 1 16.1111V14.3333M17 12.5556V1.88889C17 1.39797 16.602 1 16.1111 1H1.88889C1.39797 1 1 1.39797 1 1.88889V14.3333M17 12.5556L12.0959 9.28613C11.8305 9.10916 11.4906 9.088 11.2052 9.23067L1 14.3333" stroke="#080341" stroke-linejoin="round"/>
<path d="M8.37739 8.11122C9.35923 8.11122 10.1552 7.31528 10.1552 6.33344C10.1552 5.3516 9.35923 4.55566 8.37739 4.55566C7.39555 4.55566 6.59961 5.3516 6.59961 6.33344C6.59961 7.31528 7.39555 8.11122 8.37739 8.11122Z" stroke="#080341" stroke-linejoin="round"/>
</svg>
