<svg width="18" height="17" viewBox="0 0 18 17" fill="none" xmlns="http://www.w3.org/2000/svg">
<path d="M10.1601 12.7634C9.11502 12.5175 8.31581 11.5339 8.31581 10.4273C9.1765 9.93547 9.79127 8.95183 9.79127 7.84524C9.79127 7.29194 10.2216 6.8616 10.7749 6.8616V5.69353C10.7749 4.27955 9.72979 3.05 8.37729 2.86557C7.39365 2.74261 6.53297 3.17296 5.97967 3.91069C5.54933 3.78773 5.18046 3.84921 4.68864 4.21807C4.19683 4.58694 3.88944 5.20171 3.88944 5.81649V6.30831V7.04603V7.66081C3.88944 8.7674 4.44274 9.81252 5.3649 10.3658C5.3649 11.4724 4.56569 12.456 3.52057 12.702C2.22955 13.1323 1.24591 14.1159 1 15.4684C1 15.5914 1.12295 15.7758 1.24591 15.7758H12.3733C12.5578 15.7758 12.6807 15.5914 12.6192 15.4684C12.4348 14.1159 11.4512 13.0708 10.1601 12.7634Z" stroke="#080341" stroke-miterlimit="10" stroke-linecap="round" stroke-linejoin="round"/>
<path d="M7.33203 2.98812C7.7009 1.943 8.56158 1.1438 9.6067 1.02084C10.5903 0.897888 11.451 1.32823 12.0043 2.06596C12.3732 2.00448 12.8035 2.00448 13.2953 2.37335C13.7872 2.74221 14.0945 3.35699 14.0945 3.97176V4.46358V5.20131V5.81608C14.0945 6.92268 13.5412 7.96779 12.6191 8.52109C12.6191 9.62768 13.4183 10.6113 14.4634 10.8572C15.7544 11.2261 16.6766 12.2097 16.984 13.5008C17.0455 13.6852 16.9225 13.8081 16.7381 13.8081H12.0043" stroke="#080341" stroke-miterlimit="10" stroke-linecap="round" stroke-linejoin="round"/>
</svg>
