<svg width="16" height="18" viewBox="0 0 16 18" fill="none" xmlns="http://www.w3.org/2000/svg">
<path d="M13.3332 9L14.9533 6.26625L16 4.50011H13.9066H10.6666L9.04653 1.76643L7.99984 0L6.95318 1.76643L5.33373 4.50011H2.09338H0L1.04669 6.26625L2.66672 9L1.04669 11.7337L0 13.4999H2.09338H5.33373L6.95318 16.2336L7.99984 18L9.04656 16.2336L10.6666 13.4999H13.9066H16L14.9533 11.7337L13.3332 9ZM13.9066 5.67766L12.4655 8.1102L11.0238 5.67766H13.9066ZM7.99984 2.35505L9.44122 4.78758H6.55846L7.99984 2.35505ZM2.09338 5.67766H4.97617L3.53476 8.1102L2.09338 5.67766ZM2.09338 12.3223L3.53476 9.8898L4.97617 12.3223H2.09338ZM7.99984 15.645L6.55846 13.2124H9.44122L7.99984 15.645ZM9.96905 12.3223H6.03124L4.06231 9L6.03124 5.67766H9.96905L11.9377 9L9.96905 12.3223ZM11.0238 12.3223L12.4655 9.8898L13.9066 12.3223H11.0238Z" fill="#080341"/>
</svg>
