<svg width="575" height="197" viewBox="0 0 575 197" fill="none" xmlns="http://www.w3.org/2000/svg">
<path d="M1 37.5V154C44.6 179.2 155.167 179.167 205 176C339.4 170.8 476.333 82.1667 528 38.5C546 23.2871 552.167 7.66667 551 1H446.5L41.0115 0.0836418C20.1224 0.0364348 2.71431 16.0711 1.0485 36.8937L1 37.5Z" fill="#D7EAF6"/>
<path fill-rule="evenodd" clip-rule="evenodd" d="M0 170.823V39C0 17.4609 17.4609 0 39 0H574.773C574.773 7 574.773 20.1652 550.737 41.8683C496.743 90.6215 353.642 189.579 213.189 195.385C161.111 198.921 45.5638 198.958 0 170.823ZM1 154V37.5L1.0485 36.8937C2.71431 16.0711 20.1224 0.0364348 41.0115 0.0836418L446.5 1H551C552.167 7.66667 546 23.2871 528 38.5C476.333 82.1667 339.4 170.8 205 176C155.167 179.167 44.6 179.2 1 154Z" fill="#E0EFF8"/>
</svg>
