<svg width="21" height="21" viewBox="0 0 21 21" fill="none" xmlns="http://www.w3.org/2000/svg">
<path d="M17.66 7.83009C16.3411 3.62065 11.8435 1.26893 7.6341 2.58774C3.42466 3.90655 1.07294 8.40415 2.39175 12.6136C3.71056 16.823 8.20816 19.1748 12.4176 17.8559C13.3548 17.5623 14.1991 17.1103 14.932 16.54L14.9346 16.5591L15.3099 16.2283C15.3404 16.2014 15.3691 16.1728 15.3991 16.1455C15.4483 16.1008 15.4971 16.0559 15.5451 16.0101C15.5954 15.9619 15.6447 15.9132 15.6937 15.8638C15.7364 15.8208 15.7787 15.7773 15.8203 15.7336C15.8726 15.6783 15.9241 15.6225 15.9751 15.5658C16.0097 15.5272 16.0436 15.4884 16.0772 15.4494C16.1328 15.385 16.1875 15.3198 16.2411 15.2535C16.2665 15.2221 16.2914 15.1903 16.3161 15.1585C16.3514 15.1133 16.3883 15.0694 16.4228 15.0236L16.5061 14.9123L16.5052 14.9092C17.9316 12.9321 18.4433 10.3303 17.66 7.83009ZM15.0927 13.2193C15.3646 13.6592 15.7007 14.2405 15.9094 14.8128C15.8969 14.8291 15.885 14.8456 15.8724 14.8616C15.8147 14.9344 15.7551 15.0054 15.6948 15.076C15.6463 15.1328 15.597 15.1885 15.547 15.2438C15.4816 15.316 15.4157 15.3875 15.3475 15.457C15.3358 15.4687 15.3234 15.4801 15.3118 15.4922C15.3102 15.4843 15.3088 15.4763 15.3072 15.4685C15.2008 14.9149 15.0604 14.1812 15.0927 13.2193ZM16.2764 14.3005C15.9921 13.6445 15.6029 13.0256 15.3494 12.625C15.2957 12.5401 15.2486 12.4654 15.2108 12.4038L15.0954 12.2147C15.366 11.3399 15.3886 10.3917 15.1 9.47048C14.5503 7.71616 13.9705 7.18188 12.9179 6.21167C12.4947 5.82168 11.9682 5.33636 11.3291 4.66108C11.228 4.55416 11.0598 4.549 10.9522 4.65062C10.8453 4.75174 10.8406 4.92059 10.942 5.02744C11.5936 5.71584 12.1274 6.20838 12.5567 6.60372C13.5736 7.54123 14.0841 8.01201 14.591 9.62993C15.2944 11.8749 13.926 14.3094 11.5406 15.0568C9.15523 15.8041 6.64237 14.5855 5.93904 12.3406C5.89495 12.1999 5.74531 12.1218 5.60484 12.1658C5.46437 12.2098 5.38601 12.3593 5.4301 12.5C6.22137 15.0256 9.034 16.401 11.7001 15.5657C12.9409 15.177 13.9296 14.3743 14.5576 13.3755C14.5445 14.3068 14.6786 15.0232 14.783 15.5684C14.8078 15.6984 14.8289 15.8139 14.8469 15.9231C14.1093 16.5488 13.2376 17.0401 12.2582 17.347C8.32939 18.5779 4.13157 16.3829 2.90069 12.4541C1.66982 8.52538 3.86479 4.32756 7.79355 3.09668C11.7223 1.86581 15.9201 4.06078 17.151 7.98954C17.8436 10.2001 17.4515 12.4959 16.2764 14.3005Z" fill="#080341"/>
<path d="M9.38747 8.18615C7.98433 8.62575 7.20042 10.125 7.64002 11.5281C8.07963 12.9312 9.57883 13.7152 10.982 13.2755C12.3851 12.8359 13.169 11.3367 12.7294 9.9336C12.2898 8.53045 10.7906 7.74654 9.38747 8.18615ZM10.8225 12.7666C9.70006 13.1183 8.50063 12.4911 8.14896 11.3686C7.7973 10.2462 8.42446 9.04676 9.54692 8.69509C10.6694 8.34342 11.8688 8.97058 12.2205 10.093C12.5722 11.2155 11.945 12.4149 10.8225 12.7666Z" fill="#080341"/>
<path d="M9.86651 9.71333C9.30515 9.8892 8.99166 10.4887 9.16753 11.0501C9.34341 11.6115 9.94295 11.925 10.5043 11.7491C11.0657 11.5732 11.3792 10.9737 11.2033 10.4123C11.0274 9.85095 10.4279 9.53745 9.86651 9.71333ZM10.3449 11.2401C10.0642 11.3281 9.76441 11.1713 9.67647 10.8907C9.58854 10.61 9.74528 10.3102 10.026 10.2223C10.3066 10.1343 10.6064 10.2911 10.6944 10.5718C10.7823 10.8524 10.6255 11.1522 10.3449 11.2401Z" fill="#080341"/>
</svg>
