<svg width="16" height="20" viewBox="0 0 16 20" fill="none" xmlns="http://www.w3.org/2000/svg">
<path d="M14.6939 12.14C12.6085 8.09981 14.2506 6.49686 14.3326 6.42425C14.3948 6.36806 14.4294 6.29455 14.4498 6.21912C14.9844 5.56254 15.3182 4.73765 15.3182 3.82989C15.3182 1.71815 13.5878 0 11.4584 0C11.2183 0 11.0239 0.193714 11.0239 0.431944C11.0239 0.670943 11.2183 0.863887 11.4584 0.863887C13.106 0.863887 14.4475 2.19423 14.4475 3.82989C14.4475 5.46491 13.106 6.79436 11.4584 6.79436C9.81067 6.79436 8.4705 5.46491 8.4705 3.82989C8.4705 3.59166 8.27528 3.39795 8.03429 3.39795C8.02123 3.39795 8.01192 3.40423 7.99886 3.40577C7.98581 3.40423 7.97637 3.39795 7.96344 3.39795C7.72219 3.39795 7.52813 3.59166 7.52813 3.82989C7.52813 5.46491 6.18589 6.79436 4.53737 6.79436C2.89052 6.79436 1.55061 5.46491 1.55061 3.82989C1.55061 2.19423 2.89052 0.863887 4.53737 0.863887C4.77823 0.863887 4.9728 0.670943 4.9728 0.431944C4.97267 0.193714 4.77823 0 4.53737 0C2.40984 0 0.679867 1.71815 0.679867 3.82989C0.679867 4.74086 1.01523 5.56716 1.55138 6.22425C1.5722 6.29763 1.60685 6.3687 1.66748 6.42425C1.73988 6.4907 3.39668 8.08929 1.30613 12.14C-0.541624 15.7216 -0.117955 17.5386 0.683875 19.7149C0.748518 19.889 0.914521 19.9977 1.09294 19.9977C1.14284 19.9977 1.19365 19.9891 1.24368 19.972C1.46761 19.8899 1.58538 19.6416 1.50225 19.4181C1.09914 18.323 0.821306 17.3527 0.90392 16.1841C1.83206 16.606 4.37679 17.5903 7.86428 17.5903C9.17381 17.5903 10.6185 17.4466 12.159 17.0856C12.1661 17.0856 12.1717 17.0919 12.1787 17.0919C12.2409 17.0919 12.3015 17.0691 12.3621 17.0418C13.2439 16.8254 14.1593 16.5293 15.0969 16.1545C15.1866 17.3371 14.9096 18.3151 14.5018 19.4196C14.4191 19.643 14.5365 19.8924 14.7615 19.9734C14.8112 19.9906 14.8615 20 14.9119 20C15.0898 20 15.2559 19.8906 15.3204 19.7164C16.1165 17.5386 16.5415 15.7216 14.6939 12.14ZM13.2375 15.8856C13.3288 15.5896 13.35 15.3529 13.3509 15.3325C13.3665 15.0949 13.184 14.8919 12.9439 14.8779C12.7204 14.8708 12.4984 15.0435 12.4826 15.2794C12.4818 15.2872 12.4314 15.8988 12.0489 16.2153C8.81569 16.9729 6.012 16.7167 4.02811 16.2739C3.57664 15.9856 3.51911 15.3005 3.51756 15.281C3.50218 15.0435 3.29907 14.8639 3.05821 14.8763C2.81774 14.8904 2.63506 15.0935 2.64928 15.3327C2.65005 15.3545 2.67048 15.62 2.78076 15.9466C1.86516 15.6677 1.25558 15.3951 1.0354 15.2872C1.20671 14.4998 1.52307 13.614 2.0821 12.5344C3.31368 10.1477 3.35738 8.46453 3.09286 7.37486C3.53993 7.55574 4.02695 7.65927 4.53905 7.65927C6.06514 7.65927 7.37428 6.77101 8.00054 5.49468C8.62758 6.77101 9.93595 7.65927 11.46 7.65927C11.9741 7.65927 12.4605 7.55497 12.9085 7.37486C12.6447 8.46453 12.689 10.1475 13.9202 12.5353C14.4743 13.611 14.7908 14.4904 14.9631 15.2763C14.3759 15.5153 13.8028 15.7138 13.2375 15.8856ZM8.61413 14.0233C8.61413 14.36 8.33888 14.6335 7.99964 14.6335C7.66039 14.6335 7.38437 14.36 7.38437 14.0233C7.38437 13.6858 7.66039 13.414 7.99964 13.414C8.33888 13.414 8.61413 13.6874 8.61413 14.0233ZM10.7325 5.52906C10.7325 5.24157 10.9687 5.00654 11.2591 5.00654C11.5496 5.00654 11.7858 5.2408 11.7858 5.52906C11.7858 5.8177 11.5496 6.05119 11.2591 6.05119C10.9688 6.05119 10.7325 5.8177 10.7325 5.52906ZM4.73892 5.00642C5.02982 5.00642 5.26602 5.24067 5.26602 5.52893C5.26602 5.81758 5.02982 6.05106 4.73892 6.05106C4.44881 6.05106 4.21221 5.81758 4.21221 5.52893C4.21144 5.2408 4.44803 5.00642 4.73892 5.00642Z" fill="#080341"/>
</svg>
