<svg width="16" height="16" viewBox="0 0 16 16" fill="none" xmlns="http://www.w3.org/2000/svg">
<mask id="path-1-inside-1_1_7746" fill="white">
<path d="M11.2837 3.46002C11.3798 3.30996 11.336 3.11033 11.186 3.01427C10.2353 2.4057 9.13367 2.08398 8.00002 2.08398C4.73789 2.08398 2.08386 4.73796 2.08386 8.00016C2.08386 11.2624 4.73786 13.9163 8.00002 13.9163C11.2622 13.9163 13.9162 11.2624 13.9161 8.00019C13.9161 6.66653 13.483 5.40753 12.6634 4.35927C12.5537 4.21893 12.3509 4.19408 12.2105 4.3038C12.07 4.41355 12.0452 4.61634 12.155 4.75677C12.8849 5.6904 13.2707 6.81194 13.2707 8.00013C13.2707 10.9064 10.9063 13.2709 7.99999 13.2709C5.09367 13.2709 2.72927 10.9064 2.72927 8.0001C2.72927 5.09377 5.09371 2.72936 8.00002 2.72936C9.01011 2.72936 9.99142 3.01583 10.838 3.5578C10.9879 3.65386 11.1876 3.61011 11.2837 3.46002Z"/>
</mask>
<path d="M11.2837 3.46002C11.3798 3.30996 11.336 3.11033 11.186 3.01427C10.2353 2.4057 9.13367 2.08398 8.00002 2.08398C4.73789 2.08398 2.08386 4.73796 2.08386 8.00016C2.08386 11.2624 4.73786 13.9163 8.00002 13.9163C11.2622 13.9163 13.9162 11.2624 13.9161 8.00019C13.9161 6.66653 13.483 5.40753 12.6634 4.35927C12.5537 4.21893 12.3509 4.19408 12.2105 4.3038C12.07 4.41355 12.0452 4.61634 12.155 4.75677C12.8849 5.6904 13.2707 6.81194 13.2707 8.00013C13.2707 10.9064 10.9063 13.2709 7.99999 13.2709C5.09367 13.2709 2.72927 10.9064 2.72927 8.0001C2.72927 5.09377 5.09371 2.72936 8.00002 2.72936C9.01011 2.72936 9.99142 3.01583 10.838 3.5578C10.9879 3.65386 11.1876 3.61011 11.2837 3.46002Z" fill="#011E4F"/>
<path d="M11.2837 3.46002L9.96799 2.61722L9.96791 2.61734L11.2837 3.46002ZM11.186 3.01427L10.3435 4.33022L10.3435 4.33023L11.186 3.01427ZM13.9161 8.00019H12.3536V8.00022L13.9161 8.00019ZM12.6634 4.35927L11.4323 5.32146L11.4325 5.32167L12.6634 4.35927ZM12.2105 4.3038L11.2485 3.07252L11.2483 3.07266L12.2105 4.3038ZM12.155 4.75677L10.924 5.71907L10.924 5.71916L12.155 4.75677ZM10.838 3.5578L11.6809 2.24216L11.6804 2.24188L10.838 3.5578ZM12.5994 4.30282C13.1613 3.42571 12.9051 2.25956 12.0284 1.69831L10.3435 4.33023C9.76691 3.9611 9.5984 3.1942 9.96799 2.61722L12.5994 4.30282ZM12.0284 1.69832C10.8252 0.928049 9.43095 0.521481 8.00002 0.521481V3.64649C8.8364 3.64649 9.64549 3.88336 10.3435 4.33022L12.0284 1.69832ZM8.00002 0.521481C3.87495 0.521481 0.521359 3.87501 0.521359 8.00016H3.64637C3.64637 5.60091 5.60083 3.64649 8.00002 3.64649V0.521481ZM0.521359 8.00016C0.521359 12.1253 3.87492 15.4788 8.00002 15.4788V12.3538C5.60081 12.3538 3.64637 10.3994 3.64637 8.00016H0.521359ZM8.00002 15.4788C12.1251 15.4788 15.4787 12.1253 15.4786 8.00016L12.3536 8.00022C12.3537 10.3994 10.3992 12.3538 8.00002 12.3538V15.4788ZM15.4786 8.00019C15.4786 6.31862 14.9293 4.72064 13.8943 3.39688L11.4325 5.32167C12.0366 6.09441 12.3536 7.01444 12.3536 8.00019H15.4786ZM13.8945 3.39709C13.2531 2.57639 12.0683 2.43201 11.2485 3.07252L13.1724 5.53508C12.6334 5.95616 11.8543 5.86147 11.4323 5.32146L13.8945 3.39709ZM11.2483 3.07266C10.4275 3.71412 10.283 4.89906 10.924 5.71907L13.386 3.79448C13.8074 4.33361 13.7125 5.11299 13.1726 5.53495L11.2483 3.07266ZM10.924 5.71916C11.4385 6.37721 11.7082 7.15975 11.7082 8.00013H14.8332C14.8332 6.46412 14.3313 5.00359 13.3859 3.79439L10.924 5.71916ZM11.7082 8.00013C11.7082 10.0435 10.0433 11.7084 7.99999 11.7084V14.8334C11.7692 14.8334 14.8332 11.7694 14.8332 8.00013H11.7082ZM7.99999 11.7084C5.95665 11.7084 4.29177 10.0435 4.29177 8.0001H1.16677C1.16677 11.7693 4.2307 14.8334 7.99999 14.8334V11.7084ZM4.29177 8.0001C4.29177 5.95673 5.95665 4.29186 8.00002 4.29186V1.16686C4.23077 1.16686 1.16677 4.23082 1.16677 8.0001H4.29177ZM8.00002 4.29186C8.71303 4.29186 9.40173 4.49359 9.99547 4.87372L11.6804 2.24188C10.5811 1.53807 9.30719 1.16686 8.00002 1.16686V4.29186ZM9.99504 4.87344C10.8721 5.43537 12.0382 5.17914 12.5995 4.3027L9.96791 2.61734C10.337 2.04109 11.1037 1.87236 11.6809 2.24216L9.99504 4.87344Z" fill="#39ACE7" mask="url(#path-1-inside-1_1_7746)"/>
<mask id="path-3-inside-2_1_7746" fill="white">
<path d="M15.6371 8.00003C15.6371 7.62906 15.7269 7.21815 15.8137 6.8208C15.9661 6.12274 16.1237 5.40089 15.8526 4.74708C15.57 4.06545 14.9352 3.66289 14.3213 3.27361C13.9739 3.05326 13.6457 2.8452 13.4002 2.59967C13.1548 2.35417 12.9466 2.02604 12.7264 1.6786C12.3371 1.06476 11.9345 0.429973 11.2529 0.147316C10.5991 -0.123748 9.87728 0.0338466 9.17918 0.186284C8.78184 0.273066 8.37096 0.362785 7.99999 0.362785C7.62903 0.362785 7.21815 0.273066 6.82081 0.186284C6.12278 0.0338466 5.4009 -0.123779 4.74706 0.147316C4.06543 0.429941 3.66293 1.06472 3.27362 1.6786C3.05334 2.02601 2.84521 2.35417 2.59975 2.59967C2.35425 2.84514 2.02606 3.05326 1.67868 3.27354C1.06478 3.66286 0.429996 4.06545 0.147339 4.74708C-0.123754 5.40086 0.0338395 6.12268 0.186277 6.82074C0.273058 7.21809 0.362808 7.62899 0.362808 7.99996C0.362808 8.37093 0.273058 8.78184 0.186277 9.17919C0.0338395 9.87725 -0.123785 10.5991 0.147339 11.2529C0.430027 11.9346 1.06481 12.3371 1.67868 12.7264L1.80278 12.8053C1.95303 12.9011 2.15253 12.8571 2.24837 12.7068C2.34428 12.5566 2.30018 12.3571 2.14993 12.2612L2.02434 12.1814C1.47081 11.8304 0.947996 11.4988 0.743496 11.0057C0.549996 10.539 0.679652 9.94538 0.816871 9.31694C0.910933 8.88612 1.00821 8.44062 1.00821 7.99996C1.00821 7.55934 0.910964 7.11384 0.816871 6.68299C0.679652 6.05455 0.550027 5.46096 0.743496 4.99424C0.947996 4.50111 1.47081 4.16955 2.02431 3.81855C2.38609 3.58917 2.76009 3.35192 3.05609 3.05598C3.35203 2.76004 3.58928 2.38598 3.81868 2.0242C4.16965 1.47069 4.50121 0.947943 4.99431 0.743474C5.46103 0.549911 6.05465 0.679536 6.68315 0.816786C7.11393 0.910849 7.55943 1.00813 8.00003 1.00813C8.44062 1.00813 8.88606 0.91088 9.3169 0.816786C9.9454 0.679536 10.5391 0.549879 11.0057 0.743474C11.4988 0.947943 11.8303 1.47069 12.1814 2.0242C12.4108 2.38598 12.648 2.76004 12.944 3.05598C13.2399 3.35192 13.614 3.58917 13.9757 3.81858C14.5293 4.16958 15.0521 4.50114 15.2566 4.99424C15.4501 5.46099 15.3204 6.05458 15.1832 6.68302C15.0891 7.11384 14.9919 7.55934 14.9919 8C14.9919 8.44065 15.0891 8.88612 15.1832 9.31697C15.3204 9.94541 15.4501 10.539 15.2566 11.0057C15.0521 11.4988 14.5292 11.8304 13.9757 12.1814C13.614 12.4108 13.24 12.648 12.944 12.944C12.648 13.2399 12.4108 13.614 12.1814 13.9758C11.8304 14.5293 11.4988 15.052 11.0057 15.2565C10.539 15.45 9.9454 15.3204 9.3169 15.1832C8.88612 15.0891 8.44062 14.9918 8.00003 14.9918C7.55943 14.9918 7.11399 15.0891 6.68315 15.1832C6.05465 15.3204 5.46112 15.4501 4.99431 15.2565C4.50121 15.0521 4.16971 14.5293 3.81868 13.9758C3.72674 13.8309 3.63168 13.681 3.53356 13.5374C3.43296 13.3902 3.23212 13.3525 3.08506 13.453C2.9379 13.5536 2.90012 13.7544 3.00068 13.9015C3.09262 14.036 3.18059 14.1746 3.27365 14.3215C3.66296 14.9353 4.0655 15.5701 4.74709 15.8527C5.00556 15.9599 5.27449 16 5.54849 16C5.96774 16 6.39868 15.906 6.82084 15.8137C7.21818 15.7269 7.62906 15.6372 8.00003 15.6372C8.37099 15.6372 8.78187 15.7269 9.17921 15.8137C9.87728 15.9661 10.5991 16.1238 11.253 15.8527C11.9346 15.57 12.3371 14.9353 12.7264 14.3214C12.9467 13.974 13.1548 13.6458 13.4003 13.4003C13.6458 13.1549 13.9739 12.9467 14.3213 12.7264C14.9352 12.3371 15.57 11.9345 15.8526 11.2529C16.1237 10.5991 15.9661 9.87731 15.8137 9.17925C15.7269 8.7819 15.6371 8.371 15.6371 8.00003Z"/>
</mask>
<path d="M15.6371 8.00003C15.6371 7.62906 15.7269 7.21815 15.8137 6.8208C15.9661 6.12274 16.1237 5.40089 15.8526 4.74708C15.57 4.06545 14.9352 3.66289 14.3213 3.27361C13.9739 3.05326 13.6457 2.8452 13.4002 2.59967C13.1548 2.35417 12.9466 2.02604 12.7264 1.6786C12.3371 1.06476 11.9345 0.429973 11.2529 0.147316C10.5991 -0.123748 9.87728 0.0338466 9.17918 0.186284C8.78184 0.273066 8.37096 0.362785 7.99999 0.362785C7.62903 0.362785 7.21815 0.273066 6.82081 0.186284C6.12278 0.0338466 5.4009 -0.123779 4.74706 0.147316C4.06543 0.429941 3.66293 1.06472 3.27362 1.6786C3.05334 2.02601 2.84521 2.35417 2.59975 2.59967C2.35425 2.84514 2.02606 3.05326 1.67868 3.27354C1.06478 3.66286 0.429996 4.06545 0.147339 4.74708C-0.123754 5.40086 0.0338395 6.12268 0.186277 6.82074C0.273058 7.21809 0.362808 7.62899 0.362808 7.99996C0.362808 8.37093 0.273058 8.78184 0.186277 9.17919C0.0338395 9.87725 -0.123785 10.5991 0.147339 11.2529C0.430027 11.9346 1.06481 12.3371 1.67868 12.7264L1.80278 12.8053C1.95303 12.9011 2.15253 12.8571 2.24837 12.7068C2.34428 12.5566 2.30018 12.3571 2.14993 12.2612L2.02434 12.1814C1.47081 11.8304 0.947996 11.4988 0.743496 11.0057C0.549996 10.539 0.679652 9.94538 0.816871 9.31694C0.910933 8.88612 1.00821 8.44062 1.00821 7.99996C1.00821 7.55934 0.910964 7.11384 0.816871 6.68299C0.679652 6.05455 0.550027 5.46096 0.743496 4.99424C0.947996 4.50111 1.47081 4.16955 2.02431 3.81855C2.38609 3.58917 2.76009 3.35192 3.05609 3.05598C3.35203 2.76004 3.58928 2.38598 3.81868 2.0242C4.16965 1.47069 4.50121 0.947943 4.99431 0.743474C5.46103 0.549911 6.05465 0.679536 6.68315 0.816786C7.11393 0.910849 7.55943 1.00813 8.00003 1.00813C8.44062 1.00813 8.88606 0.91088 9.3169 0.816786C9.9454 0.679536 10.5391 0.549879 11.0057 0.743474C11.4988 0.947943 11.8303 1.47069 12.1814 2.0242C12.4108 2.38598 12.648 2.76004 12.944 3.05598C13.2399 3.35192 13.614 3.58917 13.9757 3.81858C14.5293 4.16958 15.0521 4.50114 15.2566 4.99424C15.4501 5.46099 15.3204 6.05458 15.1832 6.68302C15.0891 7.11384 14.9919 7.55934 14.9919 8C14.9919 8.44065 15.0891 8.88612 15.1832 9.31697C15.3204 9.94541 15.4501 10.539 15.2566 11.0057C15.0521 11.4988 14.5292 11.8304 13.9757 12.1814C13.614 12.4108 13.24 12.648 12.944 12.944C12.648 13.2399 12.4108 13.614 12.1814 13.9758C11.8304 14.5293 11.4988 15.052 11.0057 15.2565C10.539 15.45 9.9454 15.3204 9.3169 15.1832C8.88612 15.0891 8.44062 14.9918 8.00003 14.9918C7.55943 14.9918 7.11399 15.0891 6.68315 15.1832C6.05465 15.3204 5.46112 15.4501 4.99431 15.2565C4.50121 15.0521 4.16971 14.5293 3.81868 13.9758C3.72674 13.8309 3.63168 13.681 3.53356 13.5374C3.43296 13.3902 3.23212 13.3525 3.08506 13.453C2.9379 13.5536 2.90012 13.7544 3.00068 13.9015C3.09262 14.036 3.18059 14.1746 3.27365 14.3215C3.66296 14.9353 4.0655 15.5701 4.74709 15.8527C5.00556 15.9599 5.27449 16 5.54849 16C5.96774 16 6.39868 15.906 6.82084 15.8137C7.21818 15.7269 7.62906 15.6372 8.00003 15.6372C8.37099 15.6372 8.78187 15.7269 9.17921 15.8137C9.87728 15.9661 10.5991 16.1238 11.253 15.8527C11.9346 15.57 12.3371 14.9353 12.7264 14.3214C12.9467 13.974 13.1548 13.6458 13.4003 13.4003C13.6458 13.1549 13.9739 12.9467 14.3213 12.7264C14.9352 12.3371 15.57 11.9345 15.8526 11.2529C16.1237 10.5991 15.9661 9.87731 15.8137 9.17925C15.7269 8.7819 15.6371 8.371 15.6371 8.00003Z" fill="#011E4F"/>
<path d="M15.8137 6.8208L17.3402 7.1542L17.3402 7.15416L15.8137 6.8208ZM15.8526 4.74708L14.4093 5.3456L14.4093 5.3456L15.8526 4.74708ZM14.3213 3.27361L13.4844 4.59309L13.4846 4.59318L14.3213 3.27361ZM13.4002 2.59967L12.2953 3.70445L13.4002 2.59967ZM12.7264 1.6786L14.046 0.841939L14.0459 0.841747L12.7264 1.6786ZM11.2529 0.147316L11.8515 -1.29599L11.8513 -1.29608L11.2529 0.147316ZM9.17918 0.186284L8.84584 -1.34025L8.84578 -1.34023L9.17918 0.186284ZM6.82081 0.186284L7.15421 -1.34023L7.15417 -1.34024L6.82081 0.186284ZM4.74706 0.147316L4.14862 -1.29604L4.14859 -1.29603L4.74706 0.147316ZM3.27362 1.6786L1.9541 0.841778L1.95403 0.841885L3.27362 1.6786ZM2.59975 2.59967L3.70453 3.70459L3.70467 3.70445L2.59975 2.59967ZM1.67868 3.27354L0.841909 1.95399L0.841886 1.954L1.67868 3.27354ZM0.147339 4.74708L-1.29599 4.14856L-1.296 4.14859L0.147339 4.74708ZM0.186277 6.82074L-1.34025 7.15409L-1.34024 7.15414L0.186277 6.82074ZM0.186277 9.17919L-1.34024 8.84579L-1.34025 8.84584L0.186277 9.17919ZM0.147339 11.2529L-1.29599 11.8514L-1.29597 11.8515L0.147339 11.2529ZM1.67868 12.7264L2.51685 11.4078L2.51551 11.4069L1.67868 12.7264ZM1.80278 12.8053L2.64289 11.4879L2.64094 11.4867L1.80278 12.8053ZM2.24837 12.7068L0.931308 11.8661L0.93106 11.8665L2.24837 12.7068ZM2.14993 12.2612L2.99044 10.944L2.98797 10.9424L2.14993 12.2612ZM2.02434 12.1814L2.86238 10.8626L2.86109 10.8618L2.02434 12.1814ZM0.743496 11.0057L-0.699888 11.6041L-0.699807 11.6043L0.743496 11.0057ZM0.816871 9.31694L2.34341 9.65025L2.34341 9.65024L0.816871 9.31694ZM0.816871 6.68299L-0.709667 7.01631L-0.709652 7.01637L0.816871 6.68299ZM0.743496 4.99424L-0.69982 4.39569L-0.699908 4.3959L0.743496 4.99424ZM2.02431 3.81855L1.18764 2.49892L1.18752 2.499L2.02431 3.81855ZM3.05609 3.05598L4.16083 4.16095L4.16095 4.16084L3.05609 3.05598ZM3.81868 2.0242L5.13826 2.86094L5.13826 2.86093L3.81868 2.0242ZM4.99431 0.743474L5.59281 2.18681L5.59289 2.18677L4.99431 0.743474ZM6.68315 0.816786L6.34979 2.34331L6.34983 2.34332L6.68315 0.816786ZM9.3169 0.816786L8.98354 -0.709741L8.98352 -0.709736L9.3169 0.816786ZM11.0057 0.743474L10.407 2.18673L10.4072 2.18681L11.0057 0.743474ZM12.1814 2.0242L13.5009 1.18745L13.5009 1.18736L12.1814 2.0242ZM13.9757 3.81858L13.1389 5.13808L13.139 5.13814L13.9757 3.81858ZM15.2566 4.99424L16.6999 4.39586L16.6999 4.39566L15.2566 4.99424ZM15.1832 6.68302L16.7098 7.01632L16.7098 7.01627L15.1832 6.68302ZM15.1832 9.31697L16.7097 8.98365L16.7097 8.98359L15.1832 9.31697ZM15.2566 11.0057L16.6999 11.6043L16.6999 11.6041L15.2566 11.0057ZM13.9757 12.1814L14.8124 13.501L14.8125 13.501L13.9757 12.1814ZM12.944 12.944L11.8392 11.839L11.8391 11.8391L12.944 12.944ZM12.1814 13.9758L10.8618 13.139L10.8618 13.139L12.1814 13.9758ZM11.0057 15.2565L11.6042 16.6998H11.6042L11.0057 15.2565ZM9.3169 15.1832L9.65026 13.6566L9.65023 13.6566L9.3169 15.1832ZM6.68315 15.1832L7.01651 16.7097L7.01654 16.7097L6.68315 15.1832ZM4.99431 15.2565L4.39581 16.6999L4.39591 16.6999L4.99431 15.2565ZM3.81868 13.9758L2.49916 14.8126L2.49921 14.8127L3.81868 13.9758ZM3.53356 13.5374L4.8238 12.6561L4.82348 12.6556L3.53356 13.5374ZM3.08506 13.453L3.96664 14.7431L3.96684 14.7429L3.08506 13.453ZM3.00068 13.9015L1.71063 14.7831L1.71074 14.7833L3.00068 13.9015ZM3.27365 14.3215L1.95395 15.158L1.95415 15.1583L3.27365 14.3215ZM4.74709 15.8527L4.14854 17.2961L4.14884 17.2962L4.74709 15.8527ZM6.82084 15.8137L6.48744 14.2872L6.48727 14.2872L6.82084 15.8137ZM9.17921 15.8137L8.84581 17.3402L8.84586 17.3402L9.17921 15.8137ZM11.253 15.8527L11.8514 17.296L11.8515 17.296L11.253 15.8527ZM12.7264 14.3214L14.0459 15.1582L14.046 15.1581L12.7264 14.3214ZM13.4003 13.4003L12.2955 12.2954L12.2953 12.2955L13.4003 13.4003ZM14.3213 12.7264L15.1581 14.046L15.1581 14.046L14.3213 12.7264ZM15.8526 11.2529L17.296 11.8514L17.296 11.8514L15.8526 11.2529ZM15.8137 9.17925L17.3402 8.8459L17.3402 8.84574L15.8137 9.17925ZM17.1997 8.00003C17.1997 7.83037 17.2442 7.59387 17.3402 7.1542L14.2872 6.48741C14.2096 6.84243 14.0746 7.42774 14.0746 8.00003H17.1997ZM17.3402 7.15416C17.4681 6.56856 17.7882 5.33571 17.2959 4.14856L14.4093 5.3456C14.4226 5.37772 14.4473 5.4597 14.4333 5.65776C14.4181 5.87444 14.368 6.11714 14.2872 6.48745L17.3402 7.15416ZM17.2959 4.14856C16.7915 2.93217 15.6815 2.28595 15.1581 1.95404L13.4846 4.59318C13.81 4.79954 14.0206 4.93665 14.1882 5.08181C14.3399 5.21319 14.3888 5.29628 14.4093 5.3456L17.2959 4.14856ZM15.1582 1.95412C14.7712 1.70869 14.6044 1.59407 14.5052 1.49488L12.2953 3.70445C12.6871 4.09632 13.1766 4.39783 13.4844 4.59309L15.1582 1.95412ZM14.5052 1.49488C14.4059 1.39563 14.2911 1.22847 14.046 0.841939L11.4067 2.51526C11.6022 2.82361 11.9036 3.3127 12.2953 3.70445L14.5052 1.49488ZM14.0459 0.841747C13.714 0.318523 13.0678 -0.791577 11.8515 -1.29599L10.6544 1.59062C10.7036 1.61106 10.7867 1.65997 10.9181 1.8117C11.0633 1.97934 11.2004 2.18999 11.4069 2.51546L14.0459 0.841747ZM11.8513 -1.29608C10.6642 -1.78819 9.43156 -1.46815 8.84584 -1.34025L9.51252 1.71282C9.88283 1.63195 10.1255 1.58188 10.3422 1.56664C10.5403 1.55272 10.6223 1.57735 10.6546 1.59071L11.8513 -1.29608ZM8.84578 -1.34023C8.40622 -1.24423 8.16968 -1.19972 7.99999 -1.19972V1.92529C8.57225 1.92529 9.15746 1.79036 9.51258 1.7128L8.84578 -1.34023ZM7.99999 -1.19972C7.83031 -1.19972 7.59377 -1.24423 7.15421 -1.34023L6.48741 1.7128C6.84253 1.79036 7.42774 1.92529 7.99999 1.92529V-1.19972ZM7.15417 -1.34024C6.56856 -1.46813 5.33576 -1.78825 4.14862 -1.29604L5.3455 1.59067C5.37765 1.57734 5.45968 1.5527 5.65775 1.56663C5.87445 1.58187 6.11716 1.63195 6.48744 1.71281L7.15417 -1.34024ZM4.14859 -1.29603C2.93213 -0.791646 2.2859 0.318586 1.9541 0.841778L4.59314 2.51543C4.79958 2.18991 4.93668 1.97928 5.08184 1.81166C5.21322 1.65997 5.29627 1.61109 5.34552 1.59066L4.14859 -1.29603ZM1.95403 0.841885C1.70889 1.2285 1.59405 1.39564 1.49482 1.49488L3.70467 3.70445C4.09638 3.3127 4.39779 2.82352 4.59321 2.51532L1.95403 0.841885ZM1.49496 1.49474C1.39571 1.59397 1.2286 1.70878 0.841909 1.95399L2.51546 4.5931C2.82352 4.39775 3.31278 4.0963 3.70453 3.70459L1.49496 1.49474ZM0.841886 1.954C0.318491 2.28592 -0.791582 2.93219 -1.29599 4.14856L1.59067 5.3456C1.61111 5.29629 1.66004 5.21318 1.81176 5.08178C1.97937 4.9366 2.19003 4.79947 2.51548 4.59308L0.841886 1.954ZM-1.296 4.14859C-1.78823 5.33568 -1.46814 6.56844 -1.34025 7.15409L1.71281 6.48739C1.63195 6.1171 1.58187 5.8744 1.56664 5.65773C1.55272 5.45968 1.57736 5.37769 1.59068 5.34557L-1.296 4.14859ZM-1.34024 7.15414C-1.24422 7.59381 -1.19969 7.83031 -1.19969 7.99996H1.92531C1.92531 7.42768 1.79033 6.84237 1.7128 6.48735L-1.34024 7.15414ZM-1.19969 7.99996C-1.19969 8.16962 -1.24422 8.40612 -1.34024 8.84579L1.7128 9.51258C1.79033 9.15756 1.92531 8.57225 1.92531 7.99996H-1.19969ZM-1.34025 8.84584C-1.46813 9.43143 -1.78828 10.6643 -1.29599 11.8514L1.59067 10.6544C1.57735 10.6223 1.5527 10.5403 1.56663 10.3422C1.58186 10.1255 1.63194 9.88285 1.71281 9.51254L-1.34025 8.84584ZM-1.29597 11.8515C-0.791534 13.0678 0.318538 13.7141 0.841855 14.046L2.51551 11.4069C2.19004 11.2005 1.9794 11.0634 1.81177 10.9182C1.66006 10.7868 1.61112 10.7037 1.59065 10.6544L-1.29597 11.8515ZM0.840517 14.0451L0.96461 14.124L2.64094 11.4867L2.51685 11.4078L0.840517 14.0451ZM0.962664 14.1228C1.84006 14.6823 3.00556 14.4252 3.56568 13.5471L0.93106 11.8665C1.2995 11.2889 2.066 11.12 2.64289 11.4879L0.962664 14.1228ZM3.56543 13.5475C4.12582 12.6696 3.86801 11.504 2.99043 10.944L1.30943 13.5784C0.732355 13.2101 0.562732 12.4436 0.931308 11.8661L3.56543 13.5475ZM2.98797 10.9424L2.86238 10.8626L1.1863 13.5001L1.31189 13.5799L2.98797 10.9424ZM2.86109 10.8618C2.56396 10.6734 2.38699 10.5582 2.25496 10.4479C2.13127 10.3445 2.15529 10.3312 2.1868 10.4071L-0.699807 11.6043C-0.463794 12.1734 -0.0761195 12.5724 0.251103 12.8458C0.56998 13.1123 0.931188 13.3384 1.18758 13.501L2.86109 10.8618ZM2.18688 10.4073C2.22613 10.502 2.1981 10.5225 2.21252 10.3604C2.22749 10.1922 2.26972 9.98774 2.34341 9.65025L-0.709667 8.98362C-0.773195 9.27457 -0.864402 9.68116 -0.900194 10.0835C-0.93653 10.492 -0.93264 11.0427 -0.699888 11.6041L2.18688 10.4073ZM2.34341 9.65024C2.43065 9.25067 2.57072 8.63835 2.57072 7.99996H-0.554289C-0.554289 8.24289 -0.608786 8.52158 -0.70967 8.98364L2.34341 9.65024ZM2.57072 7.99996C2.57072 7.36162 2.4307 6.74938 2.34339 6.34961L-0.709652 7.01637C-0.608773 7.47829 -0.554289 7.75705 -0.554289 7.99996H2.57072ZM2.34341 6.34967C2.26973 6.01222 2.2275 5.80778 2.21253 5.63954C2.19811 5.47741 2.22614 5.49789 2.1869 5.59257L-0.699908 4.3959C-0.932622 4.9573 -0.936513 5.50794 -0.900184 5.9164C-0.864398 6.31875 -0.773203 6.72532 -0.709667 7.01631L2.34341 6.34967ZM2.18681 5.59278C2.15531 5.66875 2.13129 5.65542 2.25498 5.55206C2.38701 5.44172 2.56396 5.32652 2.8611 5.13809L1.18752 2.499C0.931153 2.66157 0.569948 2.88766 0.251077 3.15413C-0.0761467 3.42759 -0.463816 3.8266 -0.69982 4.39569L2.18681 5.59278ZM2.86097 5.13817C3.19298 4.92767 3.72099 4.6007 4.16083 4.16095L1.95135 1.95101C1.79919 2.10313 1.5792 2.25067 1.18764 2.49892L2.86097 5.13817ZM4.16095 4.16084C4.6008 3.72098 4.92787 3.19273 5.13826 2.86094L2.49911 1.18745C2.25069 1.57922 2.10325 1.7991 1.95123 1.95113L4.16095 4.16084ZM5.13826 2.86093C5.32664 2.56384 5.44184 2.38691 5.55214 2.25492C5.65547 2.13128 5.66879 2.1553 5.59281 2.18681L4.39581 -0.69986C3.82673 -0.463883 3.42772 -0.0762486 3.15425 0.250975C2.88776 0.569854 2.66169 0.931047 2.4991 1.18747L5.13826 2.86093ZM5.59289 2.18677C5.49815 2.22607 5.47759 2.19803 5.63968 2.21244C5.80789 2.22739 6.01232 2.26962 6.34979 2.34331L7.01651 -0.709741C6.72548 -0.773296 6.31885 -0.86451 5.91644 -0.900289C5.50791 -0.936611 4.95718 -0.932681 4.39572 -0.699826L5.59289 2.18677ZM6.34983 2.34332C6.74937 2.43056 7.36169 2.57063 8.00003 2.57063V-0.554372C7.75717 -0.554372 7.47849 -0.608866 7.01648 -0.709749L6.34983 2.34332ZM8.00003 2.57063C8.63835 2.57063 9.25056 2.43061 9.65028 2.34331L8.98352 -0.709736C8.52156 -0.608846 8.24289 -0.554372 8.00003 -0.554372V2.57063ZM9.65026 2.34331C9.98776 2.26961 10.1922 2.22738 10.3604 2.21242C10.5225 2.19801 10.5019 2.22606 10.407 2.18673L11.6044 -0.699778C11.0429 -0.932709 10.4921 -0.936626 10.0836 -0.900299C9.68119 -0.864514 9.27454 -0.77329 8.98354 -0.709741L9.65026 2.34331ZM10.4072 2.18681C10.3312 2.15529 10.3445 2.13124 10.4479 2.2549C10.5582 2.38693 10.6734 2.56385 10.8619 2.86103L13.5009 1.18736C13.3383 0.931036 13.1122 0.569839 12.8458 0.250999C12.5724 -0.0762097 12.1734 -0.463871 11.6042 -0.69986L10.4072 2.18681ZM10.8618 2.86094C11.0722 3.19273 11.3993 3.72098 11.8391 4.16084L14.0488 1.95113C13.8968 1.7991 13.7494 1.57922 13.5009 1.18745L10.8618 2.86094ZM11.8391 4.16084C12.279 4.60069 12.8074 4.92782 13.1389 5.13808L14.8126 2.49907C14.4207 2.25052 14.2008 2.10314 14.0488 1.95113L11.8391 4.16084ZM13.139 5.13814C13.4361 5.32655 13.6131 5.44176 13.7451 5.55209C13.8688 5.65544 13.8448 5.66877 13.8133 5.59281L16.6999 4.39566C16.4639 3.8266 16.0762 3.42761 15.749 3.15416C15.4301 2.88768 15.0689 2.6616 14.8125 2.49901L13.139 5.13814ZM13.8132 5.59262C13.7739 5.49794 13.802 5.47744 13.7875 5.63957C13.7726 5.80783 13.7303 6.01226 13.6567 6.34978L16.7098 7.01627C16.7733 6.72535 16.8645 6.31875 16.9003 5.91642C16.9366 5.50796 16.9327 4.95729 16.6999 4.39586L13.8132 5.59262ZM13.6567 6.34972C13.5694 6.74929 13.4294 7.36161 13.4294 8H16.5544C16.5544 7.75707 16.6089 7.47838 16.7098 7.01632L13.6567 6.34972ZM13.4294 8C13.4294 8.63837 13.5694 9.25059 13.6567 9.65035L16.7097 8.98359C16.6089 8.52166 16.5544 8.24293 16.5544 8H13.4294ZM13.6567 9.65028C13.7304 9.98774 13.7726 10.1922 13.7875 10.3604C13.802 10.5225 13.7739 10.502 13.8132 10.4073L16.6999 11.6041C16.9327 11.0427 16.9366 10.4921 16.9003 10.0836C16.8645 9.68122 16.7733 9.27464 16.7097 8.98365L13.6567 9.65028ZM13.8132 10.4072C13.8447 10.3312 13.8688 10.3445 13.7451 10.4479C13.613 10.5582 13.4361 10.6734 13.139 10.8619L14.8125 13.501C15.0689 13.3384 15.4301 13.1123 15.749 12.8458C16.0762 12.5724 16.4639 12.1734 16.6999 11.6043L13.8132 10.4072ZM13.1391 10.8618C12.8071 11.0723 12.2791 11.3993 11.8392 11.839L14.0487 14.049C14.2009 13.8968 14.4209 13.7493 14.8124 13.501L13.1391 10.8618ZM11.8391 11.8391C11.3993 12.279 11.0722 12.8072 10.8618 13.139L13.5009 14.8125C13.7494 14.4207 13.8968 14.2009 14.0488 14.0488L11.8391 11.8391ZM10.8618 13.139C10.6734 13.4361 10.5582 13.613 10.4479 13.745C10.3446 13.8687 10.3313 13.8447 10.4072 13.8132L11.6042 16.6998C12.1733 16.4638 12.5723 16.0762 12.8458 15.749C13.1123 15.4301 13.3384 15.0689 13.501 14.8125L10.8618 13.139ZM10.4072 13.8132C10.5019 13.7739 10.5224 13.8019 10.3603 13.7875C10.1921 13.7726 9.98769 13.7303 9.65026 13.6566L8.98354 16.7097C9.27461 16.7733 9.68122 16.8645 10.0836 16.9002C10.4922 16.9366 11.0428 16.9326 11.6042 16.6998L10.4072 13.8132ZM9.65023 13.6566C9.25068 13.5694 8.63836 13.4293 8.00003 13.4293V16.5543C8.24288 16.5543 8.52156 16.6088 8.98358 16.7097L9.65023 13.6566ZM8.00003 13.4293C7.3617 13.4293 6.74949 13.5694 6.34977 13.6567L7.01654 16.7097C7.4785 16.6088 7.75717 16.5543 8.00003 16.5543V13.4293ZM6.34979 13.6566C6.01227 13.7304 5.80787 13.7726 5.63965 13.7875C5.4776 13.802 5.49808 13.7739 5.5927 13.8132L4.39591 16.6999C4.95735 16.9327 5.508 16.9366 5.91654 16.9003C6.31892 16.8645 6.72553 16.7732 7.01651 16.7097L6.34979 13.6566ZM5.59281 13.8132C5.66886 13.8448 5.65557 13.8688 5.5522 13.7451C5.44184 13.6131 5.32666 13.4361 5.13815 13.1389L2.49921 14.8127C2.66173 15.069 2.88782 15.4302 3.15424 15.749C3.42765 16.0762 3.82666 16.4639 4.39581 16.6999L5.59281 13.8132ZM5.13821 13.139C5.04861 12.9977 4.93943 12.8253 4.8238 12.6561L2.24332 14.4187C2.32393 14.5367 2.40488 14.664 2.49916 14.8126L5.13821 13.139ZM4.82348 12.6556C4.23596 11.7961 3.06284 11.5755 2.20328 12.1631L3.96684 14.7429C3.4014 15.1295 2.62997 14.9843 2.24363 14.4191L4.82348 12.6556ZM2.20347 12.163C1.34396 12.7503 1.12311 13.9234 1.71063 14.7831L4.29073 13.0199C4.67713 13.5854 4.53185 14.3568 3.96664 14.7431L2.20347 12.163ZM1.71074 14.7833C1.7849 14.8917 1.85859 15.0076 1.95395 15.158L4.59335 13.4849C4.50259 13.3417 4.40034 13.1803 4.29063 13.0198L1.71074 14.7833ZM1.95415 15.1583C2.28596 15.6815 2.9322 16.7916 4.14854 17.2961L5.34563 14.4094C5.29636 14.389 5.21328 14.3401 5.08188 14.1884C4.9367 14.0207 4.79959 13.8101 4.59316 13.4846L1.95415 15.1583ZM4.14884 17.2962C4.63956 17.4996 5.12096 17.5626 5.54849 17.5626V14.4375C5.42803 14.4375 5.37156 14.4202 5.34534 14.4093L4.14884 17.2962ZM5.54849 17.5626C6.16638 17.5626 6.76577 17.4251 7.15441 17.3402L6.48727 14.2872C6.0316 14.3868 5.76911 14.4375 5.54849 14.4375V17.5626ZM7.15424 17.3402C7.5938 17.2442 7.83034 17.1997 8.00003 17.1997V14.0747C7.42777 14.0747 6.84256 14.2096 6.48744 14.2872L7.15424 17.3402ZM8.00003 17.1997C8.16971 17.1997 8.40625 17.2442 8.84581 17.3402L9.51261 14.2872C9.15749 14.2096 8.57228 14.0747 8.00003 14.0747V17.1997ZM8.84586 17.3402C9.43149 17.4681 10.6642 17.7882 11.8514 17.296L10.6545 14.4093C10.6224 14.4227 10.5403 14.4473 10.3423 14.4334C10.1256 14.4181 9.88288 14.368 9.51257 14.2872L8.84586 17.3402ZM11.8515 17.296C13.0679 16.7916 13.7141 15.6815 14.0459 15.1582L11.4069 13.4846C11.2004 13.8101 11.0633 14.0207 10.9182 14.1883C10.7868 14.34 10.7037 14.3889 10.6544 14.4093L11.8515 17.296ZM14.046 15.1581C14.2911 14.7715 14.406 14.6044 14.5052 14.5051L12.2953 12.2955C11.9036 12.6873 11.6022 13.1765 11.4068 13.4847L14.046 15.1581ZM14.5051 14.5052C14.6043 14.406 14.7714 14.2912 15.1581 14.046L13.4846 11.4069C13.1764 11.6023 12.6872 11.9037 12.2955 12.2954L14.5051 14.5052ZM15.1581 14.046C15.6816 13.714 16.7916 13.0678 17.296 11.8514L14.4093 10.6544C14.3889 10.7037 14.3399 10.7868 14.1882 10.9182C14.0206 11.0634 13.81 11.2005 13.4845 11.4069L15.1581 14.046ZM17.296 11.8514C17.7882 10.6643 17.4681 9.43155 17.3402 8.8459L14.2872 9.5126C14.368 9.88289 14.4181 10.1256 14.4333 10.3423C14.4473 10.5403 14.4226 10.6223 14.4093 10.6544L17.296 11.8514ZM17.3402 8.84574C17.2442 8.40618 17.1997 8.16965 17.1997 8.00003H14.0746C14.0746 8.57234 14.2096 9.15763 14.2872 9.51276L17.3402 8.84574Z" fill="#39ACE7" mask="url(#path-3-inside-2_1_7746)"/>
<mask id="path-5-inside-3_1_7746" fill="white">
<path d="M5.1902 10.81C5.25323 10.8731 5.33586 10.9046 5.41842 10.9046C5.50098 10.9046 5.58361 10.873 5.64658 10.81L10.8098 5.64682C10.9358 5.52085 10.9358 5.3165 10.8098 5.19047C10.6837 5.06444 10.4795 5.06444 10.3534 5.19047L5.1902 10.3537C5.0642 10.4796 5.0642 10.684 5.1902 10.81Z"/>
</mask>
<path d="M5.1902 10.81C5.25323 10.8731 5.33586 10.9046 5.41842 10.9046C5.50098 10.9046 5.58361 10.873 5.64658 10.81L10.8098 5.64682C10.9358 5.52085 10.9358 5.3165 10.8098 5.19047C10.6837 5.06444 10.4795 5.06444 10.3534 5.19047L5.1902 10.3537C5.0642 10.4796 5.0642 10.684 5.1902 10.81Z" fill="#011E4F"/>
<path d="M5.1902 10.81L4.08521 11.9147L4.08534 11.9149L5.1902 10.81ZM5.64658 10.81L4.54172 9.70516L4.54145 9.70544L5.64658 10.81ZM10.8098 5.64682L9.70518 4.54169L9.70491 4.54196L10.8098 5.64682ZM10.3534 5.19047L9.24867 4.08548L9.24853 4.08562L10.3534 5.19047ZM5.1902 10.3537L6.29492 11.4587L6.29506 11.4585L5.1902 10.3537ZM4.08534 11.9149C4.45326 12.2828 4.93853 12.4671 5.41842 12.4671V9.34205C5.73319 9.34205 6.05321 9.46331 6.29506 9.70516L4.08534 11.9149ZM5.41842 12.4671C5.89852 12.4671 6.38389 12.2826 6.75171 11.9146L4.54145 9.70544C4.78333 9.46343 5.10345 9.34205 5.41842 9.34205V12.4671ZM6.75144 11.9149L11.9146 6.75167L9.70491 4.54196L4.54172 9.70516L6.75144 11.9149ZM11.9143 6.75194C12.6511 6.01557 12.6507 4.82169 11.9146 4.08562L9.70491 6.29533C9.2209 5.81131 9.2205 5.02613 9.70518 4.54169L11.9143 6.75194ZM11.9146 4.08562C11.1783 3.34931 9.98482 3.34951 9.24867 4.08548L11.4581 6.29546C10.9741 6.77937 10.1891 6.77957 9.70491 6.29533L11.9146 4.08562ZM9.24853 4.08562L4.08534 9.24882L6.29506 11.4585L11.4582 6.29533L9.24853 4.08562ZM4.08548 9.24868C3.34895 9.98503 3.34935 11.1787 4.08521 11.9147L6.2952 9.7053C6.77906 10.1893 6.77945 10.9743 6.29492 11.4587L4.08548 9.24868Z" fill="#39ACE7" mask="url(#path-5-inside-3_1_7746)"/>
<mask id="path-7-inside-4_1_7746" fill="white">
<path d="M6.27892 7.46239C6.93133 7.46239 7.46214 6.93161 7.46214 6.27917C7.46214 5.62673 6.93133 5.09595 6.27892 5.09595C5.62652 5.09595 5.0957 5.62673 5.0957 6.27917C5.0957 6.93161 5.62652 7.46239 6.27892 7.46239ZM6.27892 5.74132C6.57545 5.74132 6.81677 5.98258 6.81677 6.27917C6.81677 6.57576 6.57552 6.81702 6.27892 6.81702C5.98233 6.81702 5.74108 6.57576 5.74108 6.27917C5.74111 5.98258 5.98236 5.74132 6.27892 5.74132Z"/>
</mask>
<path d="M6.27892 7.46239C6.93133 7.46239 7.46214 6.93161 7.46214 6.27917C7.46214 5.62673 6.93133 5.09595 6.27892 5.09595C5.62652 5.09595 5.0957 5.62673 5.0957 6.27917C5.0957 6.93161 5.62652 7.46239 6.27892 7.46239ZM6.27892 5.74132C6.57545 5.74132 6.81677 5.98258 6.81677 6.27917C6.81677 6.57576 6.57552 6.81702 6.27892 6.81702C5.98233 6.81702 5.74108 6.57576 5.74108 6.27917C5.74111 5.98258 5.98236 5.74132 6.27892 5.74132Z" fill="#011E4F"/>
<path d="M5.74108 6.27917L4.17858 6.27901V6.27917H5.74108ZM6.27892 9.02489C7.79425 9.02489 9.02464 7.79458 9.02464 6.27917H5.89964C5.89964 6.06864 6.0684 5.89989 6.27892 5.89989V9.02489ZM9.02464 6.27917C9.02464 4.76376 7.79425 3.53344 6.27892 3.53344V6.65845C6.0684 6.65845 5.89964 6.4897 5.89964 6.27917H9.02464ZM6.27892 3.53344C4.76359 3.53344 3.5332 4.76376 3.5332 6.27917H6.65821C6.65821 6.4897 6.48944 6.65845 6.27892 6.65845V3.53344ZM3.5332 6.27917C3.5332 7.79458 4.76359 9.02489 6.27892 9.02489V5.89989C6.48944 5.89989 6.65821 6.06864 6.65821 6.27917H3.5332ZM6.27892 7.30383C5.71262 7.30383 5.25426 6.84564 5.25426 6.27917H8.37927C8.37927 5.11951 7.43829 4.17882 6.27892 4.17882V7.30383ZM5.25426 6.27917C5.25426 5.71282 5.71256 5.25451 6.27892 5.25451V8.37952C7.43847 8.37952 8.37927 7.43871 8.37927 6.27917H5.25426ZM6.27892 5.25451C6.84528 5.25451 7.30358 5.71282 7.30358 6.27917H4.17858C4.17858 7.43871 5.11938 8.37952 6.27892 8.37952V5.25451ZM7.30358 6.27933C7.30352 6.84546 6.8454 7.30383 6.27892 7.30383V4.17882C5.11932 4.17882 4.1787 5.11969 4.17858 6.27901L7.30358 6.27933Z" fill="#39ACE7" mask="url(#path-7-inside-4_1_7746)"/>
<mask id="path-9-inside-5_1_7746" fill="white">
<path d="M9.72106 10.9043C10.3735 10.9043 10.9043 10.3735 10.9043 9.72106C10.9043 9.06859 10.3735 8.53784 9.72106 8.53784C9.06865 8.53784 8.53784 9.06862 8.53784 9.72106C8.53784 10.3735 9.06865 10.9043 9.72106 10.9043ZM9.72106 9.18322C10.0176 9.18322 10.2589 9.42447 10.2589 9.72106C10.2589 10.0177 10.0177 10.2589 9.72106 10.2589C9.42447 10.2589 9.18322 10.0177 9.18322 9.72106C9.18322 9.42447 9.42447 9.18322 9.72106 9.18322Z"/>
</mask>
<path d="M9.72106 10.9043C10.3735 10.9043 10.9043 10.3735 10.9043 9.72106C10.9043 9.06859 10.3735 8.53784 9.72106 8.53784C9.06865 8.53784 8.53784 9.06862 8.53784 9.72106C8.53784 10.3735 9.06865 10.9043 9.72106 10.9043ZM9.72106 9.18322C10.0176 9.18322 10.2589 9.42447 10.2589 9.72106C10.2589 10.0177 10.0177 10.2589 9.72106 10.2589C9.42447 10.2589 9.18322 10.0177 9.18322 9.72106C9.18322 9.42447 9.42447 9.18322 9.72106 9.18322Z" fill="#011E4F"/>
<path d="M9.72106 12.4668C11.2364 12.4668 12.4668 11.2365 12.4668 9.72106H9.34178C9.34178 9.51053 9.51054 9.34178 9.72106 9.34178V12.4668ZM12.4668 9.72106C12.4668 8.2056 11.2364 6.97534 9.72106 6.97534V10.1003C9.51057 10.1003 9.34178 9.93159 9.34178 9.72106H12.4668ZM9.72106 6.97534C8.20573 6.97534 6.97534 8.20566 6.97534 9.72106H10.1003C10.1003 9.93159 9.93158 10.1003 9.72106 10.1003V6.97534ZM6.97534 9.72106C6.97534 11.2365 8.20573 12.4668 9.72106 12.4668V9.34178C9.93158 9.34178 10.1003 9.51053 10.1003 9.72106H6.97534ZM9.72106 10.7457C9.15476 10.7457 8.6964 10.2875 8.6964 9.72106H11.8214C11.8214 8.56141 10.8804 7.62072 9.72106 7.62072V10.7457ZM8.6964 9.72106C8.6964 9.15472 9.1547 8.69641 9.72106 8.69641V11.8214C10.8806 11.8214 11.8214 10.8806 11.8214 9.72106H8.6964ZM9.72106 8.69641C10.2874 8.69641 10.7457 9.15472 10.7457 9.72106H7.62071C7.62071 10.8806 8.56152 11.8214 9.72106 11.8214V8.69641ZM10.7457 9.72106C10.7457 10.2874 10.2874 10.7457 9.72106 10.7457V7.62072C8.56152 7.62072 7.62071 8.56153 7.62071 9.72106H10.7457Z" fill="#39ACE7" mask="url(#path-9-inside-5_1_7746)"/>
</svg>
