<svg width="16" height="16" viewBox="0 0 16 16" fill="none" xmlns="http://www.w3.org/2000/svg">
<path d="M13.2175 0.69565C13.2175 0.311453 13.5289 0 13.9131 0C14.2973 0 14.6088 0.311453 14.6088 0.69565V1.3913H15.3044C15.6886 1.3913 16.0001 1.70276 16.0001 2.08695C16.0001 2.47114 15.6886 2.7826 15.3044 2.7826H14.6088V3.47825C14.6088 3.86244 14.2973 4.1739 13.9131 4.1739C13.5289 4.1739 13.2175 3.86244 13.2175 3.47825V2.7826H12.5218C12.1376 2.7826 11.8262 2.47114 11.8262 2.08695C11.8262 1.70276 12.1376 1.3913 12.5218 1.3913H13.2175V0.69565Z" fill="#080341" stroke="#080341" stroke-width="33.3333"/>
<mask id="path-2-inside-1_483_367" fill="white">
<path d="M14.0477 5.61678C14.4011 5.46591 14.8153 5.62843 14.9334 5.99401C15.4052 7.45341 15.429 9.02683 14.9929 10.5084C14.491 12.2133 13.4113 13.6903 11.9392 14.686C10.4671 15.6816 8.69427 16.1339 6.92509 15.965C5.15594 15.7961 3.50071 15.0167 2.24352 13.7606C0.986314 12.5045 0.20555 10.8499 0.0352337 9.08081C-0.135087 7.31178 0.315658 5.53862 1.3101 4.06567C2.30455 2.59273 3.78068 1.51186 5.48514 1.00857C6.96641 0.571189 8.53976 0.59372 9.99958 1.06426C10.3653 1.18212 10.5281 1.59619 10.3776 1.94965C10.227 2.30311 9.81816 2.46572 9.45016 2.3553C8.29107 2.00749 7.05065 2.00195 5.8805 2.34747C4.487 2.75894 3.28017 3.64262 2.46715 4.84684C1.65412 6.05106 1.28561 7.50072 1.42486 8.94704C1.56411 10.3933 2.20242 11.7461 3.23026 12.773C4.2581 13.8 5.61136 14.4372 7.05775 14.5753C8.50414 14.7133 9.95353 14.3436 11.1571 13.5296C12.3606 12.7156 13.2433 11.508 13.6536 10.1142C13.9982 8.94377 13.9916 7.70329 13.6428 6.54452C13.5322 6.17662 13.6944 5.76764 14.0477 5.61678Z"/>
</mask>
<path d="M14.0477 5.61678C14.4011 5.46591 14.8153 5.62843 14.9334 5.99401C15.4052 7.45341 15.429 9.02683 14.9929 10.5084C14.491 12.2133 13.4113 13.6903 11.9392 14.686C10.4671 15.6816 8.69427 16.1339 6.92509 15.965C5.15594 15.7961 3.50071 15.0167 2.24352 13.7606C0.986314 12.5045 0.20555 10.8499 0.0352337 9.08081C-0.135087 7.31178 0.315658 5.53862 1.3101 4.06567C2.30455 2.59273 3.78068 1.51186 5.48514 1.00857C6.96641 0.571189 8.53976 0.59372 9.99958 1.06426C10.3653 1.18212 10.5281 1.59619 10.3776 1.94965C10.227 2.30311 9.81816 2.46572 9.45016 2.3553C8.29107 2.00749 7.05065 2.00195 5.8805 2.34747C4.487 2.75894 3.28017 3.64262 2.46715 4.84684C1.65412 6.05106 1.28561 7.50072 1.42486 8.94704C1.56411 10.3933 2.20242 11.7461 3.23026 12.773C4.2581 13.8 5.61136 14.4372 7.05775 14.5753C8.50414 14.7133 9.95353 14.3436 11.1571 13.5296C12.3606 12.7156 13.2433 11.508 13.6536 10.1142C13.9982 8.94377 13.9916 7.70329 13.6428 6.54452C13.5322 6.17662 13.6944 5.76764 14.0477 5.61678Z" fill="#080341"/>
<path d="M14.0477 5.61678L0.960153 -25.0398L0.958484 -25.0391L14.0477 5.61678ZM14.9334 5.99401L-16.7853 16.2426L-16.7837 16.2474L14.9334 5.99401ZM14.9929 10.5084L46.9694 19.9221L46.9698 19.9207L14.9929 10.5084ZM11.9392 14.686L30.613 42.2976L30.6139 42.297L11.9392 14.686ZM6.92509 15.965L10.093 -17.2175L10.0918 -17.2176L6.92509 15.965ZM2.24352 13.7606L25.8038 -9.81957L25.8037 -9.81964L2.24352 13.7606ZM0.0352337 9.08081L33.2151 5.88638L33.2151 5.88629L0.0352337 9.08081ZM5.48514 1.00857L-3.95439 -30.9603L-3.95462 -30.9602L5.48514 1.00857ZM9.99958 1.06426L-0.22653 32.7902L-0.225588 32.7905L9.99958 1.06426ZM10.3776 1.94965L41.0433 15.016L41.0453 15.0111L10.3776 1.94965ZM9.45016 2.3553L-0.130019 34.2823L-0.129747 34.2823L9.45016 2.3553ZM5.8805 2.34747L-3.55904 -29.6214L-3.55918 -29.6213L5.8805 2.34747ZM1.42486 8.94704L-31.755 12.1415L-31.755 12.1417L1.42486 8.94704ZM7.05775 14.5753L3.88983 47.7577L3.89142 47.7579L7.05775 14.5753ZM11.1571 13.5296L-7.51701 -14.0818L-7.5181 -14.0811L11.1571 13.5296ZM13.6536 10.1142L-18.3229 0.700821L-18.323 0.701209L13.6536 10.1142ZM13.6428 6.54452L-18.2773 16.1474L-18.2758 16.1523L13.6428 6.54452ZM27.1353 36.2734C11.5403 42.931 -10.2007 36.6215 -16.7853 16.2426L46.6521 -4.2546C39.8313 -25.3647 17.2619 -31.9992 0.960154 -25.0398L27.1353 36.2734ZM-16.7837 16.2474C-18.3677 11.3478 -18.4473 6.06775 -16.984 1.09612L46.9698 19.9207C49.3053 11.9859 49.1781 3.55901 46.6506 -4.2594L-16.7837 16.2474ZM-16.9836 1.09474C-15.2992 -4.6267 -11.6759 -9.58353 -6.73554 -12.9249L30.6139 42.297C38.4986 36.9642 44.2812 29.0534 46.9694 19.9221L-16.9836 1.09474ZM-6.73465 -12.9256C-1.7948 -16.2664 4.15464 -17.7844 10.093 -17.2175L3.75715 49.1474C13.2339 50.0522 22.7289 47.6296 30.613 42.2976L-6.73465 -12.9256ZM10.0918 -17.2176C16.0297 -16.6509 21.5848 -14.0351 25.8038 -9.81957L-21.3168 37.3408C-14.5833 44.0685 -5.71785 48.2432 3.75839 49.1475L10.0918 -17.2176ZM25.8037 -9.81964C30.0233 -5.60365 32.6436 -0.0505587 33.2151 5.88638L-33.1447 12.2753C-32.2325 21.7503 -28.0507 30.6126 -21.3167 37.3408L25.8037 -9.81964ZM33.2151 5.88629C33.7867 11.8233 32.274 17.7741 28.9365 22.7175L-26.3163 -14.5862C-31.6427 -6.6969 -34.0569 2.80028 -33.1447 12.2753L33.2151 5.88629ZM28.9365 22.7175C25.5991 27.6608 20.6451 31.2883 14.9249 32.9773L-3.95462 -30.9602C-13.0838 -28.2645 -20.99 -22.4753 -26.3163 -14.5862L28.9365 22.7175ZM14.9247 32.9774C9.95319 34.4453 4.67309 34.3695 -0.22653 32.7902L20.2257 -30.6617C12.4064 -33.1821 3.97962 -33.303 -3.95439 -30.9603L14.9247 32.9774ZM-0.225588 32.7905C-20.6041 26.2227 -26.9355 4.49137 -20.2901 -11.1118L41.0453 15.0111C47.9918 -1.29899 41.3347 -23.8584 20.2248 -30.662L-0.225588 32.7905ZM-20.2881 -11.1167C-12.9558 -28.325 5.24426 -33.7083 19.0301 -29.5718L-0.129747 34.2823C14.3921 38.6397 33.4097 32.9312 41.0433 15.016L-20.2881 -11.1167ZM19.0303 -29.5717C11.6956 -31.7726 3.84618 -31.8079 -3.55904 -29.6214L15.32 34.3163C10.2551 35.8118 4.88653 35.7876 -0.130019 34.2823L19.0303 -29.5717ZM-3.55918 -29.6213C-12.3775 -27.0175 -20.0144 -21.4254 -25.1593 -13.805L30.0936 23.4987C26.5747 28.7107 21.3515 32.5354 15.3202 34.3163L-3.55918 -29.6213ZM-25.1593 -13.805C-30.3042 -6.18447 -32.6362 2.9892 -31.755 12.1415L34.6048 5.75256C35.2074 12.0122 33.6125 18.2866 30.0936 23.4987L-25.1593 -13.805ZM-31.755 12.1417C-30.8739 21.2937 -26.8346 29.854 -20.3302 36.353L26.7907 -10.8069C31.2395 -6.36185 34.0021 -0.507078 34.6048 5.75241L-31.755 12.1417ZM-20.3302 36.353C-13.8253 42.8525 -5.26177 46.884 3.88983 47.7577L10.2257 -18.6072C16.4845 -18.0097 22.3415 -15.2525 26.7907 -10.8069L-20.3302 36.353ZM3.89142 47.7579C13.0432 48.6311 22.2151 46.2923 29.8323 41.1402L-7.5181 -14.0811C-2.30805 -17.6051 3.96507 -19.2046 10.2241 -18.6073L3.89142 47.7579ZM29.8312 41.141C37.4477 35.9898 43.0337 28.348 45.6303 19.5272L-18.323 0.701209C-16.547 -5.33196 -12.7264 -10.5586 -7.51701 -14.0818L29.8312 41.141ZM45.6302 19.5276C47.8106 12.1209 47.7692 4.27089 45.5615 -3.06326L-18.2758 16.1523C-19.7859 11.1357 -19.8142 5.76664 -18.3229 0.700821L45.6302 19.5276ZM45.563 -3.0584C49.7072 10.717 44.3458 28.925 27.1369 36.2727L0.958484 -25.0391C-16.957 -17.3897 -22.6429 1.63621 -18.2773 16.1474L45.563 -3.0584Z" fill="#080341" mask="url(#path-2-inside-1_483_367)"/>
<path d="M11.8265 8.01894V6.48556V5.94934V5.56479C11.8265 5.1806 11.5151 4.86914 11.1309 4.86914H10.5995C10.4915 4.86914 10.385 4.89429 10.2883 4.94258L9.67741 5.24805L9.6773 5.2481L9.38788 5.39282M11.8265 8.01894V9.54699V10.2698V10.2699L11.1309 8.87876L11.8265 10.27V10.2702V11.13C11.8265 11.5142 11.5151 11.8256 11.1309 11.8256C10.9178 11.8256 10.7271 11.7298 10.5995 11.5789C10.497 11.4578 10.4352 11.3011 10.4352 11.13V7.48756V7.4875L10.5995 7.81592L10.4352 7.48743V6.76396L10.5995 7.09231L10.4352 6.76386V6.48556C10.4352 6.38213 10.3264 6.31486 10.2339 6.36111L9.98499 6.48556L9.94442 6.50584L9.93426 6.48556M11.8265 8.01894L11.1309 6.62768L11.0598 6.48556L10.7917 5.94934M11.8265 8.01894V8.02036M9.38788 5.39282L9.43043 5.47793L9.47387 5.56479M9.38788 5.39282L9.39468 5.40643L9.38788 5.39282ZM9.47387 5.56479L9.38783 5.39284C9.30416 5.43469 9.23272 5.49388 9.17699 5.56479C9.09235 5.67249 9.04395 5.80724 9.04395 5.94934C9.04395 6.18569 9.17104 6.37981 9.35053 6.48556C9.52231 6.58676 9.74209 6.60701 9.9444 6.50586L9.93426 6.48556M9.47387 5.56479L9.66614 5.94934M9.47387 5.56479L9.66614 5.94934M9.93426 6.48556L9.66614 5.94934M9.93426 6.48556L9.66614 5.94934M11.8265 8.02036V9.5462V8.02036ZM11.8265 8.02036L11.1309 6.62846L11.0595 6.48556L10.7917 5.94934M10.7917 5.94934L10.5995 5.56518L10.5993 5.56479L10.5995 5.56489L10.7917 5.94934ZM9.66614 5.94934L9.47386 5.56479L9.66614 5.94934Z" fill="#080341" stroke="#080341" stroke-width="33.3333"/>
<path d="M6.26112 10.8856L6.57538 11.13L6.95678 11.4266L7.33016 11.717C7.22229 11.7858 7.09419 11.8256 6.95678 11.8256H6.26112H5.74612H5.60825H5.60811H5.50211H5.21764H4.86982H4.52199H4.17417C3.78997 11.8256 3.47852 11.5142 3.47852 11.13V10.6784C3.47852 10.5204 3.53228 10.3671 3.63095 10.2438L4.17417 9.56478L4.32319 9.3785L4.32332 9.37835L4.52199 9.13L4.86982 8.69522L5.21764 8.26044L5.50211 7.90486L5.74612 7.59985L6.14826 7.09717C6.21061 7.01921 6.24874 6.92514 6.25858 6.82655C6.25863 6.82601 6.25868 6.82548 6.25873 6.82495L6.26078 6.82655L6.26112 6.82681L6.95678 7.36763L6.26112 6.82655L6.26111 6.82655L6.25876 6.82471C6.26033 6.80839 6.26112 6.79195 6.26112 6.77544C6.26112 6.71692 6.25136 6.66068 6.23338 6.60826C6.16397 6.4059 5.97203 6.26044 5.74612 6.26044H5.53328L5.50211 6.2362L5.21764 6.01494L4.86982 5.74441L4.52199 5.47387L4.17417 5.20333L4.0697 5.12208C4.10345 5.09832 4.1383 5.07602 4.17417 5.05527C4.28182 4.993 4.39859 4.94473 4.52199 4.91297C4.63316 4.88436 4.74971 4.86914 4.86982 4.86914H5.21764L5.50211 4.86914L5.74612 4.86914H6.26112C6.51454 4.86914 6.75214 4.93689 6.95678 5.05527C7.37264 5.29583 7.65243 5.74546 7.65243 6.26044V6.60826V6.77544V6.82655C7.65243 7.13591 7.54926 7.4365 7.35935 7.68075L7.17473 7.91811L7.17462 7.91825L6.95678 8.19833L6.26112 9.09273L5.74612 9.75487L5.50211 10.0686L5.39229 10.2098C5.32121 10.3012 5.38634 10.4343 5.50211 10.4343H5.68099L5.74612 10.4849L5.68109 10.4343H5.74612H6.26112H6.95678C7.16862 10.4343 7.35834 10.529 7.48593 10.6784C7.58974 10.7999 7.65243 10.9576 7.65243 11.13C7.65243 11.3766 7.52407 11.5933 7.33049 11.7168L6.95678 11.4263L6.57575 11.13L6.26112 10.8856ZM6.26112 10.8856L5.99475 10.6784L6.26112 10.8856ZM4.06918 5.12245L4.17417 5.20408L4.52199 5.47454L4.86982 5.74499L5.21764 6.01545L5.50211 6.23663L5.53272 6.26044L4.06918 5.12245Z" fill="#080341" stroke="#080341" stroke-width="33.3333"/>
</svg>
