<svg width="16" height="20" viewBox="0 0 16 20" fill="none" xmlns="http://www.w3.org/2000/svg">
<mask id="path-1-inside-1_482_335" fill="white">
<path d="M15.7373 6.73695C15.6427 5.91794 15.4515 5.167 15.1686 4.50537C13.1904 -0.127765 8.03702 6.19997e-05 8.01179 0.000400465C7.96068 0.000400465 2.80965 -0.128066 0.83136 4.50504C0.548516 5.167 0.357283 5.91794 0.262663 6.73695C-0.925162 17.0028 2.22001 18.6757 3.62795 18.9184L3.95096 18.9692L4.01139 18.6475C4.01617 18.6217 4.10846 18.1739 4.68923 17.7413V18.9231C4.68923 19.1064 4.83762 19.2551 5.02122 19.2551C5.20482 19.2551 5.35322 19.1064 5.35322 18.9231V17.3689C5.39143 17.3527 5.4308 17.3369 5.47116 17.3213L5.77472 17.5252C5.90056 17.6102 6.02304 17.7011 6.14523 17.7914C6.67707 18.1845 7.22681 18.5912 8.00002 18.5912C8.77322 18.5912 9.32297 18.1845 9.85481 17.7914C9.977 17.7011 10.0995 17.6102 10.2253 17.5252L10.5289 17.3213C10.5758 17.3394 10.621 17.3579 10.6649 17.3768V18.9231C10.6649 19.1064 10.8133 19.2551 10.9969 19.2551C11.1805 19.2551 11.3289 19.1064 11.3289 18.9231V17.7552C11.893 18.1831 11.9838 18.6207 11.988 18.6431L12.0404 18.9754L12.3721 18.9183C13.78 18.6757 16.9252 17.0028 15.7373 6.73695ZM8.00002 17.9272C7.44561 17.9272 7.00572 17.6022 6.54029 17.2576C6.445 17.1871 6.3491 17.1175 6.25252 17.0493L6.25628 17.048L5.70056 16.6755C5.65111 16.6424 5.60199 16.6093 5.55295 16.5763C5.53039 16.561 5.50782 16.5457 5.48526 16.5304C5.45675 16.511 5.42847 16.4916 5.40015 16.4722C5.35619 16.442 5.31227 16.4116 5.26849 16.381C5.25281 16.3701 5.23716 16.359 5.22152 16.3481C5.1703 16.3119 5.11938 16.2755 5.06872 16.2387C5.05766 16.2306 5.04653 16.2226 5.03551 16.2145C4.98298 16.176 4.93089 16.137 4.87918 16.0976C4.86895 16.0898 4.85865 16.0821 4.84849 16.0743C4.7984 16.0358 4.74898 15.9966 4.69994 15.957C4.6881 15.9475 4.67599 15.9381 4.66422 15.9284C4.61943 15.8919 4.57558 15.8545 4.53191 15.817C4.51661 15.8038 4.50096 15.791 4.48581 15.7777C4.44873 15.7452 4.41281 15.7117 4.37671 15.6785C4.35783 15.661 4.33843 15.6441 4.31981 15.6264C2.81428 14.1976 2.68811 11.9713 2.68811 9.99735C2.68811 9.26792 2.73365 8.58971 2.82357 7.96276C4.27299 7.8596 6.4186 6.16055 7.59063 5.13526C7.82767 4.92778 8.17226 4.92778 8.4093 5.13492C9.58125 6.16047 11.7267 7.85942 13.1761 7.96272C13.266 8.58964 13.3115 9.26784 13.3115 9.99731C13.3115 11.9713 13.1857 14.1976 11.6802 15.6264C11.6615 15.6441 11.6421 15.661 11.6233 15.6784C11.5872 15.7117 11.5512 15.7451 11.5142 15.7776C11.499 15.7909 11.4834 15.8037 11.468 15.8169C11.4244 15.8545 11.3805 15.8918 11.3357 15.9284C11.3239 15.938 11.3119 15.9474 11.3 15.957C11.251 15.9965 11.2016 16.0358 11.1515 16.0743C11.1413 16.0821 11.131 16.0898 11.1208 16.0976C11.0691 16.137 11.017 16.176 10.9645 16.2145C10.9534 16.2226 10.9423 16.2306 10.9312 16.2386C10.8806 16.2754 10.8296 16.3119 10.7784 16.348C10.7628 16.359 10.7472 16.37 10.7315 16.381C10.6877 16.4116 10.6438 16.442 10.5998 16.4722C10.5715 16.4916 10.5432 16.511 10.5148 16.5303C10.4921 16.5457 10.4695 16.561 10.4468 16.5763C10.3978 16.6094 10.3488 16.6424 10.2994 16.6755L9.74368 17.048L9.74744 17.0492C9.65087 17.1175 9.55497 17.1871 9.45967 17.2575C8.99428 17.6022 8.55442 17.9272 8.00002 17.9272ZM2.94338 7.28083C3.2474 5.83205 3.82204 4.69916 4.66343 3.89851C6.03549 2.59214 7.66885 2.65559 7.70303 2.65758L8.31521 2.6569C8.33281 2.65525 9.94691 2.58353 11.3269 3.88888C12.1736 4.69025 12.7514 5.82625 13.0564 7.28079C12.1223 7.12596 10.6138 6.18134 8.84656 4.63531C8.36421 4.21335 7.63583 4.21335 7.15344 4.63531C5.38605 6.18145 3.87755 7.12607 2.94338 7.28083ZM12.5304 18.1966C12.3831 17.8713 12.0527 17.3732 11.3289 16.9647V16.7711C11.4744 16.6653 11.6172 16.5563 11.7563 16.4425C11.7568 16.4421 11.7572 16.4417 11.7577 16.4413C11.7833 16.4204 11.8087 16.3992 11.834 16.3779C11.8471 16.3669 11.8601 16.3559 11.8732 16.3448C11.8921 16.3287 11.9109 16.3125 11.9297 16.2962C11.9534 16.2756 11.9769 16.2547 12.0004 16.2337C12.0102 16.225 12.02 16.2164 12.0297 16.2075C12.0659 16.1747 12.1019 16.1416 12.1375 16.1079L12.1373 16.1078C13.753 14.5743 13.9755 12.2648 13.9755 9.99735C13.9755 7.00088 13.2381 4.78359 11.7831 3.40687C10.1989 1.90731 8.35537 1.98896 8.29697 1.99362L7.72131 1.99396C7.64331 1.98998 5.80278 1.90566 4.21692 3.40687C2.76185 4.78359 2.02419 7.00088 2.02419 9.99735C2.02419 12.2648 2.24694 14.5743 3.86269 16.1078L3.86254 16.1079C3.89804 16.1416 3.93403 16.1747 3.97021 16.2075C3.98003 16.2164 3.98996 16.2251 3.99985 16.234C4.0232 16.2548 4.04663 16.2756 4.07021 16.2962C4.08901 16.3125 4.10793 16.3288 4.12689 16.3449C4.1399 16.3559 4.15291 16.367 4.16596 16.3779C4.19127 16.3992 4.21669 16.4204 4.24226 16.4414C4.24275 16.4417 4.24324 16.4421 4.24373 16.4425C4.38863 16.5611 4.53737 16.6744 4.68926 16.7844V16.9547C3.95295 17.365 3.6181 17.8687 3.46962 18.1966C2.32264 17.8281 -0.137704 15.9743 0.921994 6.81299C1.00932 6.05773 1.18427 5.36888 1.44221 4.76599C3.23924 0.557101 7.79502 0.655369 8.01179 0.664018C8.05696 0.661687 12.7565 0.546157 14.5578 4.76599C14.8157 5.36888 14.9907 6.05773 15.078 6.81299C16.1377 15.9743 13.6774 17.8281 12.5304 18.1966Z"/>
</mask>
<path d="M15.7373 6.73695C15.6427 5.91794 15.4515 5.167 15.1686 4.50537C13.1904 -0.127765 8.03702 6.19997e-05 8.01179 0.000400465C7.96068 0.000400465 2.80965 -0.128066 0.83136 4.50504C0.548516 5.167 0.357283 5.91794 0.262663 6.73695C-0.925162 17.0028 2.22001 18.6757 3.62795 18.9184L3.95096 18.9692L4.01139 18.6475C4.01617 18.6217 4.10846 18.1739 4.68923 17.7413V18.9231C4.68923 19.1064 4.83762 19.2551 5.02122 19.2551C5.20482 19.2551 5.35322 19.1064 5.35322 18.9231V17.3689C5.39143 17.3527 5.4308 17.3369 5.47116 17.3213L5.77472 17.5252C5.90056 17.6102 6.02304 17.7011 6.14523 17.7914C6.67707 18.1845 7.22681 18.5912 8.00002 18.5912C8.77322 18.5912 9.32297 18.1845 9.85481 17.7914C9.977 17.7011 10.0995 17.6102 10.2253 17.5252L10.5289 17.3213C10.5758 17.3394 10.621 17.3579 10.6649 17.3768V18.9231C10.6649 19.1064 10.8133 19.2551 10.9969 19.2551C11.1805 19.2551 11.3289 19.1064 11.3289 18.9231V17.7552C11.893 18.1831 11.9838 18.6207 11.988 18.6431L12.0404 18.9754L12.3721 18.9183C13.78 18.6757 16.9252 17.0028 15.7373 6.73695ZM8.00002 17.9272C7.44561 17.9272 7.00572 17.6022 6.54029 17.2576C6.445 17.1871 6.3491 17.1175 6.25252 17.0493L6.25628 17.048L5.70056 16.6755C5.65111 16.6424 5.60199 16.6093 5.55295 16.5763C5.53039 16.561 5.50782 16.5457 5.48526 16.5304C5.45675 16.511 5.42847 16.4916 5.40015 16.4722C5.35619 16.442 5.31227 16.4116 5.26849 16.381C5.25281 16.3701 5.23716 16.359 5.22152 16.3481C5.1703 16.3119 5.11938 16.2755 5.06872 16.2387C5.05766 16.2306 5.04653 16.2226 5.03551 16.2145C4.98298 16.176 4.93089 16.137 4.87918 16.0976C4.86895 16.0898 4.85865 16.0821 4.84849 16.0743C4.7984 16.0358 4.74898 15.9966 4.69994 15.957C4.6881 15.9475 4.67599 15.9381 4.66422 15.9284C4.61943 15.8919 4.57558 15.8545 4.53191 15.817C4.51661 15.8038 4.50096 15.791 4.48581 15.7777C4.44873 15.7452 4.41281 15.7117 4.37671 15.6785C4.35783 15.661 4.33843 15.6441 4.31981 15.6264C2.81428 14.1976 2.68811 11.9713 2.68811 9.99735C2.68811 9.26792 2.73365 8.58971 2.82357 7.96276C4.27299 7.8596 6.4186 6.16055 7.59063 5.13526C7.82767 4.92778 8.17226 4.92778 8.4093 5.13492C9.58125 6.16047 11.7267 7.85942 13.1761 7.96272C13.266 8.58964 13.3115 9.26784 13.3115 9.99731C13.3115 11.9713 13.1857 14.1976 11.6802 15.6264C11.6615 15.6441 11.6421 15.661 11.6233 15.6784C11.5872 15.7117 11.5512 15.7451 11.5142 15.7776C11.499 15.7909 11.4834 15.8037 11.468 15.8169C11.4244 15.8545 11.3805 15.8918 11.3357 15.9284C11.3239 15.938 11.3119 15.9474 11.3 15.957C11.251 15.9965 11.2016 16.0358 11.1515 16.0743C11.1413 16.0821 11.131 16.0898 11.1208 16.0976C11.0691 16.137 11.017 16.176 10.9645 16.2145C10.9534 16.2226 10.9423 16.2306 10.9312 16.2386C10.8806 16.2754 10.8296 16.3119 10.7784 16.348C10.7628 16.359 10.7472 16.37 10.7315 16.381C10.6877 16.4116 10.6438 16.442 10.5998 16.4722C10.5715 16.4916 10.5432 16.511 10.5148 16.5303C10.4921 16.5457 10.4695 16.561 10.4468 16.5763C10.3978 16.6094 10.3488 16.6424 10.2994 16.6755L9.74368 17.048L9.74744 17.0492C9.65087 17.1175 9.55497 17.1871 9.45967 17.2575C8.99428 17.6022 8.55442 17.9272 8.00002 17.9272ZM2.94338 7.28083C3.2474 5.83205 3.82204 4.69916 4.66343 3.89851C6.03549 2.59214 7.66885 2.65559 7.70303 2.65758L8.31521 2.6569C8.33281 2.65525 9.94691 2.58353 11.3269 3.88888C12.1736 4.69025 12.7514 5.82625 13.0564 7.28079C12.1223 7.12596 10.6138 6.18134 8.84656 4.63531C8.36421 4.21335 7.63583 4.21335 7.15344 4.63531C5.38605 6.18145 3.87755 7.12607 2.94338 7.28083ZM12.5304 18.1966C12.3831 17.8713 12.0527 17.3732 11.3289 16.9647V16.7711C11.4744 16.6653 11.6172 16.5563 11.7563 16.4425C11.7568 16.4421 11.7572 16.4417 11.7577 16.4413C11.7833 16.4204 11.8087 16.3992 11.834 16.3779C11.8471 16.3669 11.8601 16.3559 11.8732 16.3448C11.8921 16.3287 11.9109 16.3125 11.9297 16.2962C11.9534 16.2756 11.9769 16.2547 12.0004 16.2337C12.0102 16.225 12.02 16.2164 12.0297 16.2075C12.0659 16.1747 12.1019 16.1416 12.1375 16.1079L12.1373 16.1078C13.753 14.5743 13.9755 12.2648 13.9755 9.99735C13.9755 7.00088 13.2381 4.78359 11.7831 3.40687C10.1989 1.90731 8.35537 1.98896 8.29697 1.99362L7.72131 1.99396C7.64331 1.98998 5.80278 1.90566 4.21692 3.40687C2.76185 4.78359 2.02419 7.00088 2.02419 9.99735C2.02419 12.2648 2.24694 14.5743 3.86269 16.1078L3.86254 16.1079C3.89804 16.1416 3.93403 16.1747 3.97021 16.2075C3.98003 16.2164 3.98996 16.2251 3.99985 16.234C4.0232 16.2548 4.04663 16.2756 4.07021 16.2962C4.08901 16.3125 4.10793 16.3288 4.12689 16.3449C4.1399 16.3559 4.15291 16.367 4.16596 16.3779C4.19127 16.3992 4.21669 16.4204 4.24226 16.4414C4.24275 16.4417 4.24324 16.4421 4.24373 16.4425C4.38863 16.5611 4.53737 16.6744 4.68926 16.7844V16.9547C3.95295 17.365 3.6181 17.8687 3.46962 18.1966C2.32264 17.8281 -0.137704 15.9743 0.921994 6.81299C1.00932 6.05773 1.18427 5.36888 1.44221 4.76599C3.23924 0.557101 7.79502 0.655369 8.01179 0.664018C8.05696 0.661687 12.7565 0.546157 14.5578 4.76599C14.8157 5.36888 14.9907 6.05773 15.078 6.81299C16.1377 15.9743 13.6774 17.8281 12.5304 18.1966Z" fill="#080341" stroke="#080341" stroke-width="3.12497" mask="url(#path-1-inside-1_482_335)"/>
</svg>
