<svg width="16" height="19" viewBox="0 0 16 19" fill="none" xmlns="http://www.w3.org/2000/svg">
<mask id="path-1-inside-1_1_7772" fill="white">
<path d="M12.9683 0.00116436L13.0826 0.0130773C13.6186 0.0993263 13.9807 0.588786 13.8913 1.10631C13.4683 3.5569 13.9779 6.25119 15.2957 9.11419C16.4515 11.625 16.1021 14.2672 14.8485 16.7748C14.6366 17.1985 14.4238 17.57 14.2266 17.8821L13.9983 18.2276C13.8889 18.3857 13.7874 18.5214 13.6974 18.6331C13.3639 19.0472 12.7457 19.1218 12.3167 18.7997C11.9208 18.5024 11.8246 17.9709 12.0744 17.5652L12.1441 17.4666C12.4999 16.9886 12.8113 16.4787 13.0764 15.9487C13.8533 14.3949 14.2007 12.8166 13.9408 11.3101C12.0618 11.7551 10.949 12.551 10.2487 13.5419C9.44879 14.6736 9.09263 16.1888 8.96472 18.0921C8.94239 18.5911 8.51105 19.0005 7.98172 19C7.45918 19.0005 7.02125 18.5964 6.99862 18.0921C6.87082 16.1888 6.51455 14.6736 5.71469 13.5419C5.01874 12.5572 3.91548 11.7651 2.05771 11.3184C1.8006 12.8224 2.14821 14.3978 2.92365 15.9487C3.13472 16.3708 3.37445 16.7866 3.64608 17.1779L3.85583 17.4666C4.18943 17.8807 4.11217 18.4776 3.68325 18.7997C3.25432 19.1218 2.63617 19.0472 2.30257 18.6331C2.21255 18.5214 2.11109 18.3857 2.00172 18.2276L1.77345 17.8821C1.57618 17.57 1.36344 17.1985 1.15157 16.7748C-0.102157 14.2672 -0.451495 11.625 0.704285 9.11419C2.02206 6.25133 2.53171 3.55698 2.10869 1.1063C2.01937 0.588777 2.38146 0.0993263 2.91745 0.0130773C3.45345 -0.0731718 3.96037 0.276441 4.04969 0.793964C4.52355 3.53925 4.00909 6.46689 2.67192 9.50919C4.8329 10.0556 6.34257 11.0597 7.34003 12.4709C7.58846 12.8224 7.80059 13.193 7.98172 13.5794C8.16276 13.193 8.37488 12.8224 8.62341 12.4709C9.62589 11.0524 11.1459 10.0455 13.3244 9.50092C11.99 6.46143 11.4769 3.53668 11.9503 0.793954C12.0333 0.313396 12.4763 -0.0223762 12.9683 0.00116436ZM7.98182 5.70013C8.52522 5.70013 8.96571 6.12546 8.96571 6.65012C8.96571 7.17478 8.52522 7.6001 7.98182 7.6001C7.43842 7.6001 6.99794 7.17478 6.99794 6.65012C6.99794 6.12546 7.43842 5.70013 7.98182 5.70013Z"/>
</mask>
<path d="M12.9683 0.00116436L13.0826 0.0130773C13.6186 0.0993263 13.9807 0.588786 13.8913 1.10631C13.4683 3.5569 13.9779 6.25119 15.2957 9.11419C16.4515 11.625 16.1021 14.2672 14.8485 16.7748C14.6366 17.1985 14.4238 17.57 14.2266 17.8821L13.9983 18.2276C13.8889 18.3857 13.7874 18.5214 13.6974 18.6331C13.3639 19.0472 12.7457 19.1218 12.3167 18.7997C11.9208 18.5024 11.8246 17.9709 12.0744 17.5652L12.1441 17.4666C12.4999 16.9886 12.8113 16.4787 13.0764 15.9487C13.8533 14.3949 14.2007 12.8166 13.9408 11.3101C12.0618 11.7551 10.949 12.551 10.2487 13.5419C9.44879 14.6736 9.09263 16.1888 8.96472 18.0921C8.94239 18.5911 8.51105 19.0005 7.98172 19C7.45918 19.0005 7.02125 18.5964 6.99862 18.0921C6.87082 16.1888 6.51455 14.6736 5.71469 13.5419C5.01874 12.5572 3.91548 11.7651 2.05771 11.3184C1.8006 12.8224 2.14821 14.3978 2.92365 15.9487C3.13472 16.3708 3.37445 16.7866 3.64608 17.1779L3.85583 17.4666C4.18943 17.8807 4.11217 18.4776 3.68325 18.7997C3.25432 19.1218 2.63617 19.0472 2.30257 18.6331C2.21255 18.5214 2.11109 18.3857 2.00172 18.2276L1.77345 17.8821C1.57618 17.57 1.36344 17.1985 1.15157 16.7748C-0.102157 14.2672 -0.451495 11.625 0.704285 9.11419C2.02206 6.25133 2.53171 3.55698 2.10869 1.1063C2.01937 0.588777 2.38146 0.0993263 2.91745 0.0130773C3.45345 -0.0731718 3.96037 0.276441 4.04969 0.793964C4.52355 3.53925 4.00909 6.46689 2.67192 9.50919C4.8329 10.0556 6.34257 11.0597 7.34003 12.4709C7.58846 12.8224 7.80059 13.193 7.98172 13.5794C8.16276 13.193 8.37488 12.8224 8.62341 12.4709C9.62589 11.0524 11.1459 10.0455 13.3244 9.50092C11.99 6.46143 11.4769 3.53668 11.9503 0.793954C12.0333 0.313396 12.4763 -0.0223762 12.9683 0.00116436ZM7.98182 5.70013C8.52522 5.70013 8.96571 6.12546 8.96571 6.65012C8.96571 7.17478 8.52522 7.6001 7.98182 7.6001C7.43842 7.6001 6.99794 7.17478 6.99794 6.65012C6.99794 6.12546 7.43842 5.70013 7.98182 5.70013Z" fill="#011E4F"/>
<path d="M12.9683 0.00116436L13.521 -5.30345L13.3724 -5.31893L13.2232 -5.32607L12.9683 0.00116436ZM13.0826 0.0130773L13.9298 -5.25253L13.7831 -5.27613L13.6353 -5.29154L13.0826 0.0130773ZM13.8913 1.10631L19.1469 2.01364L19.1469 2.01355L13.8913 1.10631ZM15.2957 9.11419L10.451 11.3442L10.451 11.3443L15.2957 9.11419ZM14.8485 16.7748L19.6187 19.16L19.6188 19.1597L14.8485 16.7748ZM14.2266 17.8821L18.6766 20.8217L18.7061 20.777L18.7347 20.7318L14.2266 17.8821ZM13.9983 18.2276L18.384 21.2624L18.4167 21.2152L18.4483 21.1673L13.9983 18.2276ZM13.6974 18.6331L9.54419 15.2872L9.54385 15.2876L13.6974 18.6331ZM12.3167 18.7997L9.11365 23.0641L9.11473 23.0649L12.3167 18.7997ZM12.0744 17.5652L7.71951 14.4864L7.62193 14.6244L7.5333 14.7684L12.0744 17.5652ZM12.1441 17.4666L7.86569 14.2824L7.82681 14.3347L7.78921 14.3878L12.1441 17.4666ZM13.0764 15.9487L17.8464 18.3343L17.8467 18.3337L13.0764 15.9487ZM13.9408 11.3101L19.1965 10.4035L18.2322 4.81271L12.7116 6.12033L13.9408 11.3101ZM10.2487 13.5419L5.89343 10.4635L5.89342 10.4636L10.2487 13.5419ZM8.96472 18.0921L3.64339 17.7345L3.63939 17.794L3.63672 17.8536L8.96472 18.0921ZM7.98172 19L7.9865 13.6667L7.97688 13.6667L7.98172 19ZM6.99862 18.0921L12.3266 17.853L12.3239 17.7939L12.32 17.7348L6.99862 18.0921ZM5.71469 13.5419L10.07 10.4637L10.07 10.4636L5.71469 13.5419ZM2.05771 11.3184L3.30452 6.13288L-2.23869 4.80008L-3.19936 10.4197L2.05771 11.3184ZM2.92365 15.9487L-1.84667 18.3338L-1.84653 18.3341L2.92365 15.9487ZM3.64608 17.1779L-0.73543 20.2188L-0.702554 20.2662L-0.668661 20.3128L3.64608 17.1779ZM3.85583 17.4666L-0.458911 20.6015L-0.380781 20.709L-0.297392 20.8126L3.85583 17.4666ZM3.68325 18.7997L6.88548 23.0647L6.88608 23.0643L3.68325 18.7997ZM2.30257 18.6331L-1.85081 21.9788L-1.85065 21.979L2.30257 18.6331ZM2.00172 18.2276L-2.44839 21.1672L-2.41675 21.2151L-2.3841 21.2623L2.00172 18.2276ZM1.77345 17.8821L-2.73476 20.7317L-2.70616 20.777L-2.67665 20.8216L1.77345 17.8821ZM1.15157 16.7748L-3.61876 19.1598L-3.61869 19.1599L1.15157 16.7748ZM0.704285 9.11419L5.54897 11.3443L5.54901 11.3442L0.704285 9.11419ZM2.10869 1.1063L-3.14693 2.01345L-3.14692 2.01347L2.10869 1.1063ZM2.91745 0.0130773L2.07015 -5.25252L2.07013 -5.25252L2.91745 0.0130773ZM4.04969 0.793964L-1.20593 1.70111L-1.20592 1.70112L4.04969 0.793964ZM2.67192 9.50919L-2.21062 7.36319L-4.74719 13.1344L1.36447 14.6798L2.67192 9.50919ZM7.34003 12.4709L11.6953 9.39259L11.6953 9.39249L7.34003 12.4709ZM7.98172 13.5794L3.15274 15.8433L7.98303 26.1464L12.8112 15.8423L7.98172 13.5794ZM8.62341 12.4709L12.9781 15.5499L12.9788 15.549L8.62341 12.4709ZM13.3244 9.50092L14.6177 14.6751L20.748 13.1428L18.2078 7.35693L13.3244 9.50092ZM11.9503 0.793954L17.2059 1.70117L17.206 1.70104L11.9503 0.793954ZM12.4155 5.30578L12.5298 5.31769L13.6353 -5.29154L13.521 -5.30345L12.4155 5.30578ZM12.2353 5.27868C10.0085 4.92037 8.19137 2.77323 8.63573 0.199066L19.1469 2.01355C19.77 -1.59566 17.2287 -4.72172 13.9298 -5.25253L12.2353 5.27868ZM8.63575 0.198981C7.97435 4.03001 8.83852 7.84106 10.451 11.3442L20.1405 6.88418C19.1173 4.66133 18.9622 3.08378 19.1469 2.01364L8.63575 0.198981ZM10.451 11.3443C10.7417 11.9757 10.8371 12.8717 10.0781 14.3898L19.6188 19.1597C21.3672 15.6627 22.1613 11.2743 20.1404 6.88408L10.451 11.3443ZM10.0782 14.3895C9.94641 14.6532 9.82123 14.8696 9.71839 15.0323L18.7347 20.7318C19.0264 20.2703 19.3267 19.7438 19.6187 19.16L10.0782 14.3895ZM9.7765 14.9424L9.54823 15.288L18.4483 21.1673L18.6766 20.8217L9.7765 14.9424ZM9.61255 15.1929C9.56668 15.2591 9.54245 15.2893 9.54419 15.2872L17.8506 21.979C18.0324 21.7534 18.2111 21.5122 18.384 21.2624L9.61255 15.1929ZM9.54385 15.2876C11.0402 13.4299 13.6827 13.1562 15.5187 14.5346L9.11473 23.0649C11.8087 25.0873 15.6876 24.6646 17.851 21.9786L9.54385 15.2876ZM15.5198 14.5354C17.3105 15.8805 17.8213 18.4044 16.6156 20.3621L7.5333 14.7684C5.8278 17.5375 6.53113 21.1243 9.11365 23.0641L15.5198 14.5354ZM16.4294 20.644L16.4991 20.5454L7.78921 14.3878L7.71951 14.4864L16.4294 20.644ZM16.4226 20.6509C16.9722 19.9123 17.4465 19.134 17.8464 18.3343L8.30632 13.5632C8.17612 13.8235 8.0276 14.0649 7.86569 14.2824L16.4226 20.6509ZM17.8467 18.3337C18.9671 16.0927 19.7042 13.347 19.1965 10.4035L8.6851 12.2166C8.69709 12.2862 8.73937 12.697 8.30602 13.5638L17.8467 18.3337ZM12.7116 6.12033C9.81298 6.8069 7.47729 8.22268 5.89343 10.4635L14.604 16.6202C14.587 16.6442 14.5624 16.6737 14.5332 16.7015C14.504 16.7293 14.4873 16.739 14.496 16.7335C14.5127 16.723 14.6929 16.6128 15.1701 16.4998L12.7116 6.12033ZM5.89342 10.4636C4.24414 12.797 3.79367 15.4983 3.64339 17.7345L14.2861 18.4497C14.3355 17.7141 14.419 17.2311 14.5031 16.9198C14.5835 16.6227 14.642 16.5664 14.604 16.6202L5.89342 10.4636ZM3.63672 17.8536C3.74758 15.3767 5.78719 13.6647 7.9865 13.6667L7.97695 24.3333C11.2349 24.3363 14.1372 21.8056 14.2927 18.3306L3.63672 17.8536ZM7.97688 13.6667C10.1397 13.6647 12.2138 15.3399 12.3266 17.853L1.67065 18.3312C1.82867 21.853 4.77864 24.3362 7.98656 24.3333L7.97688 13.6667ZM12.32 17.7348C12.1698 15.4981 11.7191 12.7969 10.07 10.4637L1.35935 16.6201C1.32141 16.5664 1.37994 16.6228 1.46026 16.9199C1.54443 17.2311 1.6279 17.7141 1.67728 18.4494L12.32 17.7348ZM10.07 10.4636C8.49703 8.23811 6.18074 6.82444 3.30452 6.13288L0.810897 16.504C1.2778 16.6162 1.45301 16.7244 1.46779 16.7338C1.47561 16.7388 1.45876 16.7287 1.42972 16.701C1.40066 16.6733 1.37622 16.644 1.35941 16.6202L10.07 10.4636ZM-3.19936 10.4197C-3.70154 13.3573 -2.96504 16.097 -1.84667 18.3338L7.69396 13.5637C7.26145 12.6986 7.30274 12.2876 7.31478 12.2171L-3.19936 10.4197ZM-1.84653 18.3341C-1.54137 18.9443 -1.17517 19.5852 -0.73543 20.2188L8.02759 14.1371C7.92407 13.9879 7.81081 13.7974 7.69382 13.5634L-1.84653 18.3341ZM-0.668661 20.3128L-0.458911 20.6015L8.17057 14.3318L7.96082 14.0431L-0.668661 20.3128ZM-0.297392 20.8126C-1.88511 18.8418 -1.46579 15.9969 0.48041 14.5352L6.88608 23.0643C9.69013 20.9583 10.264 16.9197 8.00905 14.1207L-0.297392 20.8126ZM0.481014 14.5348C2.31752 13.1559 4.95985 13.4303 6.45579 15.2872L-1.85065 21.979C0.312497 24.6641 4.19112 25.0877 6.88548 23.0647L0.481014 14.5348ZM6.45595 15.2874C6.45766 15.2895 6.43341 15.2593 6.38753 15.193L-2.3841 21.2623C-2.21123 21.5121 -2.03256 21.7532 -1.85081 21.9788L6.45595 15.2874ZM6.45182 15.2881L6.22356 14.9425L-2.67665 20.8216L-2.44839 21.1672L6.45182 15.2881ZM6.28167 15.0324C6.17882 14.8697 6.05364 14.6532 5.92183 14.3896L-3.61869 19.1599C-3.32675 19.7438 -3.02646 20.2702 -2.73476 20.7317L6.28167 15.0324ZM5.9219 14.3897C5.16292 12.8717 5.25832 11.9757 5.54897 11.3443L-4.1404 6.88407C-6.16131 11.2743 -5.36723 15.6627 -3.61876 19.1598L5.9219 14.3897ZM5.54901 11.3442C7.1615 7.84112 8.02557 4.0301 7.36431 0.199129L-3.14692 2.01347C-2.96216 3.08387 -3.11737 4.66155 -4.14044 6.88415L5.54901 11.3442ZM7.36431 0.199153C7.80863 2.77335 5.99145 4.92037 3.76476 5.27867L2.07013 -5.25252C-1.22854 -4.72171 -3.7699 -1.5958 -3.14693 2.01345L7.36431 0.199153ZM3.76475 5.27868C1.57924 5.63035 -0.770615 4.22311 -1.20593 1.70111L9.30531 -0.113182C8.69135 -3.67023 5.32765 -5.77669 2.07015 -5.25252L3.76475 5.27868ZM-1.20592 1.70112C-0.956879 3.14396 -1.16913 4.99362 -2.21062 7.36319L7.55445 11.6552C9.1873 7.94015 10.004 3.93455 9.30531 -0.113197L-1.20592 1.70112ZM1.36447 14.6798C2.5292 14.9743 2.8509 15.3598 2.98479 15.5492L11.6953 9.39249C9.83424 6.75952 7.13659 5.13694 3.97937 4.3386L1.36447 14.6798ZM2.98473 15.5491C3.03805 15.6246 3.09486 15.7199 3.15274 15.8433L12.8107 11.3155C12.5063 10.6662 12.1389 10.0201 11.6953 9.39259L2.98473 15.5491ZM12.8112 15.8423C12.8687 15.7196 12.9251 15.6249 12.9781 15.5499L4.26868 9.39177C3.82463 10.0198 3.45683 10.6665 3.15227 11.3165L12.8112 15.8423ZM12.9788 15.549C13.1125 15.3598 13.4367 14.9703 14.6177 14.6751L12.0311 4.32678C8.85509 5.12064 6.13924 6.7451 4.26805 9.39267L12.9788 15.549ZM18.2078 7.35693C17.1687 4.9901 16.9571 3.14257 17.2059 1.70117L6.69472 -0.113262C5.99664 3.93079 6.81124 7.93277 8.441 11.6449L18.2078 7.35693ZM17.206 1.70104C16.8018 4.04296 14.7353 5.42516 12.7133 5.3284L13.2232 -5.32607C10.2173 -5.46991 7.26478 -3.41617 6.6947 -0.113136L17.206 1.70104ZM7.98182 11.0335C5.75745 11.0335 3.63237 9.24564 3.63237 6.65012H14.299C14.299 3.00528 11.293 0.366801 7.98182 0.366801V11.0335ZM3.63237 6.65012C3.63237 4.0546 5.75745 2.26677 7.98182 2.26677V12.9334C11.293 12.9334 14.299 10.295 14.299 6.65012H3.63237ZM7.98182 2.26677C10.2062 2.26677 12.3313 4.0546 12.3313 6.65012H1.6646C1.6646 10.2949 4.67064 12.9334 7.98182 12.9334V2.26677ZM12.3313 6.65012C12.3313 9.24564 10.2062 11.0335 7.98182 11.0335V0.366801C4.67065 0.366801 1.6646 3.00529 1.6646 6.65012H12.3313Z" fill="#39ACE7" mask="url(#path-1-inside-1_1_7772)"/>
</svg>
