<svg width="16" height="17" viewBox="0 0 16 17" fill="none" xmlns="http://www.w3.org/2000/svg">
<path d="M8.34296 0.000449337C8.22135 0.00168859 8.09945 0.00630137 7.97825 0.0133582C9.26659 0.216802 10.5297 0.819664 11.4959 1.7216C9.5764 0.822315 7.03944 0.783451 5.06301 1.60112C5.41998 1.26617 5.81265 0.998358 6.22911 0.797565C0.969341 2.08728 -0.931123 6.11678 1.24308 11.1709C0.676808 10.2491 0.241142 9.25739 0.0166994 8.25567C-0.163337 10.8049 1.11895 12.9012 3.5441 15.0511C3.54616 15.0533 3.54836 15.0554 3.5505 15.0576C3.96727 15.475 4.38486 15.8165 4.68218 15.9881C6.90553 17.2718 8.85932 13.8068 6.67118 12.5435C6.27651 12.3157 5.51736 12.0541 4.72417 11.8938C2.08536 10.6444 1.49145 6.52763 4.02599 3.60847C3.79694 4.18747 3.62688 4.80765 3.51501 5.44583C6.13844 0.798976 14.2655 1.00091 14.6726 7.92651C14.3035 5.80525 12.8237 4.00782 10.5063 3.26746C12.4577 4.09164 13.8206 6.01282 13.8206 8.26751C13.8206 11.512 11.3136 13.3761 8.49887 13.9689C9.9647 14.0495 11.7582 13.493 12.8169 12.7189C12.0129 14.0814 10.3334 15.0281 8.57419 15.5276C11.078 15.4311 13.2735 14.1112 14.6123 12.1756C14.2572 12.5767 13.8303 12.9343 13.3462 13.2417C14.9483 11.3392 15.7832 8.49229 15.4567 6.00415C15.7468 6.5647 15.9243 7.15769 16 7.77263C15.995 2.69211 12.112 -0.0386904 8.34296 0.000449337Z" fill="#011E4F"/>
</svg>
