<svg width="16" height="16" viewBox="0 0 16 16" fill="none" xmlns="http://www.w3.org/2000/svg">
<path d="M8 16C5.879 15.9976 3.84556 15.154 2.34579 13.6542C0.846012 12.1544 0.00238966 10.121 0 8H1.14286C1.14286 9.35622 1.54502 10.682 2.29849 11.8096C3.05197 12.9373 4.12291 13.8162 5.37589 14.3352C6.62887 14.8542 8.00761 14.99 9.33776 14.7254C10.6679 14.4608 11.8897 13.8077 12.8487 12.8487C13.8077 11.8897 14.4608 10.6679 14.7254 9.33776C14.99 8.00761 14.8542 6.62887 14.3352 5.37589C13.8162 4.12291 12.9373 3.05197 11.8096 2.29849C10.682 1.54502 9.35622 1.14286 8 1.14286V0C10.1217 0 12.1566 0.842855 13.6569 2.34315C15.1571 3.84344 16 5.87827 16 8C16 10.1217 15.1571 12.1566 13.6569 13.6569C12.1566 15.1571 10.1217 16 8 16Z" fill="#080341"/>
<path d="M1.14286 5.71429V4.57143H3.76343L0 0.808L0.808 0L4.57143 3.76343V1.14286H5.71429V5.71429H1.14286Z" fill="#080341"/>
<path d="M7.99986 4.57129V7.99986H4.57129C4.57129 8.67797 4.77237 9.34085 5.14911 9.90467C5.52584 10.4685 6.06131 10.9079 6.6878 11.1674C7.31429 11.4269 8.00366 11.4948 8.66874 11.3626C9.33382 11.2303 9.94473 10.9037 10.4242 10.4242C10.9037 9.94473 11.2303 9.33382 11.3626 8.66874C11.4948 8.00366 11.4269 7.31429 11.1674 6.6878C10.9079 6.06131 10.4685 5.52584 9.90467 5.14911C9.34085 4.77237 8.67797 4.57129 7.99986 4.57129Z" fill="#080341"/>
</svg>
