<svg width="16" height="16" viewBox="0 0 16 16" fill="none" xmlns="http://www.w3.org/2000/svg">
<path d="M2.05435 0.00157001C2.0394 0.00428546 2.02446 0.00835812 2.01087 0.0124311C1.84918 0.0490875 1.73505 0.194355 1.73913 0.359987V3.48799H4.86957C4.99457 3.48935 5.11141 3.42418 5.17527 3.31557C5.23777 3.20696 5.23777 3.07391 5.17527 2.9653C5.11141 2.85669 4.99457 2.79152 4.86957 2.79288H2.8913C4.20924 1.50448 6.00951 0.707543 8 0.707543C12.038 0.707543 15.3043 3.97131 15.3043 8.00622C15.3043 12.0411 12.038 15.3049 8 15.3049C3.96196 15.3049 0.695652 12.0411 0.695652 8.00622C0.695652 6.79927 0.993207 5.66293 1.51087 4.66099L0.891304 4.34602C0.32337 5.44299 0 6.68795 0 8.00622C0 12.4172 3.5856 16 8 16C12.4144 16 16 12.4172 16 8.00622C16 3.59524 12.4144 0.0124311 8 0.0124311C5.83424 0.0124311 3.875 0.882678 2.43478 2.28241V0.359987C2.43886 0.259522 2.3981 0.163129 2.32609 0.0952471C2.25272 0.0260077 2.15353 -0.00793356 2.05435 0.00157001ZM8 1.0551C7.80842 1.0551 7.65217 1.21123 7.65217 1.40265C7.65217 1.59408 7.80842 1.75021 8 1.75021C8.19158 1.75021 8.34783 1.59408 8.34783 1.40265C8.34783 1.21123 8.19158 1.0551 8 1.0551ZM11.3043 1.93485C11.1128 1.93485 10.9565 2.09098 10.9565 2.28241C10.9565 2.47383 11.1128 2.62996 11.3043 2.62996C11.4959 2.62996 11.6522 2.47383 11.6522 2.28241C11.6522 2.09098 11.4959 1.93485 11.3043 1.93485ZM13.7283 4.35688C13.5367 4.35688 13.3804 4.51301 13.3804 4.70444C13.3804 4.89586 13.5367 5.05199 13.7283 5.05199C13.9198 5.05199 14.0761 4.89586 14.0761 4.70444C14.0761 4.51301 13.9198 4.35688 13.7283 4.35688ZM8.09783 5.19319C6.87228 5.19319 6.15217 6.16254 6.15217 7.82158C6.15217 8.41894 6.25679 8.91583 6.45652 9.30955C6.77582 9.96529 7.33832 10.3305 8.06522 10.3305C9.10462 10.3305 9.84783 9.6123 9.84783 8.61444C9.84783 7.66816 9.15897 6.98527 8.22826 6.98527C7.64674 6.98527 7.18342 7.25273 6.94565 7.72383H6.8913C6.90897 6.54539 7.34375 5.86657 8.09783 5.86657C8.54212 5.86657 8.88859 6.10688 9.01087 6.50738H9.77174C9.62228 5.70637 8.96332 5.19319 8.09783 5.19319ZM8.06522 7.62608C8.66576 7.62608 9.08696 8.05238 9.08696 8.64702C9.08696 9.22402 8.63859 9.65711 8.05435 9.65711C7.47011 9.65711 7.03261 9.20908 7.03261 8.6253C7.03261 8.04423 7.46739 7.62608 8.06522 7.62608ZM1.3913 7.65866C1.19973 7.65866 1.04348 7.81479 1.04348 8.00622C1.04348 8.19764 1.19973 8.35377 1.3913 8.35377C1.58288 8.35377 1.73913 8.19764 1.73913 8.00622C1.73913 7.81479 1.58288 7.65866 1.3913 7.65866ZM14.6087 7.65866C14.4171 7.65866 14.2609 7.81479 14.2609 8.00622C14.2609 8.19764 14.4171 8.35377 14.6087 8.35377C14.8003 8.35377 14.9565 8.19764 14.9565 8.00622C14.9565 7.81479 14.8003 7.65866 14.6087 7.65866ZM2.27174 10.9604C2.08016 10.9604 1.92391 11.1166 1.92391 11.308C1.92391 11.4994 2.08016 11.6556 2.27174 11.6556C2.46332 11.6556 2.61957 11.4994 2.61957 11.308C2.61957 11.1166 2.46332 10.9604 2.27174 10.9604ZM13.7283 10.9604C13.5367 10.9604 13.3804 11.1166 13.3804 11.308C13.3804 11.4994 13.5367 11.6556 13.7283 11.6556C13.9198 11.6556 14.0761 11.4994 14.0761 11.308C14.0761 11.1166 13.9198 10.9604 13.7283 10.9604ZM4.69565 13.3825C4.50408 13.3825 4.34783 13.5386 4.34783 13.73C4.34783 13.9215 4.50408 14.0776 4.69565 14.0776C4.88723 14.0776 5.04348 13.9215 5.04348 13.73C5.04348 13.5386 4.88723 13.3825 4.69565 13.3825ZM11.3043 13.3825C11.1128 13.3825 10.9565 13.5386 10.9565 13.73C10.9565 13.9215 11.1128 14.0776 11.3043 14.0776C11.4959 14.0776 11.6522 13.9215 11.6522 13.73C11.6522 13.5386 11.4959 13.3825 11.3043 13.3825ZM8 14.2622C7.80842 14.2622 7.65217 14.4183 7.65217 14.6098C7.65217 14.8012 7.80842 14.9573 8 14.9573C8.19158 14.9573 8.34783 14.8012 8.34783 14.6098C8.34783 14.4183 8.19158 14.2622 8 14.2622Z" fill="#080341"/>
</svg>
