<svg width="18" height="18" viewBox="0 0 18 18" fill="none" xmlns="http://www.w3.org/2000/svg">
<path d="M1 9.02087C1 13.1378 4.0937 16.5304 8.07744 16.989C8.66528 17.0567 9.23504 16.8061 9.65344 16.3866C10.1762 15.8625 10.1762 15.0127 9.65344 14.4885C9.23504 14.0691 8.89392 13.4433 9.20952 12.9414C10.4708 10.9353 17 15.5424 17 9.02087C17 4.59107 13.4182 1 9 1C4.58172 1 1 4.59107 1 9.02087Z" stroke="#080341"/>
<path d="M6.75 10.25C7.16421 10.25 7.5 9.91421 7.5 9.5C7.5 9.08579 7.16421 8.75 6.75 8.75C6.33579 8.75 6 9.08579 6 9.5C6 9.91421 6.33579 10.25 6.75 10.25Z" stroke="#080341"/>
<path d="M11.5 6C11.5 6.41421 11.1642 6.75 10.75 6.75C10.3358 6.75 10 6.41421 10 6C10 5.58578 10.3358 5.25 10.75 5.25C11.1642 5.25 11.5 5.58578 11.5 6Z" stroke="#080341"/>
</svg>
