<svg width="16" height="16" viewBox="0 0 16 16" fill="none" xmlns="http://www.w3.org/2000/svg">
<mask id="path-1-inside-1_1_7755" fill="white">
<path d="M8 16C5.879 15.9976 3.84556 15.154 2.34579 13.6542C0.846012 12.1544 0.00238966 10.121 0 8H1.14286C1.14286 9.35622 1.54502 10.682 2.29849 11.8096C3.05197 12.9373 4.12291 13.8162 5.37589 14.3352C6.62887 14.8542 8.00761 14.99 9.33776 14.7254C10.6679 14.4608 11.8897 13.8077 12.8487 12.8487C13.8077 11.8897 14.4608 10.6679 14.7254 9.33776C14.99 8.00761 14.8542 6.62887 14.3352 5.37589C13.8162 4.12291 12.9373 3.05197 11.8096 2.29849C10.682 1.54502 9.35622 1.14286 8 1.14286V0C10.1217 0 12.1566 0.842855 13.6569 2.34315C15.1571 3.84344 16 5.87827 16 8C16 10.1217 15.1571 12.1566 13.6569 13.6569C12.1566 15.1571 10.1217 16 8 16Z"/>
</mask>
<path d="M8 16C5.879 15.9976 3.84556 15.154 2.34579 13.6542C0.846012 12.1544 0.00238966 10.121 0 8H1.14286C1.14286 9.35622 1.54502 10.682 2.29849 11.8096C3.05197 12.9373 4.12291 13.8162 5.37589 14.3352C6.62887 14.8542 8.00761 14.99 9.33776 14.7254C10.6679 14.4608 11.8897 13.8077 12.8487 12.8487C13.8077 11.8897 14.4608 10.6679 14.7254 9.33776C14.99 8.00761 14.8542 6.62887 14.3352 5.37589C13.8162 4.12291 12.9373 3.05197 11.8096 2.29849C10.682 1.54502 9.35622 1.14286 8 1.14286V0C10.1217 0 12.1566 0.842855 13.6569 2.34315C15.1571 3.84344 16 5.87827 16 8C16 10.1217 15.1571 12.1566 13.6569 13.6569C12.1566 15.1571 10.1217 16 8 16Z" fill="#011E4F"/>
<path d="M8 16L7.97183 41L7.98592 41H8V16ZM0 8V-17H-25.0282L-25 8.02817L0 8ZM1.14286 8H26.1429V-17H1.14286V8ZM8 1.14286H-17V26.1429H8V1.14286ZM8 0V-25H-17V0H8ZM8.02817 -8.99998C12.5278 -8.99491 16.8417 -7.20519 20.0235 -4.02345L-15.3319 31.3319C-9.1506 37.5132 -0.769811 40.9901 7.97183 41L8.02817 -8.99998ZM20.0235 -4.02345C23.2052 -0.841718 24.9949 3.47219 25 7.97183L-25 8.02817C-24.9901 16.7698 -21.5132 25.1506 -15.3319 31.3319L20.0235 -4.02345ZM0 33H1.14286V-17H0V33ZM-23.8571 8C-23.8571 14.3007 -21.9888 20.46 -18.4882 25.6989L23.0852 -2.07963C25.0788 0.903949 26.1429 4.41168 26.1429 8H-23.8571ZM-18.4882 25.6989C-14.9877 30.9378 -10.0123 35.021 -4.1912 37.4322L14.943 -8.76181C18.2581 -7.38863 21.0917 -5.06321 23.0852 -2.07963L-18.4882 25.6989ZM-4.1912 37.4322C1.62993 39.8434 8.03534 40.4742 14.215 39.245L4.46051 -9.79425C7.97988 -10.4943 11.6278 -10.135 14.943 -8.76181L-4.1912 37.4322ZM14.215 39.245C20.3947 38.0158 26.0711 34.9817 30.5264 30.5264L-4.82894 -4.82894C-2.29161 -7.36626 0.941139 -9.0942 4.46051 -9.79425L14.215 39.245ZM30.5264 30.5264C34.9817 26.0711 38.0158 20.3947 39.245 14.215L-9.79425 4.46051C-9.0942 0.941139 -7.36626 -2.29161 -4.82894 -4.82894L30.5264 30.5264ZM39.245 14.215C40.4742 8.03534 39.8434 1.62993 37.4322 -4.1912L-8.76181 14.943C-10.135 11.6278 -10.4943 7.97988 -9.79425 4.46051L39.245 14.215ZM37.4322 -4.1912C35.021 -10.0123 30.9378 -14.9877 25.6989 -18.4882L-2.07963 23.0852C-5.06321 21.0917 -7.38863 18.2581 -8.76181 14.943L37.4322 -4.1912ZM25.6989 -18.4882C20.46 -21.9888 14.3007 -23.8571 8 -23.8571V26.1429C4.41168 26.1429 0.903949 25.0788 -2.07963 23.0852L25.6989 -18.4882ZM33 1.14286V0H-17V1.14286H33ZM8 25C3.49132 25 -0.832696 23.2089 -4.02081 20.0208L31.3345 -15.3345C25.1458 -21.5232 16.7521 -25 8 -25V25ZM-4.02081 20.0208C-7.20893 16.8327 -9 12.5087 -9 8H41C41 -0.752146 37.5232 -9.14583 31.3345 -15.3345L-4.02081 20.0208ZM-9 8C-9 3.49132 -7.20893 -0.832699 -4.02081 -4.02081L31.3345 31.3345C37.5232 25.1458 41 16.7522 41 8H-9ZM-4.02081 -4.02081C-0.832699 -7.20893 3.49132 -9 8 -9V41C16.7522 41 25.1458 37.5232 31.3345 31.3345L-4.02081 -4.02081Z" fill="#39ACE7" mask="url(#path-1-inside-1_1_7755)"/>
<mask id="path-3-inside-2_1_7755" fill="white">
<path d="M1.14286 5.71429V4.57143H3.76343L0 0.808L0.808 0L4.57143 3.76343V1.14286H5.71429V5.71429H1.14286Z"/>
</mask>
<path d="M1.14286 5.71429V4.57143H3.76343L0 0.808L0.808 0L4.57143 3.76343V1.14286H5.71429V5.71429H1.14286Z" fill="#011E4F"/>
<path d="M1.14286 5.71429H-23.8571V30.7143H1.14286V5.71429ZM1.14286 4.57143V-20.4286H-23.8571V4.57143H1.14286ZM3.76343 4.57143V29.5714H64.1188L21.4411 -13.1062L3.76343 4.57143ZM0 0.808L-17.6777 -16.8697L-35.3553 0.808001L-17.6777 18.4857L0 0.808ZM0.808 0L18.4857 -17.6777L0.808001 -35.3553L-16.8697 -17.6777L0.808 0ZM4.57143 3.76343L-13.1062 21.4411L29.5714 64.1188V3.76343H4.57143ZM4.57143 1.14286V-23.8571H-20.4286V1.14286H4.57143ZM5.71429 1.14286H30.7143V-23.8571H5.71429V1.14286ZM5.71429 5.71429V30.7143H30.7143V5.71429H5.71429ZM26.1429 5.71429V4.57143H-23.8571V5.71429H26.1429ZM1.14286 29.5714H3.76343V-20.4286H1.14286V29.5714ZM21.4411 -13.1062L17.6777 -16.8697L-17.6777 18.4857L-13.9142 22.2491L21.4411 -13.1062ZM17.6777 18.4857L18.4857 17.6777L-16.8697 -17.6777L-17.6777 -16.8697L17.6777 18.4857ZM-16.8697 17.6777L-13.1062 21.4411L22.2491 -13.9142L18.4857 -17.6777L-16.8697 17.6777ZM29.5714 3.76343V1.14286H-20.4286V3.76343H29.5714ZM4.57143 26.1429H5.71429V-23.8571H4.57143V26.1429ZM-19.2857 1.14286V5.71429H30.7143V1.14286H-19.2857ZM5.71429 -19.2857H1.14286V30.7143H5.71429V-19.2857Z" fill="#39ACE7" mask="url(#path-3-inside-2_1_7755)"/>
<mask id="path-5-inside-3_1_7755" fill="white">
<path d="M8.0001 4.57129V7.99986H4.57153C4.57153 8.67797 4.77262 9.34085 5.14935 9.90467C5.52609 10.4685 6.06156 10.9079 6.68805 11.1674C7.31454 11.4269 8.00391 11.4948 8.66899 11.3626C9.33406 11.2303 9.94498 10.9037 10.4245 10.4242C10.904 9.94473 11.2305 9.33382 11.3628 8.66874C11.4951 8.00366 11.4272 7.31429 11.1677 6.6878C10.9082 6.06131 10.4687 5.52584 9.90492 5.14911C9.34109 4.77237 8.67821 4.57129 8.0001 4.57129Z"/>
</mask>
<path d="M8.0001 4.57129V7.99986H4.57153C4.57153 8.67797 4.77262 9.34085 5.14935 9.90467C5.52609 10.4685 6.06156 10.9079 6.68805 11.1674C7.31454 11.4269 8.00391 11.4948 8.66899 11.3626C9.33406 11.2303 9.94498 10.9037 10.4245 10.4242C10.904 9.94473 11.2305 9.33382 11.3628 8.66874C11.4951 8.00366 11.4272 7.31429 11.1677 6.6878C10.9082 6.06131 10.4687 5.52584 9.90492 5.14911C9.34109 4.77237 8.67821 4.57129 8.0001 4.57129Z" fill="#011E4F"/>
<path d="M8.0001 4.57129L8.0001 -20.4287H-16.9999V4.57129H8.0001ZM8.0001 7.99986V32.9999H33.0001V7.99986H8.0001ZM4.57153 7.99986V-17.0001H-20.4285V7.99986H4.57153ZM-16.9999 4.57129V7.99986H33.0001V4.57129H-16.9999ZM8.0001 -17.0001H4.57153V32.9999H8.0001V-17.0001ZM-20.4285 7.99986C-20.4285 13.6225 -18.7612 19.1189 -15.6374 23.7939L25.9361 -3.98458C28.3064 -0.437184 29.5715 3.73343 29.5715 7.99986H-20.4285ZM-15.6374 23.7939C-12.5136 28.469 -8.07369 32.1127 -2.87904 34.2644L16.2551 -11.9295C20.1968 -10.2968 23.5658 -7.53198 25.9361 -3.98458L-15.6374 23.7939ZM-2.87904 34.2644C2.3156 36.4161 8.03164 36.9791 13.5462 35.8822L3.79173 -13.1571C7.97618 -13.9894 12.3135 -13.5622 16.2551 -11.9295L-2.87904 34.2644ZM13.5462 35.8822C19.0608 34.7853 24.1263 32.0777 28.1021 28.1019L-7.2532 -7.25344C-4.23637 -10.2703 -0.39271 -12.3247 3.79173 -13.1571L13.5462 35.8822ZM28.1021 28.1019C32.078 24.1261 34.7855 19.0606 35.8824 13.546L-13.1568 3.79148C-12.3245 -0.392954 -10.27 -4.23662 -7.2532 -7.25344L28.1021 28.1019ZM35.8824 13.546C36.9794 8.0314 36.4164 2.31536 34.2647 -2.87928L-11.9293 16.2549C-13.562 12.3132 -13.9892 7.97593 -13.1568 3.79148L35.8824 13.546ZM34.2647 -2.87928C32.113 -8.07393 28.4692 -12.5139 23.7942 -15.6376L-3.98434 25.9358C-7.53174 23.5656 -10.2966 20.1966 -11.9293 16.2549L34.2647 -2.87928ZM23.7942 -15.6376C19.1191 -18.7614 13.6228 -20.4287 8.0001 -20.4287L8.0001 29.5713C3.73367 29.5713 -0.43694 28.3061 -3.98434 25.9358L23.7942 -15.6376Z" fill="#39ACE7" mask="url(#path-5-inside-3_1_7755)"/>
</svg>
