<svg width="50" height="50" viewBox="0 0 50 50" fill="none" xmlns="http://www.w3.org/2000/svg">
<rect width="50" height="50" rx="25" fill="url(#paint0_radial_462_478)"/>
<path d="M24.7896 13.4839C28.4719 13.4839 28.9078 13.4977 30.3619 13.5645C31.7067 13.626 32.4364 13.8508 32.9232 14.0396C33.5669 14.2899 34.0262 14.589 34.5087 15.0715C34.9913 15.5541 35.2904 16.0133 35.5407 16.6571C35.7294 17.1429 35.9543 17.8736 36.0158 19.2184C36.0826 20.6725 36.0964 21.1084 36.0964 24.7907C36.0964 28.473 36.0816 28.9089 36.0158 30.3629C35.9543 31.7077 35.7294 32.4374 35.5407 32.9232C35.2904 33.5669 34.9913 34.0272 34.5087 34.5098C34.0262 34.9923 33.5669 35.2904 32.9232 35.5407C32.4374 35.7294 31.7067 35.9543 30.3619 36.0158C28.9078 36.0816 28.4719 36.0953 24.7896 36.0953C21.1073 36.0953 20.6714 36.0816 19.2173 36.0158C17.8725 35.9543 17.1429 35.7294 16.6561 35.5407C16.0123 35.2904 15.5531 34.9913 15.0705 34.5098C14.5879 34.0272 14.2889 33.568 14.0386 32.9232C13.8498 32.4374 13.6249 31.7077 13.5634 30.3629C13.4966 28.9089 13.4828 28.473 13.4828 24.7907C13.4828 21.1084 13.4966 20.6725 13.5634 19.2184C13.6249 17.8736 13.8498 17.1439 14.0386 16.6571C14.2889 16.0133 14.5879 15.5541 15.0705 15.0715C15.5531 14.589 16.0123 14.2899 16.6561 14.0396C17.1418 13.8508 17.8725 13.626 19.2173 13.5645C20.6714 13.4987 21.1073 13.4839 24.7896 13.4839ZM24.7896 11C21.0447 11 20.5749 11.0159 19.1039 11.0838C17.636 11.1506 16.6338 11.3839 15.7567 11.7244C14.8499 12.0775 14.081 12.5484 13.3142 13.3152C12.5474 14.082 12.0765 14.851 11.7233 15.7577C11.3818 16.6348 11.1485 17.6371 11.0827 19.1049C11.0159 20.5759 11 21.0458 11 24.7907C11 28.5356 11.0159 29.0054 11.0827 30.4764C11.1495 31.9442 11.3829 32.9465 11.7233 33.8236C12.0754 34.7293 12.5463 35.4993 13.3142 36.2661C14.081 37.0329 14.8499 37.5038 15.7567 37.857C16.6338 38.1974 17.636 38.4307 19.1039 38.4975C20.5749 38.5644 21.0447 38.5803 24.7896 38.5803C28.5345 38.5803 29.0043 38.5644 30.4754 38.4975C31.9432 38.4307 32.9454 38.1974 33.8225 37.857C34.7293 37.5038 35.4993 37.0329 36.265 36.2661C37.0318 35.4993 37.5027 34.7304 37.8559 33.8236C38.1974 32.9465 38.4307 31.9442 38.4965 30.4764C38.5633 29.0054 38.5792 28.5356 38.5792 24.7907C38.5792 21.0458 38.5633 20.5759 38.4965 19.1049C38.4297 17.6371 38.1964 16.6348 37.8559 15.7577C37.5038 14.851 37.0318 14.081 36.265 13.3152C35.4982 12.5484 34.7293 12.0775 33.8225 11.7244C32.9454 11.3839 31.9432 11.1506 30.4754 11.0838C29.0033 11.0159 28.5345 11 24.7896 11Z" fill="white"/>
<path d="M24.7885 17.7087C20.8771 17.7087 17.707 20.8788 17.707 24.7902C17.707 28.7016 20.8771 31.8717 24.7885 31.8717C28.6999 31.8717 31.87 28.7016 31.87 24.7902C31.87 20.8788 28.6988 17.7087 24.7885 17.7087ZM24.7885 29.3867C22.2495 29.3867 20.192 27.3292 20.192 24.7902C20.192 22.2512 22.2495 20.1937 24.7885 20.1937C27.3275 20.1937 29.385 22.2512 29.385 24.7902C29.385 27.3292 27.3265 29.3867 24.7885 29.3867Z" fill="white"/>
<path d="M33.8042 17.4296C33.8042 18.3439 33.0629 19.0852 32.1486 19.0852C31.2344 19.0852 30.4941 18.3439 30.4941 17.4296C30.4941 16.5165 31.2344 15.7751 32.1486 15.7751C33.0629 15.7751 33.8042 16.5165 33.8042 17.4296Z" fill="white"/>
<defs>
<radialGradient id="paint0_radial_462_478" cx="0" cy="0" r="1" gradientUnits="userSpaceOnUse" gradientTransform="translate(8.49999 39.5) rotate(-40.2364) scale(51.0882)">
<stop offset="0.015" stop-color="#F0C84E"/>
<stop offset="0.26" stop-color="#E37F46"/>
<stop offset="0.545" stop-color="#C74178"/>
<stop offset="0.735" stop-color="#A33D93"/>
<stop offset="1" stop-color="#7A38B2"/>
</radialGradient>
</defs>
</svg>
