<svg width="50" height="50" viewBox="0 0 50 50" fill="none" xmlns="http://www.w3.org/2000/svg">
<rect width="50" height="50" rx="25" fill="#FAF807"/>
<path fill-rule="evenodd" clip-rule="evenodd" d="M39.699 32.2432V32.2368C39.6915 32.2293 39.6851 32.2293 39.6712 32.2155C39.6712 32.2155 39.6712 32.2155 39.6648 32.2155C39.3064 31.9899 38.9406 31.9547 38.7128 31.8728C38.7064 31.8728 38.6989 31.8728 38.6989 31.8664C37.1415 31.379 35.7969 30.3232 34.7914 29.0343C34.233 28.3138 33.7645 27.539 33.4543 26.7089C33.4543 26.7014 33.4543 26.7014 33.4543 26.695C33.3302 26.3385 33.3228 25.9405 33.5025 25.6999C33.5025 25.6999 33.5089 25.6999 33.5089 25.6935C33.7923 25.2955 34.309 25.0422 34.8534 24.8432C34.8609 24.8432 34.8609 24.8432 34.8609 24.8432C35.4738 24.6303 36.1349 24.3909 36.6804 23.9109C36.6869 23.9109 36.6869 23.9045 36.6943 23.9045C36.7767 23.8289 36.8805 23.7267 36.9553 23.5692C36.9703 23.5341 36.9906 23.4937 36.9971 23.4458C37.0388 23.3021 37.0388 23.1233 36.9628 22.9732C36.9628 22.9658 36.9628 22.9658 36.9628 22.9658C36.8056 22.6507 36.536 22.4783 36.3285 22.3623H36.321C35.9841 22.1633 35.5851 22.1495 35.2321 22.2665H35.2246C34.8524 22.3762 34.5422 22.5135 34.2608 22.5475C34.2533 22.5475 34.2459 22.5475 34.2395 22.555C33.8394 22.6231 33.4468 22.6369 33.1441 22.5273C33.1366 22.4858 33.1366 22.3964 33.1227 22.2868H33.1291C33.1024 21.628 33.1644 20.95 33.1709 20.2433C33.1709 20.2433 33.1709 20.2433 33.1709 20.2369C33.2051 19.1673 33.2468 18.069 33.0885 16.9589C33.0885 16.9515 33.0885 16.9451 33.0885 16.9451C32.7366 15.073 31.531 13.4617 30.0004 12.391C28.8911 11.6098 27.568 11.1777 26.2234 11.0543C25.7613 11.0128 25.3131 11 24.8649 11C23.0529 11.0138 21.1703 11.4874 19.7027 12.6326C18.5999 13.4894 17.7302 14.6282 17.1858 15.8968V15.9042C16.6627 17.2069 16.7109 18.599 16.7793 19.8889C16.82 20.7946 16.9237 21.6716 16.8413 22.5081C16.8349 22.5358 16.8349 22.5496 16.8275 22.5635C16.421 22.639 15.9728 22.6114 15.5321 22.5294H15.5246C15.2219 22.4815 14.8978 22.3581 14.5319 22.2548C14.5244 22.2548 14.518 22.2548 14.5105 22.2484C14.1597 22.1739 13.8078 22.2697 13.5457 22.4688C13.5393 22.4688 13.5318 22.4687 13.5318 22.4751C13.5243 22.4815 13.5179 22.4815 13.5179 22.489C13.2975 22.6263 13.0012 22.8657 12.9873 23.2776C12.9798 23.3053 12.9873 23.3255 12.9873 23.3532C12.9948 23.3532 12.9874 23.3596 12.9948 23.3596C13.0355 23.6001 13.1874 23.7789 13.3254 23.8938C13.4633 24.0109 13.5874 24.0865 13.6634 24.1482C13.6698 24.1482 13.6773 24.1546 13.6837 24.162C14.3458 24.6005 15.0764 24.7921 15.7171 25.0401C16.1578 25.2316 16.5376 25.5275 16.6274 25.9043C16.7376 26.3779 16.5312 26.926 16.268 27.4549V27.4624C15.5524 28.8609 14.4902 30.0816 13.1809 30.9798C12.491 31.446 11.7198 31.7962 10.9133 32.009C10.9058 32.009 10.8919 32.0154 10.879 32.0229C10.7132 32.0846 10.3207 32.1186 10.0725 32.489C10.0586 32.5167 10.0447 32.5443 10.0308 32.5784C9.94844 32.8115 10.0447 33.0658 10.1613 33.2095C10.2725 33.3404 10.3966 33.4224 10.5057 33.4767C10.5132 33.4767 10.5196 33.4841 10.5271 33.4841C11.2031 33.8747 11.9465 34.0386 12.6226 34.211C12.6301 34.211 12.6301 34.2174 12.6301 34.2174C13.1189 34.3207 13.5746 34.3824 13.9404 34.5399C13.9533 34.5676 13.995 34.691 14.0773 34.8964C14.2014 35.2668 14.257 35.6978 14.395 36.1587C14.4367 36.2821 14.5469 36.3854 14.6774 36.412C14.9876 36.4801 15.1534 36.3779 15.1812 36.3705C15.1951 36.3705 15.208 36.3705 15.223 36.3705C16.3536 36.1714 17.4906 36.0001 18.5314 36.2545C19.6203 36.5418 20.5713 37.29 21.6399 37.9275V37.935C22.3501 38.3734 23.1706 38.8056 24.1204 38.8396C24.1204 38.8396 24.1204 38.8396 24.1279 38.8396C24.8446 38.8811 25.5399 38.8332 26.2298 38.7928C26.2373 38.7928 26.2373 38.7928 26.2448 38.7928C26.8299 38.7374 27.3957 38.5384 27.8985 38.2298C27.906 38.2234 27.9135 38.2159 27.9199 38.2159C29.0441 37.5784 30.0367 36.8175 31.1321 36.3364H31.1396C31.4904 36.2129 31.9386 36.2193 32.4285 36.1853C32.4349 36.1853 32.4424 36.1853 32.4424 36.1853C33.3527 36.1576 34.2544 36.2055 35.1572 36.3226C35.185 36.33 35.2203 36.33 35.2471 36.3226C35.3711 36.3087 35.4952 36.2268 35.5573 36.1512C35.6257 36.0757 35.6396 36.0065 35.6535 35.9596C35.6813 35.8702 35.7028 35.8287 35.661 35.9043C35.676 35.8766 35.6888 35.8564 35.6953 35.8287C35.86 35.287 35.9499 34.8006 36.2194 34.4984C36.336 34.3813 36.5435 34.326 36.7767 34.326C36.7906 34.326 36.8109 34.326 36.8248 34.326C37.61 34.2376 38.3138 33.9556 38.9834 33.7225C38.9898 33.7161 39.0048 33.7161 39.0101 33.7161C39.2583 33.6065 39.6306 33.4831 39.8852 33.1329C39.8852 33.1329 39.8852 33.1329 39.8852 33.1265C40.098 32.8253 39.9964 32.4209 39.699 32.2432Z" fill="white" stroke="#222221" stroke-miterlimit="10"/>
</svg>
