<svg width="50" height="50" viewBox="0 0 50 50" fill="none" xmlns="http://www.w3.org/2000/svg">
<rect width="50" height="50" rx="25" fill="#C3271A"/>
<path d="M40.9631 17.5909C40.5873 16.1769 39.4812 15.064 38.0775 14.6864C35.5316 14 25.323 14 25.323 14C25.323 14 15.1136 14 12.5677 14.6864C11.1632 15.064 10.0571 16.1778 9.68206 17.5909C9 20.1532 9 25.4996 9 25.4996C9 25.4996 9 30.846 9.68206 33.4091C10.0579 34.8231 11.164 35.9361 12.5677 36.3136C15.1136 37 25.323 37 25.323 37C25.323 37 35.5316 37 38.0775 36.3136C39.482 35.9361 40.5881 34.8222 40.9631 33.4091C41.6461 30.8468 41.646 25.4996 41.646 25.4996C41.646 25.4996 41.6461 20.154 40.9631 17.5909Z" fill="white"/>
<path d="M21.9824 30.3546V20.6458L30.5155 25.5002L21.9824 30.3546Z" fill="#C3271A"/>
</svg>
